<?xml version="1.0" encoding="UTF-8" standalone="no"?>
<svg
   xmlns:dc="http://purl.org/dc/elements/1.1/"
   xmlns:cc="http://creativecommons.org/ns#"
   xmlns:rdf="http://www.w3.org/1999/02/22-rdf-syntax-ns#"
   xmlns:svg="http://www.w3.org/2000/svg"
   xmlns="http://www.w3.org/2000/svg"
   xmlns:sodipodi="http://sodipodi.sourceforge.net/DTD/sodipodi-0.dtd"
   xmlns:inkscape="http://www.inkscape.org/namespaces/inkscape"
   width="330"
   height="330"
   viewBox="0 0 87.312498 87.312502"
   version="1.1"
   id="svg8"
   inkscape:version="1.0.1 (3bc2e813f5, 2020-09-07)"
   sodipodi:docname="Sinus_Kosinus_Einheitskreis.svg">
  <defs
     id="defs2" />
  <sodipodi:namedview
     id="base"
     pagecolor="#ffffff"
     bordercolor="#666666"
     borderopacity="1.0"
     inkscape:pageopacity="0.0"
     inkscape:pageshadow="2"
     inkscape:zoom="1.4142136"
     inkscape:cx="47.88202"
     inkscape:cy="115.10961"
     inkscape:document-units="mm"
     inkscape:current-layer="layer1"
     inkscape:document-rotation="0"
     showgrid="true"
     units="px"
     showguides="true"
     inkscape:guide-bbox="true"
     inkscape:snap-page="true"
     inkscape:snap-bbox="true"
     inkscape:bbox-nodes="true"
     inkscape:window-width="1920"
     inkscape:window-height="1016"
     inkscape:window-x="0"
     inkscape:window-y="27"
     inkscape:window-maximized="1"
     inkscape:snap-bbox-midpoints="true"
     inkscape:snap-bbox-edge-midpoints="true"
     inkscape:object-paths="true"
     inkscape:bbox-paths="true"
     inkscape:snap-intersection-paths="true" />
  <metadata
     id="metadata5">
    <rdf:RDF>
      <cc:Work
         rdf:about="">
        <dc:format>image/svg+xml</dc:format>
        <dc:type
           rdf:resource="http://purl.org/dc/dcmitype/StillImage" />
        <dc:title />
      </cc:Work>
    </rdf:RDF>
  </metadata>
  <g
     inkscape:label="Ebene 1"
     inkscape:groupmode="layer"
     id="layer1">
    <rect
       style="fill:none;fill-opacity:0.497999;stroke:none;stroke-width:0.5115;stroke-linecap:round;stroke-linejoin:round"
       id="rect865"
       width="87.3125"
       height="87.3125"
       x="0"
       y="0" />
    <rect
       style="fill:none;fill-opacity:0.497999;stroke:none;stroke-width:0.465;stroke-linecap:round;stroke-linejoin:round"
       id="rect835"
       width="79.375"
       height="79.375"
       x="3.96875"
       y="3.96875" />
    <rect
       style="fill:#4d4d4d;fill-opacity:0.497999;stroke:none;stroke-width:0.139465;stroke-linecap:round;stroke-linejoin:round"
       id="rect841"
       width="4.9609375"
       height="79.375"
       x="12.488933"
       y="-16.621155"
       transform="rotate(-90)" />
    <path
       style="fill:none;stroke:#000000;stroke-width:0.6;stroke-linecap:butt;stroke-linejoin:miter;stroke-opacity:1;stroke-miterlimit:4;stroke-dasharray:none"
       d="M 8.9296874,83.343749 V 0"
       id="path843" />
    <path
       style="fill:none;stroke:#000000;stroke-width:0.6;stroke-linecap:butt;stroke-linejoin:miter;stroke-opacity:1;stroke-miterlimit:4;stroke-dasharray:none"
       d="M 3.9687499,78.38281 H 87.312507"
       id="path845" />
    <rect
       style="fill:#000000;fill-opacity:1;stroke:none;stroke-width:0.6;stroke-linecap:round;stroke-linejoin:round;stroke-miterlimit:4;stroke-dasharray:none"
       id="rect873"
       width="0.26458332"
       height="2.5466146"
       x="6.2754955"
       y="-6.2754951"
       transform="rotate(45)" />
    <rect
       style="fill:#000000;fill-opacity:1;stroke:none;stroke-width:0.6;stroke-linecap:round;stroke-linejoin:round;stroke-miterlimit:4;stroke-dasharray:none"
       id="rect875"
       width="0.26458332"
       height="2.5466146"
       x="6.0884066"
       y="6.3529902"
       transform="rotate(-45)" />
    <rect
       style="fill:#000000;fill-opacity:1;stroke:none;stroke-width:0.6;stroke-linecap:round;stroke-linejoin:round;stroke-miterlimit:4;stroke-dasharray:none"
       id="rect877"
       width="0.26458332"
       height="2.5466146"
       x="-6.3529935"
       y="-117.12552"
       transform="rotate(135)" />
    <rect
       style="fill:#000000;fill-opacity:1;stroke:none;stroke-width:0.6;stroke-linecap:round;stroke-linejoin:round;stroke-miterlimit:4;stroke-dasharray:none"
       id="rect879"
       width="0.26458332"
       height="2.5466146"
       x="116.93845"
       y="-6.2755017"
       transform="rotate(45)" />
    <path
       id="rect911"
       style="fill:#cccccc;fill-opacity:0.497999;stroke:none;stroke-width:2.26771657;stroke-linecap:round;stroke-linejoin:round;stroke-miterlimit:4;stroke-dasharray:none"
       d="M 315 296.25 A 281.25 281.25 0 0 1 314.99609 297.64648 A 281.25 281.25 0 0 1 314.98633 299.05664 A 281.25 281.25 0 0 1 314.96875 300.4668 A 281.25 281.25 0 0 1 314.94336 301.87695 A 281.25 281.25 0 0 1 314.91211 303.28711 A 281.25 281.25 0 0 1 314.87305 304.69531 A 281.25 281.25 0 0 1 314.82812 306.10547 A 281.25 281.25 0 0 1 314.77539 307.51562 A 281.25 281.25 0 0 1 314.71484 308.92383 A 281.25 281.25 0 0 1 314.64844 310.33203 A 281.25 281.25 0 0 1 314.57422 311.74023 A 281.25 281.25 0 0 1 314.49219 313.14844 A 281.25 281.25 0 0 1 314.4043 314.55664 A 281.25 281.25 0 0 1 314.375 315 L 315 315 L 315 296.25 z "
       transform="scale(0.26458333)" />
    <path
       id="path923"
       style="fill:none;fill-opacity:0.497999;stroke:#000000;stroke-width:2.26771657;stroke-linecap:round;stroke-linejoin:round;stroke-miterlimit:4;stroke-dasharray:none"
       d="M 314.41351 314.4141 A 281.25 281.25 0 0 0 314.49219 313.14844 A 281.25 281.25 0 0 0 314.57422 311.74023 A 281.25 281.25 0 0 0 314.64844 310.33203 A 281.25 281.25 0 0 0 314.71484 308.92383 A 281.25 281.25 0 0 0 314.77539 307.51562 A 281.25 281.25 0 0 0 314.82812 306.10547 A 281.25 281.25 0 0 0 314.87305 304.69531 A 281.25 281.25 0 0 0 314.91211 303.28711 A 281.25 281.25 0 0 0 314.94336 301.87695 A 281.25 281.25 0 0 0 314.96875 300.4668 A 281.25 281.25 0 0 0 314.98633 299.05664 A 281.25 281.25 0 0 0 314.99609 297.64648 A 281.25 281.25 0 0 0 315 296.25 A 281.25 281.25 0 0 0 314.99609 294.83984 A 281.25 281.25 0 0 0 314.98633 293.42969 A 281.25 281.25 0 0 0 314.96875 292.01953 A 281.25 281.25 0 0 0 314.94336 290.60938 A 281.25 281.25 0 0 0 314.91211 289.19922 A 281.25 281.25 0 0 0 314.87305 287.78906 A 281.25 281.25 0 0 0 314.82617 286.38086 A 281.25 281.25 0 0 0 314.77344 284.9707 A 281.25 281.25 0 0 0 314.71289 283.5625 A 281.25 281.25 0 0 0 314.64648 282.1543 A 281.25 281.25 0 0 0 314.57227 280.74609 A 281.25 281.25 0 0 0 314.49023 279.33789 A 281.25 281.25 0 0 0 314.40234 277.92969 A 281.25 281.25 0 0 0 314.30664 276.52344 A 281.25 281.25 0 0 0 314.20508 275.11719 A 281.25 281.25 0 0 0 314.0957 273.71094 A 281.25 281.25 0 0 0 313.97852 272.30469 A 281.25 281.25 0 0 0 313.85547 270.90039 A 281.25 281.25 0 0 0 313.72461 269.49609 A 281.25 281.25 0 0 0 313.58789 268.0918 A 281.25 281.25 0 0 0 313.44141 266.68945 A 281.25 281.25 0 0 0 313.29102 265.28711 A 281.25 281.25 0 0 0 313.13086 263.88672 A 281.25 281.25 0 0 0 312.9668 262.48633 A 281.25 281.25 0 0 0 312.79297 261.08594 A 281.25 281.25 0 0 0 312.61328 259.6875 A 281.25 281.25 0 0 0 312.42578 258.29102 A 281.25 281.25 0 0 0 312.23242 256.89258 A 281.25 281.25 0 0 0 312.03125 255.49805 A 281.25 281.25 0 0 0 311.82422 254.10352 A 281.25 281.25 0 0 0 311.60938 252.70898 A 281.25 281.25 0 0 0 311.38672 251.31641 A 281.25 281.25 0 0 0 311.1582 249.92383 A 281.25 281.25 0 0 0 310.92188 248.53516 A 281.25 281.25 0 0 0 310.67969 247.14453 A 281.25 281.25 0 0 0 310.42969 245.75781 A 281.25 281.25 0 0 0 310.17383 244.37109 A 281.25 281.25 0 0 0 309.91016 242.98438 A 281.25 281.25 0 0 0 309.63867 241.60156 A 281.25 281.25 0 0 0 309.36133 240.21875 A 281.25 281.25 0 0 0 309.07812 238.83789 A 281.25 281.25 0 0 0 308.78711 237.45703 A 281.25 281.25 0 0 0 308.48828 236.07812 A 281.25 281.25 0 0 0 308.18359 234.70312 A 281.25 281.25 0 0 0 307.87109 233.32617 A 281.25 281.25 0 0 0 307.55273 231.95312 A 281.25 281.25 0 0 0 307.22656 230.58203 A 281.25 281.25 0 0 0 306.89258 229.21094 A 281.25 281.25 0 0 0 306.55469 227.8418 A 281.25 281.25 0 0 0 306.20703 226.47461 A 281.25 281.25 0 0 0 305.85352 225.10938 A 281.25 281.25 0 0 0 305.49414 223.74609 A 281.25 281.25 0 0 0 305.12695 222.38477 A 281.25 281.25 0 0 0 304.75391 221.02539 A 281.25 281.25 0 0 0 304.37305 219.66602 A 281.25 281.25 0 0 0 303.98438 218.31055 A 281.25 281.25 0 0 0 303.5918 216.95703 A 281.25 281.25 0 0 0 303.18945 215.60547 A 281.25 281.25 0 0 0 302.7832 214.25586 A 281.25 281.25 0 0 0 302.36719 212.90625 A 281.25 281.25 0 0 0 301.94727 211.56055 A 281.25 281.25 0 0 0 301.51758 210.2168 A 281.25 281.25 0 0 0 301.08398 208.87695 A 281.25 281.25 0 0 0 300.64258 207.53711 A 281.25 281.25 0 0 0 300.19336 206.19922 A 281.25 281.25 0 0 0 299.73828 204.86523 A 281.25 281.25 0 0 0 299.27734 203.53125 A 281.25 281.25 0 0 0 298.80859 202.20117 A 281.25 281.25 0 0 0 298.33398 200.875 A 281.25 281.25 0 0 0 297.85352 199.54883 A 281.25 281.25 0 0 0 297.36523 198.22461 A 281.25 281.25 0 0 0 296.86914 196.9043 A 281.25 281.25 0 0 0 296.36914 195.58789 A 281.25 281.25 0 0 0 295.86133 194.27148 A 281.25 281.25 0 0 0 295.3457 192.95898 A 281.25 281.25 0 0 0 294.82422 191.64844 A 281.25 281.25 0 0 0 294.29688 190.33984 A 281.25 281.25 0 0 0 293.76172 189.03516 A 281.25 281.25 0 0 0 293.22266 187.73242 A 281.25 281.25 0 0 0 292.67383 186.43359 A 281.25 281.25 0 0 0 292.12109 185.13672 A 281.25 281.25 0 0 0 291.56055 183.8418 A 281.25 281.25 0 0 0 290.99414 182.55078 A 281.25 281.25 0 0 0 290.41992 181.26172 A 281.25 281.25 0 0 0 289.83984 179.97656 A 281.25 281.25 0 0 0 289.25391 178.69531 A 281.25 281.25 0 0 0 288.66211 177.41406 A 281.25 281.25 0 0 0 288.0625 176.13867 A 281.25 281.25 0 0 0 287.45703 174.86523 A 281.25 281.25 0 0 0 286.8457 173.59375 A 281.25 281.25 0 0 0 286.22656 172.32617 A 281.25 281.25 0 0 0 285.60156 171.0625 A 281.25 281.25 0 0 0 284.9707 169.80078 A 281.25 281.25 0 0 0 284.33398 168.54297 A 281.25 281.25 0 0 0 283.69141 167.28711 A 281.25 281.25 0 0 0 283.04102 166.03711 A 281.25 281.25 0 0 0 282.38477 164.78711 A 281.25 281.25 0 0 0 281.72266 163.54297 A 281.25 281.25 0 0 0 281.05469 162.30078 A 281.25 281.25 0 0 0 280.37891 161.0625 A 281.25 281.25 0 0 0 279.69922 159.82812 A 281.25 281.25 0 0 0 279.01172 158.5957 A 281.25 281.25 0 0 0 278.31836 157.36914 A 281.25 281.25 0 0 0 277.61914 156.14453 A 281.25 281.25 0 0 0 276.91211 154.92188 A 281.25 281.25 0 0 0 276.20117 153.70508 A 281.25 281.25 0 0 0 275.48242 152.49219 A 281.25 281.25 0 0 0 274.75977 151.28125 A 281.25 281.25 0 0 0 274.0293 150.07422 A 281.25 281.25 0 0 0 273.29297 148.87109 A 281.25 281.25 0 0 0 272.55078 147.67188 A 281.25 281.25 0 0 0 271.80273 146.47656 A 281.25 281.25 0 0 0 271.04883 145.28516 A 281.25 281.25 0 0 0 270.28906 144.09766 A 281.25 281.25 0 0 0 269.52344 142.91211 A 281.25 281.25 0 0 0 268.75195 141.73242 A 281.25 281.25 0 0 0 267.97461 140.55664 A 281.25 281.25 0 0 0 267.19141 139.38477 A 281.25 281.25 0 0 0 266.40039 138.21484 A 281.25 281.25 0 0 0 265.60547 137.05078 A 281.25 281.25 0 0 0 264.80469 135.89062 A 281.25 281.25 0 0 0 263.99805 134.73438 A 281.25 281.25 0 0 0 263.18555 133.58203 A 281.25 281.25 0 0 0 262.36719 132.43359 A 281.25 281.25 0 0 0 261.54297 131.28906 A 281.25 281.25 0 0 0 260.71289 130.14844 A 281.25 281.25 0 0 0 259.87695 129.01172 A 281.25 281.25 0 0 0 259.03516 127.88086 A 281.25 281.25 0 0 0 258.1875 126.75391 A 281.25 281.25 0 0 0 257.33594 125.63086 A 281.25 281.25 0 0 0 256.47656 124.51172 A 281.25 281.25 0 0 0 255.61328 123.39648 A 281.25 281.25 0 0 0 254.74414 122.28711 A 281.25 281.25 0 0 0 253.86914 121.17969 A 281.25 281.25 0 0 0 252.98828 120.07812 A 281.25 281.25 0 0 0 252.10156 118.98242 A 281.25 281.25 0 0 0 251.21094 117.88867 A 281.25 281.25 0 0 0 250.3125 116.80078 A 281.25 281.25 0 0 0 249.41016 115.7168 A 281.25 281.25 0 0 0 248.50195 114.63867 A 281.25 281.25 0 0 0 247.58984 113.56445 A 281.25 281.25 0 0 0 246.66992 112.49414 A 281.25 281.25 0 0 0 245.74609 111.42773 A 281.25 281.25 0 0 0 244.81641 110.36719 A 281.25 281.25 0 0 0 243.88281 109.3125 A 281.25 281.25 0 0 0 242.94336 108.25977 A 281.25 281.25 0 0 0 241.99805 107.21484 A 281.25 281.25 0 0 0 241.04688 106.17188 A 281.25 281.25 0 0 0 240.0918 105.13477 A 281.25 281.25 0 0 0 239.13086 104.10352 A 281.25 281.25 0 0 0 238.16406 103.07617 A 281.25 281.25 0 0 0 237.19336 102.05273 A 281.25 281.25 0 0 0 236.2168 101.03516 A 281.25 281.25 0 0 0 235.23633 100.02344 A 281.25 281.25 0 0 0 234.25 99.015624 A 281.25 281.25 0 0 0 233.25781 98.011718 A 281.25 281.25 0 0 0 232.26172 97.013671 A 281.25 281.25 0 0 0 231.25977 96.021483 A 281.25 281.25 0 0 0 230.25391 95.033202 A 281.25 281.25 0 0 0 229.24219 94.05078 A 281.25 281.25 0 0 0 228.22461 93.072265 A 281.25 281.25 0 0 0 227.20508 92.101561 A 281.25 281.25 0 0 0 226.17773 91.132811 A 281.25 281.25 0 0 0 225.14648 90.171874 A 281.25 281.25 0 0 0 224.11133 89.21289 A 281.25 281.25 0 0 0 223.07031 88.261718 A 281.25 281.25 0 0 0 222.02539 87.314452 A 281.25 281.25 0 0 0 220.97656 86.373046 A 281.25 281.25 0 0 0 219.92188 85.437499 A 281.25 281.25 0 0 0 218.86133 84.507811 A 281.25 281.25 0 0 0 217.79883 83.58203 A 281.25 281.25 0 0 0 216.72852 82.662108 A 281.25 281.25 0 0 0 215.65625 81.746093 A 281.25 281.25 0 0 0 214.57812 80.83789 A 281.25 281.25 0 0 0 213.49609 79.933593 A 281.25 281.25 0 0 0 212.4082 79.035155 A 281.25 281.25 0 0 0 211.31836 78.140624 A 281.25 281.25 0 0 0 210.2207 77.253905 A 281.25 281.25 0 0 0 209.12109 76.371093 A 281.25 281.25 0 0 0 208.01562 75.496093 A 281.25 281.25 0 0 0 206.9082 74.624999 A 281.25 281.25 0 0 0 205.79492 73.757811 A 281.25 281.25 0 0 0 204.67578 72.898437 A 281.25 281.25 0 0 0 203.55469 72.044921 A 281.25 281.25 0 0 0 202.42773 71.195311 A 281.25 281.25 0 0 0 201.29688 70.353515 A 281.25 281.25 0 0 0 200.16211 69.515624 A 281.25 281.25 0 0 0 199.02344 68.683593 A 281.25 281.25 0 0 0 197.88086 67.857421 A 281.25 281.25 0 0 0 196.73242 67.039061 A 281.25 281.25 0 0 0 195.58203 66.224608 A 281.25 281.25 0 0 0 194.42578 65.416015 A 281.25 281.25 0 0 0 193.26758 64.61328 A 281.25 281.25 0 0 0 192.10352 63.816405 A 281.25 281.25 0 0 0 190.93555 63.02539 A 281.25 281.25 0 0 0 189.76562 62.240233 A 281.25 281.25 0 0 0 188.58984 61.460937 A 281.25 281.25 0 0 0 187.41016 60.687499 A 281.25 281.25 0 0 0 186.22656 59.919921 A 281.25 281.25 0 0 0 185.04102 59.158202 A 281.25 281.25 0 0 0 183.84961 58.402343 A 281.25 281.25 0 0 0 182.6543 57.652343 A 281.25 281.25 0 0 0 181.45703 56.908202 A 281.25 281.25 0 0 0 180.25586 56.171874 A 281.25 281.25 0 0 0 179.04883 55.439452 A 281.25 281.25 0 0 0 177.83984 54.714843 A 281.25 281.25 0 0 0 176.62695 53.99414 A 281.25 281.25 0 0 0 175.41016 53.281249 A 281.25 281.25 0 0 0 174.19141 52.574218 A 281.25 281.25 0 0 0 172.9668 51.873046 A 281.25 281.25 0 0 0 171.74023 51.177733 A 281.25 281.25 0 0 0 170.50977 50.48828 A 281.25 281.25 0 0 0 169.27539 49.80664 A 281.25 281.25 0 0 0 168.03711 49.130858 A 281.25 281.25 0 0 0 166.79688 48.458983 A 281.25 281.25 0 0 0 165.55273 47.794921 A 281.25 281.25 0 0 0 164.30469 47.138671 A 281.25 281.25 0 0 0 163.05469 46.486327 A 281.25 281.25 0 0 0 161.80078 45.841796 A 281.25 281.25 0 0 0 160.54297 45.203124 A 281.25 281.25 0 0 0 159.2832 44.570311 A 281.25 281.25 0 0 0 158.01953 43.943358 A 281.25 281.25 0 0 0 156.75391 43.324218 A 281.25 281.25 0 0 0 155.48242 42.710937 A 281.25 281.25 0 0 0 154.21094 42.103515 A 281.25 281.25 0 0 0 152.93555 41.501952 A 281.25 281.25 0 0 0 151.65625 40.908202 A 281.25 281.25 0 0 0 150.375 40.320311 A 281.25 281.25 0 0 0 149.08984 39.73828 A 281.25 281.25 0 0 0 147.80078 39.162109 A 281.25 281.25 0 0 0 146.51172 38.59375 A 281.25 281.25 0 0 0 145.21875 38.03125 A 281.25 281.25 0 0 0 143.92188 37.476562 A 281.25 281.25 0 0 0 142.62305 36.927734 A 281.25 281.25 0 0 0 141.32031 36.384766 A 281.25 281.25 0 0 0 140.01758 35.847656 A 281.25 281.25 0 0 0 138.70898 35.318359 A 281.25 281.25 0 0 0 137.40039 34.796875 A 281.25 281.25 0 0 0 136.08789 34.279297 A 281.25 281.25 0 0 0 134.77344 33.769531 A 281.25 281.25 0 0 0 133.45508 33.265625 A 281.25 281.25 0 0 0 132.13672 32.769531 A 281.25 281.25 0 0 0 130.81445 32.279297 A 281.25 281.25 0 0 0 129.48828 31.796875 A 281.25 281.25 0 0 0 128.16211 31.320312 A 281.25 281.25 0 0 0 126.83203 30.849609 A 281.25 281.25 0 0 0 125.5 30.386719 A 281.25 281.25 0 0 0 124.16602 29.929688 A 281.25 281.25 0 0 0 122.83008 29.480469 A 281.25 281.25 0 0 0 121.49023 29.037109 A 281.25 281.25 0 0 0 120.15039 28.599609 A 281.25 281.25 0 0 0 118.80664 28.169922 A 281.25 281.25 0 0 0 117.46094 27.746094 A 281.25 281.25 0 0 0 116.11328 27.330078 A 281.25 281.25 0 0 0 114.76367 26.919922 A 281.25 281.25 0 0 0 113.41211 26.517578 A 281.25 281.25 0 0 0 112.05859 26.121094 A 281.25 281.25 0 0 0 110.70312 25.732422 A 281.25 281.25 0 0 0 109.34766 25.349609 A 281.25 281.25 0 0 0 107.98828 24.974609 A 281.25 281.25 0 0 0 106.62695 24.605469 A 281.25 281.25 0 0 0 105.26367 24.244141 A 281.25 281.25 0 0 0 103.89844 23.888672 A 281.25 281.25 0 0 0 102.53125 23.541016 A 281.25 281.25 0 0 0 101.16406 23.199219 A 281.25 281.25 0 0 0 99.792968 22.863281 A 281.25 281.25 0 0 0 98.421874 22.537109 A 281.25 281.25 0 0 0 97.048827 22.214844 A 281.25 281.25 0 0 0 95.673827 21.902344 A 281.25 281.25 0 0 0 94.296874 21.59375 A 281.25 281.25 0 0 0 92.919921 21.294922 A 281.25 281.25 0 0 0 91.541015 21.001953 A 281.25 281.25 0 0 0 90.160155 20.714844 A 281.25 281.25 0 0 0 88.777343 20.435547 A 281.25 281.25 0 0 0 87.39453 20.164062 A 281.25 281.25 0 0 0 86.007811 19.898438 A 281.25 281.25 0 0 0 84.623046 19.638672 A 281.25 281.25 0 0 0 83.234374 19.386719 A 281.25 281.25 0 0 0 81.845702 19.142578 A 281.25 281.25 0 0 0 80.455077 18.904297 A 281.25 281.25 0 0 0 79.064452 18.673828 A 281.25 281.25 0 0 0 77.671874 18.451172 A 281.25 281.25 0 0 0 76.279296 18.234375 A 281.25 281.25 0 0 0 74.884765 18.023438 A 281.25 281.25 0 0 0 73.48828 17.822266 A 281.25 281.25 0 0 0 72.091796 17.625 A 281.25 281.25 0 0 0 70.695311 17.4375 A 281.25 281.25 0 0 0 69.296874 17.255859 A 281.25 281.25 0 0 0 67.896483 17.080078 A 281.25 281.25 0 0 0 66.496093 16.912109 A 281.25 281.25 0 0 0 65.095702 16.751953 A 281.25 281.25 0 0 0 63.693358 16.597656 A 281.25 281.25 0 0 0 62.291015 16.451172 A 281.25 281.25 0 0 0 60.886718 16.3125 A 281.25 281.25 0 0 0 59.484374 16.179688 A 281.25 281.25 0 0 0 58.078124 16.054688 A 281.25 281.25 0 0 0 56.673827 15.935547 A 281.25 281.25 0 0 0 55.267577 15.824219 A 281.25 281.25 0 0 0 53.861327 15.720703 A 281.25 281.25 0 0 0 52.455077 15.623047 A 281.25 281.25 0 0 0 51.046874 15.533203 A 281.25 281.25 0 0 0 49.640624 15.449219 A 281.25 281.25 0 0 0 48.232421 15.373047 A 281.25 281.25 0 0 0 46.822265 15.304688 A 281.25 281.25 0 0 0 45.414061 15.242188 A 281.25 281.25 0 0 0 44.005858 15.1875 A 281.25 281.25 0 0 0 42.595702 15.138672 A 281.25 281.25 0 0 0 41.185546 15.097656 A 281.25 281.25 0 0 0 39.77539 15.064453 A 281.25 281.25 0 0 0 38.365234 15.037109 A 281.25 281.25 0 0 0 36.957031 15.017578 A 281.25 281.25 0 0 0 35.544922 15.005859 A 281.25 281.25 0 0 0 34.134766 15 L 33.365234 15 A 281.25 281.25 0 0 0 31.955078 15.005859 A 281.25 281.25 0 0 0 30.544922 15.017578 A 281.25 281.25 0 0 0 29.134766 15.037109 A 281.25 281.25 0 0 0 27.724609 15.064453 A 281.25 281.25 0 0 0 26.314453 15.097656 A 281.25 281.25 0 0 0 24.90625 15.138672 A 281.25 281.25 0 0 0 23.496094 15.1875 A 281.25 281.25 0 0 0 22.085938 15.242188 A 281.25 281.25 0 0 0 20.677734 15.304688 A 281.25 281.25 0 0 0 19.269531 15.373047 A 281.25 281.25 0 0 0 17.861328 15.449219 A 281.25 281.25 0 0 0 16.453125 15.533203 A 281.25 281.25 0 0 0 15.587891 15.587891 L 15.587891 15.587891 A 281.25 281.25 0 0 0 15.587891 15.587891 "
       transform="scale(0.26458333)" />
    <path
       id="path958"
       style="fill:none;fill-opacity:0.62352943;stroke:#ff0000;stroke-width:2.26771657;stroke-linecap:round;stroke-linejoin:round;stroke-miterlimit:4;stroke-dasharray:none;stroke-opacity:1"
       d="M 65.021484 264.97852 L 33.75 296.25 L 77.974609 296.25 A 44.224694 44.224694 0 0 0 65.021484 264.97852 z "
       transform="scale(0.26458333)" />
    <path
       style="fill:none;stroke:#000000;stroke-width:0.6;stroke-linecap:butt;stroke-linejoin:miter;stroke-opacity:1;stroke-miterlimit:4;stroke-dasharray:none"
       d="M 8.9296874,78.382809 61.548496,25.764 v 52.618809 z"
       id="path950" />
    <path
       id="path952"
       style="fill:none;fill-opacity:0.6156863;stroke:#000000;stroke-width:2.26771657;stroke-linecap:round;stroke-linejoin:round;stroke-miterlimit:4;stroke-dasharray:none;stroke-opacity:1"
       d="M 232.625 256.48633 A 39.762969 39.762969 0 0 0 192.86133 296.25 L 232.625 296.25 L 232.625 256.48633 z "
       transform="scale(0.26458333)" />
    <circle
       style="fill:#000000;fill-opacity:1;stroke:#000000;stroke-width:0.6;stroke-linecap:round;stroke-linejoin:round;stroke-miterlimit:4;stroke-dasharray:none"
       id="path966"
       cx="57.555412"
       cy="74.362167"
       r="0.35544908" />
    <text
       xml:space="preserve"
       style="font-style:normal;font-variant:normal;font-weight:normal;font-stretch:normal;font-size:5.1944px;line-height:1.25;font-family:sans-serif;-inkscape-font-specification:sans-serif;stroke-width:0.264583;fill:#ff0000;"
       x="14.493639"
       y="77.149956"
       id="text970"><tspan
         sodipodi:role="line"
         id="tspan968"
         x="14.493639"
         y="77.149956"
         style="font-style:normal;font-variant:normal;font-weight:normal;font-stretch:normal;font-family:sans-serif;-inkscape-font-specification:sans-serif;stroke-width:0.264583;fill:#ff0000;">α</tspan></text>
    <text
       xml:space="preserve"
       style="font-style:normal;font-variant:normal;font-weight:normal;font-stretch:normal;font-size:5.1944px;line-height:1.25;font-family:sans-serif;-inkscape-font-specification:sans-serif;stroke-width:0.264583"
       x="84.393196"
       y="83.079025"
       id="text974"><tspan
         sodipodi:role="line"
         id="tspan972"
         x="84.393196"
         y="83.079025"
         style="font-style:normal;font-variant:normal;font-weight:normal;font-stretch:normal;font-family:sans-serif;-inkscape-font-specification:sans-serif;stroke-width:0.264583">y</tspan></text>
    <text
       xml:space="preserve"
       style="font-style:normal;font-variant:normal;font-weight:normal;font-stretch:normal;font-size:5.1944px;line-height:1.25;font-family:sans-serif;-inkscape-font-specification:sans-serif;stroke-width:0.264583"
       x="10.63557"
       y="3.4081609"
       id="text978"><tspan
         sodipodi:role="line"
         id="tspan976"
         x="10.63557"
         y="3.4081609"
         style="font-style:normal;font-variant:normal;font-weight:normal;font-stretch:normal;font-family:sans-serif;-inkscape-font-specification:sans-serif;stroke-width:0.264583">x</tspan></text>
    <text
       xml:space="preserve"
       style="font-style:normal;font-variant:normal;font-weight:normal;font-stretch:normal;font-size:5.1944px;line-height:1.25;font-family:sans-serif;-inkscape-font-specification:sans-serif;stroke-width:0.264583;fill:#00ff00;fill-opacity:1;"
       x="29.511581"
       y="76.903275"
       id="text982"><tspan
         sodipodi:role="line"
         id="tspan980"
         x="29.511581"
         y="76.903275"
         style="font-style:normal;font-variant:normal;font-weight:normal;font-stretch:normal;font-family:sans-serif;-inkscape-font-specification:sans-serif;stroke-width:0.264583;fill:#00ff00;fill-opacity:1;">cos(α)</tspan></text>
    <text
       xml:space="preserve"
       style="font-style:normal;font-variant:normal;font-weight:normal;font-stretch:normal;font-size:5.1944px;line-height:1.25;font-family:sans-serif;-inkscape-font-specification:sans-serif;stroke-width:0.264583;fill:#0000ff;fill-opacity:1;stroke:none;"
       x="62.381603"
       y="56.40649"
       id="text986"><tspan
         sodipodi:role="line"
         id="tspan984"
         x="62.381603"
         y="56.40649"
         style="font-style:normal;font-variant:normal;font-weight:normal;font-stretch:normal;font-family:sans-serif;-inkscape-font-specification:sans-serif;stroke-width:0.264583;fill:#0000ff;fill-opacity:1;stroke:none;">sin(α)</tspan></text>
    <text
       xml:space="preserve"
       style="font-style:normal;font-variant:normal;font-weight:normal;font-stretch:normal;font-size:6.69397px;line-height:1.25;font-family:sans-serif;-inkscape-font-specification:sans-serif;stroke-width:0.264583"
       x="-55.279728"
       y="30.040737"
       id="text990"><tspan
         sodipodi:role="line"
         id="tspan988"
         x="-55.279728"
         y="30.040737"
         style="font-style:normal;font-variant:normal;font-weight:normal;font-stretch:normal;font-family:sans-serif;-inkscape-font-specification:sans-serif;stroke-width:0.264583">α</tspan></text>
    <text
       xml:space="preserve"
       style="font-style:normal;font-variant:normal;font-weight:normal;font-stretch:normal;font-size:6.69397px;line-height:1.25;font-family:sans-serif;-inkscape-font-specification:sans-serif;stroke-width:0.264583"
       x="-68.351463"
       y="23.801128"
       id="text994"><tspan
         sodipodi:role="line"
         id="tspan992"
         x="-68.351463"
         y="23.801128"
         style="font-style:normal;font-variant:normal;font-weight:normal;font-stretch:normal;font-family:sans-serif;-inkscape-font-specification:sans-serif;stroke-width:0.264583">y</tspan></text>
    <text
       xml:space="preserve"
       style="font-style:normal;font-variant:normal;font-weight:normal;font-stretch:normal;font-size:6.69397px;line-height:1.25;font-family:sans-serif;-inkscape-font-specification:sans-serif;stroke-width:0.264583"
       x="-65.393219"
       y="32.374592"
       id="text998"><tspan
         sodipodi:role="line"
         id="tspan996"
         x="-65.393219"
         y="32.374592"
         style="font-style:normal;font-variant:normal;font-weight:normal;font-stretch:normal;font-family:sans-serif;-inkscape-font-specification:sans-serif;stroke-width:0.264583">x</tspan></text>
    <text
       xml:space="preserve"
       style="font-style:normal;font-variant:normal;font-weight:normal;font-stretch:normal;font-size:6.69397px;line-height:1.25;font-family:sans-serif;-inkscape-font-specification:sans-serif;stroke-width:0.264583"
       x="-57.695412"
       y="22.623333"
       id="text1002"><tspan
         sodipodi:role="line"
         id="tspan1000"
         x="-57.695412"
         y="22.623333"
         style="font-style:normal;font-variant:normal;font-weight:normal;font-stretch:normal;font-family:sans-serif;-inkscape-font-specification:sans-serif;stroke-width:0.264583">cos(α)</tspan></text>
    <text
       xml:space="preserve"
       style="font-style:normal;font-variant:normal;font-weight:normal;font-stretch:normal;font-size:6.69397px;line-height:1.25;font-family:sans-serif;-inkscape-font-specification:sans-serif;stroke-width:0.264583"
       x="-72.7752"
       y="8.0676079"
       id="text1006"><tspan
         sodipodi:role="line"
         id="tspan1004"
         x="-72.7752"
         y="8.0676079"
         style="font-style:normal;font-variant:normal;font-weight:normal;font-stretch:normal;font-family:sans-serif;-inkscape-font-specification:sans-serif;stroke-width:0.264583">sin(α)</tspan></text>
    <g
       id="g1077"
       transform="translate(14.641736,24.195965)">
      <text
         xml:space="preserve"
         style="font-size:10.5833px;line-height:1.25;font-family:Ubuntu;-inkscape-font-specification:Ubuntu;stroke-width:0.043847"
         x="136.04904"
         y="268.59763"
         id="text1028"><tspan
           sodipodi:role="line"
           id="tspan1026"
           x="136.04904"
           y="268.59763"
           style="stroke-width:0.043847" /></text>
      <text
         xml:space="preserve"
         style="font-size:10.5833px;line-height:1.25;font-family:Ubuntu;-inkscape-font-specification:Ubuntu;stroke-width:0.264583"
         x="169.57494"
         y="275.71509"
         id="text1046"><tspan
           sodipodi:role="line"
           id="tspan1044"
           x="169.57494"
           y="275.71509"
           style="stroke-width:0.264583" /></text>
      <text
         xml:space="preserve"
         style="font-style:normal;font-variant:normal;font-weight:normal;font-stretch:normal;font-size:6.35px;line-height:1.25;font-family:sans-serif;-inkscape-font-specification:sans-serif;stroke-width:0.043847"
         x="39.275169"
         y="297.49222"
         id="text1140"><tspan
           sodipodi:role="line"
           id="tspan1138"
           x="39.275169"
           y="297.49222"
           style="font-style:normal;font-variant:normal;font-weight:normal;font-stretch:normal;font-size:6.35px;font-family:sans-serif;-inkscape-font-specification:sans-serif;stroke-width:0.043847" /></text>
      <g
         id="g1340"
         transform="translate(6.5496797,8.8416981)">
        <path
           id="path1278"
           style="fill:#00ff00;fill-opacity:0.622057;stroke:#00ff00;stroke-width:1.003;stroke-linecap:round;stroke-linejoin:round;stroke-miterlimit:4;stroke-dasharray:none;stroke-opacity:1"
           d="m 45.599005,84.099078 -25.97228,14.9949 h 29.98983 a 31.777635,31.777635 0 0 0 -4.01755,-14.9949 z" />
        <path
           id="path1280"
           style="fill:#0066ff;fill-opacity:0.615959;stroke:#0066ff;stroke-width:1.003;stroke-linecap:round;stroke-linejoin:round;stroke-miterlimit:4;stroke-dasharray:none;stroke-opacity:1"
           d="m 132.87949,33.707452 -16.67638,9.628434 a 19.256453,19.256453 0 0 0 16.67638,9.628432 19.256453,19.256453 0 0 0 9.62843,-2.58048 z" />
        <path
           style="fill:none;stroke:#000000;stroke-width:1.079;stroke-linecap:round;stroke-linejoin:round;stroke-miterlimit:4;stroke-dasharray:none;stroke-opacity:1"
           d="M 170.63043,99.093978 132.87949,33.707452 19.626725,99.093978 Z"
           id="path1284" />
        <g
           aria-label="Ankathete von Winkel α"
           transform="rotate(-30)"
           id="text1304"
           style="font-style:normal;font-variant:normal;font-weight:normal;font-stretch:normal;font-size:6.35px;line-height:1.25;font-family:sans-serif;-inkscape-font-specification:sans-serif;stroke-width:0.043847">
          <path
             d="m 0.15092227,87.339458 -0.84956054,2.303735 H 1.0035834 Z m -0.3534668,-0.617017 H 0.50748964 L 2.271723,91.351616 H 1.6206 L 1.1989203,90.164092 h -2.08669431 l -0.42167969,1.187524 h -0.6604248 z"
             style="font-style:normal;font-variant:normal;font-weight:normal;font-stretch:normal;font-size:6.35px;font-family:sans-serif;-inkscape-font-specification:sans-serif;stroke-width:0.043847"
             id="path1126" />
          <path
             d="m 5.8094914,89.25562 v 2.095996 H 5.2389836 v -2.077393 q 0,-0.492993 -0.1922363,-0.737939 -0.1922364,-0.244946 -0.576709,-0.244946 -0.4619873,0 -0.7286377,0.294555 -0.2666504,0.294556 -0.2666504,0.803052 v 1.962671 H 2.9011418 V 87.87896 h 0.5736084 v 0.539502 q 0.2046387,-0.31316 0.4805908,-0.468189 0.2790528,-0.155029 0.6418213,-0.155029 0.5984131,0 0.9053711,0.37207 0.306958,0.36897 0.306958,1.088306 z"
             style="font-style:normal;font-variant:normal;font-weight:normal;font-stretch:normal;font-size:6.35px;font-family:sans-serif;-inkscape-font-specification:sans-serif;stroke-width:0.043847"
             id="path1128" />
          <path
             d="m 6.9257018,86.527104 h 0.5736084 v 2.849439 L 9.2015318,87.87896 h 0.7286377 l -1.841748,1.624707 1.9192625,1.847949 H 9.2635436 L 7.4993102,89.655595 v 1.696021 H 6.9257018 Z"
             style="font-style:normal;font-variant:normal;font-weight:normal;font-stretch:normal;font-size:6.35px;font-family:sans-serif;-inkscape-font-specification:sans-serif;stroke-width:0.043847"
             id="path1130" />
          <path
             d="m 12.091278,89.605986 q -0.691431,0 -0.958081,0.15813 -0.26665,0.15813 -0.26665,0.539502 0,0.303857 0.198437,0.483691 0.201538,0.176734 0.545703,0.176734 0.47439,0 0.759644,-0.334864 0.288354,-0.337963 0.288354,-0.896069 v -0.127124 z m 1.137915,-0.235644 v 1.981274 h -0.570508 v -0.5271 q -0.195337,0.31626 -0.486792,0.468189 -0.291455,0.148828 -0.713135,0.148828 -0.5333,0 -0.84956,-0.297656 -0.313159,-0.300757 -0.313159,-0.803052 0,-0.586011 0.390674,-0.883667 0.393774,-0.297656 1.172021,-0.297656 h 0.799951 v -0.05581 q 0,-0.393774 -0.260449,-0.607715 -0.257349,-0.217041 -0.725537,-0.217041 -0.297656,0 -0.57981,0.07131 -0.282153,0.07131 -0.542602,0.21394 V 88.03709 q 0.313159,-0.120923 0.607715,-0.179834 0.294555,-0.06201 0.573608,-0.06201 0.753442,0 1.125513,0.390674 0.37207,0.390674 0.37207,1.184424 z"
             style="font-style:normal;font-variant:normal;font-weight:normal;font-stretch:normal;font-size:6.35px;font-family:sans-serif;-inkscape-font-specification:sans-serif;stroke-width:0.043847"
             id="path1132" />
          <path
             d="m 14.968622,86.892973 v 0.985987 h 1.175122 v 0.443383 H 14.968622 V 90.2075 q 0,0.42478 0.114721,0.545703 0.117823,0.120923 0.47439,0.120923 h 0.586011 v 0.47749 h -0.586011 q -0.660425,0 -0.911572,-0.244946 -0.251148,-0.248047 -0.251148,-0.89917 V 88.322343 H 13.976434 V 87.87896 h 0.418579 v -0.985987 z"
             style="font-style:normal;font-variant:normal;font-weight:normal;font-stretch:normal;font-size:6.35px;font-family:sans-serif;-inkscape-font-specification:sans-serif;stroke-width:0.043847"
             id="path1134" />
          <path
             d="m 19.780731,89.25562 v 2.095996 h -0.570507 v -2.077393 q 0,-0.492993 -0.192237,-0.737939 -0.192236,-0.244946 -0.576709,-0.244946 -0.461987,0 -0.728637,0.294555 -0.266651,0.294556 -0.266651,0.803052 v 1.962671 h -0.573608 v -4.824512 h 0.573608 v 1.891358 q 0.204639,-0.31316 0.480591,-0.468189 0.279053,-0.155029 0.641821,-0.155029 0.598413,0 0.905371,0.37207 0.306958,0.36897 0.306958,1.088306 z"
             style="font-style:normal;font-variant:normal;font-weight:normal;font-stretch:normal;font-size:6.35px;font-family:sans-serif;-inkscape-font-specification:sans-serif;stroke-width:0.043847"
             id="path1136" />
          <path
             d="m 23.889008,89.472661 v 0.279053 h -2.623095 q 0.03721,0.589111 0.353466,0.899169 0.319361,0.306958 0.886768,0.306958 0.328662,0 0.63562,-0.08062 0.310059,-0.08061 0.613916,-0.241845 v 0.539502 q -0.306958,0.130224 -0.629419,0.198437 -0.322461,0.06821 -0.654224,0.06821 -0.830957,0 -1.317749,-0.483692 Q 20.6706,90.47415 20.6706,89.649394 q 0,-0.852661 0.458887,-1.351855 0.461987,-0.502295 1.243335,-0.502295 0.700732,0 1.106909,0.452685 0.409277,0.449585 0.409277,1.224732 z M 23.3185,89.305229 q -0.0062,-0.468188 -0.263549,-0.747241 -0.254248,-0.279053 -0.675928,-0.279053 -0.47749,0 -0.765845,0.269751 -0.285254,0.269751 -0.328662,0.759644 z"
             style="font-style:normal;font-variant:normal;font-weight:normal;font-stretch:normal;font-size:6.35px;font-family:sans-serif;-inkscape-font-specification:sans-serif;stroke-width:0.043847"
             id="path1138" />
          <path
             d="m 25.389692,86.892973 v 0.985987 h 1.175122 v 0.443383 H 25.389692 V 90.2075 q 0,0.42478 0.114721,0.545703 0.117823,0.120923 0.47439,0.120923 h 0.586011 v 0.47749 h -0.586011 q -0.660425,0 -0.911572,-0.244946 -0.251148,-0.248047 -0.251148,-0.89917 V 88.322343 H 24.397504 V 87.87896 h 0.418579 v -0.985987 z"
             style="font-style:normal;font-variant:normal;font-weight:normal;font-stretch:normal;font-size:6.35px;font-family:sans-serif;-inkscape-font-specification:sans-serif;stroke-width:0.043847"
             id="path1140" />
          <path
             d="m 30.285515,89.472661 v 0.279053 H 27.66242 q 0.03721,0.589111 0.353467,0.899169 0.31936,0.306958 0.886767,0.306958 0.328662,0 0.63562,-0.08062 0.310059,-0.08061 0.613916,-0.241845 v 0.539502 q -0.306958,0.130224 -0.629419,0.198437 -0.322461,0.06821 -0.654223,0.06821 -0.830957,0 -1.317749,-0.483692 -0.483692,-0.483691 -0.483692,-1.308447 0,-0.852661 0.458887,-1.351855 0.461987,-0.502295 1.243335,-0.502295 0.700732,0 1.106909,0.452685 0.409277,0.449585 0.409277,1.224732 z m -0.570507,-0.167432 q -0.0062,-0.468188 -0.26355,-0.747241 -0.254248,-0.279053 -0.675928,-0.279053 -0.47749,0 -0.765845,0.269751 -0.285254,0.269751 -0.328662,0.759644 z"
             style="font-style:normal;font-variant:normal;font-weight:normal;font-stretch:normal;font-size:6.35px;font-family:sans-serif;-inkscape-font-specification:sans-serif;stroke-width:0.043847"
             id="path1142" />
          <path
             d="m 32.831097,87.87896 h 0.604615 l 1.085205,2.91455 1.085205,-2.91455 h 0.604614 l -1.302246,3.472656 h -0.775147 z"
             style="font-style:normal;font-variant:normal;font-weight:normal;font-stretch:normal;font-size:6.35px;font-family:sans-serif;-inkscape-font-specification:sans-serif;stroke-width:0.043847"
             id="path1144" />
          <path
             d="m 38.343941,88.278935 q -0.458887,0 -0.725537,0.359668 -0.266651,0.356568 -0.266651,0.979785 0,0.623218 0.26355,0.982886 0.26665,0.356567 0.728638,0.356567 0.455786,0 0.722436,-0.359667 0.266651,-0.359668 0.266651,-0.979786 0,-0.617016 -0.266651,-0.976684 -0.26665,-0.362769 -0.722436,-0.362769 z m 0,-0.483691 q 0.74414,0 1.16892,0.483691 0.424781,0.483692 0.424781,1.339453 0,0.852662 -0.424781,1.339453 -0.42478,0.483692 -1.16892,0.483692 -0.747242,0 -1.172022,-0.483692 -0.42168,-0.486791 -0.42168,-1.339453 0,-0.855761 0.42168,-1.339453 0.42478,-0.483691 1.172022,-0.483691 z"
             style="font-style:normal;font-variant:normal;font-weight:normal;font-stretch:normal;font-size:6.35px;font-family:sans-serif;-inkscape-font-specification:sans-serif;stroke-width:0.043847"
             id="path1146" />
          <path
             d="m 43.769964,89.25562 v 2.095996 h -0.570507 v -2.077393 q 0,-0.492993 -0.192237,-0.737939 -0.192236,-0.244946 -0.576709,-0.244946 -0.461987,0 -0.728637,0.294555 -0.266651,0.294556 -0.266651,0.803052 v 1.962671 H 40.861615 V 87.87896 h 0.573608 v 0.539502 q 0.204639,-0.31316 0.480591,-0.468189 0.279053,-0.155029 0.641821,-0.155029 0.598413,0 0.905371,0.37207 0.306958,0.36897 0.306958,1.088306 z"
             style="font-style:normal;font-variant:normal;font-weight:normal;font-stretch:normal;font-size:6.35px;font-family:sans-serif;-inkscape-font-specification:sans-serif;stroke-width:0.043847"
             id="path1148" />
          <path
             d="m 46.538787,86.722441 h 0.63252 l 0.973583,3.91294 0.970484,-3.91294 h 0.703833 l 0.973584,3.91294 0.970483,-3.91294 h 0.63562 l -1.162719,4.629175 h -0.787549 l -0.976685,-4.018359 -0.985986,4.018359 h -0.787549 z"
             style="font-style:normal;font-variant:normal;font-weight:normal;font-stretch:normal;font-size:6.35px;font-family:sans-serif;-inkscape-font-specification:sans-serif;stroke-width:0.043847"
             id="path1150" />
          <path
             d="m 53.06552,87.87896 h 0.570508 v 3.472656 H 53.06552 Z m 0,-1.351856 h 0.570508 v 0.722437 H 53.06552 Z"
             style="font-style:normal;font-variant:normal;font-weight:normal;font-stretch:normal;font-size:6.35px;font-family:sans-serif;-inkscape-font-specification:sans-serif;stroke-width:0.043847"
             id="path1152" />
          <path
             d="m 57.716398,89.25562 v 2.095996 h -0.570507 v -2.077393 q 0,-0.492993 -0.192237,-0.737939 -0.192236,-0.244946 -0.576709,-0.244946 -0.461987,0 -0.728637,0.294555 -0.266651,0.294556 -0.266651,0.803052 v 1.962671 H 54.808049 V 87.87896 h 0.573608 v 0.539502 q 0.204639,-0.31316 0.480591,-0.468189 0.279053,-0.155029 0.641821,-0.155029 0.598413,0 0.905371,0.37207 0.306958,0.36897 0.306958,1.088306 z"
             style="font-style:normal;font-variant:normal;font-weight:normal;font-stretch:normal;font-size:6.35px;font-family:sans-serif;-inkscape-font-specification:sans-serif;stroke-width:0.043847"
             id="path1154" />
          <path
             d="m 58.832612,86.527104 h 0.573608 v 2.849439 l 1.702222,-1.497583 h 0.728637 l -1.841748,1.624707 1.919263,1.847949 h -0.74414 L 59.40622,89.655595 v 1.696021 h -0.573608 z"
             style="font-style:normal;font-variant:normal;font-weight:normal;font-stretch:normal;font-size:6.35px;font-family:sans-serif;-inkscape-font-specification:sans-serif;stroke-width:0.043847"
             id="path1156" />
          <path
             d="m 65.275628,89.472661 v 0.279053 h -2.623096 q 0.03721,0.589111 0.353467,0.899169 0.31936,0.306958 0.886767,0.306958 0.328663,0 0.635621,-0.08062 0.310058,-0.08061 0.613916,-0.241845 v 0.539502 q -0.306958,0.130224 -0.629419,0.198437 -0.322461,0.06821 -0.654224,0.06821 -0.830957,0 -1.317749,-0.483692 -0.483691,-0.483691 -0.483691,-1.308447 0,-0.852661 0.458886,-1.351855 0.461988,-0.502295 1.243335,-0.502295 0.700733,0 1.106909,0.452685 0.409278,0.449585 0.409278,1.224732 z M 64.70512,89.305229 q -0.0062,-0.468188 -0.26355,-0.747241 -0.254248,-0.279053 -0.675928,-0.279053 -0.47749,0 -0.765844,0.269751 -0.285254,0.269751 -0.328662,0.759644 z"
             style="font-style:normal;font-variant:normal;font-weight:normal;font-stretch:normal;font-size:6.35px;font-family:sans-serif;-inkscape-font-specification:sans-serif;stroke-width:0.043847"
             id="path1158" />
          <path
             d="m 66.212005,86.527104 h 0.570508 v 4.824512 h -0.570508 z"
             style="font-style:normal;font-variant:normal;font-weight:normal;font-stretch:normal;font-size:6.35px;font-family:sans-serif;-inkscape-font-specification:sans-serif;stroke-width:0.043847"
             id="path1160" />
          <path
             d="m 72.019402,89.736211 -0.136426,-0.716236 q -0.139526,-0.734839 -0.69143,-0.734839 -0.415479,0 -0.604615,0.341065 -0.238745,0.427881 -0.238745,0.992187 0,0.682129 0.232544,1.007691 0.235645,0.331762 0.610816,0.331762 0.415478,0 0.63872,-0.660424 z m 0.319361,-0.94878 0.306958,-0.908471 h 0.508496 l -0.63562,1.882055 0.124023,0.679029 q 0.02791,0.151928 0.136426,0.279052 0.127124,0.148829 0.226342,0.148829 h 0.272852 v 0.483691 h -0.341064 q -0.291455,0 -0.551905,-0.260449 -0.127124,-0.130225 -0.179834,-0.403076 -0.142627,0.344165 -0.434082,0.613916 -0.136425,0.127124 -0.579809,0.127124 -0.728638,0 -1.082105,-0.47129 -0.362768,-0.486791 -0.362768,-1.339453 0,-0.911572 0.393774,-1.339453 0.437183,-0.47749 1.051099,-0.47749 0.964282,0 1.147217,0.985986 z"
             style="font-style:normal;font-variant:normal;font-weight:normal;font-stretch:normal;font-size:6.35px;font-family:sans-serif;-inkscape-font-specification:sans-serif;stroke-width:0.043847"
             id="path1162" />
        </g>
        <g
           aria-label="α"
           transform="translate(-27.587115,-6.0035707)"
           id="g1308"
           style="font-style:normal;font-variant:normal;font-weight:normal;font-stretch:normal;font-size:6.62881px;line-height:1.25;font-family:sans-serif;-inkscape-font-specification:sans-serif;stroke-width:0.165721">
          <path
             d="M 66.336409,100.37453 66.193993,99.626844 Q 66.04834,98.85974 65.472204,98.85974 q -0.433721,0 -0.631161,0.35604 -0.249228,0.446667 -0.249228,1.03575 0,0.71208 0.242754,1.05194 0.245991,0.34633 0.637635,0.34633 0.433721,0 0.666765,-0.68943 z m 0.333382,-0.990441 0.320436,-0.94836 h 0.530823 l -0.663529,1.964691 0.129469,0.70884 q 0.02913,0.1586 0.142416,0.29131 0.132706,0.15536 0.236281,0.15536 h 0.284832 v 0.50493 h -0.35604 q -0.304252,0 -0.576137,-0.27189 -0.132705,-0.13594 -0.18773,-0.42077 -0.148889,0.35928 -0.453141,0.64087 -0.142416,0.13271 -0.605267,0.13271 -0.76063,0 -1.129617,-0.49198 -0.378697,-0.50817 -0.378697,-1.39827 0,-0.951596 0.411064,-1.398263 0.456378,-0.498456 1.09725,-0.498456 1.006621,0 1.197587,1.029278 z"
             style="font-style:normal;font-variant:normal;font-weight:normal;font-stretch:normal;font-family:sans-serif;-inkscape-font-specification:sans-serif;stroke-width:0.165721"
             id="path1306" />
        </g>
        <g
           aria-label="Hypotenuse"
           id="text1312"
           style="font-style:normal;font-variant:normal;font-weight:normal;font-stretch:normal;font-size:6.62881px;line-height:1.25;font-family:sans-serif;-inkscape-font-specification:sans-serif;stroke-width:0.165721">
          <path
             d="m 76.954125,100.98208 h 0.653818 v 1.98087 h 2.375755 v -1.98087 h 0.653818 v 4.83243 h -0.653818 v -2.30131 h -2.375755 v 2.30131 h -0.653818 z"
             style="font-style:normal;font-variant:normal;font-weight:normal;font-stretch:normal;font-family:sans-serif;-inkscape-font-specification:sans-serif;stroke-width:0.165721"
             id="path1165" />
          <path
             d="m 83.421098,106.15113 q -0.252464,0.64734 -0.491982,0.84478 -0.239517,0.19744 -0.640871,0.19744 h -0.475798 v -0.49845 h 0.349566 q 0.245991,0 0.381933,-0.11653 0.135943,-0.11652 0.301015,-0.55024 l 0.106812,-0.27188 -1.466235,-3.56687 h 0.631161 l 1.132853,2.83537 1.132853,-2.83537 h 0.631161 z"
             style="font-style:normal;font-variant:normal;font-weight:normal;font-stretch:normal;font-family:sans-serif;-inkscape-font-specification:sans-serif;stroke-width:0.165721"
             id="path1167" />
          <path
             d="m 86.411831,105.27074 v 1.92261 h -0.598794 v -5.00397 h 0.598794 v 0.55024 q 0.18773,-0.32367 0.472561,-0.47904 0.288069,-0.1586 0.686186,-0.1586 0.660291,0 1.071355,0.52435 0.414301,0.52435 0.414301,1.37885 0,0.85449 -0.414301,1.37884 -0.411064,0.52435 -1.071355,0.52435 -0.398117,0 -0.686186,-0.15536 -0.284831,-0.1586 -0.472561,-0.48227 z m 2.026189,-1.26556 q 0,-0.65706 -0.271885,-1.02928 -0.268648,-0.37546 -0.74121,-0.37546 -0.472562,0 -0.744446,0.37546 -0.268648,0.37222 -0.268648,1.02928 0,0.65705 0.268648,1.03251 0.271884,0.37223 0.744446,0.37223 0.472562,0 0.74121,-0.37223 0.271885,-0.37546 0.271885,-1.03251 z"
             style="font-style:normal;font-variant:normal;font-weight:normal;font-stretch:normal;font-family:sans-serif;-inkscape-font-specification:sans-serif;stroke-width:0.165721"
             id="path1169" />
          <path
             d="m 91.448173,102.60691 q -0.479035,0 -0.757394,0.37546 -0.278358,0.37223 -0.278358,1.02281 0,0.65058 0.275122,1.02604 0.278358,0.37222 0.76063,0.37222 0.475798,0 0.754156,-0.37546 0.278358,-0.37546 0.278358,-1.0228 0,-0.64411 -0.278358,-1.01957 -0.278358,-0.3787 -0.754156,-0.3787 z m 0,-0.50493 q 0.776813,0 1.220244,0.50493 0.443432,0.50493 0.443432,1.39827 0,0.8901 -0.443432,1.39826 -0.443431,0.50493 -1.220244,0.50493 -0.780051,0 -1.223482,-0.50493 -0.440194,-0.50816 -0.440194,-1.39826 0,-0.89334 0.440194,-1.39827 0.443431,-0.50493 1.223482,-0.50493 z"
             style="font-style:normal;font-variant:normal;font-weight:normal;font-stretch:normal;font-family:sans-serif;-inkscape-font-specification:sans-serif;stroke-width:0.165721"
             id="path1171" />
          <path
             d="m 94.688133,101.1601 v 1.02928 h 1.226718 v 0.46285 h -1.226718 v 1.96793 q 0,0.44343 0.119759,0.56966 0.122995,0.12623 0.495218,0.12623 h 0.611741 v 0.49846 H 95.30311 q -0.689422,0 -0.951596,-0.2557 -0.262175,-0.25894 -0.262175,-0.93865 v -1.96793 h -0.436958 v -0.46285 h 0.436958 v -1.02928 z"
             style="font-style:normal;font-variant:normal;font-weight:normal;font-stretch:normal;font-family:sans-serif;-inkscape-font-specification:sans-serif;stroke-width:0.165721"
             id="path1173" />
          <path
             d="m 99.798919,103.85305 v 0.29131 h -2.738268 q 0.03884,0.61497 0.368986,0.93865 0.333383,0.32043 0.925703,0.32043 0.343093,0 0.663529,-0.0842 0.323672,-0.0842 0.640871,-0.25247 v 0.56319 q -0.320436,0.13595 -0.657055,0.20715 -0.336619,0.0712 -0.682949,0.0712 -0.867442,0 -1.375607,-0.50493 -0.504929,-0.50493 -0.504929,-1.36589 0,-0.8901 0.479035,-1.41122 0.482272,-0.52435 1.297926,-0.52435 0.7315,0 1.15551,0.47257 0.427248,0.46932 0.427248,1.2785 z m -0.595557,-0.17478 q -0.0065,-0.48875 -0.275122,-0.78005 -0.265411,-0.29131 -0.705605,-0.29131 -0.498456,0 -0.799471,0.2816 -0.297779,0.28159 -0.343093,0.793 z"
             style="font-style:normal;font-variant:normal;font-weight:normal;font-stretch:normal;font-family:sans-serif;-inkscape-font-specification:sans-serif;stroke-width:0.165721"
             id="path1175" />
          <path
             d="m 103.7898,103.62648 v 2.18803 h -0.59556 v -2.16861 q 0,-0.51464 -0.20067,-0.77034 -0.20068,-0.2557 -0.60204,-0.2557 -0.48227,0 -0.76063,0.30749 -0.27835,0.30749 -0.27835,0.83831 v 2.04885 h -0.5988 v -3.62513 h 0.5988 v 0.56319 q 0.21362,-0.32691 0.50169,-0.48875 0.2913,-0.16184 0.67,-0.16184 0.62469,0 0.94512,0.38841 0.32044,0.38517 0.32044,1.13609 z"
             style="font-style:normal;font-variant:normal;font-weight:normal;font-stretch:normal;font-family:sans-serif;-inkscape-font-specification:sans-serif;stroke-width:0.165721"
             id="path1177" />
          <path
             d="m 104.91618,104.38387 v -2.19449 h 0.59556 v 2.17184 q 0,0.51464 0.20067,0.77357 0.20068,0.25571 0.60203,0.25571 0.48228,0 0.76063,-0.30749 0.2816,-0.30749 0.2816,-0.83831 v -2.05532 h 0.59556 v 3.62513 h -0.59556 v -0.55672 q -0.21686,0.33015 -0.50493,0.49198 -0.28483,0.1586 -0.66353,0.1586 -0.62469,0 -0.94836,-0.38841 -0.32367,-0.3884 -0.32367,-1.13609 z m 1.4986,-2.28189 z"
             style="font-style:normal;font-variant:normal;font-weight:normal;font-stretch:normal;font-family:sans-serif;-inkscape-font-specification:sans-serif;stroke-width:0.165721"
             id="path1179" />
          <path
             d="m 111.48996,102.29619 v 0.56319 q -0.25246,-0.12947 -0.52434,-0.19421 -0.27189,-0.0647 -0.56319,-0.0647 -0.44344,0 -0.66677,0.13594 -0.2201,0.13594 -0.2201,0.40783 0,0.20715 0.1586,0.32691 0.1586,0.11652 0.63764,0.22333 l 0.20391,0.0453 q 0.6344,0.13594 0.89981,0.38517 0.26865,0.24599 0.26865,0.68942 0,0.50493 -0.40136,0.79947 -0.39811,0.29454 -1.09724,0.29454 -0.29131,0 -0.60851,-0.0583 -0.31396,-0.055 -0.66353,-0.16831 v -0.61498 q 0.33015,0.17155 0.65058,0.25894 0.32044,0.0842 0.6344,0.0842 0.42078,0 0.64735,-0.14242 0.22657,-0.14565 0.22657,-0.40783 0,-0.24275 -0.16508,-0.37222 -0.16183,-0.12947 -0.71531,-0.24923 l -0.20715,-0.0485 q -0.55348,-0.11652 -0.79947,-0.35604 -0.24599,-0.24275 -0.24599,-0.66353 0,-0.5114 0.36251,-0.78976 0.36251,-0.27836 1.02928,-0.27836 0.33014,0 0.62145,0.0486 0.2913,0.0485 0.53729,0.14565 z"
             style="font-style:normal;font-variant:normal;font-weight:normal;font-stretch:normal;font-family:sans-serif;-inkscape-font-specification:sans-serif;stroke-width:0.165721"
             id="path1181" />
          <path
             d="m 115.73331,103.85305 v 0.29131 h -2.73827 q 0.0388,0.61497 0.36899,0.93865 0.33338,0.32043 0.9257,0.32043 0.3431,0 0.66353,-0.0842 0.32367,-0.0842 0.64087,-0.25247 v 0.56319 q -0.32043,0.13595 -0.65705,0.20715 -0.33662,0.0712 -0.68295,0.0712 -0.86744,0 -1.37561,-0.50493 -0.50493,-0.50493 -0.50493,-1.36589 0,-0.8901 0.47904,-1.41122 0.48227,-0.52435 1.29792,-0.52435 0.7315,0 1.15551,0.47257 0.42725,0.46932 0.42725,1.2785 z m -0.59556,-0.17478 q -0.006,-0.48875 -0.27512,-0.78005 -0.26541,-0.29131 -0.7056,-0.29131 -0.49846,0 -0.79947,0.2816 -0.29778,0.28159 -0.3431,0.793 z"
             style="font-style:normal;font-variant:normal;font-weight:normal;font-stretch:normal;font-family:sans-serif;-inkscape-font-specification:sans-serif;stroke-width:0.165721"
             id="path1183" />
        </g>
        <g
           aria-label="."
           id="text863"
           style="font-size:10.5833px;line-height:1.25;font-family:Ubuntu;-inkscape-font-specification:Ubuntu;stroke-width:0.264583">
          <path
             d="m 130.0646,43.335892 q 0,0.28575 -0.1905,0.497415 -0.1905,0.211666 -0.51858,0.211666 -0.32808,0 -0.51858,-0.211666 -0.1905,-0.211665 -0.1905,-0.497415 0,-0.285749 0.1905,-0.497415 0.1905,-0.211666 0.51858,-0.211666 0.32808,0 0.51858,0.211666 0.1905,0.211666 0.1905,0.497415 z"
             style="stroke-width:0.264583"
             id="path1186" />
        </g>
        <path
           style="fill:none;stroke:#ff0000;stroke-width:1.465;stroke-linecap:round;stroke-linejoin:round;stroke-miterlimit:4;stroke-dasharray:none;stroke-opacity:1"
           d="M 19.626724,99.093978 H 170.63043"
           id="path865" />
        <path
           style="fill:none;stroke:#ff0000;stroke-width:1.465;stroke-linecap:round;stroke-linejoin:round;stroke-miterlimit:4;stroke-dasharray:none;stroke-opacity:1"
           d="M 19.626724,99.093978 132.87949,33.707452"
           id="path869" />
      </g>
    </g>
    <path
       style="fill:none;stroke:#00ff00;stroke-width:0.7;stroke-linecap:butt;stroke-linejoin:miter;stroke-opacity:1;stroke-miterlimit:4;stroke-dasharray:none"
       d="M 8.9296898,78.382809 H 61.548697"
       id="path1159" />
    <path
       style="fill:none;stroke:#0000ff;stroke-width:0.7;stroke-linecap:butt;stroke-linejoin:miter;stroke-opacity:1;stroke-miterlimit:4;stroke-dasharray:none"
       d="M 61.548496,78.382809 V 25.764"
       id="path1161" />
  </g>
</svg>
