<?xml version="1.0" encoding="UTF-8" standalone="no"?>
<svg
   xmlns:dc="http://purl.org/dc/elements/1.1/"
   xmlns:cc="http://creativecommons.org/ns#"
   xmlns:rdf="http://www.w3.org/1999/02/22-rdf-syntax-ns#"
   xmlns:svg="http://www.w3.org/2000/svg"
   xmlns="http://www.w3.org/2000/svg"
   xmlns:sodipodi="http://sodipodi.sourceforge.net/DTD/sodipodi-0.dtd"
   xmlns:inkscape="http://www.inkscape.org/namespaces/inkscape"
   width="330"
   height="330"
   viewBox="0 0 87.312498 87.312502"
   version="1.1"
   id="svg8"
   inkscape:version="1.0.1 (3bc2e813f5, 2020-09-07)"
   sodipodi:docname="Sinus_Kosinus_Einheitskreis.svg">
  <defs
     id="defs2" />
  <sodipodi:namedview
     id="base"
     pagecolor="#ffffff"
     bordercolor="#666666"
     borderopacity="1.0"
     inkscape:pageopacity="0.0"
     inkscape:pageshadow="2"
     inkscape:zoom="2.8284272"
     inkscape:cx="176.88404"
     inkscape:cy="294.52378"
     inkscape:document-units="mm"
     inkscape:current-layer="layer1"
     inkscape:document-rotation="0"
     showgrid="true"
     units="px"
     showguides="true"
     inkscape:guide-bbox="true"
     inkscape:snap-page="true"
     inkscape:snap-bbox="true"
     inkscape:bbox-nodes="true"
     inkscape:window-width="1920"
     inkscape:window-height="1043"
     inkscape:window-x="1920"
     inkscape:window-y="0"
     inkscape:window-maximized="1"
     inkscape:snap-bbox-midpoints="true"
     inkscape:snap-bbox-edge-midpoints="true"
     inkscape:object-paths="true"
     inkscape:bbox-paths="true"
     inkscape:snap-intersection-paths="true" />
  <metadata
     id="metadata5">
    <rdf:RDF>
      <cc:Work
         rdf:about="">
        <dc:format>image/svg+xml</dc:format>
        <dc:type
           rdf:resource="http://purl.org/dc/dcmitype/StillImage" />
        <dc:title />
      </cc:Work>
    </rdf:RDF>
  </metadata>
  <g
     inkscape:label="Ebene 1"
     inkscape:groupmode="layer"
     id="layer1">
    <path
       id="rect865"
       style="fill:none;fill-opacity:0.497999;stroke:none;stroke-width:0.5115;stroke-linecap:round;stroke-linejoin:round"
       d="M 0,0 H 87.3125 V 87.3125 H 0 Z" />
    <path
       id="rect835"
       style="fill:none;fill-opacity:0.497999;stroke:none;stroke-width:0.465;stroke-linecap:round;stroke-linejoin:round"
       d="m 3.96875,3.96875 h 79.375 v 79.375 h -79.375 z" />
    <path
       style="fill:none;stroke:#000000;stroke-width:0.6;stroke-linecap:round;stroke-linejoin:round;stroke-miterlimit:4;stroke-dasharray:none;stroke-opacity:1"
       d="M 8.9296874,83.343749 V 0"
       id="path843" />
    <path
       style="fill:none;stroke:#000000;stroke-width:0.6;stroke-linecap:round;stroke-linejoin:round;stroke-miterlimit:4;stroke-dasharray:none;stroke-opacity:1"
       d="M 3.9687499,78.38281 H 87.312507"
       id="path845" />
    <path
       id="rect873"
       style="fill:#000000;fill-opacity:1;stroke:none;stroke-width:0.6;stroke-linecap:round;stroke-linejoin:round;stroke-miterlimit:4;stroke-dasharray:none"
       transform="rotate(45)"
       d="m 6.2754955,-6.2754951 h 0.2645833 v 2.5466147 H 6.2754955 Z" />
    <path
       id="rect875"
       style="fill:#000000;fill-opacity:1;stroke:none;stroke-width:0.6;stroke-linecap:round;stroke-linejoin:round;stroke-miterlimit:4;stroke-dasharray:none"
       transform="rotate(-45)"
       d="M 6.0884066,6.3529902 H 6.3529899 V 8.8996048 H 6.0884066 Z" />
    <path
       id="rect877"
       style="fill:#000000;fill-opacity:1;stroke:none;stroke-width:0.6;stroke-linecap:round;stroke-linejoin:round;stroke-miterlimit:4;stroke-dasharray:none"
       transform="rotate(135)"
       d="m -6.3529935,-117.12552 h 0.2645833 v 2.54662 h -0.2645833 z" />
    <path
       id="rect879"
       style="fill:#000000;fill-opacity:1;stroke:none;stroke-width:0.6;stroke-linecap:round;stroke-linejoin:round;stroke-miterlimit:4;stroke-dasharray:none"
       transform="rotate(45)"
       d="m 116.93845,-6.2755017 h 0.26459 v 2.5466146 h -0.26459 z" />
    <path
       id="rect911"
       style="fill:#cccccc;fill-opacity:0.497999;stroke:none;stroke-width:2.26772;stroke-linecap:round;stroke-linejoin:round;stroke-miterlimit:4;stroke-dasharray:none"
       d="m 315,296.25 a 281.25,281.25 0 0 1 -0.004,1.39648 281.25,281.25 0 0 1 -0.01,1.41016 281.25,281.25 0 0 1 -0.0176,1.41016 281.25,281.25 0 0 1 -0.0254,1.41015 281.25,281.25 0 0 1 -0.0312,1.41016 281.25,281.25 0 0 1 -0.0391,1.4082 281.25,281.25 0 0 1 -0.0449,1.41016 281.25,281.25 0 0 1 -0.0527,1.41015 281.25,281.25 0 0 1 -0.0606,1.40821 281.25,281.25 0 0 1 -0.0664,1.4082 281.25,281.25 0 0 1 -0.0742,1.4082 281.25,281.25 0 0 1 -0.082,1.40821 281.25,281.25 0 0 1 -0.0879,1.4082 A 281.25,281.25 0 0 1 314.375,315 H 315 Z"
       transform="scale(0.26458333)" />
    <path
       id="path923"
       style="fill:none;fill-opacity:0.497999;stroke:#000000;stroke-width:2.26772;stroke-linecap:round;stroke-linejoin:round;stroke-miterlimit:4;stroke-dasharray:none"
       d="m 314.41351,314.4141 a 281.25,281.25 0 0 0 0.0787,-1.26566 281.25,281.25 0 0 0 0.082,-1.40821 281.25,281.25 0 0 0 0.0742,-1.4082 281.25,281.25 0 0 0 0.0664,-1.4082 281.25,281.25 0 0 0 0.0606,-1.40821 281.25,281.25 0 0 0 0.0527,-1.41015 281.25,281.25 0 0 0 0.0449,-1.41016 281.25,281.25 0 0 0 0.0391,-1.4082 281.25,281.25 0 0 0 0.0312,-1.41016 281.25,281.25 0 0 0 0.0254,-1.41015 281.25,281.25 0 0 0 0.0176,-1.41016 281.25,281.25 0 0 0 0.01,-1.41016 281.25,281.25 0 0 0 0.004,-1.39648 281.25,281.25 0 0 0 -0.004,-1.41016 281.25,281.25 0 0 0 -0.01,-1.41015 281.25,281.25 0 0 0 -0.0176,-1.41016 281.25,281.25 0 0 0 -0.0254,-1.41015 281.25,281.25 0 0 0 -0.0312,-1.41016 281.25,281.25 0 0 0 -0.0391,-1.41016 281.25,281.25 0 0 0 -0.0469,-1.4082 281.25,281.25 0 0 0 -0.0527,-1.41016 281.25,281.25 0 0 0 -0.0605,-1.4082 281.25,281.25 0 0 0 -0.0664,-1.4082 281.25,281.25 0 0 0 -0.0742,-1.40821 281.25,281.25 0 0 0 -0.082,-1.4082 281.25,281.25 0 0 0 -0.0879,-1.4082 281.25,281.25 0 0 0 -0.0957,-1.40625 281.25,281.25 0 0 0 -0.10156,-1.40625 281.25,281.25 0 0 0 -0.10938,-1.40625 281.25,281.25 0 0 0 -0.11718,-1.40625 281.25,281.25 0 0 0 -0.12305,-1.4043 281.25,281.25 0 0 0 -0.13086,-1.4043 281.25,281.25 0 0 0 -0.13672,-1.40429 281.25,281.25 0 0 0 -0.14648,-1.40235 281.25,281.25 0 0 0 -0.15039,-1.40234 281.25,281.25 0 0 0 -0.16016,-1.40039 281.25,281.25 0 0 0 -0.16406,-1.40039 281.25,281.25 0 0 0 -0.17383,-1.40039 281.25,281.25 0 0 0 -0.17969,-1.39844 281.25,281.25 0 0 0 -0.1875,-1.39648 281.25,281.25 0 0 0 -0.19336,-1.39844 281.25,281.25 0 0 0 -0.20117,-1.39453 281.25,281.25 0 0 0 -0.20703,-1.39453 281.25,281.25 0 0 0 -0.21484,-1.39454 281.25,281.25 0 0 0 -0.22266,-1.39257 281.25,281.25 0 0 0 -0.22852,-1.39258 281.25,281.25 0 0 0 -0.23632,-1.38867 281.25,281.25 0 0 0 -0.24219,-1.39063 281.25,281.25 0 0 0 -0.25,-1.38672 281.25,281.25 0 0 0 -0.25586,-1.38672 281.25,281.25 0 0 0 -0.26367,-1.38671 281.25,281.25 0 0 0 -0.27149,-1.38282 281.25,281.25 0 0 0 -0.27734,-1.38281 281.25,281.25 0 0 0 -0.28321,-1.38086 281.25,281.25 0 0 0 -0.29101,-1.38086 281.25,281.25 0 0 0 -0.29883,-1.37891 281.25,281.25 0 0 0 -0.30469,-1.375 281.25,281.25 0 0 0 -0.3125,-1.37695 281.25,281.25 0 0 0 -0.31836,-1.37305 281.25,281.25 0 0 0 -0.32617,-1.37109 281.25,281.25 0 0 0 -0.33398,-1.37109 281.25,281.25 0 0 0 -0.33789,-1.36914 281.25,281.25 0 0 0 -0.34766,-1.36719 281.25,281.25 0 0 0 -0.35351,-1.36523 281.25,281.25 0 0 0 -0.35938,-1.36329 281.25,281.25 0 0 0 -0.36719,-1.36132 281.25,281.25 0 0 0 -0.37304,-1.35938 281.25,281.25 0 0 0 -0.38086,-1.35937 281.25,281.25 0 0 0 -0.38867,-1.35547 281.25,281.25 0 0 0 -0.39258,-1.35352 281.25,281.25 0 0 0 -0.40235,-1.35156 281.25,281.25 0 0 0 -0.40625,-1.34961 281.25,281.25 0 0 0 -0.41601,-1.34961 281.25,281.25 0 0 0 -0.41992,-1.3457 281.25,281.25 0 0 0 -0.42969,-1.34375 281.25,281.25 0 0 0 -0.4336,-1.33985 281.25,281.25 0 0 0 -0.4414,-1.33984 281.25,281.25 0 0 0 -0.44922,-1.33789 281.25,281.25 0 0 0 -0.45508,-1.33399 281.25,281.25 0 0 0 -0.46094,-1.33398 281.25,281.25 0 0 0 -0.46875,-1.33008 281.25,281.25 0 0 0 -0.47461,-1.32617 281.25,281.25 0 0 0 -0.48046,-1.32617 281.25,281.25 0 0 0 -0.48829,-1.32422 281.25,281.25 0 0 0 -0.49609,-1.32031 281.25,281.25 0 0 0 -0.5,-1.31641 281.25,281.25 0 0 0 -0.50781,-1.31641 281.25,281.25 0 0 0 -0.51563,-1.3125 281.25,281.25 0 0 0 -0.52148,-1.31054 281.25,281.25 0 0 0 -0.52734,-1.3086 281.25,281.25 0 0 0 -0.53516,-1.30468 281.25,281.25 0 0 0 -0.53906,-1.30274 281.25,281.25 0 0 0 -0.54883,-1.29883 281.25,281.25 0 0 0 -0.55274,-1.29687 281.25,281.25 0 0 0 -0.56054,-1.29492 281.25,281.25 0 0 0 -0.56641,-1.29102 281.25,281.25 0 0 0 -0.57422,-1.28906 281.25,281.25 0 0 0 -0.58008,-1.28516 281.25,281.25 0 0 0 -0.58593,-1.28125 281.25,281.25 0 0 0 -0.5918,-1.28125 281.25,281.25 0 0 0 -0.59961,-1.27539 281.25,281.25 0 0 0 -0.60547,-1.27344 281.25,281.25 0 0 0 -0.61133,-1.27148 281.25,281.25 0 0 0 -0.61914,-1.26758 281.25,281.25 0 0 0 -0.625,-1.26367 281.25,281.25 0 0 0 -0.63086,-1.26172 281.25,281.25 0 0 0 -0.63672,-1.25781 281.25,281.25 0 0 0 -0.64257,-1.25586 281.25,281.25 0 0 0 -0.65039,-1.25 281.25,281.25 0 0 0 -0.65625,-1.25 281.25,281.25 0 0 0 -0.66211,-1.24414 281.25,281.25 0 0 0 -0.66797,-1.24219 281.25,281.25 0 0 0 -0.67578,-1.23828 281.25,281.25 0 0 0 -0.67969,-1.23438 281.25,281.25 0 0 0 -0.6875,-1.23242 281.25,281.25 0 0 0 -0.69336,-1.22656 281.25,281.25 0 0 0 -0.69922,-1.22461 281.25,281.25 0 0 0 -0.70703,-1.22265 281.25,281.25 0 0 0 -0.71094,-1.2168 281.25,281.25 0 0 0 -0.71875,-1.21289 281.25,281.25 0 0 0 -0.72265,-1.21094 281.25,281.25 0 0 0 -0.73047,-1.20703 281.25,281.25 0 0 0 -0.73633,-1.20313 281.25,281.25 0 0 0 -0.74219,-1.19921 281.25,281.25 0 0 0 -0.74805,-1.19532 281.25,281.25 0 0 0 -0.7539,-1.1914 281.25,281.25 0 0 0 -0.75977,-1.1875 281.25,281.25 0 0 0 -0.76562,-1.18555 281.25,281.25 0 0 0 -0.77149,-1.17969 281.25,281.25 0 0 0 -0.77734,-1.17578 281.25,281.25 0 0 0 -0.7832,-1.17187 281.25,281.25 0 0 0 -0.79102,-1.16993 281.25,281.25 0 0 0 -0.79492,-1.16406 281.25,281.25 0 0 0 -0.80078,-1.16016 281.25,281.25 0 0 0 -0.80664,-1.15624 281.25,281.25 0 0 0 -0.8125,-1.15235 281.25,281.25 0 0 0 -0.81836,-1.14844 281.25,281.25 0 0 0 -0.82422,-1.14453 281.25,281.25 0 0 0 -0.83008,-1.14062 281.25,281.25 0 0 0 -0.83594,-1.13672 281.25,281.25 0 0 0 -0.84179,-1.13086 281.25,281.25 0 0 0 -0.84766,-1.12695 281.25,281.25 0 0 0 -0.85156,-1.12305 281.25,281.25 0 0 0 -0.85938,-1.11914 281.25,281.25 0 0 0 -0.86328,-1.11524 281.25,281.25 0 0 0 -0.86914,-1.10937 281.25,281.25 0 0 0 -0.875,-1.10742 281.25,281.25 0 0 0 -0.88086,-1.10157 281.25,281.25 0 0 0 -0.88672,-1.0957 281.25,281.25 0 0 0 -0.89062,-1.09375 281.25,281.25 0 0 0 -0.89844,-1.08789 281.25,281.25 0 0 0 -0.90234,-1.08398 281.25,281.25 0 0 0 -0.90821,-1.07813 281.25,281.25 0 0 0 -0.91211,-1.07422 281.25,281.25 0 0 0 -0.91992,-1.07031 281.25,281.25 0 0 0 -0.92383,-1.06641 281.25,281.25 0 0 0 -0.92968,-1.06054 281.25,281.25 0 0 0 -0.9336,-1.05469 281.25,281.25 0 0 0 -0.93945,-1.05273 281.25,281.25 0 0 0 -0.94531,-1.04493 281.25,281.25 0 0 0 -0.95117,-1.04296 281.25,281.25 0 0 0 -0.95508,-1.03711 281.25,281.25 0 0 0 -0.96094,-1.03125 281.25,281.25 0 0 0 -0.9668,-1.02735 281.25,281.25 0 0 0 -0.9707,-1.02344 281.25,281.25 0 0 0 -0.97656,-1.01757 281.25,281.25 0 0 0 -0.98047,-1.01172 281.25,281.25 0 0 0 -0.98633,-1.007816 281.25,281.25 0 0 0 -0.99219,-1.003906 281.25,281.25 0 0 0 -0.99609,-0.998047 281.25,281.25 0 0 0 -1.00195,-0.992188 281.25,281.25 0 0 0 -1.00586,-0.988281 281.25,281.25 0 0 0 -1.01172,-0.982422 281.25,281.25 0 0 0 -1.01758,-0.978515 281.25,281.25 0 0 0 -1.01953,-0.970704 281.25,281.25 0 0 0 -1.02735,-0.96875 281.25,281.25 0 0 0 -1.03125,-0.960937 281.25,281.25 0 0 0 -1.03515,-0.958984 281.25,281.25 0 0 0 -1.04102,-0.951172 281.25,281.25 0 0 0 -1.04492,-0.947266 281.25,281.25 0 0 0 -1.04883,-0.941406 281.25,281.25 0 0 0 -1.05468,-0.935547 281.25,281.25 0 0 0 -1.06055,-0.929688 281.25,281.25 0 0 0 -1.0625,-0.925781 281.25,281.25 0 0 0 -1.07031,-0.919922 281.25,281.25 0 0 0 -1.07227,-0.916015 281.25,281.25 0 0 0 -1.07813,-0.908203 281.25,281.25 0 0 0 -1.08203,-0.904297 281.25,281.25 0 0 0 -1.08789,-0.898438 281.25,281.25 0 0 0 -1.08984,-0.894531 281.25,281.25 0 0 0 -1.09766,-0.886719 281.25,281.25 0 0 0 -1.09961,-0.882812 281.25,281.25 0 0 0 -1.10547,-0.875 281.25,281.25 0 0 0 -1.10742,-0.871094 281.25,281.25 0 0 0 -1.11328,-0.867188 281.25,281.25 0 0 0 -1.11914,-0.859374 281.25,281.25 0 0 0 -1.12109,-0.853516 281.25,281.25 0 0 0 -1.12696,-0.84961 281.25,281.25 0 0 0 -1.13085,-0.841796 281.25,281.25 0 0 0 -1.13477,-0.837891 281.25,281.25 0 0 0 -1.13867,-0.832031 281.25,281.25 0 0 0 -1.14258,-0.826172 281.25,281.25 0 0 0 -1.14844,-0.81836 281.25,281.25 0 0 0 -1.15039,-0.814453 281.25,281.25 0 0 0 -1.15625,-0.808593 281.25,281.25 0 0 0 -1.1582,-0.802735 281.25,281.25 0 0 0 -1.16406,-0.796875 281.25,281.25 0 0 0 -1.16797,-0.791015 281.25,281.25 0 0 0 -1.16993,-0.785157 281.25,281.25 0 0 0 -1.17578,-0.779296 281.25,281.25 0 0 0 -1.17968,-0.773438 281.25,281.25 0 0 0 -1.1836,-0.767578 281.25,281.25 0 0 0 -1.18554,-0.761719 281.25,281.25 0 0 0 -1.19141,-0.755859 281.25,281.25 0 0 0 -1.19531,-0.75 281.25,281.25 0 0 0 -1.19727,-0.744141 281.25,281.25 0 0 0 -1.20117,-0.736328 281.25,281.25 0 0 0 -1.20703,-0.732422 281.25,281.25 0 0 0 -1.20899,-0.724609 281.25,281.25 0 0 0 -1.21289,-0.720703 281.25,281.25 0 0 0 -1.21679,-0.712891 281.25,281.25 0 0 0 -1.21875,-0.707031 281.25,281.25 0 0 0 -1.22461,-0.701172 281.25,281.25 0 0 0 -1.22657,-0.695313 281.25,281.25 0 0 0 -1.23046,-0.689453 281.25,281.25 0 0 0 -1.23438,-0.68164 281.25,281.25 0 0 0 -1.23828,-0.675782 281.25,281.25 0 0 0 -1.24023,-0.671875 281.25,281.25 0 0 0 -1.24415,-0.664062 281.25,281.25 0 0 0 -1.24804,-0.65625 281.25,281.25 0 0 0 -1.25,-0.652344 281.25,281.25 0 0 0 -1.25391,-0.644531 281.25,281.25 0 0 0 -1.25781,-0.638672 281.25,281.25 0 0 0 -1.25977,-0.632813 281.25,281.25 0 0 0 -1.26367,-0.626953 281.25,281.25 0 0 0 -1.26562,-0.61914 281.25,281.25 0 0 0 -1.27149,-0.613281 281.25,281.25 0 0 0 -1.27148,-0.607422 281.25,281.25 0 0 0 -1.27539,-0.601563 281.25,281.25 0 0 0 -1.2793,-0.59375 281.25,281.25 0 0 0 -1.28125,-0.587891 281.25,281.25 0 0 0 -1.28516,-0.582031 281.25,281.25 0 0 0 -1.28906,-0.576171 281.25,281.25 0 0 0 -1.28906,-0.568359 281.25,281.25 0 0 0 -1.29297,-0.5625 281.25,281.25 0 0 0 -1.29687,-0.554688 281.25,281.25 0 0 0 -1.29883,-0.548828 281.25,281.25 0 0 0 -1.30274,-0.542968 281.25,281.25 0 0 0 -1.30273,-0.53711 281.25,281.25 0 0 0 -1.3086,-0.529297 281.25,281.25 0 0 0 -1.30859,-0.521484 281.25,281.25 0 0 0 -1.3125,-0.517578 281.25,281.25 0 0 0 -1.31445,-0.509766 281.25,281.25 0 0 0 -1.31836,-0.503906 281.25,281.25 0 0 0 -1.31836,-0.496094 281.25,281.25 0 0 0 -1.32227,-0.490234 281.25,281.25 0 0 0 -1.32617,-0.482422 281.25,281.25 0 0 0 -1.32617,-0.476563 281.25,281.25 0 0 0 -1.33008,-0.470703 281.25,281.25 0 0 0 -1.33203,-0.46289 281.25,281.25 0 0 0 -1.33398,-0.457031 281.25,281.25 0 0 0 -1.33594,-0.449219 281.25,281.25 0 0 0 -1.33985,-0.44336 281.25,281.25 0 0 0 -1.33984,-0.4375 281.25,281.25 0 0 0 -1.34375,-0.429687 281.25,281.25 0 0 0 -1.3457,-0.423828 281.25,281.25 0 0 0 -1.34766,-0.416016 281.25,281.25 0 0 0 -1.34961,-0.410156 281.25,281.25 0 0 0 -1.35156,-0.402344 281.25,281.25 0 0 0 -1.35352,-0.396484 281.25,281.25 0 0 0 -1.35547,-0.388672 281.25,281.25 0 0 0 -1.35546,-0.382813 281.25,281.25 0 0 0 -1.35938,-0.375 281.25,281.25 0 0 0 -1.36133,-0.36914 281.25,281.25 0 0 0 -1.36328,-0.361328 281.25,281.25 0 0 0 -1.36523,-0.355469 281.25,281.25 0 0 0 -1.36719,-0.347656 281.25,281.25 0 0 0 -1.36719,-0.341797 281.25,281.25 0 0 0 -1.371092,-0.335938 281.25,281.25 0 0 0 -1.371094,-0.326172 281.25,281.25 0 0 0 -1.373047,-0.322265 281.25,281.25 0 0 0 -1.375,-0.3125 A 281.25,281.25 0 0 0 94.296874,21.59375 281.25,281.25 0 0 0 92.919921,21.294922 281.25,281.25 0 0 0 91.541015,21.001953 281.25,281.25 0 0 0 90.160155,20.714844 281.25,281.25 0 0 0 88.777343,20.435547 281.25,281.25 0 0 0 87.39453,20.164062 281.25,281.25 0 0 0 86.007811,19.898438 281.25,281.25 0 0 0 84.623046,19.638672 281.25,281.25 0 0 0 83.234374,19.386719 281.25,281.25 0 0 0 81.845702,19.142578 281.25,281.25 0 0 0 80.455077,18.904297 281.25,281.25 0 0 0 79.064452,18.673828 281.25,281.25 0 0 0 77.671874,18.451172 281.25,281.25 0 0 0 76.279296,18.234375 281.25,281.25 0 0 0 74.884765,18.023438 281.25,281.25 0 0 0 73.48828,17.822266 281.25,281.25 0 0 0 72.091796,17.625 281.25,281.25 0 0 0 70.695311,17.4375 281.25,281.25 0 0 0 69.296874,17.255859 281.25,281.25 0 0 0 67.896483,17.080078 281.25,281.25 0 0 0 66.496093,16.912109 281.25,281.25 0 0 0 65.095702,16.751953 281.25,281.25 0 0 0 63.693358,16.597656 281.25,281.25 0 0 0 62.291015,16.451172 281.25,281.25 0 0 0 60.886718,16.3125 a 281.25,281.25 0 0 0 -1.402344,-0.132812 281.25,281.25 0 0 0 -1.40625,-0.125 281.25,281.25 0 0 0 -1.404297,-0.119141 281.25,281.25 0 0 0 -1.40625,-0.111328 281.25,281.25 0 0 0 -1.40625,-0.103516 281.25,281.25 0 0 0 -1.40625,-0.09766 281.25,281.25 0 0 0 -1.408203,-0.08984 281.25,281.25 0 0 0 -1.40625,-0.08398 281.25,281.25 0 0 0 -1.408203,-0.07617 281.25,281.25 0 0 0 -1.410156,-0.06836 281.25,281.25 0 0 0 -1.408204,-0.0625 281.25,281.25 0 0 0 -1.408203,-0.05469 281.25,281.25 0 0 0 -1.410156,-0.04883 281.25,281.25 0 0 0 -1.410156,-0.04102 281.25,281.25 0 0 0 -1.410156,-0.0332 281.25,281.25 0 0 0 -1.410156,-0.02734 281.25,281.25 0 0 0 -1.408203,-0.01953 281.25,281.25 0 0 0 -1.412109,-0.01172 A 281.25,281.25 0 0 0 34.134766,15 h -0.769532 a 281.25,281.25 0 0 0 -1.410156,0.0059 281.25,281.25 0 0 0 -1.410156,0.01172 281.25,281.25 0 0 0 -1.410156,0.01953 281.25,281.25 0 0 0 -1.410157,0.02734 281.25,281.25 0 0 0 -1.410156,0.0332 281.25,281.25 0 0 0 -1.408203,0.04102 281.25,281.25 0 0 0 -1.410156,0.04883 281.25,281.25 0 0 0 -1.410156,0.05469 281.25,281.25 0 0 0 -1.408204,0.0625 281.25,281.25 0 0 0 -1.408203,0.06836 281.25,281.25 0 0 0 -1.408203,0.07617 281.25,281.25 0 0 0 -1.408203,0.08398 281.25,281.25 0 0 0 -0.865234,0.05469 v 0"
       transform="scale(0.26458333)" />
    <path
       id="path958"
       style="fill:none;fill-opacity:0.623529;stroke:#ff0000;stroke-width:2.26772;stroke-linecap:round;stroke-linejoin:round;stroke-miterlimit:4;stroke-dasharray:none;stroke-opacity:1"
       d="M 65.021484,264.97852 33.75,296.25 H 77.974609 A 44.224694,44.224694 0 0 0 65.021484,264.97852 Z"
       transform="scale(0.26458333)" />
    <path
       style="fill:none;stroke:#000000;stroke-width:0.6;stroke-linecap:round;stroke-linejoin:round;stroke-miterlimit:4;stroke-dasharray:none;stroke-opacity:1"
       d="M 8.9296874,78.382809 61.548496,25.764 v 52.618809 z"
       id="path950" />
    <path
       id="path952"
       style="fill:none;fill-opacity:0.615686;stroke:#000000;stroke-width:2.26772;stroke-linecap:round;stroke-linejoin:round;stroke-miterlimit:4;stroke-dasharray:none;stroke-opacity:1"
       d="M 232.625,256.48633 A 39.762969,39.762969 0 0 0 192.86133,296.25 H 232.625 Z"
       transform="scale(0.26458333)" />
    <path
       id="path966"
       style="fill:#000000;fill-opacity:1;stroke:#000000;stroke-width:0.6;stroke-linecap:round;stroke-linejoin:round;stroke-miterlimit:4;stroke-dasharray:none"
       d="m 57.910861,74.362167 a 0.35544908,0.35544908 0 0 1 -0.355449,0.355449 0.35544908,0.35544908 0 0 1 -0.355449,-0.355449 0.35544908,0.35544908 0 0 1 0.355449,-0.355449 0.35544908,0.35544908 0 0 1 0.355449,0.355449 z" />
    <g
       aria-label="α"
       id="text970"
       style="font-style:normal;font-variant:normal;font-weight:normal;font-stretch:normal;font-size:5.1944px;line-height:1.25;font-family:sans-serif;-inkscape-font-specification:sans-serif;fill:#ff0000;stroke-width:0.264583;stroke-linecap:round;stroke-linejoin:round">
      <path
         d="m 16.639373,75.828529 -0.111599,-0.585892 q -0.114135,-0.60111 -0.565601,-0.60111 -0.339868,0 -0.494584,0.278996 -0.195297,0.350014 -0.195297,0.811625 0,0.557993 0.190224,0.824307 0.192761,0.271387 0.499657,0.271387 0.339868,0 0.522484,-0.540238 z m 0.261241,-0.776117 0.251097,-0.743144 h 0.415958 l -0.519948,1.539551 0.101453,0.555456 q 0.02283,0.12428 0.111599,0.22827 0.103989,0.121744 0.185152,0.121744 h 0.223197 v 0.395667 h -0.278996 q -0.238415,0 -0.451467,-0.213052 -0.103989,-0.106526 -0.147107,-0.329722 -0.116671,0.281532 -0.355086,0.502193 -0.111598,0.103989 -0.474293,0.103989 -0.596037,0 -0.885179,-0.385522 -0.29675,-0.398203 -0.29675,-1.095694 0,-0.74568 0.322114,-1.095693 0.357622,-0.390595 0.859815,-0.390595 0.788798,0 0.938441,0.806552 z"
         style="font-style:normal;font-variant:normal;font-weight:normal;font-stretch:normal;font-family:sans-serif;-inkscape-font-specification:sans-serif;fill:#ff0000;stroke-width:0.264583;stroke-linecap:round;stroke-linejoin:round"
         id="path47" />
    </g>
    <g
       aria-label="y"
       id="text974"
       style="font-style:normal;font-variant:normal;font-weight:normal;font-stretch:normal;font-size:5.1944px;line-height:1.25;font-family:sans-serif;-inkscape-font-specification:sans-serif;stroke-width:0.264583;stroke-linecap:round;stroke-linejoin:round">
      <path
         d="m 86.064636,83.342803 q -0.197833,0.507266 -0.385522,0.661982 -0.187688,0.154716 -0.502193,0.154716 h -0.37284 v -0.390595 h 0.273924 q 0.192761,0 0.299286,-0.09131 0.106526,-0.09131 0.235879,-0.431176 l 0.0837,-0.213052 -1.148957,-2.795033 h 0.494584 l 0.887715,2.221823 0.887715,-2.221823 h 0.494584 z"
         style="font-style:normal;font-variant:normal;font-weight:normal;font-stretch:normal;font-family:sans-serif;-inkscape-font-specification:sans-serif;stroke-width:0.264583;stroke-linecap:round;stroke-linejoin:round"
         id="path50" />
    </g>
    <g
       aria-label="x"
       id="text978"
       style="font-style:normal;font-variant:normal;font-weight:normal;font-stretch:normal;font-size:5.1944px;line-height:1.25;font-family:sans-serif;-inkscape-font-specification:sans-serif;stroke-width:0.264583;stroke-linecap:round;stroke-linejoin:round">
      <path
         d="M 13.486402,0.56747352 12.459189,1.9497723 13.539665,3.4081609 H 12.989282 L 12.162439,2.2921766 11.335596,3.4081609 H 10.785213 L 11.888516,1.9218727 10.879057,0.56747352 h 0.550383 l 0.75329,1.01199488 0.753289,-1.01199488 z"
         style="font-style:normal;font-variant:normal;font-weight:normal;font-stretch:normal;font-family:sans-serif;-inkscape-font-specification:sans-serif;stroke-width:0.264583;stroke-linecap:round;stroke-linejoin:round"
         id="path53" />
    </g>
    <g
       aria-label="cos(α)"
       id="text982"
       style="font-style:normal;font-variant:normal;font-weight:normal;font-stretch:normal;font-size:5.1944px;line-height:1.25;font-family:sans-serif;-inkscape-font-specification:sans-serif;fill:#00ff00;fill-opacity:1;stroke-width:0.264583;stroke-linecap:round;stroke-linejoin:round">
      <path
         d="m 32.045373,74.171649 v 0.436249 q -0.197833,-0.109062 -0.398203,-0.162325 -0.197834,-0.0558 -0.40074,-0.0558 -0.454003,0 -0.705099,0.289142 -0.251097,0.286605 -0.251097,0.806552 0,0.519947 0.251097,0.809089 0.251096,0.286605 0.705099,0.286605 0.202906,0 0.40074,-0.05326 0.20037,-0.0558 0.398203,-0.164861 v 0.431175 q -0.195297,0.09131 -0.405812,0.136962 -0.207979,0.04565 -0.443858,0.04565 -0.641691,0 -1.019604,-0.403276 -0.377913,-0.403276 -0.377913,-1.088085 0,-0.694954 0.38045,-1.093157 0.382985,-0.398204 1.047503,-0.398204 0.215588,0 0.421031,0.04565 0.205442,0.04312 0.398203,0.131889 z"
         style="font-style:normal;font-variant:normal;font-weight:normal;font-stretch:normal;font-family:sans-serif;-inkscape-font-specification:sans-serif;fill:#00ff00;fill-opacity:1;stroke-width:0.264583;stroke-linecap:round;stroke-linejoin:round"
         id="path56" />
      <path
         d="m 33.957764,74.389773 q -0.375376,0 -0.5935,0.294214 -0.218125,0.291678 -0.218125,0.80148 0,0.509802 0.215588,0.804016 0.218125,0.291678 0.596037,0.291678 0.372841,0 0.590965,-0.294214 0.218124,-0.294214 0.218124,-0.80148 0,-0.504729 -0.218124,-0.798943 -0.218124,-0.296751 -0.590965,-0.296751 z m 0,-0.395667 q 0.608719,0 0.956196,0.395667 0.347477,0.395668 0.347477,1.095694 0,0.69749 -0.347477,1.095694 -0.347477,0.395667 -0.956196,0.395667 -0.611255,0 -0.958732,-0.395667 -0.34494,-0.398204 -0.34494,-1.095694 0,-0.700026 0.34494,-1.095694 0.347477,-0.395667 0.958732,-0.395667 z"
         style="font-style:normal;font-variant:normal;font-weight:normal;font-stretch:normal;font-family:sans-serif;-inkscape-font-specification:sans-serif;fill:#00ff00;fill-opacity:1;stroke-width:0.264583;stroke-linecap:round;stroke-linejoin:round"
         id="path58" />
      <path
         d="m 37.845955,74.146286 v 0.441321 q -0.197834,-0.101453 -0.410885,-0.15218 -0.213052,-0.05073 -0.441321,-0.05073 -0.347477,0 -0.522484,0.106526 -0.17247,0.106525 -0.17247,0.319577 0,0.162325 0.12428,0.256169 0.12428,0.09131 0.499657,0.175007 l 0.159788,0.03551 q 0.497121,0.106526 0.7051,0.301823 0.210515,0.192761 0.210515,0.540238 0,0.395667 -0.314505,0.626473 -0.311968,0.230806 -0.859815,0.230806 -0.22827,0 -0.47683,-0.04565 -0.246024,-0.04312 -0.519947,-0.131889 v -0.481902 q 0.258705,0.134425 0.509802,0.202906 0.251096,0.06594 0.49712,0.06594 0.329723,0 0.507266,-0.111599 0.177543,-0.114135 0.177543,-0.319577 0,-0.190225 -0.129353,-0.291678 -0.126816,-0.101453 -0.560528,-0.195297 l -0.162325,-0.03804 q -0.433713,-0.09131 -0.626474,-0.278996 -0.19276,-0.190225 -0.19276,-0.519947 0,-0.40074 0.284068,-0.618865 0.284069,-0.218124 0.806553,-0.218124 0.258705,0 0.486975,0.03804 0.228269,0.03804 0.42103,0.114135 z"
         style="font-style:normal;font-variant:normal;font-weight:normal;font-stretch:normal;font-family:sans-serif;-inkscape-font-specification:sans-serif;fill:#00ff00;fill-opacity:1;stroke-width:0.264583;stroke-linecap:round;stroke-linejoin:round"
         id="path60" />
      <path
         d="m 39.862336,72.961821 q -0.339868,0.583355 -0.504729,1.154029 -0.164861,0.570674 -0.164861,1.156566 0,0.585891 0.164861,1.161638 0.167398,0.57321 0.504729,1.154029 H 39.456524 Q 39.076075,76.992046 38.88585,76.4163 q -0.187688,-0.575747 -0.187688,-1.143884 0,-0.565602 0.187688,-1.138812 0.187688,-0.57321 0.570674,-1.171783 z"
         style="font-style:normal;font-variant:normal;font-weight:normal;font-stretch:normal;font-family:sans-serif;-inkscape-font-specification:sans-serif;fill:#00ff00;fill-opacity:1;stroke-width:0.264583;stroke-linecap:round;stroke-linejoin:round"
         id="path62" />
      <path
         d="m 42.424027,75.581848 -0.111598,-0.585892 q -0.114135,-0.60111 -0.565601,-0.60111 -0.339868,0 -0.494584,0.278996 -0.195298,0.350013 -0.195298,0.811625 0,0.557992 0.190225,0.824307 0.192761,0.271387 0.499657,0.271387 0.339868,0 0.522483,-0.540238 z m 0.261242,-0.776117 0.251096,-0.743144 h 0.415958 l -0.519947,1.539551 0.101453,0.555456 q 0.02283,0.12428 0.111599,0.22827 0.103989,0.121743 0.185151,0.121743 h 0.223197 v 0.395668 H 43.17478 q -0.238415,0 -0.451466,-0.213052 -0.10399,-0.106526 -0.147107,-0.329723 -0.116671,0.281533 -0.355086,0.502193 -0.111599,0.10399 -0.474293,0.10399 -0.596038,0 -0.885179,-0.385522 -0.29675,-0.398204 -0.29675,-1.095694 0,-0.74568 0.322113,-1.095694 0.357623,-0.390594 0.859816,-0.390594 0.788798,0 0.938441,0.806552 z"
         style="font-style:normal;font-variant:normal;font-weight:normal;font-stretch:normal;font-family:sans-serif;-inkscape-font-specification:sans-serif;fill:#00ff00;fill-opacity:1;stroke-width:0.264583;stroke-linecap:round;stroke-linejoin:round"
         id="path64" />
      <path
         d="m 44.118295,72.961821 h 0.405813 q 0.380449,0.598573 0.568137,1.171783 0.190225,0.57321 0.190225,1.138812 0,0.568137 -0.190225,1.143884 -0.187688,0.575746 -0.568137,1.171783 h -0.405813 q 0.337332,-0.580819 0.502193,-1.154029 0.167398,-0.575747 0.167398,-1.161638 0,-0.585892 -0.167398,-1.156566 -0.164861,-0.570674 -0.502193,-1.154029 z"
         style="font-style:normal;font-variant:normal;font-weight:normal;font-stretch:normal;font-family:sans-serif;-inkscape-font-specification:sans-serif;fill:#00ff00;fill-opacity:1;stroke-width:0.264583;stroke-linecap:round;stroke-linejoin:round"
         id="path66" />
    </g>
    <g
       aria-label="sin(α)"
       id="text986"
       style="font-style:normal;font-variant:normal;font-weight:normal;font-stretch:normal;font-size:5.1944px;line-height:1.25;font-family:sans-serif;-inkscape-font-specification:sans-serif;fill:#0000ff;fill-opacity:1;stroke:none;stroke-width:0.264583;stroke-linecap:round;stroke-linejoin:round">
      <path
         d="m 64.682053,53.649502 v 0.441321 q -0.197834,-0.101453 -0.410885,-0.15218 -0.213052,-0.05073 -0.441321,-0.05073 -0.347477,0 -0.522484,0.106525 -0.17247,0.106526 -0.17247,0.319578 0,0.162325 0.12428,0.256169 0.12428,0.09131 0.499656,0.175006 l 0.159789,0.03551 q 0.49712,0.106526 0.705099,0.301823 0.210515,0.192761 0.210515,0.540238 0,0.395667 -0.314504,0.626473 -0.311969,0.230806 -0.859815,0.230806 -0.22827,0 -0.47683,-0.04565 -0.246024,-0.04312 -0.519947,-0.131889 v -0.481902 q 0.258705,0.134425 0.509802,0.202906 0.251096,0.06594 0.49712,0.06594 0.329723,0 0.507265,-0.111598 0.177543,-0.114135 0.177543,-0.319577 0,-0.190225 -0.129352,-0.291678 -0.126817,-0.101453 -0.560529,-0.195297 l -0.162325,-0.03804 q -0.433712,-0.09131 -0.626473,-0.278996 -0.192761,-0.190225 -0.192761,-0.519948 0,-0.40074 0.284069,-0.618864 0.284069,-0.218124 0.806552,-0.218124 0.258706,0 0.486975,0.03805 0.22827,0.03804 0.421031,0.114135 z"
         style="font-style:normal;font-variant:normal;font-weight:normal;font-stretch:normal;font-family:sans-serif;-inkscape-font-specification:sans-serif;fill:#0000ff;fill-opacity:1;stroke:none;stroke-width:0.264583;stroke-linecap:round;stroke-linejoin:round"
         id="path69" />
      <path
         d="m 65.577377,53.565803 h 0.466684 v 2.840687 h -0.466684 z m 0,-1.105839 h 0.466684 v 0.590964 h -0.466684 z"
         style="font-style:normal;font-variant:normal;font-weight:normal;font-stretch:normal;font-family:sans-serif;-inkscape-font-specification:sans-serif;fill:#0000ff;fill-opacity:1;stroke:none;stroke-width:0.264583;stroke-linecap:round;stroke-linejoin:round"
         id="path71" />
      <path
         d="m 69.381869,54.691933 v 1.714557 h -0.466685 v -1.699339 q 0,-0.403277 -0.157252,-0.603647 -0.157252,-0.200369 -0.471757,-0.200369 -0.377913,0 -0.596037,0.240951 -0.218124,0.240951 -0.218124,0.656909 v 1.605495 h -0.469221 v -2.840687 h 0.469221 v 0.441321 q 0.167397,-0.256169 0.39313,-0.382986 0.22827,-0.126816 0.52502,-0.126816 0.489512,0 0.740608,0.304359 0.251097,0.301823 0.251097,0.890252 z"
         style="font-style:normal;font-variant:normal;font-weight:normal;font-stretch:normal;font-family:sans-serif;-inkscape-font-specification:sans-serif;fill:#0000ff;fill-opacity:1;stroke:none;stroke-width:0.264583;stroke-linecap:round;stroke-linejoin:round"
         id="path73" />
      <path
         d="m 71.433758,52.465037 q -0.339868,0.583355 -0.504729,1.154029 -0.164862,0.570674 -0.164862,1.156565 0,0.585892 0.164862,1.161639 0.167397,0.57321 0.504729,1.154029 h -0.405812 q -0.38045,-0.596037 -0.570674,-1.171784 -0.187689,-0.575746 -0.187689,-1.143884 0,-0.565601 0.187689,-1.138811 0.187688,-0.57321 0.570674,-1.171783 z"
         style="font-style:normal;font-variant:normal;font-weight:normal;font-stretch:normal;font-family:sans-serif;-inkscape-font-specification:sans-serif;fill:#0000ff;fill-opacity:1;stroke:none;stroke-width:0.264583;stroke-linecap:round;stroke-linejoin:round"
         id="path75" />
      <path
         d="m 73.99545,55.085063 -0.111599,-0.585891 q -0.114134,-0.60111 -0.565601,-0.60111 -0.339868,0 -0.494584,0.278996 -0.195297,0.350013 -0.195297,0.811625 0,0.557992 0.190224,0.824307 0.192761,0.271387 0.499657,0.271387 0.339868,0 0.522484,-0.540238 z m 0.261242,-0.776116 0.251096,-0.743144 h 0.415958 l -0.519947,1.539551 0.101453,0.555456 q 0.02283,0.12428 0.111598,0.228269 0.10399,0.121744 0.185152,0.121744 h 0.223197 v 0.395667 h -0.278996 q -0.238415,0 -0.451467,-0.213051 -0.103989,-0.106526 -0.147107,-0.329723 -0.116671,0.281533 -0.355086,0.502193 -0.111598,0.10399 -0.474293,0.10399 -0.596037,0 -0.885178,-0.385522 -0.296751,-0.398204 -0.296751,-1.095694 0,-0.74568 0.322114,-1.095694 0.357622,-0.390594 0.859815,-0.390594 0.788798,0 0.938442,0.806552 z"
         style="font-style:normal;font-variant:normal;font-weight:normal;font-stretch:normal;font-family:sans-serif;-inkscape-font-specification:sans-serif;fill:#0000ff;fill-opacity:1;stroke:none;stroke-width:0.264583;stroke-linecap:round;stroke-linejoin:round"
         id="path77" />
      <path
         d="m 75.689717,52.465037 h 0.405812 q 0.380449,0.598573 0.568138,1.171783 0.190224,0.57321 0.190224,1.138811 0,0.568138 -0.190224,1.143884 -0.187689,0.575747 -0.568138,1.171784 h -0.405812 q 0.337331,-0.580819 0.502193,-1.154029 0.167397,-0.575747 0.167397,-1.161639 0,-0.585891 -0.167397,-1.156565 -0.164862,-0.570674 -0.502193,-1.154029 z"
         style="font-style:normal;font-variant:normal;font-weight:normal;font-stretch:normal;font-family:sans-serif;-inkscape-font-specification:sans-serif;fill:#0000ff;fill-opacity:1;stroke:none;stroke-width:0.264583;stroke-linecap:round;stroke-linejoin:round"
         id="path79" />
    </g>
    <g
       id="g1077"
       transform="translate(14.641736,24.195965)">
      <g
         id="text1028"
         style="font-size:10.5833px;line-height:1.25;font-family:Ubuntu;-inkscape-font-specification:Ubuntu;stroke-width:0.043847" />
      <g
         id="text1046"
         style="font-size:10.5833px;line-height:1.25;font-family:Ubuntu;-inkscape-font-specification:Ubuntu;stroke-width:0.264583" />
      <g
         id="text1140"
         style="font-style:normal;font-variant:normal;font-weight:normal;font-stretch:normal;font-size:6.35px;line-height:1.25;font-family:sans-serif;-inkscape-font-specification:sans-serif;stroke-width:0.043847" />
    </g>
    <path
       style="fill:none;stroke:#00ff00;stroke-width:0.8;stroke-linecap:round;stroke-linejoin:round;stroke-miterlimit:4;stroke-dasharray:none;stroke-opacity:1"
       d="M 8.9296898,78.382809 H 61.548697"
       id="path1159" />
    <path
       style="fill:none;stroke:#0000ff;stroke-width:0.8;stroke-linecap:round;stroke-linejoin:round;stroke-miterlimit:4;stroke-dasharray:none;stroke-opacity:1"
       d="M 61.548496,78.382809 V 25.764"
       id="path1161" />
  </g>
</svg>
