<?xml version="1.0" encoding="UTF-8" standalone="no"?>
<svg
   xmlns:dc="http://purl.org/dc/elements/1.1/"
   xmlns:cc="http://creativecommons.org/ns#"
   xmlns:rdf="http://www.w3.org/1999/02/22-rdf-syntax-ns#"
   xmlns:svg="http://www.w3.org/2000/svg"
   xmlns="http://www.w3.org/2000/svg"
   xmlns:sodipodi="http://sodipodi.sourceforge.net/DTD/sodipodi-0.dtd"
   xmlns:inkscape="http://www.inkscape.org/namespaces/inkscape"
   width="165.46899mm"
   height="82.866997mm"
   viewBox="0 0 165.469 82.866997"
   version="1.1"
   id="svg8"
   inkscape:version="1.0.1 (3bc2e813f5, 2020-09-07)"
   sodipodi:docname="Cosinus.svg">
  <defs
     id="defs2" />
  <sodipodi:namedview
     id="base"
     pagecolor="#ffffff"
     bordercolor="#666666"
     borderopacity="1.0"
     inkscape:pageopacity="0.0"
     inkscape:pageshadow="2"
     inkscape:zoom="1.28"
     inkscape:cx="207.58685"
     inkscape:cy="184.0694"
     inkscape:document-units="mm"
     inkscape:current-layer="g1340"
     inkscape:document-rotation="0"
     showgrid="false"
     showborder="true"
     inkscape:window-width="1920"
     inkscape:window-height="1016"
     inkscape:window-x="0"
     inkscape:window-y="27"
     inkscape:window-maximized="1"
     inkscape:snap-bbox="true"
     inkscape:object-paths="true"
     inkscape:snap-bbox-edge-midpoints="true"
     inkscape:bbox-nodes="true"
     inkscape:snap-bbox-midpoints="true"
     inkscape:snap-page="true" />
  <metadata
     id="metadata5">
    <rdf:RDF>
      <cc:Work
         rdf:about="">
        <dc:format>image/svg+xml</dc:format>
        <dc:type
           rdf:resource="http://purl.org/dc/dcmitype/StillImage" />
        <dc:title />
      </cc:Work>
    </rdf:RDF>
  </metadata>
  <g
     inkscape:label="Ebene 1"
     inkscape:groupmode="layer"
     id="layer1">
    <g
       id="g1077"
       transform="translate(-19.087372,-33.167972)">
      <g
         id="text1028"
         style="font-size:10.5833px;line-height:1.25;font-family:Ubuntu;-inkscape-font-specification:Ubuntu;stroke-width:0.043847" />
      <g
         id="text1046"
         style="font-size:10.5833px;line-height:1.25;font-family:Ubuntu;-inkscape-font-specification:Ubuntu;stroke-width:0.264583" />
      <g
         id="text1140"
         style="font-style:normal;font-variant:normal;font-weight:normal;font-stretch:normal;font-size:6.35px;line-height:1.25;font-family:sans-serif;-inkscape-font-specification:sans-serif;stroke-width:0.043847" />
      <g
         id="g1340"
         transform="translate(6.5496797,8.8416981)">
        <path
           id="path1278"
           style="fill:#00ff00;fill-opacity:0.622057;stroke:#00ff00;stroke-width:1.003;stroke-linecap:round;stroke-linejoin:round;stroke-miterlimit:4;stroke-dasharray:none;stroke-opacity:1"
           d="m 45.599005,84.099078 -25.97228,14.9949 h 29.98983 a 31.777635,31.777635 0 0 0 -4.01755,-14.9949 z" />
        <path
           id="path1280"
           style="fill:#0066ff;fill-opacity:0.615959;stroke:#0066ff;stroke-width:1.003;stroke-linecap:round;stroke-linejoin:round;stroke-miterlimit:4;stroke-dasharray:none;stroke-opacity:1"
           d="m 132.87949,33.707452 -16.67638,9.628434 a 19.256453,19.256453 0 0 0 16.67638,9.628432 19.256453,19.256453 0 0 0 9.62843,-2.58048 z" />
        <path
           style="fill:none;stroke:#000000;stroke-width:1.079;stroke-linecap:round;stroke-linejoin:round;stroke-miterlimit:4;stroke-dasharray:none;stroke-opacity:1"
           d="M 170.63043,99.093978 132.87949,33.707452 19.626725,99.093978 Z"
           id="path1284" />
        <g
           aria-label="Ankathete von Winkel α"
           transform="rotate(-30)"
           id="text1304"
           style="font-style:normal;font-variant:normal;font-weight:normal;font-stretch:normal;font-size:6.35px;line-height:1.25;font-family:sans-serif;-inkscape-font-specification:sans-serif;stroke-width:0.043847">
          <path
             d="m 0.15092227,87.339458 -0.84956054,2.303735 H 1.0035834 Z m -0.3534668,-0.617017 H 0.50748964 L 2.271723,91.351616 H 1.6206 L 1.1989203,90.164092 h -2.08669431 l -0.42167969,1.187524 h -0.6604248 z"
             style="font-style:normal;font-variant:normal;font-weight:normal;font-stretch:normal;font-size:6.35px;font-family:sans-serif;-inkscape-font-specification:sans-serif;stroke-width:0.043847"
             id="path31" />
          <path
             d="m 5.806391,89.25562 v 2.095996 H 5.2358832 v -2.077393 q 0,-0.492993 -0.1922363,-0.737939 -0.1922364,-0.244946 -0.576709,-0.244946 -0.4619873,0 -0.7286377,0.294555 -0.2666504,0.294556 -0.2666504,0.803052 v 1.962671 H 2.8980414 V 87.87896 h 0.5736084 v 0.539502 q 0.2046387,-0.31316 0.4805908,-0.468189 0.2790528,-0.155029 0.6418213,-0.155029 0.5984131,0 0.9053711,0.37207 0.306958,0.36897 0.306958,1.088306 z"
             style="font-style:normal;font-variant:normal;font-weight:normal;font-stretch:normal;font-size:6.35px;font-family:sans-serif;-inkscape-font-specification:sans-serif;stroke-width:0.043847"
             id="path33" />
          <path
             d="m 6.9288031,86.527104 h 0.5736084 v 2.849439 L 9.2046332,87.87896 h 0.7286377 l -1.841748,1.624707 1.9192631,1.847949 H 9.2666449 L 7.5024115,89.655595 v 1.696021 H 6.9288031 Z"
             style="font-style:normal;font-variant:normal;font-weight:normal;font-stretch:normal;font-size:6.35px;font-family:sans-serif;-inkscape-font-specification:sans-serif;stroke-width:0.043847"
             id="path35" />
          <path
             d="m 12.10058,89.605986 q -0.691431,0 -0.958081,0.15813 -0.26665,0.15813 -0.26665,0.539502 0,0.303857 0.198437,0.483691 0.201538,0.176734 0.545703,0.176734 0.47439,0 0.759644,-0.334864 0.288354,-0.337963 0.288354,-0.896069 v -0.127124 z m 1.137915,-0.235644 v 1.981274 h -0.570508 v -0.5271 q -0.195337,0.31626 -0.486792,0.468189 -0.291455,0.148828 -0.713134,0.148828 -0.533301,0 -0.849561,-0.297656 -0.313159,-0.300757 -0.313159,-0.803052 0,-0.586011 0.390674,-0.883667 0.393774,-0.297656 1.172021,-0.297656 h 0.799951 v -0.05581 q 0,-0.393774 -0.260449,-0.607715 -0.257349,-0.217041 -0.725537,-0.217041 -0.297656,0 -0.57981,0.07131 -0.282153,0.07131 -0.542602,0.21394 V 88.03709 q 0.313159,-0.120923 0.607715,-0.179834 0.294555,-0.06201 0.573608,-0.06201 0.753442,0 1.125513,0.390674 0.37207,0.390674 0.37207,1.184424 z"
             style="font-style:normal;font-variant:normal;font-weight:normal;font-stretch:normal;font-size:6.35px;font-family:sans-serif;-inkscape-font-specification:sans-serif;stroke-width:0.043847"
             id="path37" />
          <path
             d="m 14.981025,86.892973 v 0.985987 h 1.175122 v 0.443383 H 14.981025 V 90.2075 q 0,0.42478 0.114722,0.545703 0.117822,0.120923 0.47439,0.120923 h 0.58601 v 0.47749 h -0.58601 q -0.660425,0 -0.911573,-0.244946 -0.251147,-0.248047 -0.251147,-0.89917 V 88.322343 H 13.988838 V 87.87896 h 0.418579 v -0.985987 z"
             style="font-style:normal;font-variant:normal;font-weight:normal;font-stretch:normal;font-size:6.35px;font-family:sans-serif;-inkscape-font-specification:sans-serif;stroke-width:0.043847"
             id="path39" />
          <path
             d="m 19.796234,89.25562 v 2.095996 h -0.570507 v -2.077393 q 0,-0.492993 -0.192237,-0.737939 -0.192236,-0.244946 -0.576709,-0.244946 -0.461987,0 -0.728637,0.294555 -0.266651,0.294556 -0.266651,0.803052 v 1.962671 h -0.573608 v -4.824512 h 0.573608 v 1.891358 q 0.204639,-0.31316 0.480591,-0.468189 0.279053,-0.155029 0.641821,-0.155029 0.598413,0 0.905371,0.37207 0.306958,0.36897 0.306958,1.088306 z"
             style="font-style:normal;font-variant:normal;font-weight:normal;font-stretch:normal;font-size:6.35px;font-family:sans-serif;-inkscape-font-specification:sans-serif;stroke-width:0.043847"
             id="path41" />
          <path
             d="m 23.910712,89.472661 v 0.279053 h -2.623096 q 0.03721,0.589111 0.353467,0.899169 0.31936,0.306958 0.886768,0.306958 0.328662,0 0.63562,-0.08062 0.310058,-0.08061 0.613916,-0.241845 v 0.539502 q -0.306958,0.130224 -0.629419,0.198437 -0.322461,0.06821 -0.654224,0.06821 -0.830957,0 -1.317749,-0.483692 -0.483691,-0.483691 -0.483691,-1.308447 0,-0.852661 0.458886,-1.351855 0.461988,-0.502295 1.243335,-0.502295 0.700733,0 1.10691,0.452685 0.409277,0.449585 0.409277,1.224732 z m -0.570508,-0.167432 q -0.0062,-0.468188 -0.26355,-0.747241 -0.254248,-0.279053 -0.675927,-0.279053 -0.477491,0 -0.765845,0.269751 -0.285254,0.269751 -0.328662,0.759644 z"
             style="font-style:normal;font-variant:normal;font-weight:normal;font-stretch:normal;font-size:6.35px;font-family:sans-serif;-inkscape-font-specification:sans-serif;stroke-width:0.043847"
             id="path43" />
          <path
             d="m 25.411396,86.892973 v 0.985987 h 1.175122 v 0.443383 H 25.411396 V 90.2075 q 0,0.42478 0.114721,0.545703 0.117822,0.120923 0.47439,0.120923 h 0.586011 v 0.47749 h -0.586011 q -0.660425,0 -0.911572,-0.244946 -0.251148,-0.248047 -0.251148,-0.89917 V 88.322343 H 24.419208 V 87.87896 h 0.418579 v -0.985987 z"
             style="font-style:normal;font-variant:normal;font-weight:normal;font-stretch:normal;font-size:6.35px;font-family:sans-serif;-inkscape-font-specification:sans-serif;stroke-width:0.043847"
             id="path45" />
          <path
             d="m 30.310322,89.472661 v 0.279053 h -2.623095 q 0.03721,0.589111 0.353467,0.899169 0.31936,0.306958 0.886767,0.306958 0.328662,0 0.63562,-0.08062 0.310059,-0.08061 0.613916,-0.241845 v 0.539502 q -0.306958,0.130224 -0.629419,0.198437 -0.322461,0.06821 -0.654223,0.06821 -0.830957,0 -1.317749,-0.483692 -0.483692,-0.483691 -0.483692,-1.308447 0,-0.852661 0.458887,-1.351855 0.461987,-0.502295 1.243335,-0.502295 0.700732,0 1.106909,0.452685 0.409277,0.449585 0.409277,1.224732 z m -0.570507,-0.167432 q -0.0062,-0.468188 -0.26355,-0.747241 -0.254248,-0.279053 -0.675928,-0.279053 -0.47749,0 -0.765845,0.269751 -0.285254,0.269751 -0.328662,0.759644 z"
             style="font-style:normal;font-variant:normal;font-weight:normal;font-stretch:normal;font-size:6.35px;font-family:sans-serif;-inkscape-font-specification:sans-serif;stroke-width:0.043847"
             id="path47" />
          <path
             d="m 32.859002,87.87896 h 0.604614 l 1.085205,2.91455 1.085205,-2.91455 h 0.604614 l -1.302246,3.472656 h -0.775146 z"
             style="font-style:normal;font-variant:normal;font-weight:normal;font-stretch:normal;font-size:6.35px;font-family:sans-serif;-inkscape-font-specification:sans-serif;stroke-width:0.043847"
             id="path49" />
          <path
             d="m 38.371845,88.278935 q -0.458887,0 -0.725537,0.359668 -0.26665,0.356568 -0.26665,0.979785 0,0.623218 0.263549,0.982886 0.266651,0.356567 0.728638,0.356567 0.455786,0 0.722437,-0.359667 0.26665,-0.359668 0.26665,-0.979786 0,-0.617016 -0.26665,-0.976684 -0.266651,-0.362769 -0.722437,-0.362769 z m 0,-0.483691 q 0.744141,0 1.168921,0.483691 0.42478,0.483692 0.42478,1.339453 0,0.852662 -0.42478,1.339453 -0.42478,0.483692 -1.168921,0.483692 -0.747241,0 -1.172021,-0.483692 -0.42168,-0.486791 -0.42168,-1.339453 0,-0.855761 0.42168,-1.339453 0.42478,-0.483691 1.172021,-0.483691 z"
             style="font-style:normal;font-variant:normal;font-weight:normal;font-stretch:normal;font-size:6.35px;font-family:sans-serif;-inkscape-font-specification:sans-serif;stroke-width:0.043847"
             id="path51" />
          <path
             d="m 43.794768,89.25562 v 2.095996 H 43.22426 v -2.077393 q 0,-0.492993 -0.192237,-0.737939 -0.192236,-0.244946 -0.576708,-0.244946 -0.461988,0 -0.728638,0.294555 -0.266651,0.294556 -0.266651,0.803052 v 1.962671 H 40.886418 V 87.87896 h 0.573608 v 0.539502 q 0.204639,-0.31316 0.480591,-0.468189 0.279053,-0.155029 0.641822,-0.155029 0.598413,0 0.905371,0.37207 0.306958,0.36897 0.306958,1.088306 z"
             style="font-style:normal;font-variant:normal;font-weight:normal;font-stretch:normal;font-size:6.35px;font-family:sans-serif;-inkscape-font-specification:sans-serif;stroke-width:0.043847"
             id="path53" />
          <path
             d="m 46.572894,86.722441 h 0.63252 l 0.973584,3.91294 0.970483,-3.91294 h 0.703833 l 0.973584,3.91294 0.970483,-3.91294 h 0.635621 l -1.16272,4.629175 h -0.787549 l -0.976685,-4.018359 -0.985986,4.018359 h -0.787549 z"
             style="font-style:normal;font-variant:normal;font-weight:normal;font-stretch:normal;font-size:6.35px;font-family:sans-serif;-inkscape-font-specification:sans-serif;stroke-width:0.043847"
             id="path55" />
          <path
             d="m 53.099628,87.87896 h 0.570507 v 3.472656 h -0.570507 z m 0,-1.351856 h 0.570507 v 0.722437 h -0.570507 z"
             style="font-style:normal;font-variant:normal;font-weight:normal;font-stretch:normal;font-size:6.35px;font-family:sans-serif;-inkscape-font-specification:sans-serif;stroke-width:0.043847"
             id="path57" />
          <path
             d="m 57.747404,89.25562 v 2.095996 h -0.570507 v -2.077393 q 0,-0.492993 -0.192237,-0.737939 -0.192236,-0.244946 -0.576709,-0.244946 -0.461987,0 -0.728637,0.294555 -0.266651,0.294556 -0.266651,0.803052 v 1.962671 H 54.839055 V 87.87896 h 0.573608 v 0.539502 q 0.204639,-0.31316 0.480591,-0.468189 0.279053,-0.155029 0.641821,-0.155029 0.598413,0 0.905371,0.37207 0.306958,0.36897 0.306958,1.088306 z"
             style="font-style:normal;font-variant:normal;font-weight:normal;font-stretch:normal;font-size:6.35px;font-family:sans-serif;-inkscape-font-specification:sans-serif;stroke-width:0.043847"
             id="path59" />
          <path
             d="m 58.869816,86.527104 h 0.573609 v 2.849439 l 1.702222,-1.497583 h 0.728637 l -1.841748,1.624707 1.919263,1.847949 h -0.744141 l -1.764233,-1.696021 v 1.696021 h -0.573609 z"
             style="font-style:normal;font-variant:normal;font-weight:normal;font-stretch:normal;font-size:6.35px;font-family:sans-serif;-inkscape-font-specification:sans-serif;stroke-width:0.043847"
             id="path61" />
          <path
             d="m 65.322137,89.472661 v 0.279053 h -2.623096 q 0.03721,0.589111 0.353467,0.899169 0.31936,0.306958 0.886767,0.306958 0.328662,0 0.63562,-0.08062 0.310059,-0.08061 0.613916,-0.241845 v 0.539502 q -0.306958,0.130224 -0.629419,0.198437 -0.322461,0.06821 -0.654223,0.06821 -0.830957,0 -1.317749,-0.483692 -0.483692,-0.483691 -0.483692,-1.308447 0,-0.852661 0.458887,-1.351855 0.461987,-0.502295 1.243335,-0.502295 0.700732,0 1.106909,0.452685 0.409278,0.449585 0.409278,1.224732 z m -0.570508,-0.167432 q -0.0062,-0.468188 -0.26355,-0.747241 -0.254248,-0.279053 -0.675928,-0.279053 -0.47749,0 -0.765845,0.269751 -0.285253,0.269751 -0.328662,0.759644 z"
             style="font-style:normal;font-variant:normal;font-weight:normal;font-stretch:normal;font-size:6.35px;font-family:sans-serif;-inkscape-font-specification:sans-serif;stroke-width:0.043847"
             id="path63" />
          <path
             d="m 66.258514,86.527104 h 0.570507 v 4.824512 h -0.570507 z"
             style="font-style:normal;font-variant:normal;font-weight:normal;font-stretch:normal;font-size:6.35px;font-family:sans-serif;-inkscape-font-specification:sans-serif;stroke-width:0.043847"
             id="path65" />
          <path
             d="m 72.065911,89.736211 -0.136426,-0.716236 q -0.139526,-0.734839 -0.69143,-0.734839 -0.415479,0 -0.604615,0.341065 -0.238745,0.427881 -0.238745,0.992187 0,0.682129 0.232544,1.007691 0.235645,0.331762 0.610816,0.331762 0.415478,0 0.63872,-0.660424 z m 0.31936,-0.94878 0.306958,-0.908471 h 0.508496 l -0.63562,1.882055 0.124024,0.679029 q 0.02791,0.151928 0.136426,0.279052 0.127124,0.148829 0.226342,0.148829 h 0.272852 v 0.483691 h -0.341065 q -0.291455,0 -0.551904,-0.260449 -0.127124,-0.130225 -0.179834,-0.403076 -0.142627,0.344165 -0.434082,0.613916 -0.136426,0.127124 -0.579809,0.127124 -0.728638,0 -1.082105,-0.47129 -0.362768,-0.486791 -0.362768,-1.339453 0,-0.911572 0.393774,-1.339453 0.437183,-0.47749 1.051099,-0.47749 0.964282,0 1.147216,0.985986 z"
             style="font-style:normal;font-variant:normal;font-weight:normal;font-stretch:normal;font-size:6.35px;font-family:sans-serif;-inkscape-font-specification:sans-serif;stroke-width:0.043847"
             id="path67" />
        </g>
        <g
           aria-label="α"
           transform="translate(-27.587115,-6.0035707)"
           id="g1308"
           style="font-style:normal;font-variant:normal;font-weight:normal;font-stretch:normal;font-size:6.62881px;line-height:1.25;font-family:sans-serif;-inkscape-font-specification:sans-serif;stroke-width:0.165721">
          <path
             d="M 66.336409,100.37453 66.193993,99.626844 Q 66.04834,98.85974 65.472204,98.85974 q -0.433721,0 -0.631161,0.35604 -0.249228,0.446667 -0.249228,1.03575 0,0.71208 0.242754,1.05194 0.245991,0.34633 0.637635,0.34633 0.433721,0 0.666765,-0.68943 z m 0.333382,-0.990441 0.320436,-0.94836 h 0.530823 l -0.663529,1.964691 0.129469,0.70884 q 0.02913,0.1586 0.142416,0.29131 0.132706,0.15536 0.236281,0.15536 h 0.284832 v 0.50493 h -0.35604 q -0.304252,0 -0.576137,-0.27189 -0.132705,-0.13594 -0.18773,-0.42077 -0.148889,0.35928 -0.453141,0.64087 -0.142416,0.13271 -0.605267,0.13271 -0.76063,0 -1.129617,-0.49198 -0.378697,-0.50817 -0.378697,-1.39827 0,-0.951596 0.411064,-1.398263 0.456378,-0.498456 1.09725,-0.498456 1.006621,0 1.197587,1.029278 z"
             style="font-style:normal;font-variant:normal;font-weight:normal;font-stretch:normal;font-family:sans-serif;-inkscape-font-specification:sans-serif;stroke-width:0.165721"
             id="path1306" />
        </g>
        <g
           aria-label="Hypotenuse"
           id="text1312"
           style="font-style:normal;font-variant:normal;font-weight:normal;font-stretch:normal;font-size:6.62881px;line-height:1.25;font-family:sans-serif;-inkscape-font-specification:sans-serif;stroke-width:0.165721">
          <path
             d="m 76.954125,100.98208 h 0.653818 v 1.98087 h 2.375755 v -1.98087 h 0.653818 v 4.83243 h -0.653818 v -2.30131 h -2.375755 v 2.30131 h -0.653818 z"
             style="font-style:normal;font-variant:normal;font-weight:normal;font-stretch:normal;font-family:sans-serif;-inkscape-font-specification:sans-serif;stroke-width:0.165721"
             id="path70" />
          <path
             d="m 83.421098,106.15113 q -0.252464,0.64734 -0.491982,0.84478 -0.239517,0.19744 -0.640871,0.19744 h -0.475798 v -0.49845 h 0.349566 q 0.245991,0 0.381933,-0.11653 0.135943,-0.11652 0.301015,-0.55024 l 0.106812,-0.27188 -1.466235,-3.56687 h 0.631161 l 1.132853,2.83537 1.132853,-2.83537 h 0.631161 z"
             style="font-style:normal;font-variant:normal;font-weight:normal;font-stretch:normal;font-family:sans-serif;-inkscape-font-specification:sans-serif;stroke-width:0.165721"
             id="path72" />
          <path
             d="m 86.411831,105.27074 v 1.92261 h -0.598794 v -5.00397 h 0.598794 v 0.55024 q 0.18773,-0.32367 0.472561,-0.47904 0.288069,-0.1586 0.686186,-0.1586 0.660291,0 1.071355,0.52435 0.414301,0.52435 0.414301,1.37885 0,0.85449 -0.414301,1.37884 -0.411064,0.52435 -1.071355,0.52435 -0.398117,0 -0.686186,-0.15536 -0.284831,-0.1586 -0.472561,-0.48227 z m 2.026189,-1.26556 q 0,-0.65706 -0.271885,-1.02928 -0.268648,-0.37546 -0.74121,-0.37546 -0.472562,0 -0.744446,0.37546 -0.268648,0.37222 -0.268648,1.02928 0,0.65705 0.268648,1.03251 0.271884,0.37223 0.744446,0.37223 0.472562,0 0.74121,-0.37223 0.271885,-0.37546 0.271885,-1.03251 z"
             style="font-style:normal;font-variant:normal;font-weight:normal;font-stretch:normal;font-family:sans-serif;-inkscape-font-specification:sans-serif;stroke-width:0.165721"
             id="path74" />
          <path
             d="m 91.448173,102.60691 q -0.479035,0 -0.757394,0.37546 -0.278358,0.37223 -0.278358,1.02281 0,0.65058 0.275122,1.02604 0.278358,0.37222 0.76063,0.37222 0.475798,0 0.754156,-0.37546 0.278358,-0.37546 0.278358,-1.0228 0,-0.64411 -0.278358,-1.01957 -0.278358,-0.3787 -0.754156,-0.3787 z m 0,-0.50493 q 0.776813,0 1.220244,0.50493 0.443432,0.50493 0.443432,1.39827 0,0.8901 -0.443432,1.39826 -0.443431,0.50493 -1.220244,0.50493 -0.780051,0 -1.223482,-0.50493 -0.440194,-0.50816 -0.440194,-1.39826 0,-0.89334 0.440194,-1.39827 0.443431,-0.50493 1.223482,-0.50493 z"
             style="font-style:normal;font-variant:normal;font-weight:normal;font-stretch:normal;font-family:sans-serif;-inkscape-font-specification:sans-serif;stroke-width:0.165721"
             id="path76" />
          <path
             d="m 94.684896,101.1601 v 1.02928 h 1.226718 v 0.46285 h -1.226718 v 1.96793 q 0,0.44343 0.119759,0.56966 0.122995,0.12623 0.495218,0.12623 h 0.611741 v 0.49846 h -0.611741 q -0.689422,0 -0.951596,-0.2557 -0.262175,-0.25894 -0.262175,-0.93865 v -1.96793 h -0.436958 v -0.46285 h 0.436958 v -1.02928 z"
             style="font-style:normal;font-variant:normal;font-weight:normal;font-stretch:normal;font-family:sans-serif;-inkscape-font-specification:sans-serif;stroke-width:0.165721"
             id="path78" />
          <path
             d="m 99.798921,103.85305 v 0.29131 h -2.738268 q 0.03884,0.61497 0.368986,0.93865 0.333383,0.32043 0.925703,0.32043 0.343093,0 0.663528,-0.0842 0.323673,-0.0842 0.640872,-0.25247 v 0.56319 q -0.320436,0.13595 -0.657055,0.20715 -0.336619,0.0712 -0.682949,0.0712 -0.867442,0 -1.375607,-0.50493 -0.504929,-0.50493 -0.504929,-1.36589 0,-0.8901 0.479035,-1.41122 0.482272,-0.52435 1.297926,-0.52435 0.7315,0 1.15551,0.47257 0.427248,0.46932 0.427248,1.2785 z m -0.595557,-0.17478 q -0.0065,-0.48875 -0.275122,-0.78005 -0.265411,-0.29131 -0.705606,-0.29131 -0.498455,0 -0.79947,0.2816 -0.297779,0.28159 -0.343093,0.793 z"
             style="font-style:normal;font-variant:normal;font-weight:normal;font-stretch:normal;font-family:sans-serif;-inkscape-font-specification:sans-serif;stroke-width:0.165721"
             id="path80" />
          <path
             d="m 103.7898,103.62648 v 2.18803 h -0.59556 v -2.16861 q 0,-0.51464 -0.20067,-0.77034 -0.20068,-0.2557 -0.60204,-0.2557 -0.48227,0 -0.76063,0.30749 -0.27835,0.30749 -0.27835,0.83831 v 2.04885 h -0.5988 v -3.62513 h 0.5988 v 0.56319 q 0.21362,-0.32691 0.50169,-0.48875 0.2913,-0.16184 0.67,-0.16184 0.62469,0 0.94512,0.38841 0.32044,0.38517 0.32044,1.13609 z"
             style="font-style:normal;font-variant:normal;font-weight:normal;font-stretch:normal;font-family:sans-serif;-inkscape-font-specification:sans-serif;stroke-width:0.165721"
             id="path82" />
          <path
             d="m 104.92265,104.38387 v -2.19449 h 0.59556 v 2.17184 q 0,0.51464 0.20068,0.77357 0.20067,0.25571 0.60203,0.25571 0.48227,0 0.76063,-0.30749 0.28159,-0.30749 0.28159,-0.83831 v -2.05532 h 0.59556 v 3.62513 h -0.59556 v -0.55672 q -0.21686,0.33015 -0.50493,0.49198 -0.28483,0.1586 -0.66352,0.1586 -0.62469,0 -0.94836,-0.38841 -0.32368,-0.3884 -0.32368,-1.13609 z m 1.49861,-2.28189 z"
             style="font-style:normal;font-variant:normal;font-weight:normal;font-stretch:normal;font-family:sans-serif;-inkscape-font-specification:sans-serif;stroke-width:0.165721"
             id="path84" />
          <path
             d="m 111.50291,102.29619 v 0.56319 q -0.25246,-0.12947 -0.52435,-0.19421 -0.27188,-0.0647 -0.56319,-0.0647 -0.44343,0 -0.66676,0.13594 -0.2201,0.13594 -0.2201,0.40783 0,0.20715 0.1586,0.32691 0.1586,0.11652 0.63763,0.22333 l 0.20392,0.0453 q 0.6344,0.13594 0.89981,0.38517 0.26865,0.24599 0.26865,0.68942 0,0.50493 -0.40136,0.79947 -0.39812,0.29454 -1.09725,0.29454 -0.2913,0 -0.6085,-0.0583 -0.31396,-0.055 -0.66353,-0.16831 v -0.61498 q 0.33015,0.17155 0.65058,0.25894 0.32044,0.0842 0.6344,0.0842 0.42077,0 0.64734,-0.14242 0.22657,-0.14565 0.22657,-0.40783 0,-0.24275 -0.16507,-0.37222 -0.16183,-0.12947 -0.71531,-0.24923 l -0.20715,-0.0485 q -0.55348,-0.11652 -0.79948,-0.35604 -0.24599,-0.24275 -0.24599,-0.66353 0,-0.5114 0.36252,-0.78976 0.36251,-0.27836 1.02927,-0.27836 0.33015,0 0.62146,0.0486 0.2913,0.0485 0.53729,0.14565 z"
             style="font-style:normal;font-variant:normal;font-weight:normal;font-stretch:normal;font-family:sans-serif;-inkscape-font-specification:sans-serif;stroke-width:0.165721"
             id="path86" />
          <path
             d="m 115.74949,103.85305 v 0.29131 h -2.73826 q 0.0388,0.61497 0.36898,0.93865 0.33338,0.32043 0.92571,0.32043 0.34309,0 0.66352,-0.0842 0.32368,-0.0842 0.64087,-0.25247 v 0.56319 q -0.32043,0.13595 -0.65705,0.20715 -0.33662,0.0712 -0.68295,0.0712 -0.86744,0 -1.37561,-0.50493 -0.50493,-0.50493 -0.50493,-1.36589 0,-0.8901 0.47904,-1.41122 0.48227,-0.52435 1.29793,-0.52435 0.7315,0 1.15551,0.47257 0.42724,0.46932 0.42724,1.2785 z m -0.59555,-0.17478 q -0.006,-0.48875 -0.27512,-0.78005 -0.26542,-0.29131 -0.70561,-0.29131 -0.49846,0 -0.79947,0.2816 -0.29778,0.28159 -0.34309,0.793 z"
             style="font-style:normal;font-variant:normal;font-weight:normal;font-stretch:normal;font-family:sans-serif;-inkscape-font-specification:sans-serif;stroke-width:0.165721"
             id="path88" />
        </g>
        <g
           aria-label="."
           id="text863"
           style="font-size:10.5833px;line-height:1.25;font-family:Ubuntu;-inkscape-font-specification:Ubuntu;stroke-width:0.264583">
          <path
             d="m 130.0646,43.335892 q 0,0.28575 -0.1905,0.497415 -0.1905,0.211666 -0.51858,0.211666 -0.32808,0 -0.51858,-0.211666 -0.1905,-0.211665 -0.1905,-0.497415 0,-0.285749 0.1905,-0.497415 0.1905,-0.211666 0.51858,-0.211666 0.32808,0 0.51858,0.211666 0.1905,0.211666 0.1905,0.497415 z"
             style="stroke-width:0.264583"
             id="path91" />
        </g>
        <path
           style="fill:none;stroke:#ff0000;stroke-width:1.465;stroke-linecap:round;stroke-linejoin:round;stroke-miterlimit:4;stroke-dasharray:none;stroke-opacity:1"
           d="M 19.626724,99.093978 H 170.63043"
           id="path865" />
        <path
           style="fill:none;stroke:#ff0000;stroke-width:1.465;stroke-linecap:round;stroke-linejoin:round;stroke-miterlimit:4;stroke-dasharray:none;stroke-opacity:1"
           d="M 19.626724,99.093978 132.87949,33.707452"
           id="path869" />
      </g>
    </g>
  </g>
</svg>
