<?xml version="1.0" encoding="UTF-8" standalone="no"?>
<svg
   xmlns:dc="http://purl.org/dc/elements/1.1/"
   xmlns:cc="http://creativecommons.org/ns#"
   xmlns:rdf="http://www.w3.org/1999/02/22-rdf-syntax-ns#"
   xmlns:svg="http://www.w3.org/2000/svg"
   xmlns="http://www.w3.org/2000/svg"
   xmlns:sodipodi="http://sodipodi.sourceforge.net/DTD/sodipodi-0.dtd"
   xmlns:inkscape="http://www.inkscape.org/namespaces/inkscape"
   width="98.348999mm"
   height="98.348999mm"
   viewBox="0 0 98.348999 98.348999"
   version="1.1"
   id="svg1366"
   inkscape:version="1.0.1 (3bc2e813f5, 2020-09-07)"
   sodipodi:docname="RadarLoesung.svg">
  <defs
     id="defs1360" />
  <sodipodi:namedview
     id="base"
     pagecolor="#ffffff"
     bordercolor="#666666"
     borderopacity="1.0"
     inkscape:pageopacity="0.0"
     inkscape:pageshadow="2"
     inkscape:zoom="0.49497475"
     inkscape:cx="379.53159"
     inkscape:cy="227.12665"
     inkscape:document-units="mm"
     inkscape:current-layer="layer1"
     inkscape:document-rotation="0"
     showgrid="false"
     inkscape:window-width="1920"
     inkscape:window-height="1043"
     inkscape:window-x="1920"
     inkscape:window-y="0"
     inkscape:window-maximized="1"
     inkscape:snap-page="true"
     inkscape:snap-bbox="true"
     inkscape:bbox-nodes="true" />
  <metadata
     id="metadata1363">
    <rdf:RDF>
      <cc:Work
         rdf:about="">
        <dc:format>image/svg+xml</dc:format>
        <dc:type
           rdf:resource="http://purl.org/dc/dcmitype/StillImage" />
        <dc:title />
      </cc:Work>
    </rdf:RDF>
  </metadata>
  <g
     inkscape:label="Ebene 1"
     inkscape:groupmode="layer"
     id="layer1">
    <g
       id="g2269"
       transform="translate(137.17988,-60.674508)">
      <g
         id="g2201">
        <g
           id="g1344"
           transform="translate(-137.17988,60.674508)">
          <path
             id="rect1218"
             style="fill:#192b15;fill-opacity:1;stroke:#89f33e;stroke-width:1.31762;stroke-linecap:round;stroke-linejoin:round;stroke-opacity:1"
             d="M 0.65881002,0.65881002 H 97.690373 V 97.690373 H 0.65881002 Z" />
          <path
             id="rect1220"
             style="fill:#192b15;fill-opacity:1;stroke:none;stroke-width:1.07786;stroke-linecap:round;stroke-linejoin:round;stroke-opacity:1"
             d="M 9.4870872,9.3944435 H 88.862087 V 88.769444 H 9.4870872 Z" />
          <path
             style="fill:none;stroke:#89f33e;stroke-width:0.264583px;stroke-linecap:butt;stroke-linejoin:miter;stroke-opacity:1"
             d="M 9.5806393,9.487987 88.955629,88.862985"
             id="path1222" />
          <path
             style="fill:none;stroke:#89f33e;stroke-width:0.264583px;stroke-linecap:butt;stroke-linejoin:miter;stroke-opacity:1"
             d="M 88.768549,9.487993 9.3935493,88.862991"
             id="path1224" />
          <path
             style="fill:none;stroke:#89f33e;stroke-width:0.264583px;stroke-linecap:butt;stroke-linejoin:miter;stroke-opacity:1"
             d="M 9.4870993,19.316313 H 88.862089"
             id="path1226" />
          <path
             style="fill:none;stroke:#89f33e;stroke-width:0.264583px;stroke-linecap:butt;stroke-linejoin:miter;stroke-opacity:1"
             d="M 9.4866993,29.238184 H 88.861689"
             id="path1228" />
          <path
             style="fill:none;stroke:#89f33e;stroke-width:0.264583px;stroke-linecap:butt;stroke-linejoin:miter;stroke-opacity:1"
             d="M 9.4870893,39.159019 H 88.862089"
             id="path1230" />
          <path
             style="fill:none;stroke:#89f33e;stroke-width:0.264583px;stroke-linecap:butt;stroke-linejoin:miter;stroke-opacity:1"
             d="M 9.4870893,49.081948 H 88.862089"
             id="path1232" />
          <path
             style="fill:none;stroke:#89f33e;stroke-width:0.264583px;stroke-linecap:butt;stroke-linejoin:miter;stroke-opacity:1"
             d="M 9.4870893,59.006821 H 88.862089"
             id="path1235" />
          <path
             style="fill:none;stroke:#89f33e;stroke-width:0.264583px;stroke-linecap:butt;stroke-linejoin:miter;stroke-opacity:1"
             d="M 9.4771193,68.925694 H 88.852119"
             id="path1237" />
          <path
             style="fill:none;stroke:#89f33e;stroke-width:0.264583px;stroke-linecap:butt;stroke-linejoin:miter;stroke-opacity:1"
             d="M 9.4870893,78.853233 H 88.862089"
             id="path1239" />
          <path
             style="fill:none;stroke:#89f33e;stroke-width:0.264583px;stroke-linecap:butt;stroke-linejoin:miter;stroke-opacity:1"
             d="M 9.4870993,88.637156 H 88.862089"
             id="path1241" />
          <path
             style="fill:none;stroke:#89f33e;stroke-width:0.264583px;stroke-linecap:butt;stroke-linejoin:miter;stroke-opacity:1"
             d="M 9.4870993,9.52674 H 88.862089"
             id="path1243" />
          <path
             style="fill:none;stroke:#89f33e;stroke-width:0.264583px;stroke-linecap:butt;stroke-linejoin:miter;stroke-opacity:1"
             d="M 9.6193893,88.76944 V 9.394444"
             id="path1245" />
          <path
             style="fill:none;stroke:#89f33e;stroke-width:0.264583px;stroke-linecap:butt;stroke-linejoin:miter;stroke-opacity:1"
             d="M 19.408969,88.769439 V 9.394444"
             id="path1247" />
          <path
             style="fill:none;stroke:#89f33e;stroke-width:0.264583px;stroke-linecap:butt;stroke-linejoin:miter;stroke-opacity:1"
             d="M 29.463139,88.769429 V 9.394434"
             id="path1249" />
          <path
             style="fill:none;stroke:#89f33e;stroke-width:0.264583px;stroke-linecap:butt;stroke-linejoin:miter;stroke-opacity:1"
             d="M 49.174599,88.769439 V 9.394444"
             id="path1251" />
          <path
             style="fill:none;stroke:#89f33e;stroke-width:0.264583px;stroke-linecap:butt;stroke-linejoin:miter;stroke-opacity:1"
             d="M 59.096469,88.770832 V 9.395837"
             id="path1253" />
          <path
             style="fill:none;stroke:#89f33e;stroke-width:0.264583px;stroke-linecap:butt;stroke-linejoin:miter;stroke-opacity:1"
             d="M 69.018349,88.767645 V 9.39265"
             id="path1255" />
          <path
             style="fill:none;stroke:#89f33e;stroke-width:0.265;stroke-linecap:butt;stroke-linejoin:miter;stroke-miterlimit:4;stroke-dasharray:none;stroke-opacity:1"
             d="M 78.936929,88.769448 V 9.394453"
             id="path1257" />
          <path
             style="fill:none;stroke:#89f33e;stroke-width:0.264583px;stroke-linecap:butt;stroke-linejoin:miter;stroke-opacity:1"
             d="M 88.729799,88.769448 V 9.394449"
             id="path1259" />
          <path
             style="fill:none;stroke:#89f33e;stroke-width:0.264583px;stroke-linecap:butt;stroke-linejoin:miter;stroke-opacity:1"
             d="M 39.252719,88.769441 V 9.394446"
             id="path1261" />
          <path
             id="circle1263"
             style="fill:#89f33e;fill-opacity:0.210474;stroke:#89f33e;stroke-width:0.264999;stroke-linecap:round;stroke-linejoin:round;stroke-miterlimit:4;stroke-dasharray:none;stroke-opacity:1"
             d="m 88.729404,49.233051 a 39.555,39.555 0 0 1 -39.555,39.555001 39.555,39.555 0 0 1 -39.5550002,-39.555001 39.555,39.555 0 0 1 39.5550002,-39.555 39.555,39.555 0 0 1 39.555,39.555 z" />
          <path
             id="circle1265"
             style="fill:#89f33e;fill-opacity:0.210474;stroke:#89f33e;stroke-width:0.198749;stroke-linecap:round;stroke-linejoin:round;stroke-miterlimit:4;stroke-dasharray:none;stroke-opacity:1"
             d="M 78.841692,49.2341 A 29.66625,29.66625 0 0 1 49.175442,78.900351 29.66625,29.66625 0 0 1 19.509192,49.2341 29.66625,29.66625 0 0 1 49.175442,19.56785 29.66625,29.66625 0 0 1 78.841692,49.2341 Z" />
          <path
             id="circle1267"
             style="fill:#89f33e;fill-opacity:0.210474;stroke:#89f33e;stroke-width:0.132499;stroke-linecap:round;stroke-linejoin:round;stroke-miterlimit:4;stroke-dasharray:none;stroke-opacity:1"
             d="m 68.896362,49.214226 a 19.7775,19.7775 0 0 1 -19.7775,19.7775 19.7775,19.7775 0 0 1 -19.7775,-19.7775 19.7775,19.7775 0 0 1 19.7775,-19.7775 19.7775,19.7775 0 0 1 19.7775,19.7775 z" />
          <path
             id="path1269"
             style="fill:none;fill-opacity:0.22972;stroke:#ff0066;stroke-width:0.264583px;stroke-linecap:butt;stroke-linejoin:miter;stroke-opacity:1"
             d="m 64.612519,49.082243 a 15.437463,15.437463 0 0 0 0,-0.116787 15.437463,15.437463 0 0 0 -0.003,-0.1695 15.437463,15.437463 0 0 0 -0.004,-0.170016 15.437463,15.437463 0 0 0 -0.006,-0.170013 15.437463,15.437463 0 0 0 -0.008,-0.1695 15.437463,15.437463 0 0 0 -0.01,-0.170016 15.437463,15.437463 0 0 0 -0.0119,-0.169498 15.437463,15.437463 0 0 0 -0.0134,-0.1695 15.437463,15.437463 0 0 0 -0.015,-0.168981 15.437463,15.437463 0 0 0 -0.0171,-0.168982 15.437463,15.437463 0 0 0 -0.0191,-0.168981 15.437463,15.437463 0 0 0 -0.0212,-0.168981 15.437463,15.437463 0 0 0 -0.0222,-0.16795 15.437463,15.437463 0 0 0 -0.0248,-0.168465 15.437463,15.437463 0 0 0 -0.0263,-0.16795 15.437463,15.437463 0 0 0 -0.0284,-0.167431 15.437463,15.437463 0 0 0 -0.03,-0.167431 15.437463,15.437463 0 0 0 -0.032,-0.166915 15.437463,15.437463 0 0 0 -0.0341,-0.166399 15.437463,15.437463 0 0 0 -0.0351,-0.166397 15.437463,15.437463 0 0 0 -0.0377,-0.165364 15.437463,15.437463 0 0 0 -0.0393,-0.165365 15.437463,15.437463 0 0 0 -0.0408,-0.164848 15.437463,15.437463 0 0 0 -0.0434,-0.164849 15.437463,15.437463 0 0 0 -0.0444,-0.163814 15.437463,15.437463 0 0 0 -0.0465,-0.163296 15.437463,15.437463 0 0 0 -0.0486,-0.162782 15.437463,15.437463 0 0 0 -0.0501,-0.16278 15.437463,15.437463 0 0 0 -0.0517,-0.161747 15.437463,15.437463 0 0 0 -0.0537,-0.161232 15.437463,15.437463 0 0 0 -0.0553,-0.160713 15.437463,15.437463 0 0 0 -0.0574,-0.159679 15.437463,15.437463 0 0 0 -0.0589,-0.159681 15.437463,15.437463 0 0 0 -0.0605,-0.158647 15.437463,15.437463 0 0 0 -0.0625,-0.158128 15.437463,15.437463 0 0 0 -0.0641,-0.157097 15.437463,15.437463 0 0 0 -0.0661,-0.15658 15.437463,15.437463 0 0 0 -0.0677,-0.156065 15.437463,15.437463 0 0 0 -0.0693,-0.155027 15.437463,15.437463 0 0 0 -0.0713,-0.154514 15.437463,15.437463 0 0 0 -0.0723,-0.153479 15.437463,15.437463 0 0 0 -0.0749,-0.152961 15.437463,15.437463 0 0 0 -0.076,-0.151929 15.437463,15.437463 0 0 0 -0.0775,-0.150895 15.437463,15.437463 0 0 0 -0.0796,-0.150378 15.437463,15.437463 0 0 0 -0.0811,-0.149345 15.437463,15.437463 0 0 0 -0.0827,-0.148312 15.437463,15.437463 0 0 0 -0.0739,-0.129706 l -13.36921,7.718906 z" />
          <path
             style="fill:none;stroke:#ffffff;stroke-width:0.565;stroke-linecap:butt;stroke-linejoin:miter;stroke-miterlimit:4;stroke-dasharray:none;stroke-opacity:1"
             d="M 49.174599,9.394444 V 49.081947"
             id="path1271" />
          <path
             style="fill:#2a2aff;stroke:#ffffff;stroke-width:0.565;stroke-linecap:butt;stroke-linejoin:miter;stroke-miterlimit:4;stroke-dasharray:none;stroke-opacity:1"
             d="m 49.174599,49.081948 h 39.68749"
             id="path1274" />
          <path
             style="fill:none;stroke:#ff0066;stroke-width:0.264583px;stroke-linecap:butt;stroke-linejoin:miter;stroke-opacity:1"
             d="M 49.174599,49.081948 83.364469,29.342414"
             id="path1276" />
          <g
             aria-label="0"
             id="text1280"
             style="font-size:4.6534px;line-height:1.25;font-family:Ubuntu;-inkscape-font-specification:Ubuntu;fill:#ffffff;stroke:none;stroke-width:0.116336">
            <path
               d="m 46.883118,50.977891 q 0,-0.809692 0.283857,-1.247111 0.288511,-0.43742 0.795732,-0.43742 0.50722,0 0.791078,0.43742 0.28851,0.437419 0.28851,1.247111 0,0.809692 -0.28851,1.247111 -0.283858,0.43742 -0.791078,0.43742 -0.507221,0 -0.795732,-0.43742 -0.283857,-0.437419 -0.283857,-1.247111 z m 1.703144,0 q 0,-0.265244 -0.03257,-0.502567 -0.02792,-0.237324 -0.102374,-0.414153 -0.0698,-0.176829 -0.19079,-0.279204 -0.120988,-0.107028 -0.297817,-0.107028 -0.17683,0 -0.297818,0.107028 -0.120988,0.102375 -0.195443,0.279204 -0.0698,0.176829 -0.102375,0.414153 -0.02792,0.237323 -0.02792,0.502567 0,0.265244 0.02792,0.502567 0.03257,0.237324 0.102375,0.414153 0.07446,0.176829 0.195443,0.283857 0.120988,0.102375 0.297818,0.102375 0.176829,0 0.297817,-0.102375 0.120989,-0.107028 0.19079,-0.283857 0.07445,-0.176829 0.102374,-0.414153 0.03257,-0.237323 0.03257,-0.502567 z"
               style="fill:#ffffff;stroke:none;stroke-width:0.116336"
               id="path79" />
          </g>
          <g
             aria-label="0,25"
             id="text1284"
             style="font-size:4.6534px;line-height:1.25;font-family:Ubuntu;-inkscape-font-specification:Ubuntu;fill:#ffffff;stroke:none;stroke-width:0.116336">
            <path
               d="m 55.405121,51.61398 q 0,-0.809691 0.283857,-1.247111 0.288511,-0.437419 0.795732,-0.437419 0.50722,0 0.791078,0.437419 0.288511,0.43742 0.288511,1.247111 0,0.809692 -0.288511,1.247112 -0.283858,0.437419 -0.791078,0.437419 -0.507221,0 -0.795732,-0.437419 -0.283857,-0.43742 -0.283857,-1.247112 z m 1.703144,0 q 0,-0.265243 -0.03257,-0.502567 -0.02792,-0.237323 -0.102375,-0.414152 -0.0698,-0.17683 -0.19079,-0.279204 -0.120988,-0.107029 -0.297817,-0.107029 -0.176829,0 -0.297818,0.107029 -0.120988,0.102374 -0.195443,0.279204 -0.0698,0.176829 -0.102374,0.414152 -0.02792,0.237324 -0.02792,0.502567 0,0.265244 0.02792,0.502568 0.03257,0.237323 0.102374,0.414152 0.07446,0.176829 0.195443,0.283858 0.120989,0.102374 0.297818,0.102374 0.176829,0 0.297817,-0.102374 0.120989,-0.107029 0.19079,-0.283858 0.07445,-0.176829 0.102375,-0.414152 0.03257,-0.237324 0.03257,-0.502568 z"
               style="fill:#ffffff;stroke:none;stroke-width:0.116336"
               id="path82" />
            <path
               d="m 58.627382,52.698223 q 0.0047,0.03723 0.0047,0.07445 0,0.03257 0,0.0698 0,0.293164 -0.08841,0.577022 -0.08376,0.28851 -0.23267,0.549101 l -0.335045,-0.107028 q 0.116335,-0.237324 0.153563,-0.483954 0.03723,-0.241977 0.03723,-0.456033 0,-0.06049 -0.0047,-0.116335 0,-0.05584 -0.0047,-0.107028 z"
               style="fill:#ffffff;stroke:none;stroke-width:0.116336"
               id="path84" />
            <path
               d="m 61.117388,50.827556 q 0,0.167522 -0.0698,0.325738 -0.06515,0.153562 -0.17683,0.307124 -0.111681,0.148909 -0.251283,0.297818 -0.139602,0.144255 -0.279204,0.283857 -0.07911,0.07911 -0.186136,0.186136 -0.102375,0.107028 -0.195443,0.223363 -0.09307,0.116335 -0.158216,0.223364 -0.06049,0.107028 -0.06049,0.186136 h 1.484435 v 0.367618 h -1.954428 q -0.0047,-0.02792 -0.0047,-0.05584 0,-0.02792 0,-0.05119 0,-0.21871 0.0698,-0.404846 0.07446,-0.190789 0.19079,-0.358312 0.116335,-0.167522 0.26059,-0.316431 0.144256,-0.148909 0.283858,-0.288511 0.116335,-0.111681 0.218709,-0.218709 0.107029,-0.111682 0.186136,-0.21871 0.08376,-0.111682 0.130296,-0.228017 0.05119,-0.116335 0.05119,-0.24663 0,-0.139602 -0.04653,-0.237323 -0.04188,-0.09772 -0.116335,-0.162869 -0.07445,-0.06515 -0.176829,-0.09307 -0.09772,-0.03257 -0.209403,-0.03257 -0.134949,0 -0.24663,0.03723 -0.111682,0.03723 -0.200097,0.08842 -0.08841,0.04653 -0.148908,0.102374 -0.06049,0.05119 -0.09307,0.07911 L 59.20484,50.315682 q 0.04188,-0.04653 0.125642,-0.111682 0.08376,-0.0698 0.200096,-0.130295 0.116335,-0.06049 0.260591,-0.102375 0.144255,-0.04188 0.311777,-0.04188 0.507221,0 0.758505,0.237323 0.255937,0.23267 0.255937,0.660783 z"
               style="fill:#ffffff;stroke:none;stroke-width:0.116336"
               id="path86" />
            <path
               d="m 62.496903,51.246362 q 0.702663,0.02792 1.028401,0.307124 0.330391,0.279204 0.330391,0.758504 0,0.214057 -0.07445,0.395539 -0.0698,0.181483 -0.21871,0.311778 -0.144255,0.130295 -0.367618,0.20475 -0.223363,0.07445 -0.530488,0.07445 -0.120988,0 -0.24663,-0.01861 -0.125642,-0.01861 -0.23267,-0.04653 -0.107028,-0.02792 -0.190789,-0.05584 -0.08376,-0.02792 -0.120989,-0.04653 l 0.08376,-0.376926 q 0.07911,0.03723 0.255937,0.09772 0.181483,0.06049 0.442073,0.06049 0.209403,0 0.349005,-0.04653 0.144256,-0.04653 0.23267,-0.125642 0.08842,-0.07911 0.125642,-0.181482 0.04188,-0.107029 0.04188,-0.223364 0,-0.176829 -0.06049,-0.311777 -0.0605,-0.139602 -0.214057,-0.23267 -0.153562,-0.09307 -0.409499,-0.139602 -0.255937,-0.05119 -0.646823,-0.05119 0.02792,-0.228016 0.04188,-0.428113 0.01861,-0.200096 0.03257,-0.390885 0.01396,-0.19079 0.02327,-0.376926 0.0093,-0.190789 0.01861,-0.400192 h 1.554236 v 0.367619 h -1.17731 q -0.0047,0.0698 -0.01396,0.190789 -0.0093,0.116335 -0.01861,0.24663 -0.0093,0.125642 -0.01861,0.24663 -0.0093,0.120989 -0.01861,0.19079 z"
               style="fill:#ffffff;stroke:none;stroke-width:0.116336"
               id="path88" />
          </g>
          <g
             aria-label="0,5"
             id="text1288"
             style="font-size:4.6534px;line-height:1.25;font-family:Ubuntu;-inkscape-font-specification:Ubuntu;fill:#ffffff;stroke:none;stroke-width:0.116336">
            <path
               d="m 66.096348,51.61398 q 0,-0.809691 0.283857,-1.247111 0.288511,-0.437419 0.795732,-0.437419 0.50722,0 0.791078,0.437419 0.288511,0.43742 0.288511,1.247111 0,0.809692 -0.288511,1.247112 -0.283858,0.437419 -0.791078,0.437419 -0.507221,0 -0.795732,-0.437419 -0.283857,-0.43742 -0.283857,-1.247112 z m 1.703144,0 q 0,-0.265243 -0.03257,-0.502567 -0.02792,-0.237323 -0.102375,-0.414152 -0.0698,-0.17683 -0.19079,-0.279204 -0.120988,-0.107029 -0.297817,-0.107029 -0.176829,0 -0.297818,0.107029 -0.120988,0.102374 -0.195443,0.279204 -0.0698,0.176829 -0.102374,0.414152 -0.02792,0.237324 -0.02792,0.502567 0,0.265244 0.02792,0.502568 0.03257,0.237323 0.102374,0.414152 0.07446,0.176829 0.195443,0.283858 0.120989,0.102374 0.297818,0.102374 0.176829,0 0.297817,-0.102374 0.120989,-0.107029 0.19079,-0.283858 0.07445,-0.176829 0.102375,-0.414152 0.03257,-0.237324 0.03257,-0.502568 z"
               style="fill:#ffffff;stroke:none;stroke-width:0.116336"
               id="path91" />
            <path
               d="m 69.318609,52.698223 q 0.0047,0.03723 0.0047,0.07445 0,0.03257 0,0.0698 0,0.293164 -0.08841,0.577022 -0.08376,0.28851 -0.23267,0.549101 l -0.335045,-0.107028 q 0.116335,-0.237324 0.153563,-0.483954 0.03723,-0.241977 0.03723,-0.456033 0,-0.06049 -0.0047,-0.116335 0,-0.05584 -0.0047,-0.107028 z"
               style="fill:#ffffff;stroke:none;stroke-width:0.116336"
               id="path93" />
            <path
               d="m 70.561503,51.246362 q 0.702664,0.02792 1.028402,0.307124 0.330391,0.279204 0.330391,0.758504 0,0.214057 -0.07445,0.395539 -0.0698,0.181483 -0.21871,0.311778 -0.144255,0.130295 -0.367619,0.20475 -0.223363,0.07445 -0.530487,0.07445 -0.120989,0 -0.24663,-0.01861 -0.125642,-0.01861 -0.23267,-0.04653 -0.107029,-0.02792 -0.19079,-0.05584 -0.08376,-0.02792 -0.120988,-0.04653 l 0.08376,-0.376926 q 0.07911,0.03723 0.255937,0.09772 0.181483,0.06049 0.442073,0.06049 0.209403,0 0.349005,-0.04653 0.144255,-0.04653 0.23267,-0.125642 0.08841,-0.07911 0.125642,-0.181482 0.04188,-0.107029 0.04188,-0.223364 0,-0.176829 -0.06049,-0.311777 -0.06049,-0.139602 -0.214056,-0.23267 -0.153562,-0.09307 -0.409499,-0.139602 -0.255937,-0.05119 -0.646823,-0.05119 0.02792,-0.228016 0.04188,-0.428113 0.01861,-0.200096 0.03257,-0.390885 0.01396,-0.19079 0.02327,-0.376926 0.0093,-0.190789 0.01861,-0.400192 h 1.554236 v 0.367619 h -1.177311 q -0.0047,0.0698 -0.01396,0.190789 -0.0093,0.116335 -0.01861,0.24663 -0.0093,0.125642 -0.01861,0.24663 -0.0093,0.120989 -0.01861,0.19079 z"
               style="fill:#ffffff;stroke:none;stroke-width:0.116336"
               id="path95" />
          </g>
          <g
             aria-label="0,75"
             id="text1292"
             style="font-size:4.6534px;line-height:1.25;font-family:Ubuntu;-inkscape-font-specification:Ubuntu;fill:#ffffff;stroke:none;stroke-width:0.116336">
            <path
               d="m 39.883637,19.133428 q 0,-0.809692 0.283857,-1.247111 0.288511,-0.43742 0.795731,-0.43742 0.507221,0 0.791078,0.43742 0.288511,0.437419 0.288511,1.247111 0,0.809691 -0.288511,1.247111 -0.283857,0.43742 -0.791078,0.43742 -0.50722,0 -0.795731,-0.43742 -0.283857,-0.43742 -0.283857,-1.247111 z m 1.703144,0 q 0,-0.265244 -0.03257,-0.502567 -0.02792,-0.237324 -0.102375,-0.414153 -0.0698,-0.176829 -0.190789,-0.279204 -0.120988,-0.107028 -0.297818,-0.107028 -0.176829,0 -0.297817,0.107028 -0.120989,0.102375 -0.195443,0.279204 -0.0698,0.176829 -0.102375,0.414153 -0.02792,0.237323 -0.02792,0.502567 0,0.265244 0.02792,0.502567 0.03257,0.237323 0.102375,0.414153 0.07445,0.176829 0.195443,0.283857 0.120988,0.102375 0.297817,0.102375 0.17683,0 0.297818,-0.102375 0.120988,-0.107028 0.190789,-0.283857 0.07446,-0.17683 0.102375,-0.414153 0.03257,-0.237323 0.03257,-0.502567 z"
               style="fill:#ffffff;stroke:none;stroke-width:0.116336"
               id="path98" />
            <path
               d="m 43.105898,20.21767 q 0.0047,0.03723 0.0047,0.07445 0,0.03257 0,0.0698 0,0.293165 -0.08841,0.577022 -0.08376,0.288511 -0.23267,0.549101 L 42.454422,21.38102 q 0.116335,-0.237324 0.153562,-0.483954 0.03723,-0.241976 0.03723,-0.456033 0,-0.06049 -0.0047,-0.116335 0,-0.05584 -0.0047,-0.107028 z"
               style="fill:#ffffff;stroke:none;stroke-width:0.116336"
               id="path100" />
            <path
               d="m 44.18127,20.748158 q 0.02792,-0.372272 0.130295,-0.781772 0.107028,-0.414152 0.26059,-0.800384 0.153562,-0.390886 0.335045,-0.721277 0.186136,-0.335045 0.362965,-0.544448 h -1.568196 v -0.376926 h 2.05215 v 0.358312 q -0.153562,0.176829 -0.339698,0.488607 -0.186136,0.307125 -0.353659,0.693357 -0.162869,0.381579 -0.283857,0.818998 -0.116335,0.432766 -0.144256,0.865533 z"
               style="fill:#ffffff;stroke:none;stroke-width:0.116336"
               id="path102" />
            <path
               d="m 46.975418,18.765809 q 0.702664,0.02792 1.028402,0.307125 0.330391,0.279204 0.330391,0.758504 0,0.214056 -0.07445,0.395539 -0.0698,0.181482 -0.21871,0.311778 -0.144255,0.130295 -0.367619,0.204749 -0.223363,0.07445 -0.530487,0.07445 -0.120989,0 -0.24663,-0.01861 -0.125642,-0.01861 -0.23267,-0.04653 -0.107029,-0.02792 -0.19079,-0.05584 -0.08376,-0.02792 -0.120988,-0.04653 l 0.08376,-0.376925 q 0.07911,0.03723 0.255937,0.09772 0.181483,0.06049 0.442073,0.06049 0.209403,0 0.349005,-0.04653 0.144255,-0.04653 0.23267,-0.125641 0.08842,-0.07911 0.125642,-0.181483 0.04188,-0.107028 0.04188,-0.223363 0,-0.176829 -0.06049,-0.311778 -0.06049,-0.139602 -0.214056,-0.23267 -0.153562,-0.09307 -0.409499,-0.139602 -0.255937,-0.05119 -0.646823,-0.05119 0.02792,-0.228017 0.04188,-0.428113 0.01861,-0.200096 0.03257,-0.390886 0.01396,-0.190789 0.02327,-0.376925 0.0093,-0.19079 0.01861,-0.400193 h 1.554236 v 0.367619 h -1.177311 q -0.0047,0.0698 -0.01396,0.190789 -0.0093,0.116335 -0.01861,0.246631 -0.0093,0.125641 -0.01861,0.24663 -0.0093,0.120988 -0.01861,0.190789 z"
               style="fill:#ffffff;stroke:none;stroke-width:0.116336"
               id="path104" />
          </g>
          <g
             aria-label="0,25"
             id="text1296"
             style="font-size:4.6534px;line-height:1.25;font-family:Ubuntu;-inkscape-font-specification:Ubuntu;fill:#ffffff;stroke:none;stroke-width:0.116336">
            <path
               d="m 39.881195,38.956266 q 0,-0.809692 0.283858,-1.247112 0.28851,-0.437419 0.795731,-0.437419 0.507221,0 0.791078,0.437419 0.288511,0.43742 0.288511,1.247112 0,0.809691 -0.288511,1.247111 -0.283857,0.437419 -0.791078,0.437419 -0.507221,0 -0.795731,-0.437419 -0.283858,-0.43742 -0.283858,-1.247111 z m 1.703145,0 q 0,-0.265244 -0.03257,-0.502568 -0.02792,-0.237323 -0.102375,-0.414152 -0.0698,-0.176829 -0.190789,-0.279204 -0.120989,-0.107028 -0.297818,-0.107028 -0.176829,0 -0.297818,0.107028 -0.120988,0.102375 -0.195442,0.279204 -0.0698,0.176829 -0.102375,0.414152 -0.02792,0.237324 -0.02792,0.502568 0,0.265243 0.02792,0.502567 0.03257,0.237323 0.102375,0.414152 0.07445,0.17683 0.195442,0.283858 0.120989,0.102375 0.297818,0.102375 0.176829,0 0.297818,-0.102375 0.120988,-0.107028 0.190789,-0.283858 0.07445,-0.176829 0.102375,-0.414152 0.03257,-0.237324 0.03257,-0.502567 z"
               style="fill:#ffffff;stroke:none;stroke-width:0.116336"
               id="path107" />
            <path
               d="m 43.103457,40.040508 q 0.0047,0.03723 0.0047,0.07445 0,0.03257 0,0.0698 0,0.293164 -0.08842,0.577022 -0.08376,0.288511 -0.23267,0.549101 l -0.335044,-0.107028 q 0.116335,-0.237324 0.153562,-0.483954 0.03723,-0.241977 0.03723,-0.456033 0,-0.06049 -0.0047,-0.116335 0,-0.05584 -0.0047,-0.107028 z"
               style="fill:#ffffff;stroke:none;stroke-width:0.116336"
               id="path109" />
            <path
               d="m 45.593462,38.169841 q 0,0.167522 -0.0698,0.325738 -0.06515,0.153562 -0.176829,0.307124 -0.111682,0.148909 -0.251284,0.297818 -0.139602,0.144255 -0.279204,0.283857 -0.07911,0.07911 -0.186136,0.186136 -0.102375,0.107029 -0.195443,0.223364 -0.09307,0.116335 -0.158215,0.223363 -0.0605,0.107028 -0.0605,0.186136 h 1.484435 v 0.367618 h -1.954428 q -0.0047,-0.02792 -0.0047,-0.05584 0,-0.02792 0,-0.05119 0,-0.21871 0.0698,-0.404846 0.07445,-0.190789 0.190789,-0.358311 0.116335,-0.167523 0.26059,-0.316432 0.144256,-0.148908 0.283858,-0.28851 0.116335,-0.111682 0.21871,-0.21871 0.107028,-0.111682 0.186136,-0.21871 0.08376,-0.111682 0.130295,-0.228017 0.05119,-0.116335 0.05119,-0.24663 0,-0.139602 -0.04653,-0.237323 -0.04188,-0.09772 -0.116335,-0.162869 -0.07445,-0.06515 -0.176829,-0.09307 -0.09772,-0.03257 -0.209403,-0.03257 -0.134949,0 -0.24663,0.03723 -0.111682,0.03723 -0.200096,0.08841 -0.08841,0.04653 -0.148909,0.102375 -0.06049,0.05119 -0.09307,0.07911 l -0.214057,-0.307124 q 0.04188,-0.04653 0.125642,-0.111682 0.08376,-0.0698 0.200096,-0.130295 0.116335,-0.06049 0.260591,-0.102375 0.144255,-0.04188 0.311778,-0.04188 0.50722,0 0.758504,0.237323 0.255937,0.23267 0.255937,0.660783 z"
               style="fill:#ffffff;stroke:none;stroke-width:0.116336"
               id="path111" />
            <path
               d="m 46.972977,38.588647 q 0.702663,0.02792 1.028401,0.307124 0.330392,0.279204 0.330392,0.758505 0,0.214056 -0.07446,0.395539 -0.0698,0.181482 -0.218709,0.311777 -0.144256,0.130296 -0.367619,0.20475 -0.223363,0.07445 -0.530488,0.07445 -0.120988,0 -0.24663,-0.01861 -0.125642,-0.01861 -0.23267,-0.04653 -0.107028,-0.02792 -0.190789,-0.05584 -0.08376,-0.02792 -0.120989,-0.04653 l 0.08376,-0.376925 q 0.07911,0.03723 0.255937,0.09772 0.181482,0.06049 0.442073,0.06049 0.209403,0 0.349005,-0.04653 0.144255,-0.04653 0.23267,-0.125642 0.08841,-0.07911 0.125641,-0.181482 0.04188,-0.107028 0.04188,-0.223363 0,-0.17683 -0.06049,-0.311778 -0.06049,-0.139602 -0.214057,-0.23267 -0.153562,-0.09307 -0.409499,-0.139602 -0.255937,-0.05119 -0.646822,-0.05119 0.02792,-0.228016 0.04188,-0.428112 0.01861,-0.200097 0.03257,-0.390886 0.01396,-0.190789 0.02327,-0.376925 0.0093,-0.19079 0.01861,-0.400193 h 1.554235 v 0.367619 h -1.17731 q -0.0047,0.0698 -0.01396,0.190789 -0.0093,0.116335 -0.01861,0.24663 -0.0093,0.125642 -0.01861,0.246631 -0.0093,0.120988 -0.01861,0.190789 z"
               style="fill:#ffffff;stroke:none;stroke-width:0.116336"
               id="path113" />
          </g>
          <g
             aria-label="0,5"
             id="text1300"
             style="font-size:4.6534px;line-height:1.25;font-family:Ubuntu;-inkscape-font-specification:Ubuntu;fill:#ffffff;stroke:none;stroke-width:0.116336">
            <path
               d="m 42.505707,29.035432 q 0,-0.809692 0.283857,-1.247111 0.288511,-0.43742 0.795732,-0.43742 0.50722,0 0.791078,0.43742 0.288511,0.437419 0.288511,1.247111 0,0.809692 -0.288511,1.247111 -0.283858,0.43742 -0.791078,0.43742 -0.507221,0 -0.795732,-0.43742 -0.283857,-0.437419 -0.283857,-1.247111 z m 1.703144,0 q 0,-0.265244 -0.03257,-0.502567 -0.02792,-0.237324 -0.102375,-0.414153 -0.0698,-0.176829 -0.19079,-0.279204 -0.120988,-0.107028 -0.297817,-0.107028 -0.176829,0 -0.297818,0.107028 -0.120988,0.102375 -0.195443,0.279204 -0.0698,0.176829 -0.102374,0.414153 -0.02792,0.237323 -0.02792,0.502567 0,0.265244 0.02792,0.502567 0.03257,0.237324 0.102374,0.414153 0.07446,0.176829 0.195443,0.283857 0.120989,0.102375 0.297818,0.102375 0.176829,0 0.297817,-0.102375 0.120989,-0.107028 0.19079,-0.283857 0.07445,-0.176829 0.102375,-0.414153 0.03257,-0.237323 0.03257,-0.502567 z"
               style="fill:#ffffff;stroke:none;stroke-width:0.116336"
               id="path116" />
            <path
               d="m 45.727968,30.119674 q 0.0047,0.03723 0.0047,0.07446 0,0.03257 0,0.0698 0,0.293164 -0.08841,0.577021 -0.08376,0.288511 -0.23267,0.549101 l -0.335045,-0.107028 q 0.116335,-0.237323 0.153563,-0.483953 0.03723,-0.241977 0.03723,-0.456034 0,-0.06049 -0.0047,-0.116335 0,-0.05584 -0.0047,-0.107028 z"
               style="fill:#ffffff;stroke:none;stroke-width:0.116336"
               id="path118" />
            <path
               d="m 46.970862,28.667813 q 0.702664,0.02792 1.028402,0.307125 0.330391,0.279204 0.330391,0.758504 0,0.214056 -0.07445,0.395539 -0.0698,0.181483 -0.21871,0.311778 -0.144255,0.130295 -0.367619,0.204749 -0.223363,0.07446 -0.530487,0.07446 -0.120989,0 -0.24663,-0.01861 -0.125642,-0.01861 -0.23267,-0.04653 -0.107029,-0.02792 -0.19079,-0.05584 -0.08376,-0.02792 -0.120988,-0.04653 l 0.08376,-0.376925 q 0.07911,0.03723 0.255937,0.09772 0.181483,0.06049 0.442073,0.06049 0.209403,0 0.349005,-0.04653 0.144255,-0.04653 0.23267,-0.125642 0.08842,-0.07911 0.125642,-0.181483 0.04188,-0.107028 0.04188,-0.223363 0,-0.176829 -0.06049,-0.311778 -0.06049,-0.139602 -0.214056,-0.23267 -0.153562,-0.09307 -0.409499,-0.139602 -0.255937,-0.05119 -0.646823,-0.05119 0.02792,-0.228017 0.04188,-0.428113 0.01861,-0.200096 0.03257,-0.390886 0.01396,-0.190789 0.02327,-0.376925 0.0093,-0.190789 0.01861,-0.400192 h 1.554236 v 0.367618 h -1.177311 q -0.0047,0.0698 -0.01396,0.19079 -0.0093,0.116335 -0.01861,0.24663 -0.0093,0.125642 -0.01861,0.24663 -0.0093,0.120988 -0.01861,0.190789 z"
               style="fill:#ffffff;stroke:none;stroke-width:0.116336"
               id="path120" />
          </g>
          <g
             aria-label="0,75"
             id="text1304"
             style="font-size:4.6534px;line-height:1.25;font-family:Ubuntu;-inkscape-font-specification:Ubuntu;fill:#ffffff;stroke:none;stroke-width:0.116336">
            <path
               d="m 74.581486,51.613977 q 0,-0.809692 0.283857,-1.247112 0.288511,-0.437419 0.795732,-0.437419 0.50722,0 0.791078,0.437419 0.28851,0.43742 0.28851,1.247112 0,0.809691 -0.28851,1.247111 -0.283858,0.437419 -0.791078,0.437419 -0.507221,0 -0.795732,-0.437419 -0.283857,-0.43742 -0.283857,-1.247111 z m 1.703144,0 q 0,-0.265244 -0.03257,-0.502568 -0.02792,-0.237323 -0.102374,-0.414152 -0.0698,-0.176829 -0.19079,-0.279204 -0.120988,-0.107028 -0.297817,-0.107028 -0.176829,0 -0.297818,0.107028 -0.120988,0.102375 -0.195443,0.279204 -0.0698,0.176829 -0.102374,0.414152 -0.02792,0.237324 -0.02792,0.502568 0,0.265243 0.02792,0.502567 0.03257,0.237323 0.102374,0.414152 0.07445,0.17683 0.195443,0.283858 0.120989,0.102375 0.297818,0.102375 0.176829,0 0.297817,-0.102375 0.120989,-0.107028 0.19079,-0.283858 0.07445,-0.176829 0.102374,-0.414152 0.03257,-0.237324 0.03257,-0.502567 z"
               style="fill:#ffffff;stroke:none;stroke-width:0.116336"
               id="path123" />
            <path
               d="m 77.803747,52.698219 q 0.0047,0.03723 0.0047,0.07445 0,0.03257 0,0.0698 0,0.293164 -0.08841,0.577022 -0.08376,0.288511 -0.23267,0.549101 l -0.335045,-0.107028 q 0.116335,-0.237324 0.153563,-0.483954 0.03723,-0.241977 0.03723,-0.456033 0,-0.06049 -0.0047,-0.116335 0,-0.05584 -0.0047,-0.107028 z"
               style="fill:#ffffff;stroke:none;stroke-width:0.116336"
               id="path125" />
            <path
               d="m 78.879119,53.228706 q 0.02792,-0.372272 0.130295,-0.781771 0.107028,-0.414152 0.260591,-0.800385 0.153562,-0.390885 0.335044,-0.721277 0.186136,-0.335044 0.362966,-0.544447 H 78.399819 V 50.0039 h 2.052149 v 0.358312 q -0.153562,0.176829 -0.339698,0.488607 -0.186136,0.307124 -0.353658,0.693357 -0.162869,0.381578 -0.283858,0.818998 -0.116335,0.432766 -0.144255,0.865532 z"
               style="fill:#ffffff;stroke:none;stroke-width:0.116336"
               id="path127" />
            <path
               d="m 81.673268,51.246358 q 0.702663,0.02792 1.028401,0.307124 0.330391,0.279204 0.330391,0.758505 0,0.214056 -0.07445,0.395539 -0.0698,0.181482 -0.21871,0.311777 -0.144255,0.130296 -0.367618,0.20475 -0.223364,0.07445 -0.530488,0.07445 -0.120988,0 -0.24663,-0.01861 -0.125642,-0.01861 -0.23267,-0.04653 -0.107028,-0.02792 -0.19079,-0.05584 -0.08376,-0.02792 -0.120988,-0.04653 l 0.08376,-0.376925 q 0.07911,0.03723 0.255937,0.09772 0.181483,0.06049 0.442073,0.06049 0.209403,0 0.349005,-0.04653 0.144256,-0.04653 0.23267,-0.125642 0.08841,-0.07911 0.125642,-0.181482 0.04188,-0.107028 0.04188,-0.223363 0,-0.17683 -0.0605,-0.311778 -0.06049,-0.139602 -0.214056,-0.23267 -0.153562,-0.09307 -0.409499,-0.139602 -0.255937,-0.05119 -0.646823,-0.05119 0.02792,-0.228016 0.04188,-0.428112 0.01861,-0.200097 0.03257,-0.390886 0.01396,-0.190789 0.02327,-0.376925 0.0093,-0.19079 0.01861,-0.400193 h 1.554236 v 0.367619 h -1.17731 q -0.0047,0.0698 -0.01396,0.190789 -0.0093,0.116335 -0.01861,0.24663 -0.0093,0.125642 -0.01861,0.246631 -0.0093,0.120988 -0.01861,0.190789 z"
               style="fill:#ffffff;stroke:none;stroke-width:0.116336"
               id="path129" />
          </g>
          <g
             aria-label="1,00"
             id="text1308"
             style="font-size:4.6534px;line-height:1.25;font-family:Ubuntu;-inkscape-font-specification:Ubuntu;fill:#ffffff;stroke:none;stroke-width:0.116336">
            <path
               d="m 84.685482,50.669336 q 0.265244,-0.102374 0.516528,-0.26059 0.251283,-0.162869 0.460686,-0.404846 h 0.307125 v 3.224806 h -0.432767 v -2.624517 q -0.05584,0.05119 -0.139602,0.107028 -0.07911,0.05584 -0.176829,0.107028 -0.09307,0.05119 -0.200096,0.09772 -0.102375,0.04653 -0.200096,0.07911 z"
               style="fill:#ffffff;stroke:none;stroke-width:0.116336"
               id="path132" />
            <path
               d="m 87.707648,52.698219 q 0.0047,0.03723 0.0047,0.07445 0,0.03257 0,0.0698 0,0.293164 -0.08841,0.577022 -0.08376,0.288511 -0.23267,0.549101 l -0.335044,-0.107028 q 0.116335,-0.237324 0.153562,-0.483954 0.03723,-0.241977 0.03723,-0.456033 0,-0.06049 -0.0047,-0.116335 0,-0.05584 -0.0047,-0.107028 z"
               style="fill:#ffffff;stroke:none;stroke-width:0.116336"
               id="path134" />
            <path
               d="m 88.257185,51.613977 q 0,-0.809692 0.283857,-1.247112 0.288511,-0.437419 0.795732,-0.437419 0.50722,0 0.791078,0.437419 0.28851,0.43742 0.28851,1.247112 0,0.809691 -0.28851,1.247111 -0.283858,0.437419 -0.791078,0.437419 -0.507221,0 -0.795732,-0.437419 -0.283857,-0.43742 -0.283857,-1.247111 z m 1.703144,0 q 0,-0.265244 -0.03257,-0.502568 -0.02792,-0.237323 -0.102374,-0.414152 -0.0698,-0.176829 -0.19079,-0.279204 -0.120988,-0.107028 -0.297817,-0.107028 -0.17683,0 -0.297818,0.107028 -0.120988,0.102375 -0.195443,0.279204 -0.0698,0.176829 -0.102374,0.414152 -0.02792,0.237324 -0.02792,0.502568 0,0.265243 0.02792,0.502567 0.03257,0.237323 0.102374,0.414152 0.07446,0.17683 0.195443,0.283858 0.120988,0.102375 0.297818,0.102375 0.176829,0 0.297817,-0.102375 0.120989,-0.107028 0.19079,-0.283858 0.07445,-0.176829 0.102374,-0.414152 0.03257,-0.237324 0.03257,-0.502567 z"
               style="fill:#ffffff;stroke:none;stroke-width:0.116336"
               id="path136" />
            <path
               d="m 90.883811,51.613977 q 0,-0.809692 0.283858,-1.247112 0.28851,-0.437419 0.795731,-0.437419 0.507221,0 0.791078,0.437419 0.288511,0.43742 0.288511,1.247112 0,0.809691 -0.288511,1.247111 -0.283857,0.437419 -0.791078,0.437419 -0.507221,0 -0.795731,-0.437419 -0.283858,-0.43742 -0.283858,-1.247111 z m 1.703145,0 q 0,-0.265244 -0.03257,-0.502568 -0.02792,-0.237323 -0.102375,-0.414152 -0.0698,-0.176829 -0.190789,-0.279204 -0.120989,-0.107028 -0.297818,-0.107028 -0.176829,0 -0.297818,0.107028 -0.120988,0.102375 -0.195442,0.279204 -0.0698,0.176829 -0.102375,0.414152 -0.02792,0.237324 -0.02792,0.502568 0,0.265243 0.02792,0.502567 0.03257,0.237323 0.102375,0.414152 0.07445,0.17683 0.195442,0.283858 0.120989,0.102375 0.297818,0.102375 0.176829,0 0.297818,-0.102375 0.120988,-0.107028 0.190789,-0.283858 0.07445,-0.176829 0.102375,-0.414152 0.03257,-0.237324 0.03257,-0.502567 z"
               style="fill:#ffffff;stroke:none;stroke-width:0.116336"
               id="path138" />
          </g>
          <g
             aria-label="x"
             id="text1312"
             style="font-size:4.6534px;line-height:1.25;font-family:Ubuntu;-inkscape-font-specification:Ubuntu;fill:#ffffff;stroke:none;stroke-width:0.116336">
            <path
               d="m 91.143668,49.267605 q -0.05119,-0.102375 -0.125642,-0.228017 -0.07446,-0.125642 -0.162869,-0.255937 -0.08842,-0.134948 -0.181483,-0.265244 -0.09307,-0.130295 -0.181482,-0.24663 -0.08841,0.116335 -0.181483,0.251284 -0.09307,0.130295 -0.181483,0.265244 -0.08376,0.130295 -0.158215,0.255937 -0.07446,0.125641 -0.125642,0.223363 h -0.446726 q 0.162869,-0.316431 0.386232,-0.642169 0.228016,-0.330392 0.45138,-0.628209 l -0.800385,-1.14939 h 0.488607 l 0.577021,0.846919 0.581675,-0.846919 h 0.460687 l -0.781771,1.121469 q 0.223363,0.302471 0.456033,0.642169 0.237323,0.335045 0.400192,0.65613 z"
               style="fill:#ffffff;stroke:none;stroke-width:0.116336"
               id="path141" />
          </g>
          <g
             aria-label="y"
             id="text1316"
             style="font-size:4.6534px;line-height:1.25;font-family:Ubuntu;-inkscape-font-specification:Ubuntu;fill:#ffffff;stroke:none;stroke-width:0.116336">
            <path
               d="m 48.971193,8.6569271 q 0.05119,0.023267 0.130295,0.041881 0.08376,0.023267 0.162869,0.023267 0.255937,0 0.400192,-0.116335 Q 49.808805,8.4940581 49.92514,8.2381211 49.631976,7.6797131 49.376039,7.0561575 49.124755,6.4279486 48.957233,5.7857794 h 0.46534 q 0.05119,0.209403 0.120988,0.4513798 0.07445,0.2419768 0.162869,0.4979138 0.08842,0.2559369 0.190789,0.5118739 0.102375,0.255937 0.214057,0.4932604 Q 50.288105,7.2516003 50.4184,6.7723001 50.548695,6.293 50.66503,5.7857794 h 0.446727 q -0.167523,0.6840498 -0.372272,1.3169121 -0.20475,0.628209 -0.442073,1.1773102 -0.09307,0.209403 -0.195443,0.3583118 -0.09772,0.1535622 -0.21871,0.2512836 -0.120988,0.097721 -0.27455,0.1442554 -0.148909,0.046534 -0.339699,0.046534 -0.05119,0 -0.107028,-0.00931 -0.05584,-0.00465 -0.111681,-0.018614 -0.05119,-0.00931 -0.09772,-0.023267 -0.04188,-0.01396 -0.06049,-0.023267 z"
               style="fill:#ffffff;stroke:none;stroke-width:0.116336"
               id="path144" />
          </g>
          <g
             aria-label="1,00"
             id="text1320"
             style="font-size:4.6534px;line-height:1.25;font-family:Ubuntu;-inkscape-font-specification:Ubuntu;fill:#ffffff;stroke:none;stroke-width:0.116336">
            <path
               d="M 39.974266,8.3793469 Q 40.23951,8.2769721 40.490794,8.1187565 40.742077,7.9558875 40.95148,7.7139107 h 0.307125 V 10.938717 H 40.825838 V 8.3141993 q -0.05584,0.051187 -0.139602,0.1070282 -0.07911,0.055841 -0.176829,0.1070282 -0.09307,0.051187 -0.200096,0.097721 -0.102375,0.046534 -0.200096,0.079108 z"
               style="fill:#ffffff;stroke:none;stroke-width:0.116336"
               id="path147" />
            <path
               d="m 42.996432,10.408229 q 0.0047,0.03723 0.0047,0.07446 0,0.03257 0,0.0698 0,0.293164 -0.08842,0.577021 -0.08376,0.288511 -0.23267,0.549101 l -0.335044,-0.107028 q 0.116335,-0.237323 0.153562,-0.483953 0.03723,-0.241977 0.03723,-0.456034 0,-0.06049 -0.0047,-0.116335 0,-0.05584 -0.0047,-0.107028 z"
               style="fill:#ffffff;stroke:none;stroke-width:0.116336"
               id="path149" />
            <path
               d="m 43.545969,9.3239871 q 0,-0.8096916 0.283857,-1.2471112 0.288511,-0.4374196 0.795732,-0.4374196 0.50722,0 0.791078,0.4374196 0.288511,0.4374196 0.288511,1.2471112 0,0.8096919 -0.288511,1.2471109 -0.283858,0.43742 -0.791078,0.43742 -0.507221,0 -0.795732,-0.43742 -0.283857,-0.437419 -0.283857,-1.2471109 z m 1.703144,0 q 0,-0.2652438 -0.03257,-0.5025672 -0.02792,-0.2373234 -0.102375,-0.4141526 -0.0698,-0.1768292 -0.19079,-0.279204 -0.120988,-0.1070282 -0.297817,-0.1070282 -0.176829,0 -0.297818,0.1070282 -0.120988,0.1023748 -0.195443,0.279204 -0.0698,0.1768292 -0.102374,0.4141526 -0.02792,0.2373234 -0.02792,0.5025672 0,0.2652438 0.02792,0.5025672 0.03257,0.2373237 0.102374,0.4141527 0.07446,0.176829 0.195443,0.283857 0.120989,0.102375 0.297818,0.102375 0.176829,0 0.297817,-0.102375 0.120989,-0.107028 0.19079,-0.283857 0.07445,-0.176829 0.102375,-0.4141527 0.03257,-0.2373234 0.03257,-0.5025672 z"
               style="fill:#ffffff;stroke:none;stroke-width:0.116336"
               id="path151" />
            <path
               d="m 46.172595,9.3239871 q 0,-0.8096916 0.283858,-1.2471112 0.28851,-0.4374196 0.795731,-0.4374196 0.507221,0 0.791078,0.4374196 0.288511,0.4374196 0.288511,1.2471112 0,0.8096919 -0.288511,1.2471109 -0.283857,0.43742 -0.791078,0.43742 -0.507221,0 -0.795731,-0.43742 -0.283858,-0.437419 -0.283858,-1.2471109 z m 1.703145,0 q 0,-0.2652438 -0.03257,-0.5025672 -0.02792,-0.2373234 -0.102375,-0.4141526 -0.0698,-0.1768292 -0.190789,-0.279204 -0.120989,-0.1070282 -0.297818,-0.1070282 -0.176829,0 -0.297818,0.1070282 -0.120988,0.1023748 -0.195442,0.279204 -0.0698,0.1768292 -0.102375,0.4141526 -0.02792,0.2373234 -0.02792,0.5025672 0,0.2652438 0.02792,0.5025672 0.03257,0.2373237 0.102375,0.4141527 0.07445,0.176829 0.195442,0.283857 0.120989,0.102375 0.297818,0.102375 0.176829,0 0.297818,-0.102375 0.120988,-0.107028 0.190789,-0.283857 0.07445,-0.176829 0.102375,-0.4141527 0.03257,-0.2373234 0.03257,-0.5025672 z"
               style="fill:#ffffff;stroke:none;stroke-width:0.116336"
               id="path153" />
          </g>
          <path
             id="path1322"
             style="fill:#000000;fill-opacity:0.995052;stroke:#000000;stroke-width:0;stroke-linecap:round;stroke-linejoin:round;stroke-miterlimit:4;stroke-dasharray:none;stroke-dashoffset:0;stroke-opacity:1"
             d="m 81.525539,29.6481 0.65474,1.134044 2.2681,-1.309485 0.32781,-0.566987 0.32714,-0.567185 -0.65451,1.65e-4 -0.65519,-3.7e-5 z" />
          <g
             aria-label="30°"
             id="text1326"
             style="font-size:4.25206px;line-height:1.25;font-family:Ubuntu;-inkscape-font-specification:Ubuntu;fill:#ff0066;fill-opacity:1;stroke-width:0.106302">
            <path
               d="m 57.718713,47.58824 q 0.378434,0 0.540012,-0.148822 0.16583,-0.148822 0.16583,-0.399693 0,-0.161579 -0.06803,-0.272132 -0.06803,-0.110554 -0.178586,-0.174335 -0.110554,-0.06803 -0.259376,-0.09354 -0.14457,-0.02976 -0.297644,-0.02976 h -0.10205 v -0.323157 h 0.140318 q 0.106302,0 0.216855,-0.02126 0.114806,-0.02126 0.208351,-0.07654 0.09355,-0.05528 0.153075,-0.148822 0.05953,-0.0978 0.05953,-0.242368 0,-0.119058 -0.04252,-0.204099 -0.04252,-0.08504 -0.114806,-0.140318 -0.06803,-0.05528 -0.161578,-0.07654 -0.08929,-0.02551 -0.191343,-0.02551 -0.204099,0 -0.348669,0.05953 -0.140318,0.05953 -0.238115,0.123309 l -0.153074,-0.301896 q 0.05102,-0.03402 0.127562,-0.07229 0.08079,-0.04252 0.178586,-0.07654 0.0978,-0.03402 0.208351,-0.05528 0.114806,-0.02551 0.238115,-0.02551 0.233864,0 0.403946,0.05953 0.170082,0.05528 0.280636,0.161578 0.110554,0.102049 0.16583,0.246619 0.05528,0.140318 0.05528,0.306149 0,0.229611 -0.131814,0.395441 -0.131814,0.161579 -0.318904,0.24662 0.114805,0.03402 0.221107,0.0978 0.106301,0.06378 0.182838,0.161578 0.08079,0.0978 0.127562,0.22536 0.05102,0.127561 0.05102,0.284888 0,0.191342 -0.06803,0.357173 -0.06378,0.161578 -0.204099,0.280636 -0.136066,0.119057 -0.344417,0.18709 -0.208351,0.06803 -0.493239,0.06803 -0.110553,0 -0.229611,-0.01701 -0.114806,-0.01701 -0.216855,-0.04252 -0.102049,-0.02551 -0.178586,-0.05102 -0.07654,-0.02551 -0.110554,-0.04252 l 0.07654,-0.344417 q 0.07229,0.03402 0.238115,0.08929 0.170083,0.05528 0.41245,0.05528 z"
               style="fill:#ff0066;fill-opacity:1;stroke-width:0.106302"
               id="path156" />
            <path
               d="m 59.370439,46.401916 q 0,-0.739859 0.259376,-1.139552 0.263628,-0.399694 0.727102,-0.399694 0.463475,0 0.72285,0.399694 0.263628,0.399693 0.263628,1.139552 0,0.739858 -0.263628,1.139552 -0.259375,0.399693 -0.72285,0.399693 -0.463474,0 -0.727102,-0.399693 -0.259376,-0.399694 -0.259376,-1.139552 z m 1.556254,0 q 0,-0.242368 -0.02976,-0.459223 -0.02551,-0.216855 -0.09355,-0.378433 -0.06378,-0.161579 -0.174334,-0.255124 -0.110554,-0.0978 -0.272132,-0.0978 -0.161578,0 -0.272132,0.0978 -0.110553,0.09354 -0.178586,0.255124 -0.06378,0.161578 -0.09355,0.378433 -0.02551,0.216855 -0.02551,0.459223 0,0.242367 0.02551,0.459222 0.02977,0.216855 0.09355,0.378433 0.06803,0.161579 0.178586,0.259376 0.110554,0.09354 0.272132,0.09354 0.161578,0 0.272132,-0.09354 0.110553,-0.0978 0.174334,-0.259376 0.06803,-0.161578 0.09355,-0.378433 0.02976,-0.216855 0.02976,-0.459222 z"
               style="fill:#ff0066;fill-opacity:1;stroke-width:0.106302"
               id="path158" />
            <path
               d="m 62.859055,45.168818 q 0,0.136066 -0.05102,0.24662 -0.04677,0.110553 -0.127561,0.18709 -0.08079,0.07654 -0.191343,0.119058 -0.106302,0.03827 -0.225359,0.03827 -0.119058,0 -0.229612,-0.03827 -0.106301,-0.04252 -0.18709,-0.119058 -0.08079,-0.07654 -0.131814,-0.18709 -0.04677,-0.110554 -0.04677,-0.24662 0,-0.136066 0.04677,-0.246619 0.05102,-0.110554 0.131814,-0.187091 0.08079,-0.07654 0.18709,-0.114806 0.110554,-0.04252 0.229612,-0.04252 0.119057,0 0.225359,0.04252 0.110553,0.03827 0.191343,0.114806 0.08079,0.07654 0.127561,0.187091 0.05102,0.110553 0.05102,0.246619 z m -0.284888,0 q 0,-0.148822 -0.09355,-0.233863 -0.08929,-0.08929 -0.216855,-0.08929 -0.127562,0 -0.221107,0.08929 -0.08929,0.08504 -0.08929,0.233863 0,0.148822 0.08929,0.238116 0.09354,0.08504 0.221107,0.08504 0.127561,0 0.216855,-0.08504 0.09355,-0.08929 0.09355,-0.238116 z"
               style="fill:#ff0066;fill-opacity:1;stroke-width:0.106302"
               id="path160" />
          </g>
          <g
             aria-label="1 km"
             transform="rotate(-30)"
             id="text1330"
             style="font-size:4.65314px;line-height:1.25;font-family:Ubuntu;-inkscape-font-specification:Ubuntu;fill:#ff0066;fill-opacity:1;stroke-width:0.264583">
            <path
               d="m 35.928985,64.112045 q 0.265229,-0.102369 0.516498,-0.260576 0.25127,-0.16286 0.460661,-0.404823 h 0.307107 v 3.224626 h -0.432742 v -2.624371 q -0.05584,0.05118 -0.139594,0.107023 -0.0791,0.05584 -0.176819,0.107022 -0.09306,0.05118 -0.200085,0.09772 -0.102369,0.04653 -0.200085,0.0791 z"
               style="font-size:4.65314px;fill:#ff0066;fill-opacity:1;stroke-width:0.264583"
               id="path163" />
            <path
               d="m 40.442167,65.340474 q 0.139594,0.107022 0.293148,0.265229 0.158206,0.158207 0.307107,0.344333 0.153554,0.181472 0.288495,0.372251 0.134941,0.186125 0.228003,0.348985 h -0.507192 q -0.09772,-0.16286 -0.228004,-0.330373 -0.125634,-0.172166 -0.265229,-0.325719 -0.139594,-0.158207 -0.283841,-0.288495 -0.144248,-0.130288 -0.274535,-0.218698 v 1.163285 h -0.432742 v -3.536386 l 0.432742,-0.07445 v 2.205588 q 0.111675,-0.111675 0.246616,-0.246616 0.134941,-0.134942 0.265229,-0.274536 0.130288,-0.139594 0.246616,-0.265229 0.116329,-0.130288 0.200085,-0.228004 h 0.507193 q -0.107023,0.116329 -0.232657,0.255923 -0.125635,0.139594 -0.260576,0.283842 -0.134941,0.139594 -0.274535,0.283841 -0.134941,0.139594 -0.255923,0.265229 z"
               style="font-size:4.65314px;fill:#ff0066;fill-opacity:1;stroke-width:0.264583"
               id="path165" />
            <path
               d="m 41.993916,64.321437 q 0.148901,-0.03723 0.390864,-0.0791 0.246616,-0.04188 0.567683,-0.04188 0.232657,0 0.390864,0.06514 0.158207,0.06049 0.265229,0.181472 0.03257,-0.02326 0.102369,-0.06514 0.0698,-0.04188 0.172166,-0.0791 0.102369,-0.04188 0.228004,-0.0698 0.125635,-0.03257 0.269882,-0.03257 0.279188,0 0.456008,0.08376 0.176819,0.0791 0.274535,0.228004 0.102369,0.148901 0.134941,0.353639 0.03723,0.204738 0.03723,0.446701 v 1.358717 h -0.432742 v -1.265654 q 0,-0.214044 -0.02326,-0.367598 -0.01861,-0.153554 -0.0791,-0.255923 -0.05584,-0.102369 -0.158207,-0.1489 -0.09772,-0.05118 -0.255922,-0.05118 -0.218698,0 -0.362945,0.06049 -0.139594,0.05584 -0.190779,0.102369 0.03722,0.120982 0.05584,0.265229 0.01861,0.144248 0.01861,0.302454 v 1.358717 H 43.42243 v -1.265654 q 0,-0.214044 -0.02326,-0.367598 -0.02327,-0.153554 -0.08376,-0.255923 -0.05584,-0.102369 -0.158207,-0.1489 -0.09772,-0.05118 -0.251269,-0.05118 -0.06514,0 -0.139595,0.0047 -0.07445,0.0047 -0.144247,0.01396 -0.06514,0.0047 -0.120982,0.01396 -0.05584,0.0093 -0.07445,0.01396 v 2.042728 h -0.432742 z"
               style="font-size:4.65314px;fill:#ff0066;fill-opacity:1;stroke-width:0.264583"
               id="path167" />
          </g>
          <path
             style="fill:none;stroke:#0000ff;stroke-width:0.264583;stroke-linecap:butt;stroke-linejoin:miter;stroke-miterlimit:4;stroke-dasharray:1.5875, 1.5875;stroke-dashoffset:0;stroke-opacity:1"
             d="M 49.174609,49.081949 59.374409,11.0158"
             id="path1332" />
          <path
             id="path1334"
             style="fill:#000000;fill-opacity:0.995052;stroke:#000000;stroke-width:0;stroke-linecap:round;stroke-linejoin:round;stroke-miterlimit:4;stroke-dasharray:none;stroke-dashoffset:0;stroke-opacity:1"
             d="m 58.403049,12.574311 1.26487,0.338917 0.67784,-2.52974 -0.16911,-0.63273 -0.16974,-0.632381 -0.46269,0.462923 -0.46333,0.463271 z" />
          <g
             aria-label="B"
             id="text1338"
             style="font-size:4.6534px;line-height:1.25;font-family:Ubuntu;-inkscape-font-specification:Ubuntu;fill:#ffffff;stroke:none;stroke-width:0.116336">
            <path
               d="m 55.866566,12.624207 q -0.09772,0 -0.214057,-0.0047 -0.111681,-0.0047 -0.228016,-0.01396 -0.111682,-0.0093 -0.223363,-0.02327 -0.111682,-0.01396 -0.20475,-0.03723 V 9.4180146 q 0.09307,-0.023267 0.20475,-0.037227 0.111681,-0.01396 0.223363,-0.023267 0.116335,-0.00931 0.228016,-0.01396 0.111682,-0.00465 0.209403,-0.00465 0.279204,0 0.521181,0.041881 0.24663,0.041881 0.42346,0.1442554 0.181482,0.097721 0.283857,0.2605904 0.102375,0.162869 0.102375,0.4001928 0,0.265243 -0.125642,0.437419 -0.125642,0.167523 -0.335045,0.251284 0.283858,0.08376 0.45138,0.265244 0.167522,0.181482 0.167522,0.511874 0,0.483953 -0.358311,0.730583 -0.353659,0.241977 -1.126123,0.241977 z m -0.42346,-1.530968 v 1.135429 q 0.05119,0.0047 0.120989,0.0093 0.06049,0.0047 0.139602,0.0093 0.08376,0 0.190789,0 0.200096,0 0.376926,-0.02327 0.181482,-0.02792 0.316431,-0.09307 0.134948,-0.06515 0.214056,-0.181483 0.08376,-0.116335 0.08376,-0.293164 0,-0.158216 -0.06049,-0.265244 -0.06049,-0.111681 -0.176829,-0.176829 -0.111682,-0.06515 -0.269897,-0.09307 -0.158216,-0.02792 -0.353659,-0.02792 z m 0,-0.362966 h 0.474647 q 0.167523,0 0.316431,-0.02327 0.148909,-0.02327 0.255937,-0.08376 0.111682,-0.06049 0.172176,-0.158215 0.06515,-0.09772 0.06515,-0.246631 0,-0.139602 -0.06515,-0.2326696 -0.06515,-0.097721 -0.181482,-0.1535622 -0.111682,-0.060494 -0.265244,-0.088415 -0.153562,-0.02792 -0.325738,-0.02792 -0.172176,0 -0.269897,0.00465 -0.09772,0.00465 -0.17683,0.01396 z"
               style="fill:#ffffff;stroke:none;stroke-width:0.116336"
               id="path170" />
          </g>
          <g
             aria-label="A"
             id="text1342"
             style="font-size:4.6534px;line-height:1.25;font-family:Ubuntu;-inkscape-font-specification:Ubuntu;fill:#ffffff;stroke:none;stroke-width:0.116336">
            <path
               d="m 81.032286,28.338486 q -0.07911,-0.209403 -0.148909,-0.409499 -0.0698,-0.20475 -0.144255,-0.414153 h -1.461168 l -0.293164,0.823652 h -0.469993 q 0.186136,-0.511874 0.349005,-0.94464 0.162869,-0.43742 0.316431,-0.828306 0.158216,-0.390885 0.311778,-0.744544 0.153562,-0.358311 0.321084,-0.707316 h 0.414153 q 0.167522,0.349005 0.321085,0.707316 0.153562,0.353659 0.307124,0.744544 0.158216,0.390886 0.321085,0.828306 0.162869,0.432766 0.349005,0.94464 z m -0.423459,-1.195924 q -0.148909,-0.404846 -0.297818,-0.781771 -0.144255,-0.381579 -0.302471,-0.730584 -0.162869,0.349005 -0.311778,0.730584 -0.144255,0.376925 -0.28851,0.781771 z"
               style="fill:#ffffff;stroke:none;stroke-width:0.116336"
               id="path173" />
          </g>
        </g>
        <path
           style="fill:none;stroke:#ff0000;stroke-width:0.264583px;stroke-linecap:butt;stroke-linejoin:miter;stroke-opacity:1"
           d="M -77.947049,109.75675 V 71.690498 h -10.05823"
           id="path1358" />
        <path
           style="fill:none;stroke:#ff0000;stroke-width:0.264583px;stroke-linecap:butt;stroke-linejoin:miter;stroke-opacity:1"
           d="m -88.005279,89.912688 h 34.12902 0.06 v 0.10281 19.740952"
           id="path1354" />
      </g>
    </g>
  </g>
</svg>
