<?xml version="1.0" encoding="UTF-8" standalone="no"?>
<svg
   xmlns:dc="http://purl.org/dc/elements/1.1/"
   xmlns:cc="http://creativecommons.org/ns#"
   xmlns:rdf="http://www.w3.org/1999/02/22-rdf-syntax-ns#"
   xmlns:svg="http://www.w3.org/2000/svg"
   xmlns="http://www.w3.org/2000/svg"
   xmlns:sodipodi="http://sodipodi.sourceforge.net/DTD/sodipodi-0.dtd"
   xmlns:inkscape="http://www.inkscape.org/namespaces/inkscape"
   width="330"
   height="330"
   viewBox="0 0 87.312498 87.312502"
   version="1.1"
   id="svg8"
   inkscape:version="1.0.1 (3bc2e813f5, 2020-09-07)"
   sodipodi:docname="Sinus_Kosinus_Einheitskreis.pfad.svg">
  <defs
     id="defs2" />
  <sodipodi:namedview
     id="base"
     pagecolor="#ffffff"
     bordercolor="#666666"
     borderopacity="1.0"
     inkscape:pageopacity="0.0"
     inkscape:pageshadow="2"
     inkscape:zoom="8.0000002"
     inkscape:cx="51.108291"
     inkscape:cy="9.9843711"
     inkscape:document-units="mm"
     inkscape:current-layer="layer1"
     inkscape:document-rotation="0"
     showgrid="true"
     units="px"
     showguides="true"
     inkscape:guide-bbox="true"
     inkscape:snap-page="true"
     inkscape:snap-bbox="true"
     inkscape:bbox-nodes="true"
     inkscape:window-width="1920"
     inkscape:window-height="1043"
     inkscape:window-x="1920"
     inkscape:window-y="0"
     inkscape:window-maximized="1"
     inkscape:snap-bbox-midpoints="true"
     inkscape:snap-bbox-edge-midpoints="true"
     inkscape:object-paths="true"
     inkscape:bbox-paths="true"
     inkscape:snap-intersection-paths="true" />
  <metadata
     id="metadata5">
    <rdf:RDF>
      <cc:Work
         rdf:about="">
        <dc:format>image/svg+xml</dc:format>
        <dc:type
           rdf:resource="http://purl.org/dc/dcmitype/StillImage" />
        <dc:title />
      </cc:Work>
    </rdf:RDF>
  </metadata>
  <g
     inkscape:label="Ebene 1"
     inkscape:groupmode="layer"
     id="layer1">
    <path
       style="fill:none;stroke:#000000;stroke-width:0.6;stroke-linecap:butt;stroke-linejoin:miter;stroke-miterlimit:4;stroke-dasharray:none;stroke-opacity:1"
       d="M 10.738447,2.1064162 8.8441626,0.21213223"
       id="path919" />
    <path
       style="fill:none;stroke:#000000;stroke-width:0.6;stroke-linecap:butt;stroke-linejoin:miter;stroke-miterlimit:4;stroke-dasharray:none;stroke-opacity:1"
       d="M 7.1256146,2.1064162 9.0198989,0.21213223"
       id="path921" />
    <path
       style="fill:none;stroke:#000000;stroke-width:0.6;stroke-linecap:butt;stroke-linejoin:miter;stroke-opacity:1;stroke-miterlimit:4;stroke-dasharray:none"
       d="M 8.9296874,83.343749 V 0"
       id="path843" />
    <path
       style="fill:none;stroke:#000000;stroke-width:0.6;stroke-linecap:butt;stroke-linejoin:miter;stroke-miterlimit:4;stroke-dasharray:none;stroke-opacity:1"
       d="m 85.206091,80.189226 1.894284,-1.894284"
       id="path915" />
    <path
       style="fill:none;stroke:#000000;stroke-width:0.6;stroke-linecap:butt;stroke-linejoin:miter;stroke-miterlimit:4;stroke-dasharray:none;stroke-opacity:1"
       d="m 85.206091,76.576394 1.894284,1.894284"
       id="path917" />
    <path
       style="fill:none;stroke:#000000;stroke-width:0.6;stroke-linecap:butt;stroke-linejoin:miter;stroke-opacity:1;stroke-miterlimit:4;stroke-dasharray:none"
       d="M 3.9687499,78.38281 H 87.312507"
       id="path845" />
    <path
       id="rect911"
       style="fill:#cccccc;fill-opacity:0.497999;stroke:#000000;stroke-width:2.26771657;stroke-linecap:round;stroke-linejoin:round;stroke-miterlimit:4;stroke-dasharray:none"
       d="M 315 296.25 A 281.25 281.25 0 0 1 314.99609 297.64648 A 281.25 281.25 0 0 1 314.98633 299.05664 A 281.25 281.25 0 0 1 314.96875 300.4668 A 281.25 281.25 0 0 1 314.94336 301.87695 A 281.25 281.25 0 0 1 314.91211 303.28711 A 281.25 281.25 0 0 1 314.87305 304.69531 A 281.25 281.25 0 0 1 314.82812 306.10547 A 281.25 281.25 0 0 1 314.77539 307.51562 A 281.25 281.25 0 0 1 314.71484 308.92383 A 281.25 281.25 0 0 1 314.64844 310.33203 A 281.25 281.25 0 0 1 314.57422 311.74023 A 281.25 281.25 0 0 1 314.49219 313.14844 A 281.25 281.25 0 0 1 314.4043 314.55664 A 281.25 281.25 0 0 1 314.375 315 L 315 315 L 315 296.25 z "
       transform="scale(0.26458333)" />
    <path
       id="path923"
       style="fill:none;fill-opacity:0.497999;stroke:#000000;stroke-width:2.26771657;stroke-linecap:round;stroke-linejoin:round;stroke-miterlimit:4;stroke-dasharray:none"
       d="M 314.41351 314.4141 A 281.25 281.25 0 0 0 314.49219 313.14844 A 281.25 281.25 0 0 0 314.57422 311.74023 A 281.25 281.25 0 0 0 314.64844 310.33203 A 281.25 281.25 0 0 0 314.71484 308.92383 A 281.25 281.25 0 0 0 314.77539 307.51562 A 281.25 281.25 0 0 0 314.82812 306.10547 A 281.25 281.25 0 0 0 314.87305 304.69531 A 281.25 281.25 0 0 0 314.91211 303.28711 A 281.25 281.25 0 0 0 314.94336 301.87695 A 281.25 281.25 0 0 0 314.96875 300.4668 A 281.25 281.25 0 0 0 314.98633 299.05664 A 281.25 281.25 0 0 0 314.99609 297.64648 A 281.25 281.25 0 0 0 315 296.25 A 281.25 281.25 0 0 0 314.99609 294.83984 A 281.25 281.25 0 0 0 314.98633 293.42969 A 281.25 281.25 0 0 0 314.96875 292.01953 A 281.25 281.25 0 0 0 314.94336 290.60938 A 281.25 281.25 0 0 0 314.91211 289.19922 A 281.25 281.25 0 0 0 314.87305 287.78906 A 281.25 281.25 0 0 0 314.82617 286.38086 A 281.25 281.25 0 0 0 314.77344 284.9707 A 281.25 281.25 0 0 0 314.71289 283.5625 A 281.25 281.25 0 0 0 314.64648 282.1543 A 281.25 281.25 0 0 0 314.57227 280.74609 A 281.25 281.25 0 0 0 314.49023 279.33789 A 281.25 281.25 0 0 0 314.40234 277.92969 A 281.25 281.25 0 0 0 314.30664 276.52344 A 281.25 281.25 0 0 0 314.20508 275.11719 A 281.25 281.25 0 0 0 314.0957 273.71094 A 281.25 281.25 0 0 0 313.97852 272.30469 A 281.25 281.25 0 0 0 313.85547 270.90039 A 281.25 281.25 0 0 0 313.72461 269.49609 A 281.25 281.25 0 0 0 313.58789 268.0918 A 281.25 281.25 0 0 0 313.44141 266.68945 A 281.25 281.25 0 0 0 313.29102 265.28711 A 281.25 281.25 0 0 0 313.13086 263.88672 A 281.25 281.25 0 0 0 312.9668 262.48633 A 281.25 281.25 0 0 0 312.79297 261.08594 A 281.25 281.25 0 0 0 312.61328 259.6875 A 281.25 281.25 0 0 0 312.42578 258.29102 A 281.25 281.25 0 0 0 312.23242 256.89258 A 281.25 281.25 0 0 0 312.03125 255.49805 A 281.25 281.25 0 0 0 311.82422 254.10352 A 281.25 281.25 0 0 0 311.60938 252.70898 A 281.25 281.25 0 0 0 311.38672 251.31641 A 281.25 281.25 0 0 0 311.1582 249.92383 A 281.25 281.25 0 0 0 310.92188 248.53516 A 281.25 281.25 0 0 0 310.67969 247.14453 A 281.25 281.25 0 0 0 310.42969 245.75781 A 281.25 281.25 0 0 0 310.17383 244.37109 A 281.25 281.25 0 0 0 309.91016 242.98438 A 281.25 281.25 0 0 0 309.63867 241.60156 A 281.25 281.25 0 0 0 309.36133 240.21875 A 281.25 281.25 0 0 0 309.07812 238.83789 A 281.25 281.25 0 0 0 308.78711 237.45703 A 281.25 281.25 0 0 0 308.48828 236.07812 A 281.25 281.25 0 0 0 308.18359 234.70312 A 281.25 281.25 0 0 0 307.87109 233.32617 A 281.25 281.25 0 0 0 307.55273 231.95312 A 281.25 281.25 0 0 0 307.22656 230.58203 A 281.25 281.25 0 0 0 306.89258 229.21094 A 281.25 281.25 0 0 0 306.55469 227.8418 A 281.25 281.25 0 0 0 306.20703 226.47461 A 281.25 281.25 0 0 0 305.85352 225.10938 A 281.25 281.25 0 0 0 305.49414 223.74609 A 281.25 281.25 0 0 0 305.12695 222.38477 A 281.25 281.25 0 0 0 304.75391 221.02539 A 281.25 281.25 0 0 0 304.37305 219.66602 A 281.25 281.25 0 0 0 303.98438 218.31055 A 281.25 281.25 0 0 0 303.5918 216.95703 A 281.25 281.25 0 0 0 303.18945 215.60547 A 281.25 281.25 0 0 0 302.7832 214.25586 A 281.25 281.25 0 0 0 302.36719 212.90625 A 281.25 281.25 0 0 0 301.94727 211.56055 A 281.25 281.25 0 0 0 301.51758 210.2168 A 281.25 281.25 0 0 0 301.08398 208.87695 A 281.25 281.25 0 0 0 300.64258 207.53711 A 281.25 281.25 0 0 0 300.19336 206.19922 A 281.25 281.25 0 0 0 299.73828 204.86523 A 281.25 281.25 0 0 0 299.27734 203.53125 A 281.25 281.25 0 0 0 298.80859 202.20117 A 281.25 281.25 0 0 0 298.33398 200.875 A 281.25 281.25 0 0 0 297.85352 199.54883 A 281.25 281.25 0 0 0 297.36523 198.22461 A 281.25 281.25 0 0 0 296.86914 196.9043 A 281.25 281.25 0 0 0 296.36914 195.58789 A 281.25 281.25 0 0 0 295.86133 194.27148 A 281.25 281.25 0 0 0 295.3457 192.95898 A 281.25 281.25 0 0 0 294.82422 191.64844 A 281.25 281.25 0 0 0 294.29688 190.33984 A 281.25 281.25 0 0 0 293.76172 189.03516 A 281.25 281.25 0 0 0 293.22266 187.73242 A 281.25 281.25 0 0 0 292.67383 186.43359 A 281.25 281.25 0 0 0 292.12109 185.13672 A 281.25 281.25 0 0 0 291.56055 183.8418 A 281.25 281.25 0 0 0 290.99414 182.55078 A 281.25 281.25 0 0 0 290.41992 181.26172 A 281.25 281.25 0 0 0 289.83984 179.97656 A 281.25 281.25 0 0 0 289.25391 178.69531 A 281.25 281.25 0 0 0 288.66211 177.41406 A 281.25 281.25 0 0 0 288.0625 176.13867 A 281.25 281.25 0 0 0 287.45703 174.86523 A 281.25 281.25 0 0 0 286.8457 173.59375 A 281.25 281.25 0 0 0 286.22656 172.32617 A 281.25 281.25 0 0 0 285.60156 171.0625 A 281.25 281.25 0 0 0 284.9707 169.80078 A 281.25 281.25 0 0 0 284.33398 168.54297 A 281.25 281.25 0 0 0 283.69141 167.28711 A 281.25 281.25 0 0 0 283.04102 166.03711 A 281.25 281.25 0 0 0 282.38477 164.78711 A 281.25 281.25 0 0 0 281.72266 163.54297 A 281.25 281.25 0 0 0 281.05469 162.30078 A 281.25 281.25 0 0 0 280.37891 161.0625 A 281.25 281.25 0 0 0 279.69922 159.82812 A 281.25 281.25 0 0 0 279.01172 158.5957 A 281.25 281.25 0 0 0 278.31836 157.36914 A 281.25 281.25 0 0 0 277.61914 156.14453 A 281.25 281.25 0 0 0 276.91211 154.92188 A 281.25 281.25 0 0 0 276.20117 153.70508 A 281.25 281.25 0 0 0 275.48242 152.49219 A 281.25 281.25 0 0 0 274.75977 151.28125 A 281.25 281.25 0 0 0 274.0293 150.07422 A 281.25 281.25 0 0 0 273.29297 148.87109 A 281.25 281.25 0 0 0 272.55078 147.67188 A 281.25 281.25 0 0 0 271.80273 146.47656 A 281.25 281.25 0 0 0 271.04883 145.28516 A 281.25 281.25 0 0 0 270.28906 144.09766 A 281.25 281.25 0 0 0 269.52344 142.91211 A 281.25 281.25 0 0 0 268.75195 141.73242 A 281.25 281.25 0 0 0 267.97461 140.55664 A 281.25 281.25 0 0 0 267.19141 139.38477 A 281.25 281.25 0 0 0 266.40039 138.21484 A 281.25 281.25 0 0 0 265.60547 137.05078 A 281.25 281.25 0 0 0 264.80469 135.89062 A 281.25 281.25 0 0 0 263.99805 134.73438 A 281.25 281.25 0 0 0 263.18555 133.58203 A 281.25 281.25 0 0 0 262.36719 132.43359 A 281.25 281.25 0 0 0 261.54297 131.28906 A 281.25 281.25 0 0 0 260.71289 130.14844 A 281.25 281.25 0 0 0 259.87695 129.01172 A 281.25 281.25 0 0 0 259.03516 127.88086 A 281.25 281.25 0 0 0 258.1875 126.75391 A 281.25 281.25 0 0 0 257.33594 125.63086 A 281.25 281.25 0 0 0 256.47656 124.51172 A 281.25 281.25 0 0 0 255.61328 123.39648 A 281.25 281.25 0 0 0 254.74414 122.28711 A 281.25 281.25 0 0 0 253.86914 121.17969 A 281.25 281.25 0 0 0 252.98828 120.07812 A 281.25 281.25 0 0 0 252.10156 118.98242 A 281.25 281.25 0 0 0 251.21094 117.88867 A 281.25 281.25 0 0 0 250.3125 116.80078 A 281.25 281.25 0 0 0 249.41016 115.7168 A 281.25 281.25 0 0 0 248.50195 114.63867 A 281.25 281.25 0 0 0 247.58984 113.56445 A 281.25 281.25 0 0 0 246.66992 112.49414 A 281.25 281.25 0 0 0 245.74609 111.42773 A 281.25 281.25 0 0 0 244.81641 110.36719 A 281.25 281.25 0 0 0 243.88281 109.3125 A 281.25 281.25 0 0 0 242.94336 108.25977 A 281.25 281.25 0 0 0 241.99805 107.21484 A 281.25 281.25 0 0 0 241.04688 106.17188 A 281.25 281.25 0 0 0 240.0918 105.13477 A 281.25 281.25 0 0 0 239.13086 104.10352 A 281.25 281.25 0 0 0 238.16406 103.07617 A 281.25 281.25 0 0 0 237.19336 102.05273 A 281.25 281.25 0 0 0 236.2168 101.03516 A 281.25 281.25 0 0 0 235.23633 100.02344 A 281.25 281.25 0 0 0 234.25 99.015624 A 281.25 281.25 0 0 0 233.25781 98.011718 A 281.25 281.25 0 0 0 232.26172 97.013671 A 281.25 281.25 0 0 0 231.25977 96.021483 A 281.25 281.25 0 0 0 230.25391 95.033202 A 281.25 281.25 0 0 0 229.24219 94.05078 A 281.25 281.25 0 0 0 228.22461 93.072265 A 281.25 281.25 0 0 0 227.20508 92.101561 A 281.25 281.25 0 0 0 226.17773 91.132811 A 281.25 281.25 0 0 0 225.14648 90.171874 A 281.25 281.25 0 0 0 224.11133 89.21289 A 281.25 281.25 0 0 0 223.07031 88.261718 A 281.25 281.25 0 0 0 222.02539 87.314452 A 281.25 281.25 0 0 0 220.97656 86.373046 A 281.25 281.25 0 0 0 219.92188 85.437499 A 281.25 281.25 0 0 0 218.86133 84.507811 A 281.25 281.25 0 0 0 217.79883 83.58203 A 281.25 281.25 0 0 0 216.72852 82.662108 A 281.25 281.25 0 0 0 215.65625 81.746093 A 281.25 281.25 0 0 0 214.57812 80.83789 A 281.25 281.25 0 0 0 213.49609 79.933593 A 281.25 281.25 0 0 0 212.4082 79.035155 A 281.25 281.25 0 0 0 211.31836 78.140624 A 281.25 281.25 0 0 0 210.2207 77.253905 A 281.25 281.25 0 0 0 209.12109 76.371093 A 281.25 281.25 0 0 0 208.01562 75.496093 A 281.25 281.25 0 0 0 206.9082 74.624999 A 281.25 281.25 0 0 0 205.79492 73.757811 A 281.25 281.25 0 0 0 204.67578 72.898437 A 281.25 281.25 0 0 0 203.55469 72.044921 A 281.25 281.25 0 0 0 202.42773 71.195311 A 281.25 281.25 0 0 0 201.29688 70.353515 A 281.25 281.25 0 0 0 200.16211 69.515624 A 281.25 281.25 0 0 0 199.02344 68.683593 A 281.25 281.25 0 0 0 197.88086 67.857421 A 281.25 281.25 0 0 0 196.73242 67.039061 A 281.25 281.25 0 0 0 195.58203 66.224608 A 281.25 281.25 0 0 0 194.42578 65.416015 A 281.25 281.25 0 0 0 193.26758 64.61328 A 281.25 281.25 0 0 0 192.10352 63.816405 A 281.25 281.25 0 0 0 190.93555 63.02539 A 281.25 281.25 0 0 0 189.76562 62.240233 A 281.25 281.25 0 0 0 188.58984 61.460937 A 281.25 281.25 0 0 0 187.41016 60.687499 A 281.25 281.25 0 0 0 186.22656 59.919921 A 281.25 281.25 0 0 0 185.04102 59.158202 A 281.25 281.25 0 0 0 183.84961 58.402343 A 281.25 281.25 0 0 0 182.6543 57.652343 A 281.25 281.25 0 0 0 181.45703 56.908202 A 281.25 281.25 0 0 0 180.25586 56.171874 A 281.25 281.25 0 0 0 179.04883 55.439452 A 281.25 281.25 0 0 0 177.83984 54.714843 A 281.25 281.25 0 0 0 176.62695 53.99414 A 281.25 281.25 0 0 0 175.41016 53.281249 A 281.25 281.25 0 0 0 174.19141 52.574218 A 281.25 281.25 0 0 0 172.9668 51.873046 A 281.25 281.25 0 0 0 171.74023 51.177733 A 281.25 281.25 0 0 0 170.50977 50.48828 A 281.25 281.25 0 0 0 169.27539 49.80664 A 281.25 281.25 0 0 0 168.03711 49.130858 A 281.25 281.25 0 0 0 166.79688 48.458983 A 281.25 281.25 0 0 0 165.55273 47.794921 A 281.25 281.25 0 0 0 164.30469 47.138671 A 281.25 281.25 0 0 0 163.05469 46.486327 A 281.25 281.25 0 0 0 161.80078 45.841796 A 281.25 281.25 0 0 0 160.54297 45.203124 A 281.25 281.25 0 0 0 159.2832 44.570311 A 281.25 281.25 0 0 0 158.01953 43.943358 A 281.25 281.25 0 0 0 156.75391 43.324218 A 281.25 281.25 0 0 0 155.48242 42.710937 A 281.25 281.25 0 0 0 154.21094 42.103515 A 281.25 281.25 0 0 0 152.93555 41.501952 A 281.25 281.25 0 0 0 151.65625 40.908202 A 281.25 281.25 0 0 0 150.375 40.320311 A 281.25 281.25 0 0 0 149.08984 39.73828 A 281.25 281.25 0 0 0 147.80078 39.162109 A 281.25 281.25 0 0 0 146.51172 38.59375 A 281.25 281.25 0 0 0 145.21875 38.03125 A 281.25 281.25 0 0 0 143.92188 37.476562 A 281.25 281.25 0 0 0 142.62305 36.927734 A 281.25 281.25 0 0 0 141.32031 36.384766 A 281.25 281.25 0 0 0 140.01758 35.847656 A 281.25 281.25 0 0 0 138.70898 35.318359 A 281.25 281.25 0 0 0 137.40039 34.796875 A 281.25 281.25 0 0 0 136.08789 34.279297 A 281.25 281.25 0 0 0 134.77344 33.769531 A 281.25 281.25 0 0 0 133.45508 33.265625 A 281.25 281.25 0 0 0 132.13672 32.769531 A 281.25 281.25 0 0 0 130.81445 32.279297 A 281.25 281.25 0 0 0 129.48828 31.796875 A 281.25 281.25 0 0 0 128.16211 31.320312 A 281.25 281.25 0 0 0 126.83203 30.849609 A 281.25 281.25 0 0 0 125.5 30.386719 A 281.25 281.25 0 0 0 124.16602 29.929688 A 281.25 281.25 0 0 0 122.83008 29.480469 A 281.25 281.25 0 0 0 121.49023 29.037109 A 281.25 281.25 0 0 0 120.15039 28.599609 A 281.25 281.25 0 0 0 118.80664 28.169922 A 281.25 281.25 0 0 0 117.46094 27.746094 A 281.25 281.25 0 0 0 116.11328 27.330078 A 281.25 281.25 0 0 0 114.76367 26.919922 A 281.25 281.25 0 0 0 113.41211 26.517578 A 281.25 281.25 0 0 0 112.05859 26.121094 A 281.25 281.25 0 0 0 110.70312 25.732422 A 281.25 281.25 0 0 0 109.34766 25.349609 A 281.25 281.25 0 0 0 107.98828 24.974609 A 281.25 281.25 0 0 0 106.62695 24.605469 A 281.25 281.25 0 0 0 105.26367 24.244141 A 281.25 281.25 0 0 0 103.89844 23.888672 A 281.25 281.25 0 0 0 102.53125 23.541016 A 281.25 281.25 0 0 0 101.16406 23.199219 A 281.25 281.25 0 0 0 99.792968 22.863281 A 281.25 281.25 0 0 0 98.421874 22.537109 A 281.25 281.25 0 0 0 97.048827 22.214844 A 281.25 281.25 0 0 0 95.673827 21.902344 A 281.25 281.25 0 0 0 94.296874 21.59375 A 281.25 281.25 0 0 0 92.919921 21.294922 A 281.25 281.25 0 0 0 91.541015 21.001953 A 281.25 281.25 0 0 0 90.160155 20.714844 A 281.25 281.25 0 0 0 88.777343 20.435547 A 281.25 281.25 0 0 0 87.39453 20.164062 A 281.25 281.25 0 0 0 86.007811 19.898438 A 281.25 281.25 0 0 0 84.623046 19.638672 A 281.25 281.25 0 0 0 83.234374 19.386719 A 281.25 281.25 0 0 0 81.845702 19.142578 A 281.25 281.25 0 0 0 80.455077 18.904297 A 281.25 281.25 0 0 0 79.064452 18.673828 A 281.25 281.25 0 0 0 77.671874 18.451172 A 281.25 281.25 0 0 0 76.279296 18.234375 A 281.25 281.25 0 0 0 74.884765 18.023438 A 281.25 281.25 0 0 0 73.48828 17.822266 A 281.25 281.25 0 0 0 72.091796 17.625 A 281.25 281.25 0 0 0 70.695311 17.4375 A 281.25 281.25 0 0 0 69.296874 17.255859 A 281.25 281.25 0 0 0 67.896483 17.080078 A 281.25 281.25 0 0 0 66.496093 16.912109 A 281.25 281.25 0 0 0 65.095702 16.751953 A 281.25 281.25 0 0 0 63.693358 16.597656 A 281.25 281.25 0 0 0 62.291015 16.451172 A 281.25 281.25 0 0 0 60.886718 16.3125 A 281.25 281.25 0 0 0 59.484374 16.179688 A 281.25 281.25 0 0 0 58.078124 16.054688 A 281.25 281.25 0 0 0 56.673827 15.935547 A 281.25 281.25 0 0 0 55.267577 15.824219 A 281.25 281.25 0 0 0 53.861327 15.720703 A 281.25 281.25 0 0 0 52.455077 15.623047 A 281.25 281.25 0 0 0 51.046874 15.533203 A 281.25 281.25 0 0 0 49.640624 15.449219 A 281.25 281.25 0 0 0 48.232421 15.373047 A 281.25 281.25 0 0 0 46.822265 15.304688 A 281.25 281.25 0 0 0 45.414061 15.242188 A 281.25 281.25 0 0 0 44.005858 15.1875 A 281.25 281.25 0 0 0 42.595702 15.138672 A 281.25 281.25 0 0 0 41.185546 15.097656 A 281.25 281.25 0 0 0 39.77539 15.064453 A 281.25 281.25 0 0 0 38.365234 15.037109 A 281.25 281.25 0 0 0 36.957031 15.017578 A 281.25 281.25 0 0 0 35.544922 15.005859 A 281.25 281.25 0 0 0 34.134766 15 L 33.365234 15 A 281.25 281.25 0 0 0 31.955078 15.005859 A 281.25 281.25 0 0 0 30.544922 15.017578 A 281.25 281.25 0 0 0 29.134766 15.037109 A 281.25 281.25 0 0 0 27.724609 15.064453 A 281.25 281.25 0 0 0 26.314453 15.097656 A 281.25 281.25 0 0 0 24.90625 15.138672 A 281.25 281.25 0 0 0 23.496094 15.1875 A 281.25 281.25 0 0 0 22.085938 15.242188 A 281.25 281.25 0 0 0 20.677734 15.304688 A 281.25 281.25 0 0 0 19.269531 15.373047 A 281.25 281.25 0 0 0 17.861328 15.449219 A 281.25 281.25 0 0 0 16.453125 15.533203 A 281.25 281.25 0 0 0 15.587891 15.587891 L 15.587891 15.587891 A 281.25 281.25 0 0 0 15.587891 15.587891 "
       transform="scale(0.26458333)" />
    <path
       id="path958"
       style="fill:none;fill-opacity:0.62352943;stroke:#ff0000;stroke-width:2.26771657;stroke-linecap:round;stroke-linejoin:round;stroke-miterlimit:4;stroke-dasharray:none;stroke-opacity:1"
       d="M 65.021484 264.97852 L 33.75 296.25 L 77.974609 296.25 A 44.224694 44.224694 0 0 0 65.021484 264.97852 z "
       transform="scale(0.26458333)" />
    <path
       style="fill:none;stroke:#000000;stroke-width:0.6;stroke-linecap:round;stroke-linejoin:round;stroke-opacity:1;stroke-miterlimit:4;stroke-dasharray:none"
       d="M 8.9296874,78.382809 61.548496,25.764 v 52.618809 z"
       id="path950" />
    <path
       id="path952"
       style="fill:none;fill-opacity:0.6156863;stroke:#000000;stroke-width:2.26771657;stroke-linecap:round;stroke-linejoin:round;stroke-miterlimit:4;stroke-dasharray:none;stroke-opacity:1"
       d="M 232.625 256.48633 A 39.762969 39.762969 0 0 0 192.86133 296.25 L 232.625 296.25 L 232.625 256.48633 z "
       transform="scale(0.26458333)" />
    <g
       aria-label="α"
       id="text970"
       style="font-style:normal;font-variant:normal;font-weight:normal;font-stretch:normal;font-size:5.1944px;line-height:1.25;font-family:sans-serif;-inkscape-font-specification:sans-serif;fill:#ff0000;stroke-width:0.264583">
      <path
         d="m 16.639373,75.828529 -0.111599,-0.585892 q -0.114135,-0.60111 -0.565601,-0.60111 -0.339868,0 -0.494584,0.278996 -0.195297,0.350014 -0.195297,0.811625 0,0.557993 0.190224,0.824307 0.192761,0.271387 0.499657,0.271387 0.339868,0 0.522484,-0.540238 z m 0.261241,-0.776117 0.251097,-0.743144 h 0.415958 l -0.519948,1.539551 0.101453,0.555456 q 0.02283,0.12428 0.111599,0.22827 0.103989,0.121744 0.185152,0.121744 h 0.223197 v 0.395667 h -0.278996 q -0.238415,0 -0.451467,-0.213052 -0.103989,-0.106526 -0.147107,-0.329722 -0.116671,0.281532 -0.355086,0.502193 -0.111598,0.103989 -0.474293,0.103989 -0.596037,0 -0.885179,-0.385522 -0.29675,-0.398203 -0.29675,-1.095694 0,-0.74568 0.322114,-1.095693 0.357622,-0.390595 0.859815,-0.390595 0.788798,0 0.938441,0.806552 z"
         style="font-style:normal;font-variant:normal;font-weight:normal;font-stretch:normal;font-family:sans-serif;-inkscape-font-specification:sans-serif;fill:#ff0000;stroke-width:0.264583"
         id="path924" />
    </g>
    <g
       aria-label="y"
       id="text974"
       style="font-style:normal;font-variant:normal;font-weight:normal;font-stretch:normal;font-size:5.1944px;line-height:1.25;font-family:sans-serif;-inkscape-font-specification:sans-serif;stroke-width:0.264583"
       transform="translate(-82.374305,-80.238335)">
      <path
         d="m 86.064636,83.342803 q -0.197833,0.507266 -0.385522,0.661982 -0.187688,0.154716 -0.502193,0.154716 h -0.37284 v -0.390595 h 0.273924 q 0.192761,0 0.299286,-0.09131 0.106526,-0.09131 0.235879,-0.431176 l 0.0837,-0.213052 -1.148957,-2.795033 h 0.494584 l 0.887715,2.221823 0.887715,-2.221823 h 0.494584 z"
         style="font-style:normal;font-variant:normal;font-weight:normal;font-stretch:normal;font-family:sans-serif;-inkscape-font-specification:sans-serif;stroke-width:0.264583"
         id="path927" />
    </g>
    <path
       id="path966"
       style="fill:#000000;fill-opacity:1;stroke:#000000;stroke-width:0.6;stroke-linecap:round;stroke-linejoin:round;stroke-miterlimit:4;stroke-dasharray:none"
       d="m 57.910861,74.362167 a 0.35544908,0.35544908 0 0 1 -0.355449,0.355449 0.35544908,0.35544908 0 0 1 -0.355449,-0.355449 0.35544908,0.35544908 0 0 1 0.355449,-0.355449 0.35544908,0.35544908 0 0 1 0.355449,0.355449 z" />
    <g
       aria-label="x"
       id="text978"
       style="font-style:normal;font-variant:normal;font-weight:normal;font-stretch:normal;font-size:5.1944px;line-height:1.25;font-family:sans-serif;-inkscape-font-specification:sans-serif;stroke-width:0.264583"
       transform="translate(73.776651,79.621752)">
      <path
         d="M 13.486402,0.56747352 12.459189,1.9497723 13.539665,3.4081609 H 12.989282 L 12.162439,2.2921766 11.335596,3.4081609 H 10.785213 L 11.888516,1.9218727 10.879057,0.56747352 h 0.550383 l 0.75329,1.01199488 0.753289,-1.01199488 z"
         style="font-style:normal;font-variant:normal;font-weight:normal;font-stretch:normal;font-family:sans-serif;-inkscape-font-specification:sans-serif;stroke-width:0.264583"
         id="path930" />
    </g>
    <g
       aria-label="cos(α)"
       id="text982"
       style="font-style:normal;font-variant:normal;font-weight:normal;font-stretch:normal;font-size:5.1944px;line-height:1.25;font-family:sans-serif;-inkscape-font-specification:sans-serif;fill:#00ff00;fill-opacity:1;stroke-width:0.264583">
      <path
         d="m 32.045373,74.171649 v 0.436249 q -0.197833,-0.109062 -0.398203,-0.162325 -0.197834,-0.0558 -0.40074,-0.0558 -0.454003,0 -0.705099,0.289142 -0.251097,0.286605 -0.251097,0.806552 0,0.519947 0.251097,0.809089 0.251096,0.286605 0.705099,0.286605 0.202906,0 0.40074,-0.05326 0.20037,-0.0558 0.398203,-0.164861 v 0.431175 q -0.195297,0.09131 -0.405812,0.136962 -0.207979,0.04565 -0.443858,0.04565 -0.641691,0 -1.019604,-0.403276 -0.377913,-0.403276 -0.377913,-1.088085 0,-0.694954 0.38045,-1.093157 0.382985,-0.398204 1.047503,-0.398204 0.215588,0 0.421031,0.04565 0.205442,0.04312 0.398203,0.131889 z"
         style="font-style:normal;font-variant:normal;font-weight:normal;font-stretch:normal;font-family:sans-serif;-inkscape-font-specification:sans-serif;fill:#00ff00;fill-opacity:1;stroke-width:0.264583"
         id="path933" />
      <path
         d="m 33.957764,74.389773 q -0.375376,0 -0.5935,0.294214 -0.218125,0.291678 -0.218125,0.80148 0,0.509802 0.215588,0.804016 0.218125,0.291678 0.596037,0.291678 0.372841,0 0.590965,-0.294214 0.218124,-0.294214 0.218124,-0.80148 0,-0.504729 -0.218124,-0.798943 -0.218124,-0.296751 -0.590965,-0.296751 z m 0,-0.395667 q 0.608719,0 0.956196,0.395667 0.347477,0.395668 0.347477,1.095694 0,0.69749 -0.347477,1.095694 -0.347477,0.395667 -0.956196,0.395667 -0.611255,0 -0.958732,-0.395667 -0.34494,-0.398204 -0.34494,-1.095694 0,-0.700026 0.34494,-1.095694 0.347477,-0.395667 0.958732,-0.395667 z"
         style="font-style:normal;font-variant:normal;font-weight:normal;font-stretch:normal;font-family:sans-serif;-inkscape-font-specification:sans-serif;fill:#00ff00;fill-opacity:1;stroke-width:0.264583"
         id="path935" />
      <path
         d="m 37.845955,74.146286 v 0.441321 q -0.197834,-0.101453 -0.410885,-0.15218 -0.213052,-0.05073 -0.441321,-0.05073 -0.347477,0 -0.522484,0.106526 -0.17247,0.106525 -0.17247,0.319577 0,0.162325 0.12428,0.256169 0.12428,0.09131 0.499657,0.175007 l 0.159788,0.03551 q 0.497121,0.106526 0.7051,0.301823 0.210515,0.192761 0.210515,0.540238 0,0.395667 -0.314505,0.626473 -0.311968,0.230806 -0.859815,0.230806 -0.22827,0 -0.47683,-0.04565 -0.246024,-0.04312 -0.519947,-0.131889 v -0.481902 q 0.258705,0.134425 0.509802,0.202906 0.251096,0.06594 0.49712,0.06594 0.329723,0 0.507266,-0.111599 0.177543,-0.114135 0.177543,-0.319577 0,-0.190225 -0.129353,-0.291678 -0.126816,-0.101453 -0.560528,-0.195297 l -0.162325,-0.03804 q -0.433713,-0.09131 -0.626474,-0.278996 -0.19276,-0.190225 -0.19276,-0.519947 0,-0.40074 0.284068,-0.618865 0.284069,-0.218124 0.806553,-0.218124 0.258705,0 0.486975,0.03804 0.228269,0.03804 0.42103,0.114135 z"
         style="font-style:normal;font-variant:normal;font-weight:normal;font-stretch:normal;font-family:sans-serif;-inkscape-font-specification:sans-serif;fill:#00ff00;fill-opacity:1;stroke-width:0.264583"
         id="path937" />
      <path
         d="m 39.862336,72.961821 q -0.339868,0.583355 -0.504729,1.154029 -0.164861,0.570674 -0.164861,1.156566 0,0.585891 0.164861,1.161638 0.167398,0.57321 0.504729,1.154029 H 39.456524 Q 39.076075,76.992046 38.88585,76.4163 q -0.187688,-0.575747 -0.187688,-1.143884 0,-0.565602 0.187688,-1.138812 0.187688,-0.57321 0.570674,-1.171783 z"
         style="font-style:normal;font-variant:normal;font-weight:normal;font-stretch:normal;font-family:sans-serif;-inkscape-font-specification:sans-serif;fill:#00ff00;fill-opacity:1;stroke-width:0.264583"
         id="path939" />
      <path
         d="m 42.424027,75.581848 -0.111598,-0.585892 q -0.114135,-0.60111 -0.565601,-0.60111 -0.339868,0 -0.494584,0.278996 -0.195298,0.350013 -0.195298,0.811625 0,0.557992 0.190225,0.824307 0.192761,0.271387 0.499657,0.271387 0.339868,0 0.522483,-0.540238 z m 0.261242,-0.776117 0.251096,-0.743144 h 0.415958 l -0.519947,1.539551 0.101453,0.555456 q 0.02283,0.12428 0.111599,0.22827 0.103989,0.121743 0.185151,0.121743 h 0.223197 v 0.395668 H 43.17478 q -0.238415,0 -0.451466,-0.213052 -0.10399,-0.106526 -0.147107,-0.329723 -0.116671,0.281533 -0.355086,0.502193 -0.111599,0.10399 -0.474293,0.10399 -0.596038,0 -0.885179,-0.385522 -0.29675,-0.398204 -0.29675,-1.095694 0,-0.74568 0.322113,-1.095694 0.357623,-0.390594 0.859816,-0.390594 0.788798,0 0.938441,0.806552 z"
         style="font-style:normal;font-variant:normal;font-weight:normal;font-stretch:normal;font-family:sans-serif;-inkscape-font-specification:sans-serif;fill:#00ff00;fill-opacity:1;stroke-width:0.264583"
         id="path941" />
      <path
         d="m 44.118295,72.961821 h 0.405813 q 0.380449,0.598573 0.568137,1.171783 0.190225,0.57321 0.190225,1.138812 0,0.568137 -0.190225,1.143884 -0.187688,0.575746 -0.568137,1.171783 h -0.405813 q 0.337332,-0.580819 0.502193,-1.154029 0.167398,-0.575747 0.167398,-1.161638 0,-0.585892 -0.167398,-1.156566 -0.164861,-0.570674 -0.502193,-1.154029 z"
         style="font-style:normal;font-variant:normal;font-weight:normal;font-stretch:normal;font-family:sans-serif;-inkscape-font-specification:sans-serif;fill:#00ff00;fill-opacity:1;stroke-width:0.264583"
         id="path943" />
    </g>
    <g
       aria-label="sin(α)"
       id="text986"
       style="font-style:normal;font-variant:normal;font-weight:normal;font-stretch:normal;font-size:5.1944px;line-height:1.25;font-family:sans-serif;-inkscape-font-specification:sans-serif;fill:#008000;fill-opacity:1;stroke-width:0.264583">
      <path
         d="m 64.682053,53.649502 v 0.441321 q -0.197834,-0.101453 -0.410885,-0.15218 -0.213052,-0.05073 -0.441321,-0.05073 -0.347477,0 -0.522484,0.106525 -0.17247,0.106526 -0.17247,0.319578 0,0.162325 0.12428,0.256169 0.12428,0.09131 0.499656,0.175006 l 0.159789,0.03551 q 0.49712,0.106526 0.705099,0.301823 0.210515,0.192761 0.210515,0.540238 0,0.395667 -0.314504,0.626473 -0.311969,0.230806 -0.859815,0.230806 -0.22827,0 -0.47683,-0.04565 -0.246024,-0.04312 -0.519947,-0.131889 v -0.481902 q 0.258705,0.134425 0.509802,0.202906 0.251096,0.06594 0.49712,0.06594 0.329723,0 0.507265,-0.111598 0.177543,-0.114135 0.177543,-0.319577 0,-0.190225 -0.129352,-0.291678 -0.126817,-0.101453 -0.560529,-0.195297 l -0.162325,-0.03804 q -0.433712,-0.09131 -0.626473,-0.278996 -0.192761,-0.190225 -0.192761,-0.519948 0,-0.40074 0.284069,-0.618864 0.284069,-0.218124 0.806552,-0.218124 0.258706,0 0.486975,0.03805 0.22827,0.03804 0.421031,0.114135 z"
         style="font-style:normal;font-variant:normal;font-weight:normal;font-stretch:normal;font-family:sans-serif;-inkscape-font-specification:sans-serif;fill:#008000;fill-opacity:1;stroke-width:0.264583"
         id="path946" />
      <path
         d="m 65.577377,53.565803 h 0.466684 v 2.840687 h -0.466684 z m 0,-1.105839 h 0.466684 v 0.590964 h -0.466684 z"
         style="font-style:normal;font-variant:normal;font-weight:normal;font-stretch:normal;font-family:sans-serif;-inkscape-font-specification:sans-serif;fill:#008000;fill-opacity:1;stroke-width:0.264583"
         id="path948" />
      <path
         d="m 69.381869,54.691933 v 1.714557 h -0.466685 v -1.699339 q 0,-0.403277 -0.157252,-0.603647 -0.157252,-0.200369 -0.471757,-0.200369 -0.377913,0 -0.596037,0.240951 -0.218124,0.240951 -0.218124,0.656909 v 1.605495 h -0.469221 v -2.840687 h 0.469221 v 0.441321 q 0.167397,-0.256169 0.39313,-0.382986 0.22827,-0.126816 0.52502,-0.126816 0.489512,0 0.740608,0.304359 0.251097,0.301823 0.251097,0.890252 z"
         style="font-style:normal;font-variant:normal;font-weight:normal;font-stretch:normal;font-family:sans-serif;-inkscape-font-specification:sans-serif;fill:#008000;fill-opacity:1;stroke-width:0.264583"
         id="path951" />
      <path
         d="m 71.433758,52.465037 q -0.339868,0.583355 -0.504729,1.154029 -0.164862,0.570674 -0.164862,1.156565 0,0.585892 0.164862,1.161639 0.167397,0.57321 0.504729,1.154029 h -0.405812 q -0.38045,-0.596037 -0.570674,-1.171784 -0.187689,-0.575746 -0.187689,-1.143884 0,-0.565601 0.187689,-1.138811 0.187688,-0.57321 0.570674,-1.171783 z"
         style="font-style:normal;font-variant:normal;font-weight:normal;font-stretch:normal;font-family:sans-serif;-inkscape-font-specification:sans-serif;fill:#008000;fill-opacity:1;stroke-width:0.264583"
         id="path953" />
      <path
         d="m 73.99545,55.085063 -0.111599,-0.585891 q -0.114134,-0.60111 -0.565601,-0.60111 -0.339868,0 -0.494584,0.278996 -0.195297,0.350013 -0.195297,0.811625 0,0.557992 0.190224,0.824307 0.192761,0.271387 0.499657,0.271387 0.339868,0 0.522484,-0.540238 z m 0.261242,-0.776116 0.251096,-0.743144 h 0.415958 l -0.519947,1.539551 0.101453,0.555456 q 0.02283,0.12428 0.111598,0.228269 0.10399,0.121744 0.185152,0.121744 h 0.223197 v 0.395667 h -0.278996 q -0.238415,0 -0.451467,-0.213051 -0.103989,-0.106526 -0.147107,-0.329723 -0.116671,0.281533 -0.355086,0.502193 -0.111598,0.10399 -0.474293,0.10399 -0.596037,0 -0.885178,-0.385522 -0.296751,-0.398204 -0.296751,-1.095694 0,-0.74568 0.322114,-1.095694 0.357622,-0.390594 0.859815,-0.390594 0.788798,0 0.938442,0.806552 z"
         style="font-style:normal;font-variant:normal;font-weight:normal;font-stretch:normal;font-family:sans-serif;-inkscape-font-specification:sans-serif;fill:#008000;fill-opacity:1;stroke-width:0.264583"
         id="path955" />
      <path
         d="m 75.689717,52.465037 h 0.405812 q 0.380449,0.598573 0.568138,1.171783 0.190224,0.57321 0.190224,1.138811 0,0.568138 -0.190224,1.143884 -0.187689,0.575747 -0.568138,1.171784 h -0.405812 q 0.337331,-0.580819 0.502193,-1.154029 0.167397,-0.575747 0.167397,-1.161639 0,-0.585891 -0.167397,-1.156565 -0.164862,-0.570674 -0.502193,-1.154029 z"
         style="font-style:normal;font-variant:normal;font-weight:normal;font-stretch:normal;font-family:sans-serif;-inkscape-font-specification:sans-serif;fill:#008000;fill-opacity:1;stroke-width:0.264583"
         id="path957" />
    </g>
    <path
       style="fill:none;stroke:#000000;stroke-width:0.7;stroke-linecap:butt;stroke-linejoin:miter;stroke-opacity:1;stroke-miterlimit:4;stroke-dasharray:none"
       d="M 8.9296898,78.382809 H 61.548697"
       id="path1159" />
    <path
       style="fill:none;stroke:#008000;stroke-width:0.7;stroke-linecap:butt;stroke-linejoin:miter;stroke-opacity:1;stroke-miterlimit:4;stroke-dasharray:none"
       d="M 61.548496,78.382809 V 25.764"
       id="path1161" />
    <path
       style="fill:none;stroke:#00ff00;stroke-width:0.7;stroke-linecap:butt;stroke-linejoin:miter;stroke-opacity:1;stroke-miterlimit:4;stroke-dasharray:none"
       d="M 8.9296874,78.382809 H 61.548697"
       id="path864" />
  </g>
</svg>
