<?xml version="1.0" encoding="UTF-8" standalone="no"?>
<svg
   xmlns:dc="http://purl.org/dc/elements/1.1/"
   xmlns:cc="http://creativecommons.org/ns#"
   xmlns:rdf="http://www.w3.org/1999/02/22-rdf-syntax-ns#"
   xmlns:svg="http://www.w3.org/2000/svg"
   xmlns="http://www.w3.org/2000/svg"
   xmlns:sodipodi="http://sodipodi.sourceforge.net/DTD/sodipodi-0.dtd"
   xmlns:inkscape="http://www.inkscape.org/namespaces/inkscape"
   width="165.46899mm"
   height="82.866997mm"
   viewBox="0 0 165.469 82.866997"
   version="1.1"
   id="svg8"
   inkscape:version="1.0.1 (3bc2e813f5, 2020-09-07)"
   sodipodi:docname="SinusPfad.svg">
  <defs
     id="defs2" />
  <sodipodi:namedview
     id="base"
     pagecolor="#ffffff"
     bordercolor="#666666"
     borderopacity="1.0"
     inkscape:pageopacity="0.0"
     inkscape:pageshadow="2"
     inkscape:zoom="1.28"
     inkscape:cx="316.43084"
     inkscape:cy="193.7429"
     inkscape:document-units="mm"
     inkscape:current-layer="g1340"
     inkscape:document-rotation="0"
     showgrid="false"
     showborder="true"
     inkscape:window-width="1920"
     inkscape:window-height="1016"
     inkscape:window-x="0"
     inkscape:window-y="27"
     inkscape:window-maximized="1"
     inkscape:snap-bbox="true"
     inkscape:object-paths="true"
     inkscape:snap-bbox-edge-midpoints="true"
     inkscape:bbox-nodes="true"
     inkscape:snap-bbox-midpoints="true"
     inkscape:snap-page="true" />
  <metadata
     id="metadata5">
    <rdf:RDF>
      <cc:Work
         rdf:about="">
        <dc:format>image/svg+xml</dc:format>
        <dc:type
           rdf:resource="http://purl.org/dc/dcmitype/StillImage" />
        <dc:title />
      </cc:Work>
    </rdf:RDF>
  </metadata>
  <g
     inkscape:label="Ebene 1"
     inkscape:groupmode="layer"
     id="layer1">
    <g
       id="g1077"
       transform="translate(-19.087372,-33.167972)">
      <text
         xml:space="preserve"
         style="font-size:10.5833px;line-height:1.25;font-family:Ubuntu;-inkscape-font-specification:Ubuntu;stroke-width:0.043847"
         x="136.04904"
         y="268.59763"
         id="text1028"><tspan
           sodipodi:role="line"
           id="tspan1026"
           x="136.04904"
           y="268.59763"
           style="stroke-width:0.043847" /></text>
      <text
         xml:space="preserve"
         style="font-size:10.5833px;line-height:1.25;font-family:Ubuntu;-inkscape-font-specification:Ubuntu;stroke-width:0.264583"
         x="169.57494"
         y="275.71509"
         id="text1046"><tspan
           sodipodi:role="line"
           id="tspan1044"
           x="169.57494"
           y="275.71509"
           style="stroke-width:0.264583" /></text>
      <text
         xml:space="preserve"
         style="font-style:normal;font-variant:normal;font-weight:normal;font-stretch:normal;font-size:6.35px;line-height:1.25;font-family:sans-serif;-inkscape-font-specification:sans-serif;stroke-width:0.043847"
         x="39.275169"
         y="297.49222"
         id="text1140"><tspan
           sodipodi:role="line"
           id="tspan1138"
           x="39.275169"
           y="297.49222"
           style="font-style:normal;font-variant:normal;font-weight:normal;font-stretch:normal;font-size:6.35px;font-family:sans-serif;-inkscape-font-specification:sans-serif;stroke-width:0.043847" /></text>
      <g
         id="g1340"
         transform="translate(6.5496797,8.8416981)">
        <g
           aria-label="Gegenkathete 
von α"
           transform="rotate(60,-1.0399036e-6,4.4883416e-7)"
           id="text1276"
           style="font-style:normal;font-variant:normal;font-weight:normal;font-stretch:normal;font-size:6.62881px;line-height:1.25;font-family:sans-serif;-inkscape-font-specification:sans-serif;stroke-width:0.165721">
          <path
             d="m 117.72285,-109.87517 v -1.29793 h -1.06812 v -0.5373 h 1.71546 v 2.07474 q -0.37869,0.26865 -0.83507,0.40783 -0.45638,0.13594 -0.97425,0.13594 -1.13286,0 -1.77373,-0.66029 -0.63763,-0.66353 -0.63763,-1.84493 0,-1.18464 0.63763,-1.84493 0.64087,-0.66353 1.77373,-0.66353 0.47256,0 0.89657,0.11652 0.42724,0.11652 0.78652,0.34309 v 0.6959 q -0.36251,-0.30749 -0.77034,-0.46285 -0.40783,-0.15537 -0.85773,-0.15537 -0.88686,0 -1.33353,0.49522 -0.44343,0.49522 -0.44343,1.47595 0,0.97749 0.44343,1.47271 0.44667,0.49522 1.33353,0.49522 0.34633,0 0.61821,-0.0583 0.27189,-0.0615 0.48875,-0.18772 z"
             style="font-style:normal;font-variant:normal;font-weight:normal;font-stretch:normal;font-family:sans-serif;-inkscape-font-specification:sans-serif;stroke-width:0.165721"
             id="path852" />
          <path
             d="m 122.63943,-111.14721 v 0.29131 h -2.73827 q 0.0388,0.61498 0.36899,0.93865 0.33338,0.32043 0.9257,0.32043 0.3431,0 0.66353,-0.0842 0.32367,-0.0842 0.64087,-0.25247 v 0.56319 q -0.32043,0.13595 -0.65705,0.20715 -0.33662,0.0712 -0.68295,0.0712 -0.86744,0 -1.37561,-0.50493 -0.50493,-0.50493 -0.50493,-1.36589 0,-0.8901 0.47904,-1.41122 0.48227,-0.52434 1.29792,-0.52434 0.7315,0 1.15551,0.47256 0.42725,0.46932 0.42725,1.2785 z m -0.59556,-0.17478 q -0.006,-0.48875 -0.27512,-0.78005 -0.26541,-0.29131 -0.7056,-0.29131 -0.49846,0 -0.79947,0.2816 -0.29778,0.28159 -0.3431,0.793 z"
             style="font-style:normal;font-variant:normal;font-weight:normal;font-stretch:normal;font-family:sans-serif;-inkscape-font-specification:sans-serif;stroke-width:0.165721"
             id="path854" />
          <path
             d="m 126.00239,-111.0404 q 0,-0.64734 -0.26865,-1.00338 -0.26541,-0.35604 -0.74768,-0.35604 -0.47904,0 -0.74769,0.35604 -0.26541,0.35604 -0.26541,1.00338 0,0.64411 0.26541,1.00015 0.26865,0.35604 0.74769,0.35604 0.48227,0 0.74768,-0.35604 0.26865,-0.35604 0.26865,-1.00015 z m 0.59556,1.40474 q 0,0.92571 -0.41107,1.37561 -0.41106,0.45314 -1.25908,0.45314 -0.31397,0 -0.59232,-0.0485 -0.27836,-0.0453 -0.54054,-0.14242 v -0.57937 q 0.26218,0.14242 0.51788,0.21039 0.2557,0.068 0.52111,0.068 0.58585,0 0.87715,-0.30749 0.29131,-0.30425 0.29131,-0.92247 v -0.29454 q -0.1845,0.32044 -0.47256,0.47904 -0.28807,0.1586 -0.68943,0.1586 -0.66676,0 -1.07459,-0.50817 -0.40783,-0.50816 -0.40783,-1.34648 0,-0.84154 0.40783,-1.34971 0.40783,-0.50816 1.07459,-0.50816 0.40136,0 0.68943,0.15859 0.28806,0.1586 0.47256,0.47904 v -0.55024 h 0.59556 z"
             style="font-style:normal;font-variant:normal;font-weight:normal;font-stretch:normal;font-family:sans-serif;-inkscape-font-specification:sans-serif;stroke-width:0.165721"
             id="path856" />
          <path
             d="m 130.92544,-111.14721 v 0.29131 h -2.73826 q 0.0388,0.61498 0.36898,0.93865 0.33339,0.32043 0.92571,0.32043 0.34309,0 0.66352,-0.0842 0.32368,-0.0842 0.64088,-0.25247 v 0.56319 q -0.32044,0.13595 -0.65706,0.20715 -0.33662,0.0712 -0.68295,0.0712 -0.86744,0 -1.37561,-0.50493 -0.50492,-0.50493 -0.50492,-1.36589 0,-0.8901 0.47903,-1.41122 0.48227,-0.52434 1.29793,-0.52434 0.7315,0 1.15551,0.47256 0.42724,0.46932 0.42724,1.2785 z m -0.59555,-0.17478 q -0.006,-0.48875 -0.27512,-0.78005 -0.26542,-0.29131 -0.70561,-0.29131 -0.49845,0 -0.79947,0.2816 -0.29778,0.28159 -0.34309,0.793 z"
             style="font-style:normal;font-variant:normal;font-weight:normal;font-stretch:normal;font-family:sans-serif;-inkscape-font-specification:sans-serif;stroke-width:0.165721"
             id="path858" />
          <path
             d="m 134.91633,-111.37378 v 2.18803 h -0.59556 v -2.16861 q 0,-0.51464 -0.20068,-0.77034 -0.20068,-0.2557 -0.60203,-0.2557 -0.48227,0 -0.76063,0.30749 -0.27836,0.30749 -0.27836,0.83831 v 2.04885 h -0.59879 v -3.62513 h 0.59879 v 0.56319 q 0.21363,-0.32691 0.50169,-0.48875 0.29131,-0.16183 0.67001,-0.16183 0.62468,0 0.94512,0.3884 0.32044,0.38517 0.32044,1.13609 z"
             style="font-style:normal;font-variant:normal;font-weight:normal;font-stretch:normal;font-family:sans-serif;-inkscape-font-specification:sans-serif;stroke-width:0.165721"
             id="path860" />
          <path
             d="m 136.08155,-114.22209 h 0.59879 v 2.97454 l 1.77696,-1.56333 h 0.76063 l -1.92261,1.69604 2.00353,1.92909 h -0.77681 l -1.8417,-1.77049 v 1.77049 h -0.59879 z"
             style="font-style:normal;font-variant:normal;font-weight:normal;font-stretch:normal;font-family:sans-serif;-inkscape-font-specification:sans-serif;stroke-width:0.165721"
             id="path862" />
          <path
             d="m 141.47393,-111.00803 q -0.72179,0 -1.00015,0.16507 -0.27836,0.16508 -0.27836,0.56319 0,0.3172 0.20715,0.50493 0.21039,0.1845 0.56966,0.1845 0.49522,0 0.793,-0.34957 0.30102,-0.3528 0.30102,-0.93541 v -0.13271 z m 1.18787,-0.24599 v 2.06827 h -0.59555 v -0.55025 q -0.20392,0.33015 -0.50817,0.48875 -0.30425,0.15536 -0.74445,0.15536 -0.55671,0 -0.88686,-0.31072 -0.32691,-0.31397 -0.32691,-0.83831 0,-0.61175 0.40783,-0.92247 0.41106,-0.31073 1.22348,-0.31073 h 0.83508 v -0.0583 q 0,-0.41106 -0.27189,-0.6344 -0.26865,-0.22657 -0.75739,-0.22657 -0.31073,0 -0.60527,0.0744 -0.29454,0.0744 -0.56643,0.22333 v -0.55024 q 0.32691,-0.12623 0.6344,-0.18773 0.30749,-0.0647 0.5988,-0.0647 0.78652,0 1.17493,0.40782 0.3884,0.40783 0.3884,1.23643 z"
             style="font-style:normal;font-variant:normal;font-weight:normal;font-stretch:normal;font-family:sans-serif;-inkscape-font-specification:sans-serif;stroke-width:0.165721"
             id="path864" />
          <path
             d="m 144.47761,-113.84016 v 1.02928 h 1.22671 v 0.46285 h -1.22671 v 1.96793 q 0,0.44343 0.11975,0.56966 0.123,0.12623 0.49522,0.12623 h 0.61174 v 0.49846 h -0.61174 q -0.68942,0 -0.95159,-0.2557 -0.26218,-0.25894 -0.26218,-0.93865 v -1.96793 h -0.43696 v -0.46285 h 0.43696 v -1.02928 z"
             style="font-style:normal;font-variant:normal;font-weight:normal;font-stretch:normal;font-family:sans-serif;-inkscape-font-specification:sans-serif;stroke-width:0.165721"
             id="path866" />
          <path
             d="m 149.501,-111.37378 v 2.18803 h -0.59556 v -2.16861 q 0,-0.51464 -0.20067,-0.77034 -0.20068,-0.2557 -0.60203,-0.2557 -0.48228,0 -0.76063,0.30749 -0.27836,0.30749 -0.27836,0.83831 v 2.04885 h -0.5988 v -5.03634 h 0.5988 v 1.9744 q 0.21362,-0.32691 0.50169,-0.48875 0.2913,-0.16183 0.67,-0.16183 0.62469,0 0.94512,0.3884 0.32044,0.38517 0.32044,1.13609 z"
             style="font-style:normal;font-variant:normal;font-weight:normal;font-stretch:normal;font-family:sans-serif;-inkscape-font-specification:sans-serif;stroke-width:0.165721"
             id="path868" />
          <path
             d="m 153.78966,-111.14721 v 0.29131 h -2.73827 q 0.0388,0.61498 0.36899,0.93865 0.33338,0.32043 0.9257,0.32043 0.34309,0 0.66353,-0.0842 0.32367,-0.0842 0.64087,-0.25247 v 0.56319 q -0.32044,0.13595 -0.65706,0.20715 -0.33661,0.0712 -0.68294,0.0712 -0.86745,0 -1.37561,-0.50493 -0.50493,-0.50493 -0.50493,-1.36589 0,-0.8901 0.47903,-1.41122 0.48228,-0.52434 1.29793,-0.52434 0.7315,0 1.15551,0.47256 0.42725,0.46932 0.42725,1.2785 z m -0.59556,-0.17478 q -0.006,-0.48875 -0.27512,-0.78005 -0.26541,-0.29131 -0.70561,-0.29131 -0.49845,0 -0.79947,0.2816 -0.29777,0.28159 -0.34309,0.793 z"
             style="font-style:normal;font-variant:normal;font-weight:normal;font-stretch:normal;font-family:sans-serif;-inkscape-font-specification:sans-serif;stroke-width:0.165721"
             id="path870" />
          <path
             d="m 155.35624,-113.84016 v 1.02928 h 1.22671 v 0.46285 h -1.22671 v 1.96793 q 0,0.44343 0.11975,0.56966 0.123,0.12623 0.49522,0.12623 h 0.61174 v 0.49846 h -0.61174 q -0.68942,0 -0.95159,-0.2557 -0.26218,-0.25894 -0.26218,-0.93865 v -1.96793 h -0.43696 v -0.46285 h 0.43696 v -1.02928 z"
             style="font-style:normal;font-variant:normal;font-weight:normal;font-stretch:normal;font-family:sans-serif;-inkscape-font-specification:sans-serif;stroke-width:0.165721"
             id="path872" />
          <path
             d="m 160.46702,-111.14721 v 0.29131 h -2.73827 q 0.0388,0.61498 0.36899,0.93865 0.33338,0.32043 0.9257,0.32043 0.34309,0 0.66353,-0.0842 0.32367,-0.0842 0.64087,-0.25247 v 0.56319 q -0.32044,0.13595 -0.65705,0.20715 -0.33662,0.0712 -0.68295,0.0712 -0.86745,0 -1.37561,-0.50493 -0.50493,-0.50493 -0.50493,-1.36589 0,-0.8901 0.47904,-1.41122 0.48227,-0.52434 1.29792,-0.52434 0.7315,0 1.15551,0.47256 0.42725,0.46932 0.42725,1.2785 z m -0.59556,-0.17478 q -0.006,-0.48875 -0.27512,-0.78005 -0.26541,-0.29131 -0.70561,-0.29131 -0.49845,0 -0.79947,0.2816 -0.29777,0.28159 -0.34309,0.793 z"
             style="font-style:normal;font-variant:normal;font-weight:normal;font-stretch:normal;font-family:sans-serif;-inkscape-font-specification:sans-serif;stroke-width:0.165721"
             id="path874" />
          <path
             d="m 113.97472,-104.52487 h 0.63116 l 1.13286,3.04252 1.13285,-3.04252 h 0.63116 l -1.35942,3.62513 h -0.80918 z"
             style="font-style:normal;font-variant:normal;font-weight:normal;font-stretch:normal;font-family:sans-serif;-inkscape-font-specification:sans-serif;stroke-width:0.165721"
             id="path876" />
          <path
             d="m 119.72962,-104.10733 q -0.47904,0 -0.7574,0.37546 -0.27835,0.37222 -0.27835,1.0228 0,0.65058 0.27512,1.02604 0.27836,0.37223 0.76063,0.37223 0.4758,0 0.75415,-0.37546 0.27836,-0.37546 0.27836,-1.02281 0,-0.64411 -0.27836,-1.01957 -0.27835,-0.37869 -0.75415,-0.37869 z m 0,-0.50493 q 0.77681,0 1.22024,0.50493 0.44343,0.50493 0.44343,1.39826 0,0.8901 -0.44343,1.39827 -0.44343,0.50492 -1.22024,0.50492 -0.78005,0 -1.22348,-0.50492 -0.4402,-0.50817 -0.4402,-1.39827 0,-0.89333 0.4402,-1.39826 0.44343,-0.50493 1.22348,-0.50493 z"
             style="font-style:normal;font-variant:normal;font-weight:normal;font-stretch:normal;font-family:sans-serif;-inkscape-font-specification:sans-serif;stroke-width:0.165721"
             id="path878" />
          <path
             d="m 125.39388,-103.08777 v 2.18803 h -0.59555 v -2.16861 q 0,-0.51463 -0.20068,-0.77034 -0.20068,-0.2557 -0.60203,-0.2557 -0.48227,0 -0.76063,0.30749 -0.27836,0.30749 -0.27836,0.83831 v 2.04885 h -0.59879 v -3.62513 h 0.59879 v 0.56319 q 0.21362,-0.32691 0.50169,-0.48875 0.29131,-0.16183 0.67,-0.16183 0.62469,0 0.94513,0.3884 0.32043,0.38517 0.32043,1.13609 z"
             style="font-style:normal;font-variant:normal;font-weight:normal;font-stretch:normal;font-family:sans-serif;-inkscape-font-specification:sans-serif;stroke-width:0.165721"
             id="path880" />
          <path
             d="m 130.80245,-102.58607 -0.14242,-0.74769 q -0.14565,-0.7671 -0.72179,-0.7671 -0.43372,0 -0.63116,0.35604 -0.24923,0.44667 -0.24923,1.03575 0,0.71208 0.24276,1.05194 0.24599,0.34633 0.63763,0.34633 0.43372,0 0.66677,-0.68943 z m 0.33338,-0.99044 0.32044,-0.94836 h 0.53082 l -0.66353,1.96469 0.12947,0.70884 q 0.0291,0.1586 0.14242,0.29131 0.1327,0.15536 0.23628,0.15536 h 0.28483 v 0.50493 h -0.35604 q -0.30425,0 -0.57614,-0.27189 -0.1327,-0.13594 -0.18773,-0.42077 -0.14889,0.35928 -0.45314,0.64087 -0.14242,0.13271 -0.60527,0.13271 -0.76063,0 -1.12961,-0.49198 -0.3787,-0.50817 -0.3787,-1.39827 0,-0.9516 0.41106,-1.39826 0.45638,-0.49846 1.09725,-0.49846 1.00662,0 1.19759,1.02928 z"
             style="font-style:normal;font-variant:normal;font-weight:normal;font-stretch:normal;font-family:sans-serif;-inkscape-font-specification:sans-serif;stroke-width:0.165721"
             id="path882" />
        </g>
        <path
           id="path1278"
           style="fill:#00ff00;fill-opacity:0.622057;stroke:#00ff00;stroke-width:1.003;stroke-linecap:round;stroke-linejoin:round;stroke-miterlimit:4;stroke-dasharray:none;stroke-opacity:1"
           d="m 45.599005,84.099078 -25.97228,14.9949 h 29.98983 a 31.777635,31.777635 0 0 0 -4.01755,-14.9949 z" />
        <path
           id="path1280"
           style="fill:#0066ff;fill-opacity:0.615959;stroke:#0066ff;stroke-width:1.003;stroke-linecap:round;stroke-linejoin:round;stroke-miterlimit:4;stroke-dasharray:none;stroke-opacity:1"
           d="m 132.87949,33.707452 -16.67638,9.628434 a 19.256453,19.256453 0 0 0 16.67638,9.628432 19.256453,19.256453 0 0 0 9.62843,-2.58048 z" />
        <path
           style="fill:none;stroke:#000000;stroke-width:1.079;stroke-linecap:round;stroke-linejoin:round;stroke-miterlimit:4;stroke-dasharray:none;stroke-opacity:1"
           d="M 170.63043,99.093978 132.87949,33.707452 19.626725,99.093978 Z"
           id="path1284" />
        <g
           aria-label="α"
           transform="translate(-27.587115,-6.0035707)"
           id="g1308"
           style="font-style:normal;font-variant:normal;font-weight:normal;font-stretch:normal;font-size:6.62881px;line-height:1.25;font-family:sans-serif;-inkscape-font-specification:sans-serif;stroke-width:0.165721">
          <path
             d="M 66.336409,100.37453 66.193993,99.626844 Q 66.04834,98.85974 65.472204,98.85974 q -0.433721,0 -0.631161,0.35604 -0.249228,0.446667 -0.249228,1.03575 0,0.71208 0.242754,1.05194 0.245991,0.34633 0.637635,0.34633 0.433721,0 0.666765,-0.68943 z m 0.333382,-0.990441 0.320436,-0.94836 h 0.530823 l -0.663529,1.964691 0.129469,0.70884 q 0.02913,0.1586 0.142416,0.29131 0.132706,0.15536 0.236281,0.15536 h 0.284832 v 0.50493 h -0.35604 q -0.304252,0 -0.576137,-0.27189 -0.132705,-0.13594 -0.18773,-0.42077 -0.148889,0.35928 -0.453141,0.64087 -0.142416,0.13271 -0.605267,0.13271 -0.76063,0 -1.129617,-0.49198 -0.378697,-0.50817 -0.378697,-1.39827 0,-0.951596 0.411064,-1.398263 0.456378,-0.498456 1.09725,-0.498456 1.006621,0 1.197587,1.029278 z"
             style="font-style:normal;font-variant:normal;font-weight:normal;font-stretch:normal;font-family:sans-serif;-inkscape-font-specification:sans-serif;stroke-width:0.165721"
             id="path1306" />
        </g>
        <g
           aria-label="Hypotenuse"
           id="text1312"
           style="font-style:normal;font-variant:normal;font-weight:normal;font-stretch:normal;font-size:6.62881px;line-height:1.25;font-family:sans-serif;-inkscape-font-specification:sans-serif;stroke-width:0.165721">
          <path
             d="m 76.954125,100.98208 h 0.653818 v 1.98087 h 2.375755 v -1.98087 h 0.653818 v 4.83243 h -0.653818 v -2.30131 h -2.375755 v 2.30131 h -0.653818 z"
             style="font-style:normal;font-variant:normal;font-weight:normal;font-stretch:normal;font-family:sans-serif;-inkscape-font-specification:sans-serif;stroke-width:0.165721"
             id="path885" />
          <path
             d="m 83.421098,106.15113 q -0.252464,0.64734 -0.491982,0.84478 -0.239517,0.19744 -0.640871,0.19744 h -0.475798 v -0.49845 h 0.349566 q 0.245991,0 0.381933,-0.11653 0.135943,-0.11652 0.301015,-0.55024 l 0.106812,-0.27188 -1.466235,-3.56687 h 0.631161 l 1.132853,2.83537 1.132853,-2.83537 h 0.631161 z"
             style="font-style:normal;font-variant:normal;font-weight:normal;font-stretch:normal;font-family:sans-serif;-inkscape-font-specification:sans-serif;stroke-width:0.165721"
             id="path887" />
          <path
             d="m 86.411831,105.27074 v 1.92261 h -0.598794 v -5.00397 h 0.598794 v 0.55024 q 0.18773,-0.32367 0.472561,-0.47904 0.288069,-0.1586 0.686186,-0.1586 0.660291,0 1.071355,0.52435 0.414301,0.52435 0.414301,1.37885 0,0.85449 -0.414301,1.37884 -0.411064,0.52435 -1.071355,0.52435 -0.398117,0 -0.686186,-0.15536 -0.284831,-0.1586 -0.472561,-0.48227 z m 2.026189,-1.26556 q 0,-0.65706 -0.271885,-1.02928 -0.268648,-0.37546 -0.74121,-0.37546 -0.472562,0 -0.744446,0.37546 -0.268648,0.37222 -0.268648,1.02928 0,0.65705 0.268648,1.03251 0.271884,0.37223 0.744446,0.37223 0.472562,0 0.74121,-0.37223 0.271885,-0.37546 0.271885,-1.03251 z"
             style="font-style:normal;font-variant:normal;font-weight:normal;font-stretch:normal;font-family:sans-serif;-inkscape-font-specification:sans-serif;stroke-width:0.165721"
             id="path889" />
          <path
             d="m 91.448173,102.60691 q -0.479035,0 -0.757394,0.37546 -0.278358,0.37223 -0.278358,1.02281 0,0.65058 0.275122,1.02604 0.278358,0.37222 0.76063,0.37222 0.475798,0 0.754156,-0.37546 0.278358,-0.37546 0.278358,-1.0228 0,-0.64411 -0.278358,-1.01957 -0.278358,-0.3787 -0.754156,-0.3787 z m 0,-0.50493 q 0.776813,0 1.220244,0.50493 0.443432,0.50493 0.443432,1.39827 0,0.8901 -0.443432,1.39826 -0.443431,0.50493 -1.220244,0.50493 -0.780051,0 -1.223482,-0.50493 -0.440194,-0.50816 -0.440194,-1.39826 0,-0.89334 0.440194,-1.39827 0.443431,-0.50493 1.223482,-0.50493 z"
             style="font-style:normal;font-variant:normal;font-weight:normal;font-stretch:normal;font-family:sans-serif;-inkscape-font-specification:sans-serif;stroke-width:0.165721"
             id="path891" />
          <path
             d="m 94.688133,101.1601 v 1.02928 h 1.226718 v 0.46285 h -1.226718 v 1.96793 q 0,0.44343 0.119759,0.56966 0.122995,0.12623 0.495218,0.12623 h 0.611741 v 0.49846 H 95.30311 q -0.689422,0 -0.951596,-0.2557 -0.262175,-0.25894 -0.262175,-0.93865 v -1.96793 h -0.436958 v -0.46285 h 0.436958 v -1.02928 z"
             style="font-style:normal;font-variant:normal;font-weight:normal;font-stretch:normal;font-family:sans-serif;-inkscape-font-specification:sans-serif;stroke-width:0.165721"
             id="path893" />
          <path
             d="m 99.798919,103.85305 v 0.29131 h -2.738268 q 0.03884,0.61497 0.368986,0.93865 0.333383,0.32043 0.925703,0.32043 0.343093,0 0.663529,-0.0842 0.323672,-0.0842 0.640871,-0.25247 v 0.56319 q -0.320436,0.13595 -0.657055,0.20715 -0.336619,0.0712 -0.682949,0.0712 -0.867442,0 -1.375607,-0.50493 -0.504929,-0.50493 -0.504929,-1.36589 0,-0.8901 0.479035,-1.41122 0.482272,-0.52435 1.297926,-0.52435 0.7315,0 1.15551,0.47257 0.427248,0.46932 0.427248,1.2785 z m -0.595557,-0.17478 q -0.0065,-0.48875 -0.275122,-0.78005 -0.265411,-0.29131 -0.705605,-0.29131 -0.498456,0 -0.799471,0.2816 -0.297779,0.28159 -0.343093,0.793 z"
             style="font-style:normal;font-variant:normal;font-weight:normal;font-stretch:normal;font-family:sans-serif;-inkscape-font-specification:sans-serif;stroke-width:0.165721"
             id="path895" />
          <path
             d="m 103.7898,103.62648 v 2.18803 h -0.59556 v -2.16861 q 0,-0.51464 -0.20067,-0.77034 -0.20068,-0.2557 -0.60204,-0.2557 -0.48227,0 -0.76063,0.30749 -0.27835,0.30749 -0.27835,0.83831 v 2.04885 h -0.5988 v -3.62513 h 0.5988 v 0.56319 q 0.21362,-0.32691 0.50169,-0.48875 0.2913,-0.16184 0.67,-0.16184 0.62469,0 0.94512,0.38841 0.32044,0.38517 0.32044,1.13609 z"
             style="font-style:normal;font-variant:normal;font-weight:normal;font-stretch:normal;font-family:sans-serif;-inkscape-font-specification:sans-serif;stroke-width:0.165721"
             id="path897" />
          <path
             d="m 104.91618,104.38387 v -2.19449 h 0.59556 v 2.17184 q 0,0.51464 0.20067,0.77357 0.20068,0.25571 0.60203,0.25571 0.48228,0 0.76063,-0.30749 0.2816,-0.30749 0.2816,-0.83831 v -2.05532 h 0.59556 v 3.62513 h -0.59556 v -0.55672 q -0.21686,0.33015 -0.50493,0.49198 -0.28483,0.1586 -0.66353,0.1586 -0.62469,0 -0.94836,-0.38841 -0.32367,-0.3884 -0.32367,-1.13609 z m 1.4986,-2.28189 z"
             style="font-style:normal;font-variant:normal;font-weight:normal;font-stretch:normal;font-family:sans-serif;-inkscape-font-specification:sans-serif;stroke-width:0.165721"
             id="path899" />
          <path
             d="m 111.48996,102.29619 v 0.56319 q -0.25246,-0.12947 -0.52434,-0.19421 -0.27189,-0.0647 -0.56319,-0.0647 -0.44344,0 -0.66677,0.13594 -0.2201,0.13594 -0.2201,0.40783 0,0.20715 0.1586,0.32691 0.1586,0.11652 0.63764,0.22333 l 0.20391,0.0453 q 0.6344,0.13594 0.89981,0.38517 0.26865,0.24599 0.26865,0.68942 0,0.50493 -0.40136,0.79947 -0.39811,0.29454 -1.09724,0.29454 -0.29131,0 -0.60851,-0.0583 -0.31396,-0.055 -0.66353,-0.16831 v -0.61498 q 0.33015,0.17155 0.65058,0.25894 0.32044,0.0842 0.6344,0.0842 0.42078,0 0.64735,-0.14242 0.22657,-0.14565 0.22657,-0.40783 0,-0.24275 -0.16508,-0.37222 -0.16183,-0.12947 -0.71531,-0.24923 l -0.20715,-0.0485 q -0.55348,-0.11652 -0.79947,-0.35604 -0.24599,-0.24275 -0.24599,-0.66353 0,-0.5114 0.36251,-0.78976 0.36251,-0.27836 1.02928,-0.27836 0.33014,0 0.62145,0.0486 0.2913,0.0485 0.53729,0.14565 z"
             style="font-style:normal;font-variant:normal;font-weight:normal;font-stretch:normal;font-family:sans-serif;-inkscape-font-specification:sans-serif;stroke-width:0.165721"
             id="path901" />
          <path
             d="m 115.73331,103.85305 v 0.29131 h -2.73827 q 0.0388,0.61497 0.36899,0.93865 0.33338,0.32043 0.9257,0.32043 0.3431,0 0.66353,-0.0842 0.32367,-0.0842 0.64087,-0.25247 v 0.56319 q -0.32043,0.13595 -0.65705,0.20715 -0.33662,0.0712 -0.68295,0.0712 -0.86744,0 -1.37561,-0.50493 -0.50493,-0.50493 -0.50493,-1.36589 0,-0.8901 0.47904,-1.41122 0.48227,-0.52435 1.29792,-0.52435 0.7315,0 1.15551,0.47257 0.42725,0.46932 0.42725,1.2785 z m -0.59556,-0.17478 q -0.006,-0.48875 -0.27512,-0.78005 -0.26541,-0.29131 -0.7056,-0.29131 -0.49846,0 -0.79947,0.2816 -0.29778,0.28159 -0.3431,0.793 z"
             style="font-style:normal;font-variant:normal;font-weight:normal;font-stretch:normal;font-family:sans-serif;-inkscape-font-specification:sans-serif;stroke-width:0.165721"
             id="path903" />
        </g>
        <g
           aria-label="."
           id="text863"
           style="font-size:10.5833px;line-height:1.25;font-family:Ubuntu;-inkscape-font-specification:Ubuntu;stroke-width:0.264583">
          <path
             d="m 130.0646,43.335892 q 0,0.28575 -0.1905,0.497415 -0.1905,0.211666 -0.51858,0.211666 -0.32808,0 -0.51858,-0.211666 -0.1905,-0.211665 -0.1905,-0.497415 0,-0.285749 0.1905,-0.497415 0.1905,-0.211666 0.51858,-0.211666 0.32808,0 0.51858,0.211666 0.1905,0.211666 0.1905,0.497415 z"
             style="stroke-width:0.264583"
             id="path906" />
        </g>
        <path
           style="fill:none;stroke:#ff0000;stroke-width:1.465;stroke-linecap:round;stroke-linejoin:round;stroke-opacity:1;stroke-miterlimit:4;stroke-dasharray:none"
           d="M 19.626724,99.093978 H 170.63043"
           id="path865" />
        <path
           style="fill:none;stroke:#ff0000;stroke-width:1.465;stroke-linecap:round;stroke-linejoin:round;stroke-opacity:1;stroke-miterlimit:4;stroke-dasharray:none"
           d="M 170.63043,99.093978 132.87949,33.707452"
           id="path867" />
      </g>
    </g>
  </g>
</svg>
