<?xml version="1.0" encoding="UTF-8" standalone="no"?>
<svg
   xmlns:dc="http://purl.org/dc/elements/1.1/"
   xmlns:cc="http://creativecommons.org/ns#"
   xmlns:rdf="http://www.w3.org/1999/02/22-rdf-syntax-ns#"
   xmlns:svg="http://www.w3.org/2000/svg"
   xmlns="http://www.w3.org/2000/svg"
   xmlns:sodipodi="http://sodipodi.sourceforge.net/DTD/sodipodi-0.dtd"
   xmlns:inkscape="http://www.inkscape.org/namespaces/inkscape"
   width="330"
   height="330"
   viewBox="0 0 87.312498 87.312502"
   version="1.1"
   id="svg8"
   inkscape:version="1.0.1 (3bc2e813f5, 2020-09-07)"
   sodipodi:docname="Sinus_Kosinus_Einheitskreis.svg">
  <defs
     id="defs2" />
  <sodipodi:namedview
     id="base"
     pagecolor="#ffffff"
     bordercolor="#666666"
     borderopacity="1.0"
     inkscape:pageopacity="0.0"
     inkscape:pageshadow="2"
     inkscape:zoom="1.4142136"
     inkscape:cx="47.88202"
     inkscape:cy="115.10961"
     inkscape:document-units="mm"
     inkscape:current-layer="layer1"
     inkscape:document-rotation="0"
     showgrid="true"
     units="px"
     showguides="true"
     inkscape:guide-bbox="true"
     inkscape:snap-page="true"
     inkscape:snap-bbox="true"
     inkscape:bbox-nodes="true"
     inkscape:window-width="1920"
     inkscape:window-height="1016"
     inkscape:window-x="0"
     inkscape:window-y="27"
     inkscape:window-maximized="1"
     inkscape:snap-bbox-midpoints="true"
     inkscape:snap-bbox-edge-midpoints="true"
     inkscape:object-paths="true"
     inkscape:bbox-paths="true"
     inkscape:snap-intersection-paths="true" />
  <metadata
     id="metadata5">
    <rdf:RDF>
      <cc:Work
         rdf:about="">
        <dc:format>image/svg+xml</dc:format>
        <dc:type
           rdf:resource="http://purl.org/dc/dcmitype/StillImage" />
        <dc:title />
      </cc:Work>
    </rdf:RDF>
  </metadata>
  <g
     inkscape:label="Ebene 1"
     inkscape:groupmode="layer"
     id="layer1">
    <path
       id="rect865"
       style="fill:none;fill-opacity:0.497999;stroke:none;stroke-width:0.5115;stroke-linecap:round;stroke-linejoin:round"
       d="M 0,0 H 87.3125 V 87.3125 H 0 Z" />
    <path
       id="rect835"
       style="fill:none;fill-opacity:0.497999;stroke:none;stroke-width:0.465;stroke-linecap:round;stroke-linejoin:round"
       d="m 3.96875,3.96875 h 79.375 v 79.375 h -79.375 z" />
    <path
       id="rect841"
       style="fill:#4d4d4d;fill-opacity:0.497999;stroke:none;stroke-width:0.139465;stroke-linecap:round;stroke-linejoin:round"
       transform="rotate(-90)"
       d="m 12.488933,-16.621155 h 4.960937 v 79.375 h -4.960937 z" />
    <path
       style="fill:none;stroke:#000000;stroke-width:0.6;stroke-linecap:butt;stroke-linejoin:miter;stroke-miterlimit:4;stroke-dasharray:none;stroke-opacity:1"
       d="M 8.9296874,83.343749 V 0"
       id="path843" />
    <path
       style="fill:none;stroke:#000000;stroke-width:0.6;stroke-linecap:butt;stroke-linejoin:miter;stroke-miterlimit:4;stroke-dasharray:none;stroke-opacity:1"
       d="M 3.9687499,78.38281 H 87.312507"
       id="path845" />
    <path
       id="rect873"
       style="fill:#000000;fill-opacity:1;stroke:none;stroke-width:0.6;stroke-linecap:round;stroke-linejoin:round;stroke-miterlimit:4;stroke-dasharray:none"
       transform="rotate(45)"
       d="m 6.2754955,-6.2754951 h 0.2645833 v 2.5466147 H 6.2754955 Z" />
    <path
       id="rect875"
       style="fill:#000000;fill-opacity:1;stroke:none;stroke-width:0.6;stroke-linecap:round;stroke-linejoin:round;stroke-miterlimit:4;stroke-dasharray:none"
       transform="rotate(-45)"
       d="M 6.0884066,6.3529902 H 6.3529899 V 8.8996048 H 6.0884066 Z" />
    <path
       id="rect877"
       style="fill:#000000;fill-opacity:1;stroke:none;stroke-width:0.6;stroke-linecap:round;stroke-linejoin:round;stroke-miterlimit:4;stroke-dasharray:none"
       transform="rotate(135)"
       d="m -6.3529935,-117.12552 h 0.2645833 v 2.54662 h -0.2645833 z" />
    <path
       id="rect879"
       style="fill:#000000;fill-opacity:1;stroke:none;stroke-width:0.6;stroke-linecap:round;stroke-linejoin:round;stroke-miterlimit:4;stroke-dasharray:none"
       transform="rotate(45)"
       d="m 116.93845,-6.2755017 h 0.26459 v 2.5466146 h -0.26459 z" />
    <path
       id="rect911"
       style="fill:#cccccc;fill-opacity:0.497999;stroke:none;stroke-width:2.26772;stroke-linecap:round;stroke-linejoin:round;stroke-miterlimit:4;stroke-dasharray:none"
       d="m 315,296.25 a 281.25,281.25 0 0 1 -0.004,1.39648 281.25,281.25 0 0 1 -0.01,1.41016 281.25,281.25 0 0 1 -0.0176,1.41016 281.25,281.25 0 0 1 -0.0254,1.41015 281.25,281.25 0 0 1 -0.0312,1.41016 281.25,281.25 0 0 1 -0.0391,1.4082 281.25,281.25 0 0 1 -0.0449,1.41016 281.25,281.25 0 0 1 -0.0527,1.41015 281.25,281.25 0 0 1 -0.0606,1.40821 281.25,281.25 0 0 1 -0.0664,1.4082 281.25,281.25 0 0 1 -0.0742,1.4082 281.25,281.25 0 0 1 -0.082,1.40821 281.25,281.25 0 0 1 -0.0879,1.4082 A 281.25,281.25 0 0 1 314.375,315 H 315 Z"
       transform="scale(0.26458333)" />
    <path
       id="path923"
       style="fill:none;fill-opacity:0.497999;stroke:#000000;stroke-width:2.26772;stroke-linecap:round;stroke-linejoin:round;stroke-miterlimit:4;stroke-dasharray:none"
       d="m 314.41351,314.4141 a 281.25,281.25 0 0 0 0.0787,-1.26566 281.25,281.25 0 0 0 0.082,-1.40821 281.25,281.25 0 0 0 0.0742,-1.4082 281.25,281.25 0 0 0 0.0664,-1.4082 281.25,281.25 0 0 0 0.0606,-1.40821 281.25,281.25 0 0 0 0.0527,-1.41015 281.25,281.25 0 0 0 0.0449,-1.41016 281.25,281.25 0 0 0 0.0391,-1.4082 281.25,281.25 0 0 0 0.0312,-1.41016 281.25,281.25 0 0 0 0.0254,-1.41015 281.25,281.25 0 0 0 0.0176,-1.41016 281.25,281.25 0 0 0 0.01,-1.41016 281.25,281.25 0 0 0 0.004,-1.39648 281.25,281.25 0 0 0 -0.004,-1.41016 281.25,281.25 0 0 0 -0.01,-1.41015 281.25,281.25 0 0 0 -0.0176,-1.41016 281.25,281.25 0 0 0 -0.0254,-1.41015 281.25,281.25 0 0 0 -0.0312,-1.41016 281.25,281.25 0 0 0 -0.0391,-1.41016 281.25,281.25 0 0 0 -0.0469,-1.4082 281.25,281.25 0 0 0 -0.0527,-1.41016 281.25,281.25 0 0 0 -0.0605,-1.4082 281.25,281.25 0 0 0 -0.0664,-1.4082 281.25,281.25 0 0 0 -0.0742,-1.40821 281.25,281.25 0 0 0 -0.082,-1.4082 281.25,281.25 0 0 0 -0.0879,-1.4082 281.25,281.25 0 0 0 -0.0957,-1.40625 281.25,281.25 0 0 0 -0.10156,-1.40625 281.25,281.25 0 0 0 -0.10938,-1.40625 281.25,281.25 0 0 0 -0.11718,-1.40625 281.25,281.25 0 0 0 -0.12305,-1.4043 281.25,281.25 0 0 0 -0.13086,-1.4043 281.25,281.25 0 0 0 -0.13672,-1.40429 281.25,281.25 0 0 0 -0.14648,-1.40235 281.25,281.25 0 0 0 -0.15039,-1.40234 281.25,281.25 0 0 0 -0.16016,-1.40039 281.25,281.25 0 0 0 -0.16406,-1.40039 281.25,281.25 0 0 0 -0.17383,-1.40039 281.25,281.25 0 0 0 -0.17969,-1.39844 281.25,281.25 0 0 0 -0.1875,-1.39648 281.25,281.25 0 0 0 -0.19336,-1.39844 281.25,281.25 0 0 0 -0.20117,-1.39453 281.25,281.25 0 0 0 -0.20703,-1.39453 281.25,281.25 0 0 0 -0.21484,-1.39454 281.25,281.25 0 0 0 -0.22266,-1.39257 281.25,281.25 0 0 0 -0.22852,-1.39258 281.25,281.25 0 0 0 -0.23632,-1.38867 281.25,281.25 0 0 0 -0.24219,-1.39063 281.25,281.25 0 0 0 -0.25,-1.38672 281.25,281.25 0 0 0 -0.25586,-1.38672 281.25,281.25 0 0 0 -0.26367,-1.38671 281.25,281.25 0 0 0 -0.27149,-1.38282 281.25,281.25 0 0 0 -0.27734,-1.38281 281.25,281.25 0 0 0 -0.28321,-1.38086 281.25,281.25 0 0 0 -0.29101,-1.38086 281.25,281.25 0 0 0 -0.29883,-1.37891 281.25,281.25 0 0 0 -0.30469,-1.375 281.25,281.25 0 0 0 -0.3125,-1.37695 281.25,281.25 0 0 0 -0.31836,-1.37305 281.25,281.25 0 0 0 -0.32617,-1.37109 281.25,281.25 0 0 0 -0.33398,-1.37109 281.25,281.25 0 0 0 -0.33789,-1.36914 281.25,281.25 0 0 0 -0.34766,-1.36719 281.25,281.25 0 0 0 -0.35351,-1.36523 281.25,281.25 0 0 0 -0.35938,-1.36329 281.25,281.25 0 0 0 -0.36719,-1.36132 281.25,281.25 0 0 0 -0.37304,-1.35938 281.25,281.25 0 0 0 -0.38086,-1.35937 281.25,281.25 0 0 0 -0.38867,-1.35547 281.25,281.25 0 0 0 -0.39258,-1.35352 281.25,281.25 0 0 0 -0.40235,-1.35156 281.25,281.25 0 0 0 -0.40625,-1.34961 281.25,281.25 0 0 0 -0.41601,-1.34961 281.25,281.25 0 0 0 -0.41992,-1.3457 281.25,281.25 0 0 0 -0.42969,-1.34375 281.25,281.25 0 0 0 -0.4336,-1.33985 281.25,281.25 0 0 0 -0.4414,-1.33984 281.25,281.25 0 0 0 -0.44922,-1.33789 281.25,281.25 0 0 0 -0.45508,-1.33399 281.25,281.25 0 0 0 -0.46094,-1.33398 281.25,281.25 0 0 0 -0.46875,-1.33008 281.25,281.25 0 0 0 -0.47461,-1.32617 281.25,281.25 0 0 0 -0.48046,-1.32617 281.25,281.25 0 0 0 -0.48829,-1.32422 281.25,281.25 0 0 0 -0.49609,-1.32031 281.25,281.25 0 0 0 -0.5,-1.31641 281.25,281.25 0 0 0 -0.50781,-1.31641 281.25,281.25 0 0 0 -0.51563,-1.3125 281.25,281.25 0 0 0 -0.52148,-1.31054 281.25,281.25 0 0 0 -0.52734,-1.3086 281.25,281.25 0 0 0 -0.53516,-1.30468 281.25,281.25 0 0 0 -0.53906,-1.30274 281.25,281.25 0 0 0 -0.54883,-1.29883 281.25,281.25 0 0 0 -0.55274,-1.29687 281.25,281.25 0 0 0 -0.56054,-1.29492 281.25,281.25 0 0 0 -0.56641,-1.29102 281.25,281.25 0 0 0 -0.57422,-1.28906 281.25,281.25 0 0 0 -0.58008,-1.28516 281.25,281.25 0 0 0 -0.58593,-1.28125 281.25,281.25 0 0 0 -0.5918,-1.28125 281.25,281.25 0 0 0 -0.59961,-1.27539 281.25,281.25 0 0 0 -0.60547,-1.27344 281.25,281.25 0 0 0 -0.61133,-1.27148 281.25,281.25 0 0 0 -0.61914,-1.26758 281.25,281.25 0 0 0 -0.625,-1.26367 281.25,281.25 0 0 0 -0.63086,-1.26172 281.25,281.25 0 0 0 -0.63672,-1.25781 281.25,281.25 0 0 0 -0.64257,-1.25586 281.25,281.25 0 0 0 -0.65039,-1.25 281.25,281.25 0 0 0 -0.65625,-1.25 281.25,281.25 0 0 0 -0.66211,-1.24414 281.25,281.25 0 0 0 -0.66797,-1.24219 281.25,281.25 0 0 0 -0.67578,-1.23828 281.25,281.25 0 0 0 -0.67969,-1.23438 281.25,281.25 0 0 0 -0.6875,-1.23242 281.25,281.25 0 0 0 -0.69336,-1.22656 281.25,281.25 0 0 0 -0.69922,-1.22461 281.25,281.25 0 0 0 -0.70703,-1.22265 281.25,281.25 0 0 0 -0.71094,-1.2168 281.25,281.25 0 0 0 -0.71875,-1.21289 281.25,281.25 0 0 0 -0.72265,-1.21094 281.25,281.25 0 0 0 -0.73047,-1.20703 281.25,281.25 0 0 0 -0.73633,-1.20313 281.25,281.25 0 0 0 -0.74219,-1.19921 281.25,281.25 0 0 0 -0.74805,-1.19532 281.25,281.25 0 0 0 -0.7539,-1.1914 281.25,281.25 0 0 0 -0.75977,-1.1875 281.25,281.25 0 0 0 -0.76562,-1.18555 281.25,281.25 0 0 0 -0.77149,-1.17969 281.25,281.25 0 0 0 -0.77734,-1.17578 281.25,281.25 0 0 0 -0.7832,-1.17187 281.25,281.25 0 0 0 -0.79102,-1.16993 281.25,281.25 0 0 0 -0.79492,-1.16406 281.25,281.25 0 0 0 -0.80078,-1.16016 281.25,281.25 0 0 0 -0.80664,-1.15624 281.25,281.25 0 0 0 -0.8125,-1.15235 281.25,281.25 0 0 0 -0.81836,-1.14844 281.25,281.25 0 0 0 -0.82422,-1.14453 281.25,281.25 0 0 0 -0.83008,-1.14062 281.25,281.25 0 0 0 -0.83594,-1.13672 281.25,281.25 0 0 0 -0.84179,-1.13086 281.25,281.25 0 0 0 -0.84766,-1.12695 281.25,281.25 0 0 0 -0.85156,-1.12305 281.25,281.25 0 0 0 -0.85938,-1.11914 281.25,281.25 0 0 0 -0.86328,-1.11524 281.25,281.25 0 0 0 -0.86914,-1.10937 281.25,281.25 0 0 0 -0.875,-1.10742 281.25,281.25 0 0 0 -0.88086,-1.10157 281.25,281.25 0 0 0 -0.88672,-1.0957 281.25,281.25 0 0 0 -0.89062,-1.09375 281.25,281.25 0 0 0 -0.89844,-1.08789 281.25,281.25 0 0 0 -0.90234,-1.08398 281.25,281.25 0 0 0 -0.90821,-1.07813 281.25,281.25 0 0 0 -0.91211,-1.07422 281.25,281.25 0 0 0 -0.91992,-1.07031 281.25,281.25 0 0 0 -0.92383,-1.06641 281.25,281.25 0 0 0 -0.92968,-1.06054 281.25,281.25 0 0 0 -0.9336,-1.05469 281.25,281.25 0 0 0 -0.93945,-1.05273 281.25,281.25 0 0 0 -0.94531,-1.04493 281.25,281.25 0 0 0 -0.95117,-1.04296 281.25,281.25 0 0 0 -0.95508,-1.03711 281.25,281.25 0 0 0 -0.96094,-1.03125 281.25,281.25 0 0 0 -0.9668,-1.02735 281.25,281.25 0 0 0 -0.9707,-1.02344 281.25,281.25 0 0 0 -0.97656,-1.01757 281.25,281.25 0 0 0 -0.98047,-1.01172 281.25,281.25 0 0 0 -0.98633,-1.007816 281.25,281.25 0 0 0 -0.99219,-1.003906 281.25,281.25 0 0 0 -0.99609,-0.998047 281.25,281.25 0 0 0 -1.00195,-0.992188 281.25,281.25 0 0 0 -1.00586,-0.988281 281.25,281.25 0 0 0 -1.01172,-0.982422 281.25,281.25 0 0 0 -1.01758,-0.978515 281.25,281.25 0 0 0 -1.01953,-0.970704 281.25,281.25 0 0 0 -1.02735,-0.96875 281.25,281.25 0 0 0 -1.03125,-0.960937 281.25,281.25 0 0 0 -1.03515,-0.958984 281.25,281.25 0 0 0 -1.04102,-0.951172 281.25,281.25 0 0 0 -1.04492,-0.947266 281.25,281.25 0 0 0 -1.04883,-0.941406 281.25,281.25 0 0 0 -1.05468,-0.935547 281.25,281.25 0 0 0 -1.06055,-0.929688 281.25,281.25 0 0 0 -1.0625,-0.925781 281.25,281.25 0 0 0 -1.07031,-0.919922 281.25,281.25 0 0 0 -1.07227,-0.916015 281.25,281.25 0 0 0 -1.07813,-0.908203 281.25,281.25 0 0 0 -1.08203,-0.904297 281.25,281.25 0 0 0 -1.08789,-0.898438 281.25,281.25 0 0 0 -1.08984,-0.894531 281.25,281.25 0 0 0 -1.09766,-0.886719 281.25,281.25 0 0 0 -1.09961,-0.882812 281.25,281.25 0 0 0 -1.10547,-0.875 281.25,281.25 0 0 0 -1.10742,-0.871094 281.25,281.25 0 0 0 -1.11328,-0.867188 281.25,281.25 0 0 0 -1.11914,-0.859374 281.25,281.25 0 0 0 -1.12109,-0.853516 281.25,281.25 0 0 0 -1.12696,-0.84961 281.25,281.25 0 0 0 -1.13085,-0.841796 281.25,281.25 0 0 0 -1.13477,-0.837891 281.25,281.25 0 0 0 -1.13867,-0.832031 281.25,281.25 0 0 0 -1.14258,-0.826172 281.25,281.25 0 0 0 -1.14844,-0.81836 281.25,281.25 0 0 0 -1.15039,-0.814453 281.25,281.25 0 0 0 -1.15625,-0.808593 281.25,281.25 0 0 0 -1.1582,-0.802735 281.25,281.25 0 0 0 -1.16406,-0.796875 281.25,281.25 0 0 0 -1.16797,-0.791015 281.25,281.25 0 0 0 -1.16993,-0.785157 281.25,281.25 0 0 0 -1.17578,-0.779296 281.25,281.25 0 0 0 -1.17968,-0.773438 281.25,281.25 0 0 0 -1.1836,-0.767578 281.25,281.25 0 0 0 -1.18554,-0.761719 281.25,281.25 0 0 0 -1.19141,-0.755859 281.25,281.25 0 0 0 -1.19531,-0.75 281.25,281.25 0 0 0 -1.19727,-0.744141 281.25,281.25 0 0 0 -1.20117,-0.736328 281.25,281.25 0 0 0 -1.20703,-0.732422 281.25,281.25 0 0 0 -1.20899,-0.724609 281.25,281.25 0 0 0 -1.21289,-0.720703 281.25,281.25 0 0 0 -1.21679,-0.712891 281.25,281.25 0 0 0 -1.21875,-0.707031 281.25,281.25 0 0 0 -1.22461,-0.701172 281.25,281.25 0 0 0 -1.22657,-0.695313 281.25,281.25 0 0 0 -1.23046,-0.689453 281.25,281.25 0 0 0 -1.23438,-0.68164 281.25,281.25 0 0 0 -1.23828,-0.675782 281.25,281.25 0 0 0 -1.24023,-0.671875 281.25,281.25 0 0 0 -1.24415,-0.664062 281.25,281.25 0 0 0 -1.24804,-0.65625 281.25,281.25 0 0 0 -1.25,-0.652344 281.25,281.25 0 0 0 -1.25391,-0.644531 281.25,281.25 0 0 0 -1.25781,-0.638672 281.25,281.25 0 0 0 -1.25977,-0.632813 281.25,281.25 0 0 0 -1.26367,-0.626953 281.25,281.25 0 0 0 -1.26562,-0.61914 281.25,281.25 0 0 0 -1.27149,-0.613281 281.25,281.25 0 0 0 -1.27148,-0.607422 281.25,281.25 0 0 0 -1.27539,-0.601563 281.25,281.25 0 0 0 -1.2793,-0.59375 281.25,281.25 0 0 0 -1.28125,-0.587891 281.25,281.25 0 0 0 -1.28516,-0.582031 281.25,281.25 0 0 0 -1.28906,-0.576171 281.25,281.25 0 0 0 -1.28906,-0.568359 281.25,281.25 0 0 0 -1.29297,-0.5625 281.25,281.25 0 0 0 -1.29687,-0.554688 281.25,281.25 0 0 0 -1.29883,-0.548828 281.25,281.25 0 0 0 -1.30274,-0.542968 281.25,281.25 0 0 0 -1.30273,-0.53711 281.25,281.25 0 0 0 -1.3086,-0.529297 281.25,281.25 0 0 0 -1.30859,-0.521484 281.25,281.25 0 0 0 -1.3125,-0.517578 281.25,281.25 0 0 0 -1.31445,-0.509766 281.25,281.25 0 0 0 -1.31836,-0.503906 281.25,281.25 0 0 0 -1.31836,-0.496094 281.25,281.25 0 0 0 -1.32227,-0.490234 281.25,281.25 0 0 0 -1.32617,-0.482422 281.25,281.25 0 0 0 -1.32617,-0.476563 281.25,281.25 0 0 0 -1.33008,-0.470703 281.25,281.25 0 0 0 -1.33203,-0.46289 281.25,281.25 0 0 0 -1.33398,-0.457031 281.25,281.25 0 0 0 -1.33594,-0.449219 281.25,281.25 0 0 0 -1.33985,-0.44336 281.25,281.25 0 0 0 -1.33984,-0.4375 281.25,281.25 0 0 0 -1.34375,-0.429687 281.25,281.25 0 0 0 -1.3457,-0.423828 281.25,281.25 0 0 0 -1.34766,-0.416016 281.25,281.25 0 0 0 -1.34961,-0.410156 281.25,281.25 0 0 0 -1.35156,-0.402344 281.25,281.25 0 0 0 -1.35352,-0.396484 281.25,281.25 0 0 0 -1.35547,-0.388672 281.25,281.25 0 0 0 -1.35546,-0.382813 281.25,281.25 0 0 0 -1.35938,-0.375 281.25,281.25 0 0 0 -1.36133,-0.36914 281.25,281.25 0 0 0 -1.36328,-0.361328 281.25,281.25 0 0 0 -1.36523,-0.355469 281.25,281.25 0 0 0 -1.36719,-0.347656 281.25,281.25 0 0 0 -1.36719,-0.341797 281.25,281.25 0 0 0 -1.371092,-0.335938 281.25,281.25 0 0 0 -1.371094,-0.326172 281.25,281.25 0 0 0 -1.373047,-0.322265 281.25,281.25 0 0 0 -1.375,-0.3125 A 281.25,281.25 0 0 0 94.296874,21.59375 281.25,281.25 0 0 0 92.919921,21.294922 281.25,281.25 0 0 0 91.541015,21.001953 281.25,281.25 0 0 0 90.160155,20.714844 281.25,281.25 0 0 0 88.777343,20.435547 281.25,281.25 0 0 0 87.39453,20.164062 281.25,281.25 0 0 0 86.007811,19.898438 281.25,281.25 0 0 0 84.623046,19.638672 281.25,281.25 0 0 0 83.234374,19.386719 281.25,281.25 0 0 0 81.845702,19.142578 281.25,281.25 0 0 0 80.455077,18.904297 281.25,281.25 0 0 0 79.064452,18.673828 281.25,281.25 0 0 0 77.671874,18.451172 281.25,281.25 0 0 0 76.279296,18.234375 281.25,281.25 0 0 0 74.884765,18.023438 281.25,281.25 0 0 0 73.48828,17.822266 281.25,281.25 0 0 0 72.091796,17.625 281.25,281.25 0 0 0 70.695311,17.4375 281.25,281.25 0 0 0 69.296874,17.255859 281.25,281.25 0 0 0 67.896483,17.080078 281.25,281.25 0 0 0 66.496093,16.912109 281.25,281.25 0 0 0 65.095702,16.751953 281.25,281.25 0 0 0 63.693358,16.597656 281.25,281.25 0 0 0 62.291015,16.451172 281.25,281.25 0 0 0 60.886718,16.3125 a 281.25,281.25 0 0 0 -1.402344,-0.132812 281.25,281.25 0 0 0 -1.40625,-0.125 281.25,281.25 0 0 0 -1.404297,-0.119141 281.25,281.25 0 0 0 -1.40625,-0.111328 281.25,281.25 0 0 0 -1.40625,-0.103516 281.25,281.25 0 0 0 -1.40625,-0.09766 281.25,281.25 0 0 0 -1.408203,-0.08984 281.25,281.25 0 0 0 -1.40625,-0.08398 281.25,281.25 0 0 0 -1.408203,-0.07617 281.25,281.25 0 0 0 -1.410156,-0.06836 281.25,281.25 0 0 0 -1.408204,-0.0625 281.25,281.25 0 0 0 -1.408203,-0.05469 281.25,281.25 0 0 0 -1.410156,-0.04883 281.25,281.25 0 0 0 -1.410156,-0.04102 281.25,281.25 0 0 0 -1.410156,-0.0332 281.25,281.25 0 0 0 -1.410156,-0.02734 281.25,281.25 0 0 0 -1.408203,-0.01953 281.25,281.25 0 0 0 -1.412109,-0.01172 A 281.25,281.25 0 0 0 34.134766,15 h -0.769532 a 281.25,281.25 0 0 0 -1.410156,0.0059 281.25,281.25 0 0 0 -1.410156,0.01172 281.25,281.25 0 0 0 -1.410156,0.01953 281.25,281.25 0 0 0 -1.410157,0.02734 281.25,281.25 0 0 0 -1.410156,0.0332 281.25,281.25 0 0 0 -1.408203,0.04102 281.25,281.25 0 0 0 -1.410156,0.04883 281.25,281.25 0 0 0 -1.410156,0.05469 281.25,281.25 0 0 0 -1.408204,0.0625 281.25,281.25 0 0 0 -1.408203,0.06836 281.25,281.25 0 0 0 -1.408203,0.07617 281.25,281.25 0 0 0 -1.408203,0.08398 281.25,281.25 0 0 0 -0.865234,0.05469 v 0"
       transform="scale(0.26458333)" />
    <path
       id="path958"
       style="fill:none;fill-opacity:0.623529;stroke:#ff0000;stroke-width:2.26772;stroke-linecap:round;stroke-linejoin:round;stroke-miterlimit:4;stroke-dasharray:none;stroke-opacity:1"
       d="M 65.021484,264.97852 33.75,296.25 H 77.974609 A 44.224694,44.224694 0 0 0 65.021484,264.97852 Z"
       transform="scale(0.26458333)" />
    <path
       style="fill:none;stroke:#000000;stroke-width:0.6;stroke-linecap:butt;stroke-linejoin:miter;stroke-miterlimit:4;stroke-dasharray:none;stroke-opacity:1"
       d="M 8.9296874,78.382809 61.548496,25.764 v 52.618809 z"
       id="path950" />
    <path
       id="path952"
       style="fill:none;fill-opacity:0.615686;stroke:#000000;stroke-width:2.26772;stroke-linecap:round;stroke-linejoin:round;stroke-miterlimit:4;stroke-dasharray:none;stroke-opacity:1"
       d="M 232.625,256.48633 A 39.762969,39.762969 0 0 0 192.86133,296.25 H 232.625 Z"
       transform="scale(0.26458333)" />
    <path
       id="path966"
       style="fill:#000000;fill-opacity:1;stroke:#000000;stroke-width:0.6;stroke-linecap:round;stroke-linejoin:round;stroke-miterlimit:4;stroke-dasharray:none"
       d="m 57.910861,74.362167 a 0.35544908,0.35544908 0 0 1 -0.355449,0.355449 0.35544908,0.35544908 0 0 1 -0.355449,-0.355449 0.35544908,0.35544908 0 0 1 0.355449,-0.355449 0.35544908,0.35544908 0 0 1 0.355449,0.355449 z" />
    <g
       aria-label="α"
       id="text970"
       style="font-style:normal;font-variant:normal;font-weight:normal;font-stretch:normal;font-size:5.1944px;line-height:1.25;font-family:sans-serif;-inkscape-font-specification:sans-serif;fill:#ff0000;stroke-width:0.264583">
      <path
         d="m 16.639373,75.828529 -0.111599,-0.585892 q -0.114135,-0.60111 -0.565601,-0.60111 -0.339868,0 -0.494584,0.278996 -0.195297,0.350014 -0.195297,0.811625 0,0.557993 0.190224,0.824307 0.192761,0.271387 0.499657,0.271387 0.339868,0 0.522484,-0.540238 z m 0.261241,-0.776117 0.251097,-0.743144 h 0.415958 l -0.519948,1.539551 0.101453,0.555456 q 0.02283,0.12428 0.111599,0.22827 0.103989,0.121744 0.185152,0.121744 h 0.223197 v 0.395667 h -0.278996 q -0.238415,0 -0.451467,-0.213052 -0.103989,-0.106526 -0.147107,-0.329722 -0.116671,0.281532 -0.355086,0.502193 -0.111598,0.103989 -0.474293,0.103989 -0.596037,0 -0.885179,-0.385522 -0.29675,-0.398203 -0.29675,-1.095694 0,-0.74568 0.322114,-1.095693 0.357622,-0.390595 0.859815,-0.390595 0.788798,0 0.938441,0.806552 z"
         style="font-style:normal;font-variant:normal;font-weight:normal;font-stretch:normal;font-family:sans-serif;-inkscape-font-specification:sans-serif;fill:#ff0000;stroke-width:0.264583"
         id="path100" />
    </g>
    <g
       aria-label="y"
       id="text974"
       style="font-style:normal;font-variant:normal;font-weight:normal;font-stretch:normal;font-size:5.1944px;line-height:1.25;font-family:sans-serif;-inkscape-font-specification:sans-serif;stroke-width:0.264583">
      <path
         d="m 86.064636,83.342803 q -0.197833,0.507266 -0.385522,0.661982 -0.187688,0.154716 -0.502193,0.154716 h -0.37284 v -0.390595 h 0.273924 q 0.192761,0 0.299286,-0.09131 0.106526,-0.09131 0.235879,-0.431176 l 0.0837,-0.213052 -1.148957,-2.795033 h 0.494584 l 0.887715,2.221823 0.887715,-2.221823 h 0.494584 z"
         style="font-style:normal;font-variant:normal;font-weight:normal;font-stretch:normal;font-family:sans-serif;-inkscape-font-specification:sans-serif;stroke-width:0.264583"
         id="path103" />
    </g>
    <g
       aria-label="x"
       id="text978"
       style="font-style:normal;font-variant:normal;font-weight:normal;font-stretch:normal;font-size:5.1944px;line-height:1.25;font-family:sans-serif;-inkscape-font-specification:sans-serif;stroke-width:0.264583">
      <path
         d="M 13.486402,0.56747352 12.459189,1.9497723 13.539665,3.4081609 H 12.989282 L 12.162439,2.2921766 11.335596,3.4081609 H 10.785213 L 11.888516,1.9218727 10.879057,0.56747352 h 0.550383 l 0.75329,1.01199488 0.753289,-1.01199488 z"
         style="font-style:normal;font-variant:normal;font-weight:normal;font-stretch:normal;font-family:sans-serif;-inkscape-font-specification:sans-serif;stroke-width:0.264583"
         id="path106" />
    </g>
    <g
       aria-label="cos(α)"
       id="text982"
       style="font-style:normal;font-variant:normal;font-weight:normal;font-stretch:normal;font-size:5.1944px;line-height:1.25;font-family:sans-serif;-inkscape-font-specification:sans-serif;fill:#00ff00;fill-opacity:1;stroke-width:0.264583">
      <path
         d="m 32.045373,74.171649 v 0.436249 q -0.197833,-0.109062 -0.398203,-0.162325 -0.197834,-0.0558 -0.40074,-0.0558 -0.454003,0 -0.705099,0.289142 -0.251097,0.286605 -0.251097,0.806552 0,0.519947 0.251097,0.809089 0.251096,0.286605 0.705099,0.286605 0.202906,0 0.40074,-0.05326 0.20037,-0.0558 0.398203,-0.164861 v 0.431175 q -0.195297,0.09131 -0.405812,0.136962 -0.207979,0.04565 -0.443858,0.04565 -0.641691,0 -1.019604,-0.403276 -0.377913,-0.403276 -0.377913,-1.088085 0,-0.694954 0.38045,-1.093157 0.382985,-0.398204 1.047503,-0.398204 0.215588,0 0.421031,0.04565 0.205442,0.04312 0.398203,0.131889 z"
         style="font-style:normal;font-variant:normal;font-weight:normal;font-stretch:normal;font-family:sans-serif;-inkscape-font-specification:sans-serif;fill:#00ff00;fill-opacity:1;stroke-width:0.264583"
         id="path109" />
      <path
         d="m 33.962837,74.389773 q -0.375376,0 -0.593501,0.294214 -0.218124,0.291678 -0.218124,0.80148 0,0.509802 0.215588,0.804016 0.218124,0.291678 0.596037,0.291678 0.37284,0 0.590965,-0.294214 0.218124,-0.294214 0.218124,-0.80148 0,-0.504729 -0.218124,-0.798943 -0.218125,-0.296751 -0.590965,-0.296751 z m 0,-0.395667 q 0.608719,0 0.956196,0.395667 0.347477,0.395668 0.347477,1.095694 0,0.69749 -0.347477,1.095694 -0.347477,0.395667 -0.956196,0.395667 -0.611255,0 -0.958732,-0.395667 -0.34494,-0.398204 -0.34494,-1.095694 0,-0.700026 0.34494,-1.095694 0.347477,-0.395667 0.958732,-0.395667 z"
         style="font-style:normal;font-variant:normal;font-weight:normal;font-stretch:normal;font-family:sans-serif;-inkscape-font-specification:sans-serif;fill:#00ff00;fill-opacity:1;stroke-width:0.264583"
         id="path111" />
      <path
         d="m 37.848492,74.146286 v 0.441321 q -0.197834,-0.101453 -0.410885,-0.15218 -0.213052,-0.05073 -0.441321,-0.05073 -0.347477,0 -0.522484,0.106526 -0.17247,0.106525 -0.17247,0.319577 0,0.162325 0.12428,0.256169 0.12428,0.09131 0.499656,0.175007 l 0.159789,0.03551 q 0.49712,0.106526 0.705099,0.301823 0.210516,0.192761 0.210516,0.540238 0,0.395667 -0.314505,0.626473 -0.311969,0.230806 -0.859815,0.230806 -0.22827,0 -0.47683,-0.04565 -0.246024,-0.04312 -0.519947,-0.131889 v -0.481902 q 0.258705,0.134425 0.509802,0.202906 0.251096,0.06594 0.49712,0.06594 0.329723,0 0.507266,-0.111599 0.177543,-0.114135 0.177543,-0.319577 0,-0.190225 -0.129353,-0.291678 -0.126817,-0.101453 -0.560529,-0.195297 l -0.162325,-0.03804 q -0.433712,-0.09131 -0.626473,-0.278996 -0.192761,-0.190225 -0.192761,-0.519947 0,-0.40074 0.284069,-0.618865 0.284069,-0.218124 0.806552,-0.218124 0.258706,0 0.486975,0.03804 0.22827,0.03804 0.421031,0.114135 z"
         style="font-style:normal;font-variant:normal;font-weight:normal;font-stretch:normal;font-family:sans-serif;-inkscape-font-specification:sans-serif;fill:#00ff00;fill-opacity:1;stroke-width:0.264583"
         id="path113" />
      <path
         d="m 39.867409,72.961821 q -0.339868,0.583355 -0.504729,1.154029 -0.164862,0.570674 -0.164862,1.156566 0,0.585891 0.164862,1.161638 0.167397,0.57321 0.504729,1.154029 h -0.405812 q -0.38045,-0.596037 -0.570674,-1.171783 -0.187689,-0.575747 -0.187689,-1.143884 0,-0.565602 0.187689,-1.138812 0.187688,-0.57321 0.570674,-1.171783 z"
         style="font-style:normal;font-variant:normal;font-weight:normal;font-stretch:normal;font-family:sans-serif;-inkscape-font-specification:sans-serif;fill:#00ff00;fill-opacity:1;stroke-width:0.264583"
         id="path115" />
      <path
         d="m 42.431637,75.581848 -0.111599,-0.585892 q -0.114135,-0.60111 -0.565601,-0.60111 -0.339868,0 -0.494584,0.278996 -0.195297,0.350013 -0.195297,0.811625 0,0.557992 0.190224,0.824307 0.192761,0.271387 0.499657,0.271387 0.339868,0 0.522483,-0.540238 z m 0.261241,-0.776117 0.251097,-0.743144 h 0.415958 l -0.519948,1.539551 0.101453,0.555456 q 0.02283,0.12428 0.111599,0.22827 0.103989,0.121743 0.185152,0.121743 h 0.223197 v 0.395668 H 43.18239 q -0.238415,0 -0.451467,-0.213052 -0.103989,-0.106526 -0.147107,-0.329723 -0.116671,0.281533 -0.355086,0.502193 -0.111598,0.10399 -0.474293,0.10399 -0.596037,0 -0.885179,-0.385522 -0.29675,-0.398204 -0.29675,-1.095694 0,-0.74568 0.322114,-1.095694 0.357622,-0.390594 0.859815,-0.390594 0.788798,0 0.938441,0.806552 z"
         style="font-style:normal;font-variant:normal;font-weight:normal;font-stretch:normal;font-family:sans-serif;-inkscape-font-specification:sans-serif;fill:#00ff00;fill-opacity:1;stroke-width:0.264583"
         id="path117" />
      <path
         d="m 44.130977,72.961821 h 0.405813 q 0.380449,0.598573 0.568137,1.171783 0.190225,0.57321 0.190225,1.138812 0,0.568137 -0.190225,1.143884 -0.187688,0.575746 -0.568137,1.171783 h -0.405813 q 0.337332,-0.580819 0.502193,-1.154029 0.167398,-0.575747 0.167398,-1.161638 0,-0.585892 -0.167398,-1.156566 -0.164861,-0.570674 -0.502193,-1.154029 z"
         style="font-style:normal;font-variant:normal;font-weight:normal;font-stretch:normal;font-family:sans-serif;-inkscape-font-specification:sans-serif;fill:#00ff00;fill-opacity:1;stroke-width:0.264583"
         id="path119" />
    </g>
    <g
       aria-label="sin(α)"
       id="text986"
       style="font-style:normal;font-variant:normal;font-weight:normal;font-stretch:normal;font-size:5.1944px;line-height:1.25;font-family:sans-serif;-inkscape-font-specification:sans-serif;fill:#0000ff;fill-opacity:1;stroke:none;stroke-width:0.264583">
      <path
         d="m 64.682053,53.649502 v 0.441321 q -0.197834,-0.101453 -0.410885,-0.15218 -0.213052,-0.05073 -0.441321,-0.05073 -0.347477,0 -0.522484,0.106525 -0.17247,0.106526 -0.17247,0.319578 0,0.162325 0.12428,0.256169 0.12428,0.09131 0.499656,0.175006 l 0.159789,0.03551 q 0.49712,0.106526 0.705099,0.301823 0.210515,0.192761 0.210515,0.540238 0,0.395667 -0.314504,0.626473 -0.311969,0.230806 -0.859815,0.230806 -0.22827,0 -0.47683,-0.04565 -0.246024,-0.04312 -0.519947,-0.131889 v -0.481902 q 0.258705,0.134425 0.509802,0.202906 0.251096,0.06594 0.49712,0.06594 0.329723,0 0.507265,-0.111598 0.177543,-0.114135 0.177543,-0.319577 0,-0.190225 -0.129352,-0.291678 -0.126817,-0.101453 -0.560529,-0.195297 l -0.162325,-0.03804 q -0.433712,-0.09131 -0.626473,-0.278996 -0.192761,-0.190225 -0.192761,-0.519948 0,-0.40074 0.284069,-0.618864 0.284069,-0.218124 0.806552,-0.218124 0.258706,0 0.486975,0.03805 0.22827,0.03804 0.421031,0.114135 z"
         style="font-style:normal;font-variant:normal;font-weight:normal;font-stretch:normal;font-family:sans-serif;-inkscape-font-specification:sans-serif;fill:#0000ff;fill-opacity:1;stroke:none;stroke-width:0.264583"
         id="path122" />
      <path
         d="m 65.579913,53.565803 h 0.466684 v 2.840687 h -0.466684 z m 0,-1.105839 h 0.466684 v 0.590964 h -0.466684 z"
         style="font-style:normal;font-variant:normal;font-weight:normal;font-stretch:normal;font-family:sans-serif;-inkscape-font-specification:sans-serif;fill:#0000ff;fill-opacity:1;stroke:none;stroke-width:0.264583"
         id="path124" />
      <path
         d="m 69.381869,54.691933 v 1.714557 h -0.466685 v -1.699339 q 0,-0.403277 -0.157252,-0.603647 -0.157252,-0.200369 -0.471757,-0.200369 -0.377913,0 -0.596037,0.240951 -0.218124,0.240951 -0.218124,0.656909 v 1.605495 h -0.469221 v -2.840687 h 0.469221 v 0.441321 q 0.167397,-0.256169 0.39313,-0.382986 0.22827,-0.126816 0.52502,-0.126816 0.489512,0 0.740608,0.304359 0.251097,0.301823 0.251097,0.890252 z"
         style="font-style:normal;font-variant:normal;font-weight:normal;font-stretch:normal;font-family:sans-serif;-inkscape-font-specification:sans-serif;fill:#0000ff;fill-opacity:1;stroke:none;stroke-width:0.264583"
         id="path126" />
      <path
         d="m 71.438831,52.465037 q -0.339868,0.583355 -0.50473,1.154029 -0.164861,0.570674 -0.164861,1.156565 0,0.585892 0.164861,1.161639 0.167398,0.57321 0.50473,1.154029 h -0.405813 q -0.380449,-0.596037 -0.570674,-1.171784 -0.187688,-0.575746 -0.187688,-1.143884 0,-0.565601 0.187688,-1.138811 0.187689,-0.57321 0.570674,-1.171783 z"
         style="font-style:normal;font-variant:normal;font-weight:normal;font-stretch:normal;font-family:sans-serif;-inkscape-font-specification:sans-serif;fill:#0000ff;fill-opacity:1;stroke:none;stroke-width:0.264583"
         id="path128" />
      <path
         d="M 74.003058,55.085063 73.89146,54.499172 q -0.114135,-0.60111 -0.565601,-0.60111 -0.339868,0 -0.494584,0.278996 -0.195298,0.350013 -0.195298,0.811625 0,0.557992 0.190225,0.824307 0.192761,0.271387 0.499657,0.271387 0.339867,0 0.522483,-0.540238 z m 0.261242,-0.776116 0.251096,-0.743144 h 0.415958 l -0.519947,1.539551 0.101453,0.555456 q 0.02283,0.12428 0.111598,0.228269 0.10399,0.121744 0.185152,0.121744 h 0.223197 v 0.395667 h -0.278996 q -0.238415,0 -0.451466,-0.213051 -0.10399,-0.106526 -0.147107,-0.329723 -0.116671,0.281533 -0.355086,0.502193 -0.111599,0.10399 -0.474293,0.10399 -0.596038,0 -0.885179,-0.385522 -0.29675,-0.398204 -0.29675,-1.095694 0,-0.74568 0.322113,-1.095694 0.357623,-0.390594 0.859816,-0.390594 0.788798,0 0.938441,0.806552 z"
         style="font-style:normal;font-variant:normal;font-weight:normal;font-stretch:normal;font-family:sans-serif;-inkscape-font-specification:sans-serif;fill:#0000ff;fill-opacity:1;stroke:none;stroke-width:0.264583"
         id="path130" />
      <path
         d="m 75.702399,52.465037 h 0.405812 q 0.380449,0.598573 0.568138,1.171783 0.190224,0.57321 0.190224,1.138811 0,0.568138 -0.190224,1.143884 -0.187689,0.575747 -0.568138,1.171784 h -0.405812 q 0.337331,-0.580819 0.502193,-1.154029 0.167397,-0.575747 0.167397,-1.161639 0,-0.585891 -0.167397,-1.156565 -0.164862,-0.570674 -0.502193,-1.154029 z"
         style="font-style:normal;font-variant:normal;font-weight:normal;font-stretch:normal;font-family:sans-serif;-inkscape-font-specification:sans-serif;fill:#0000ff;fill-opacity:1;stroke:none;stroke-width:0.264583"
         id="path132" />
    </g>
    <g
       aria-label="α"
       id="text990"
       style="font-style:normal;font-variant:normal;font-weight:normal;font-stretch:normal;font-size:6.69397px;line-height:1.25;font-family:sans-serif;-inkscape-font-specification:sans-serif;stroke-width:0.264583">
      <path
         d="m -52.514543,28.337828 -0.143816,-0.755033 q -0.147084,-0.774644 -0.728884,-0.774644 -0.437985,0 -0.637366,0.359539 -0.251677,0.451059 -0.251677,1.045933 0,0.719079 0.24514,1.062276 0.248409,0.349734 0.643903,0.349734 0.437984,0 0.673319,-0.696199 z m 0.33666,-1.000174 0.323585,-0.957682 h 0.536041 l -0.670051,1.984004 0.130742,0.71581 q 0.02942,0.160159 0.143815,0.294169 0.134011,0.15689 0.238604,0.15689 h 0.287631 v 0.509892 h -0.359539 q -0.307243,0 -0.5818,-0.274557 -0.13401,-0.137279 -0.189576,-0.42491 -0.150352,0.362808 -0.457595,0.647171 -0.143816,0.13401 -0.611217,0.13401 -0.768107,0 -1.140721,-0.496818 -0.382419,-0.513161 -0.382419,-1.41201 0,-0.960951 0.415105,-1.412009 0.460864,-0.503355 1.108035,-0.503355 1.016516,0 1.20936,1.039395 z"
         style="font-style:normal;font-variant:normal;font-weight:normal;font-stretch:normal;font-family:sans-serif;-inkscape-font-specification:sans-serif;stroke-width:0.264583"
         id="path135" />
    </g>
    <g
       aria-label="y"
       id="text994"
       style="font-style:normal;font-variant:normal;font-weight:normal;font-stretch:normal;font-size:6.69397px;line-height:1.25;font-family:sans-serif;-inkscape-font-specification:sans-serif;stroke-width:0.264583">
      <path
         d="m -66.197495,24.141057 q -0.254946,0.653708 -0.496818,0.853089 -0.241872,0.19938 -0.647171,0.19938 h -0.480476 v -0.503355 h 0.353003 q 0.248409,0 0.385687,-0.117667 0.137279,-0.117668 0.303974,-0.555652 l 0.107862,-0.274557 -1.480648,-3.601932 h 0.637365 l 1.143989,2.863242 1.143989,-2.863242 h 0.637365 z"
         style="font-style:normal;font-variant:normal;font-weight:normal;font-stretch:normal;font-family:sans-serif;-inkscape-font-specification:sans-serif;stroke-width:0.264583"
         id="path138" />
    </g>
    <g
       aria-label="x"
       id="text998"
       style="font-style:normal;font-variant:normal;font-weight:normal;font-stretch:normal;font-size:6.69397px;line-height:1.25;font-family:sans-serif;-inkscape-font-specification:sans-serif;stroke-width:0.264583">
      <path
         d="m -61.71938,28.713827 -1.323759,1.781354 1.392398,1.879411 h -0.709273 l -1.065544,-1.438158 -1.065544,1.438158 h -0.709273 l 1.421815,-1.915365 -1.300879,-1.7454 h 0.709273 l 0.970756,1.304147 0.970757,-1.304147 z"
         style="font-style:normal;font-variant:normal;font-weight:normal;font-stretch:normal;font-family:sans-serif;-inkscape-font-specification:sans-serif;stroke-width:0.264583"
         id="path141" />
    </g>
    <g
       aria-label="cos(α)"
       id="text1002"
       style="font-style:normal;font-variant:normal;font-weight:normal;font-stretch:normal;font-size:6.69397px;line-height:1.25;font-family:sans-serif;-inkscape-font-specification:sans-serif;stroke-width:0.264583">
      <path
         d="m -54.43014,19.103115 v 0.562189 q -0.254946,-0.140547 -0.513161,-0.209186 -0.254946,-0.07191 -0.516429,-0.07191 -0.585069,0 -0.908654,0.372613 -0.323586,0.369345 -0.323586,1.039396 0,0.670051 0.323586,1.042664 0.323585,0.369345 0.908654,0.369345 0.261483,0 0.516429,-0.06864 0.258215,-0.07191 0.513161,-0.212455 v 0.555652 q -0.251678,0.117667 -0.522967,0.176501 -0.26802,0.05883 -0.571994,0.05883 -0.826941,0 -1.313953,-0.519698 -0.487013,-0.519698 -0.487013,-1.402204 0,-0.89558 0.490281,-1.408741 0.49355,-0.513161 1.349907,-0.513161 0.277826,0 0.542578,0.05883 0.264752,0.05557 0.513161,0.169964 z"
         style="font-style:normal;font-variant:normal;font-weight:normal;font-stretch:normal;font-family:sans-serif;-inkscape-font-specification:sans-serif;stroke-width:0.264583"
         id="path144" />
      <path
         d="m -51.959124,19.38421 q -0.483744,0 -0.764838,0.37915 -0.281095,0.375882 -0.281095,1.032859 0,0.656977 0.277826,1.036127 0.281095,0.375882 0.768107,0.375882 0.480476,0 0.76157,-0.37915 0.281095,-0.379151 0.281095,-1.032859 0,-0.650439 -0.281095,-1.02959 -0.281094,-0.382419 -0.76157,-0.382419 z m 0,-0.509893 q 0.78445,0 1.23224,0.509893 0.44779,0.509892 0.44779,1.412009 0,0.898849 -0.44779,1.412009 -0.44779,0.509893 -1.23224,0.509893 -0.787718,0 -1.235508,-0.509893 -0.444521,-0.51316 -0.444521,-1.412009 0,-0.902117 0.444521,-1.412009 0.44779,-0.509893 1.235508,-0.509893 z"
         style="font-style:normal;font-variant:normal;font-weight:normal;font-stretch:normal;font-family:sans-serif;-inkscape-font-specification:sans-serif;stroke-width:0.264583"
         id="path146" />
      <path
         d="m -46.951721,19.07043 v 0.568726 q -0.254946,-0.130742 -0.529503,-0.196113 -0.274557,-0.06537 -0.568726,-0.06537 -0.44779,0 -0.673319,0.137278 -0.222261,0.137279 -0.222261,0.411836 0,0.209187 0.160158,0.330123 0.160159,0.117667 0.643903,0.225529 l 0.205918,0.04576 q 0.640634,0.137278 0.908654,0.388956 0.271289,0.248409 0.271289,0.696199 0,0.509892 -0.405299,0.807329 -0.402031,0.297438 -1.108035,0.297438 -0.294169,0 -0.614486,-0.05883 -0.317048,-0.05556 -0.670051,-0.169964 V 21.8683 q 0.333392,0.173233 0.656977,0.261483 0.323586,0.08498 0.640634,0.08498 0.42491,0 0.653708,-0.143815 0.228798,-0.147085 0.228798,-0.411836 0,-0.245141 -0.166696,-0.375882 -0.163427,-0.130742 -0.722347,-0.251678 l -0.209187,-0.04903 q -0.55892,-0.117668 -0.807329,-0.35954 -0.248409,-0.24514 -0.248409,-0.67005 0,-0.51643 0.366076,-0.797524 0.366077,-0.281095 1.039396,-0.281095 0.333391,0 0.62756,0.04903 0.294168,0.04903 0.542577,0.147084 z"
         style="font-style:normal;font-variant:normal;font-weight:normal;font-stretch:normal;font-family:sans-serif;-inkscape-font-specification:sans-serif;stroke-width:0.264583"
         id="path148" />
      <path
         d="m -44.349963,17.544022 q -0.437984,0.751764 -0.650439,1.487185 -0.212455,0.735422 -0.212455,1.490455 0,0.755032 0.212455,1.496991 0.215724,0.73869 0.650439,1.487186 h -0.522966 q -0.490281,-0.768107 -0.735422,-1.510066 -0.241872,-0.741958 -0.241872,-1.474111 0,-0.728885 0.241872,-1.467575 0.241872,-0.73869 0.735422,-1.510065 z"
         style="font-style:normal;font-variant:normal;font-weight:normal;font-stretch:normal;font-family:sans-serif;-inkscape-font-specification:sans-serif;stroke-width:0.264583"
         id="path150" />
      <path
         d="m -41.045469,20.920424 -0.143815,-0.755033 q -0.147085,-0.774644 -0.728885,-0.774644 -0.437984,0 -0.637365,0.359539 -0.251678,0.451059 -0.251678,1.045933 0,0.719079 0.245141,1.062276 0.248409,0.349733 0.643902,0.349733 0.437984,0 0.673319,-0.696199 z m 0.33666,-1.000174 0.323585,-0.957682 h 0.536041 l -0.670051,1.984004 0.130742,0.71581 q 0.02942,0.160159 0.143816,0.294169 0.13401,0.15689 0.238603,0.15689 h 0.287632 v 0.509892 h -0.35954 q -0.307243,0 -0.5818,-0.274557 -0.13401,-0.137279 -0.189575,-0.424911 -0.150353,0.362808 -0.457596,0.647171 -0.143816,0.13401 -0.611217,0.13401 -0.768107,0 -1.14072,-0.496818 -0.38242,-0.51316 -0.38242,-1.412009 0,-0.960951 0.415105,-1.412009 0.460864,-0.503355 1.108035,-0.503355 1.016516,0 1.20936,1.039395 z"
         style="font-style:normal;font-variant:normal;font-weight:normal;font-stretch:normal;font-family:sans-serif;-inkscape-font-specification:sans-serif;stroke-width:0.264583"
         id="path152" />
      <path
         d="m -38.855546,17.544022 h 0.522967 q 0.490281,0.771375 0.732153,1.510065 0.24514,0.73869 0.24514,1.467575 0,0.732153 -0.24514,1.474111 -0.241872,0.741959 -0.732153,1.510066 h -0.522967 q 0.434716,-0.748496 0.647171,-1.487186 0.215724,-0.741959 0.215724,-1.496991 0,-0.755033 -0.215724,-1.490455 -0.212455,-0.735421 -0.647171,-1.487185 z"
         style="font-style:normal;font-variant:normal;font-weight:normal;font-stretch:normal;font-family:sans-serif;-inkscape-font-specification:sans-serif;stroke-width:0.264583"
         id="path154" />
    </g>
    <g
       aria-label="sin(α)"
       id="text1006"
       style="font-style:normal;font-variant:normal;font-weight:normal;font-stretch:normal;font-size:6.69397px;line-height:1.25;font-family:sans-serif;-inkscape-font-specification:sans-serif;stroke-width:0.264583">
      <path
         d="m -69.810634,4.5147047 v 0.568726 q -0.254946,-0.1307416 -0.529503,-0.1961124 -0.274558,-0.065371 -0.568726,-0.065371 -0.44779,0 -0.67332,0.1372787 -0.22226,0.1372787 -0.22226,0.4118361 0,0.2091865 0.160158,0.3301225 0.160158,0.1176675 0.643902,0.2255293 l 0.205918,0.04576 q 0.640634,0.1372786 0.908655,0.3889562 0.271288,0.2484091 0.271288,0.6961991 0,0.5098922 -0.405299,0.8073294 -0.40203,0.2974371 -1.108035,0.2974371 -0.294168,0 -0.614485,-0.058834 -0.317049,-0.055565 -0.670051,-0.1699641 V 7.3125751 q 0.333391,0.1732326 0.656977,0.2614832 0.323585,0.084982 0.640634,0.084982 0.42491,0 0.653708,-0.1438158 0.228797,-0.1470843 0.228797,-0.4118361 0,-0.2451405 -0.166695,-0.3758821 -0.163427,-0.1307416 -0.722348,-0.2516776 l -0.209186,-0.049028 q -0.558921,-0.1176674 -0.80733,-0.3595394 -0.248409,-0.2451405 -0.248409,-0.6700507 0,-0.5164294 0.366077,-0.7975238 0.366076,-0.2810945 1.039396,-0.2810945 0.333391,0 0.627559,0.049028 0.294169,0.049028 0.542578,0.1470843 z"
         style="font-style:normal;font-variant:normal;font-weight:normal;font-stretch:normal;font-family:sans-serif;-inkscape-font-specification:sans-serif;stroke-width:0.264583"
         id="path157" />
      <path
         d="m -68.653571,4.4068429 h 0.601412 v 3.660765 h -0.601412 z m 0,-1.4250835 h 0.601412 v 0.7615699 h -0.601412 z"
         style="font-style:normal;font-variant:normal;font-weight:normal;font-stretch:normal;font-family:sans-serif;-inkscape-font-specification:sans-serif;stroke-width:0.264583"
         id="path159" />
      <path
         d="m -63.754029,5.8580747 v 2.2095332 h -0.601412 V 5.877686 q 0,-0.5196979 -0.202649,-0.7779126 -0.20265,-0.2582146 -0.607949,-0.2582146 -0.487012,0 -0.768107,0.3105113 -0.281094,0.3105113 -0.281094,0.8465519 v 2.0689859 h -0.60468 v -3.660765 h 0.60468 v 0.568726 q 0.215724,-0.3301225 0.506624,-0.4935496 0.294168,-0.163427 0.676588,-0.163427 0.630828,0 0.954413,0.3922249 0.323586,0.3889562 0.323586,1.1472575 z"
         style="font-style:normal;font-variant:normal;font-weight:normal;font-stretch:normal;font-family:sans-serif;-inkscape-font-specification:sans-serif;stroke-width:0.264583"
         id="path161" />
      <path
         d="m -61.103243,2.9882965 q -0.437985,0.7517642 -0.65044,1.4871858 -0.212455,0.7354215 -0.212455,1.4904543 0,0.7550327 0.212455,1.4969914 0.215724,0.73869 0.65044,1.4871857 h -0.522967 q -0.490281,-0.7681069 -0.735421,-1.5100655 -0.241872,-0.7419586 -0.241872,-1.4741116 0,-0.7288845 0.241872,-1.4675746 0.241872,-0.73869 0.735421,-1.5100655 z"
         style="font-style:normal;font-variant:normal;font-weight:normal;font-stretch:normal;font-family:sans-serif;-inkscape-font-specification:sans-serif;stroke-width:0.264583"
         id="path163" />
      <path
         d="m -57.798749,6.3646985 -0.143816,-0.7550328 q -0.147084,-0.774644 -0.728885,-0.774644 -0.437984,0 -0.637365,0.3595394 -0.251678,0.4510585 -0.251678,1.0459328 0,0.7190789 0.245141,1.0622756 0.248409,0.3497338 0.643902,0.3497338 0.437985,0 0.67332,-0.6961991 z m 0.336659,-1.0001733 0.323586,-0.9576823 h 0.53604 l -0.67005,1.9840039 0.130741,0.7158103 q 0.02942,0.1601584 0.143816,0.2941686 0.13401,0.1568899 0.238603,0.1568899 h 0.287632 v 0.5098923 h -0.359539 q -0.307243,0 -0.581801,-0.2745574 -0.13401,-0.1372787 -0.189575,-0.4249102 -0.150353,0.3628079 -0.457596,0.6471709 -0.143815,0.1340102 -0.611217,0.1340102 -0.768107,0 -1.14072,-0.4968181 -0.382419,-0.5131608 -0.382419,-1.4120094 0,-0.9609508 0.415104,-1.4120093 0.460864,-0.5033552 1.108035,-0.5033552 1.016516,0 1.20936,1.0393958 z"
         style="font-style:normal;font-variant:normal;font-weight:normal;font-stretch:normal;font-family:sans-serif;-inkscape-font-specification:sans-serif;stroke-width:0.264583"
         id="path165" />
      <path
         d="m -55.608826,2.9882965 h 0.522966 q 0.490281,0.7713755 0.732153,1.5100655 0.245141,0.7386901 0.245141,1.4675746 0,0.732153 -0.245141,1.4741116 -0.241872,0.7419586 -0.732153,1.5100655 h -0.522966 q 0.434715,-0.7484957 0.647171,-1.4871857 0.215723,-0.7419587 0.215723,-1.4969914 0,-0.7550328 -0.215723,-1.4904543 -0.212456,-0.7354216 -0.647171,-1.4871858 z"
         style="font-style:normal;font-variant:normal;font-weight:normal;font-stretch:normal;font-family:sans-serif;-inkscape-font-specification:sans-serif;stroke-width:0.264583"
         id="path167" />
    </g>
    <g
       id="g1077"
       transform="translate(14.641736,24.195965)">
      <g
         id="text1028"
         style="font-size:10.5833px;line-height:1.25;font-family:Ubuntu;-inkscape-font-specification:Ubuntu;stroke-width:0.043847" />
      <g
         id="text1046"
         style="font-size:10.5833px;line-height:1.25;font-family:Ubuntu;-inkscape-font-specification:Ubuntu;stroke-width:0.264583" />
      <g
         id="text1140"
         style="font-style:normal;font-variant:normal;font-weight:normal;font-stretch:normal;font-size:6.35px;line-height:1.25;font-family:sans-serif;-inkscape-font-specification:sans-serif;stroke-width:0.043847" />
      <g
         id="g1340"
         transform="translate(6.5496797,8.8416981)">
        <path
           id="path1278"
           style="fill:#00ff00;fill-opacity:0.622057;stroke:#00ff00;stroke-width:1.003;stroke-linecap:round;stroke-linejoin:round;stroke-miterlimit:4;stroke-dasharray:none;stroke-opacity:1"
           d="m 45.599005,84.099078 -25.97228,14.9949 h 29.98983 a 31.777635,31.777635 0 0 0 -4.01755,-14.9949 z" />
        <path
           id="path1280"
           style="fill:#0066ff;fill-opacity:0.615959;stroke:#0066ff;stroke-width:1.003;stroke-linecap:round;stroke-linejoin:round;stroke-miterlimit:4;stroke-dasharray:none;stroke-opacity:1"
           d="m 132.87949,33.707452 -16.67638,9.628434 a 19.256453,19.256453 0 0 0 16.67638,9.628432 19.256453,19.256453 0 0 0 9.62843,-2.58048 z" />
        <path
           style="fill:none;stroke:#000000;stroke-width:1.079;stroke-linecap:round;stroke-linejoin:round;stroke-miterlimit:4;stroke-dasharray:none;stroke-opacity:1"
           d="M 170.63043,99.093978 132.87949,33.707452 19.626725,99.093978 Z"
           id="path1284" />
        <g
           aria-label="Ankathete von Winkel α"
           transform="rotate(-30)"
           id="text1304"
           style="font-style:normal;font-variant:normal;font-weight:normal;font-stretch:normal;font-size:6.35px;line-height:1.25;font-family:sans-serif;-inkscape-font-specification:sans-serif;stroke-width:0.043847">
          <path
             d="m 0.15092227,87.339458 -0.84956054,2.303735 H 1.0035834 Z m -0.3534668,-0.617017 H 0.50748964 L 2.271723,91.351616 H 1.6206 L 1.1989203,90.164092 h -2.08669431 l -0.42167969,1.187524 h -0.6604248 z"
             style="font-style:normal;font-variant:normal;font-weight:normal;font-stretch:normal;font-size:6.35px;font-family:sans-serif;-inkscape-font-specification:sans-serif;stroke-width:0.043847"
             id="path1126" />
          <path
             d="m 5.8094914,89.25562 v 2.095996 H 5.2389836 v -2.077393 q 0,-0.492993 -0.1922363,-0.737939 -0.1922364,-0.244946 -0.576709,-0.244946 -0.4619873,0 -0.7286377,0.294555 -0.2666504,0.294556 -0.2666504,0.803052 v 1.962671 H 2.9011418 V 87.87896 h 0.5736084 v 0.539502 q 0.2046387,-0.31316 0.4805908,-0.468189 0.2790528,-0.155029 0.6418213,-0.155029 0.5984131,0 0.9053711,0.37207 0.306958,0.36897 0.306958,1.088306 z"
             style="font-style:normal;font-variant:normal;font-weight:normal;font-stretch:normal;font-size:6.35px;font-family:sans-serif;-inkscape-font-specification:sans-serif;stroke-width:0.043847"
             id="path1128" />
          <path
             d="m 6.9257018,86.527104 h 0.5736084 v 2.849439 L 9.2015318,87.87896 h 0.7286377 l -1.841748,1.624707 1.9192625,1.847949 H 9.2635436 L 7.4993102,89.655595 v 1.696021 H 6.9257018 Z"
             style="font-style:normal;font-variant:normal;font-weight:normal;font-stretch:normal;font-size:6.35px;font-family:sans-serif;-inkscape-font-specification:sans-serif;stroke-width:0.043847"
             id="path1130" />
          <path
             d="m 12.091278,89.605986 q -0.691431,0 -0.958081,0.15813 -0.26665,0.15813 -0.26665,0.539502 0,0.303857 0.198437,0.483691 0.201538,0.176734 0.545703,0.176734 0.47439,0 0.759644,-0.334864 0.288354,-0.337963 0.288354,-0.896069 v -0.127124 z m 1.137915,-0.235644 v 1.981274 h -0.570508 v -0.5271 q -0.195337,0.31626 -0.486792,0.468189 -0.291455,0.148828 -0.713135,0.148828 -0.5333,0 -0.84956,-0.297656 -0.313159,-0.300757 -0.313159,-0.803052 0,-0.586011 0.390674,-0.883667 0.393774,-0.297656 1.172021,-0.297656 h 0.799951 v -0.05581 q 0,-0.393774 -0.260449,-0.607715 -0.257349,-0.217041 -0.725537,-0.217041 -0.297656,0 -0.57981,0.07131 -0.282153,0.07131 -0.542602,0.21394 V 88.03709 q 0.313159,-0.120923 0.607715,-0.179834 0.294555,-0.06201 0.573608,-0.06201 0.753442,0 1.125513,0.390674 0.37207,0.390674 0.37207,1.184424 z"
             style="font-style:normal;font-variant:normal;font-weight:normal;font-stretch:normal;font-size:6.35px;font-family:sans-serif;-inkscape-font-specification:sans-serif;stroke-width:0.043847"
             id="path1132" />
          <path
             d="m 14.968622,86.892973 v 0.985987 h 1.175122 v 0.443383 H 14.968622 V 90.2075 q 0,0.42478 0.114721,0.545703 0.117823,0.120923 0.47439,0.120923 h 0.586011 v 0.47749 h -0.586011 q -0.660425,0 -0.911572,-0.244946 -0.251148,-0.248047 -0.251148,-0.89917 V 88.322343 H 13.976434 V 87.87896 h 0.418579 v -0.985987 z"
             style="font-style:normal;font-variant:normal;font-weight:normal;font-stretch:normal;font-size:6.35px;font-family:sans-serif;-inkscape-font-specification:sans-serif;stroke-width:0.043847"
             id="path1134" />
          <path
             d="m 19.780731,89.25562 v 2.095996 h -0.570507 v -2.077393 q 0,-0.492993 -0.192237,-0.737939 -0.192236,-0.244946 -0.576709,-0.244946 -0.461987,0 -0.728637,0.294555 -0.266651,0.294556 -0.266651,0.803052 v 1.962671 h -0.573608 v -4.824512 h 0.573608 v 1.891358 q 0.204639,-0.31316 0.480591,-0.468189 0.279053,-0.155029 0.641821,-0.155029 0.598413,0 0.905371,0.37207 0.306958,0.36897 0.306958,1.088306 z"
             style="font-style:normal;font-variant:normal;font-weight:normal;font-stretch:normal;font-size:6.35px;font-family:sans-serif;-inkscape-font-specification:sans-serif;stroke-width:0.043847"
             id="path1136" />
          <path
             d="m 23.889008,89.472661 v 0.279053 h -2.623095 q 0.03721,0.589111 0.353466,0.899169 0.319361,0.306958 0.886768,0.306958 0.328662,0 0.63562,-0.08062 0.310059,-0.08061 0.613916,-0.241845 v 0.539502 q -0.306958,0.130224 -0.629419,0.198437 -0.322461,0.06821 -0.654224,0.06821 -0.830957,0 -1.317749,-0.483692 Q 20.6706,90.47415 20.6706,89.649394 q 0,-0.852661 0.458887,-1.351855 0.461987,-0.502295 1.243335,-0.502295 0.700732,0 1.106909,0.452685 0.409277,0.449585 0.409277,1.224732 z M 23.3185,89.305229 q -0.0062,-0.468188 -0.263549,-0.747241 -0.254248,-0.279053 -0.675928,-0.279053 -0.47749,0 -0.765845,0.269751 -0.285254,0.269751 -0.328662,0.759644 z"
             style="font-style:normal;font-variant:normal;font-weight:normal;font-stretch:normal;font-size:6.35px;font-family:sans-serif;-inkscape-font-specification:sans-serif;stroke-width:0.043847"
             id="path1138" />
          <path
             d="m 25.389692,86.892973 v 0.985987 h 1.175122 v 0.443383 H 25.389692 V 90.2075 q 0,0.42478 0.114721,0.545703 0.117823,0.120923 0.47439,0.120923 h 0.586011 v 0.47749 h -0.586011 q -0.660425,0 -0.911572,-0.244946 -0.251148,-0.248047 -0.251148,-0.89917 V 88.322343 H 24.397504 V 87.87896 h 0.418579 v -0.985987 z"
             style="font-style:normal;font-variant:normal;font-weight:normal;font-stretch:normal;font-size:6.35px;font-family:sans-serif;-inkscape-font-specification:sans-serif;stroke-width:0.043847"
             id="path1140" />
          <path
             d="m 30.285515,89.472661 v 0.279053 H 27.66242 q 0.03721,0.589111 0.353467,0.899169 0.31936,0.306958 0.886767,0.306958 0.328662,0 0.63562,-0.08062 0.310059,-0.08061 0.613916,-0.241845 v 0.539502 q -0.306958,0.130224 -0.629419,0.198437 -0.322461,0.06821 -0.654223,0.06821 -0.830957,0 -1.317749,-0.483692 -0.483692,-0.483691 -0.483692,-1.308447 0,-0.852661 0.458887,-1.351855 0.461987,-0.502295 1.243335,-0.502295 0.700732,0 1.106909,0.452685 0.409277,0.449585 0.409277,1.224732 z m -0.570507,-0.167432 q -0.0062,-0.468188 -0.26355,-0.747241 -0.254248,-0.279053 -0.675928,-0.279053 -0.47749,0 -0.765845,0.269751 -0.285254,0.269751 -0.328662,0.759644 z"
             style="font-style:normal;font-variant:normal;font-weight:normal;font-stretch:normal;font-size:6.35px;font-family:sans-serif;-inkscape-font-specification:sans-serif;stroke-width:0.043847"
             id="path1142" />
          <path
             d="m 32.831097,87.87896 h 0.604615 l 1.085205,2.91455 1.085205,-2.91455 h 0.604614 l -1.302246,3.472656 h -0.775147 z"
             style="font-style:normal;font-variant:normal;font-weight:normal;font-stretch:normal;font-size:6.35px;font-family:sans-serif;-inkscape-font-specification:sans-serif;stroke-width:0.043847"
             id="path1144" />
          <path
             d="m 38.343941,88.278935 q -0.458887,0 -0.725537,0.359668 -0.266651,0.356568 -0.266651,0.979785 0,0.623218 0.26355,0.982886 0.26665,0.356567 0.728638,0.356567 0.455786,0 0.722436,-0.359667 0.266651,-0.359668 0.266651,-0.979786 0,-0.617016 -0.266651,-0.976684 -0.26665,-0.362769 -0.722436,-0.362769 z m 0,-0.483691 q 0.74414,0 1.16892,0.483691 0.424781,0.483692 0.424781,1.339453 0,0.852662 -0.424781,1.339453 -0.42478,0.483692 -1.16892,0.483692 -0.747242,0 -1.172022,-0.483692 -0.42168,-0.486791 -0.42168,-1.339453 0,-0.855761 0.42168,-1.339453 0.42478,-0.483691 1.172022,-0.483691 z"
             style="font-style:normal;font-variant:normal;font-weight:normal;font-stretch:normal;font-size:6.35px;font-family:sans-serif;-inkscape-font-specification:sans-serif;stroke-width:0.043847"
             id="path1146" />
          <path
             d="m 43.769964,89.25562 v 2.095996 h -0.570507 v -2.077393 q 0,-0.492993 -0.192237,-0.737939 -0.192236,-0.244946 -0.576709,-0.244946 -0.461987,0 -0.728637,0.294555 -0.266651,0.294556 -0.266651,0.803052 v 1.962671 H 40.861615 V 87.87896 h 0.573608 v 0.539502 q 0.204639,-0.31316 0.480591,-0.468189 0.279053,-0.155029 0.641821,-0.155029 0.598413,0 0.905371,0.37207 0.306958,0.36897 0.306958,1.088306 z"
             style="font-style:normal;font-variant:normal;font-weight:normal;font-stretch:normal;font-size:6.35px;font-family:sans-serif;-inkscape-font-specification:sans-serif;stroke-width:0.043847"
             id="path1148" />
          <path
             d="m 46.538787,86.722441 h 0.63252 l 0.973583,3.91294 0.970484,-3.91294 h 0.703833 l 0.973584,3.91294 0.970483,-3.91294 h 0.63562 l -1.162719,4.629175 h -0.787549 l -0.976685,-4.018359 -0.985986,4.018359 h -0.787549 z"
             style="font-style:normal;font-variant:normal;font-weight:normal;font-stretch:normal;font-size:6.35px;font-family:sans-serif;-inkscape-font-specification:sans-serif;stroke-width:0.043847"
             id="path1150" />
          <path
             d="m 53.06552,87.87896 h 0.570508 v 3.472656 H 53.06552 Z m 0,-1.351856 h 0.570508 v 0.722437 H 53.06552 Z"
             style="font-style:normal;font-variant:normal;font-weight:normal;font-stretch:normal;font-size:6.35px;font-family:sans-serif;-inkscape-font-specification:sans-serif;stroke-width:0.043847"
             id="path1152" />
          <path
             d="m 57.716398,89.25562 v 2.095996 h -0.570507 v -2.077393 q 0,-0.492993 -0.192237,-0.737939 -0.192236,-0.244946 -0.576709,-0.244946 -0.461987,0 -0.728637,0.294555 -0.266651,0.294556 -0.266651,0.803052 v 1.962671 H 54.808049 V 87.87896 h 0.573608 v 0.539502 q 0.204639,-0.31316 0.480591,-0.468189 0.279053,-0.155029 0.641821,-0.155029 0.598413,0 0.905371,0.37207 0.306958,0.36897 0.306958,1.088306 z"
             style="font-style:normal;font-variant:normal;font-weight:normal;font-stretch:normal;font-size:6.35px;font-family:sans-serif;-inkscape-font-specification:sans-serif;stroke-width:0.043847"
             id="path1154" />
          <path
             d="m 58.832612,86.527104 h 0.573608 v 2.849439 l 1.702222,-1.497583 h 0.728637 l -1.841748,1.624707 1.919263,1.847949 h -0.74414 L 59.40622,89.655595 v 1.696021 h -0.573608 z"
             style="font-style:normal;font-variant:normal;font-weight:normal;font-stretch:normal;font-size:6.35px;font-family:sans-serif;-inkscape-font-specification:sans-serif;stroke-width:0.043847"
             id="path1156" />
          <path
             d="m 65.275628,89.472661 v 0.279053 h -2.623096 q 0.03721,0.589111 0.353467,0.899169 0.31936,0.306958 0.886767,0.306958 0.328663,0 0.635621,-0.08062 0.310058,-0.08061 0.613916,-0.241845 v 0.539502 q -0.306958,0.130224 -0.629419,0.198437 -0.322461,0.06821 -0.654224,0.06821 -0.830957,0 -1.317749,-0.483692 -0.483691,-0.483691 -0.483691,-1.308447 0,-0.852661 0.458886,-1.351855 0.461988,-0.502295 1.243335,-0.502295 0.700733,0 1.106909,0.452685 0.409278,0.449585 0.409278,1.224732 z M 64.70512,89.305229 q -0.0062,-0.468188 -0.26355,-0.747241 -0.254248,-0.279053 -0.675928,-0.279053 -0.47749,0 -0.765844,0.269751 -0.285254,0.269751 -0.328662,0.759644 z"
             style="font-style:normal;font-variant:normal;font-weight:normal;font-stretch:normal;font-size:6.35px;font-family:sans-serif;-inkscape-font-specification:sans-serif;stroke-width:0.043847"
             id="path1158" />
          <path
             d="m 66.212005,86.527104 h 0.570508 v 4.824512 h -0.570508 z"
             style="font-style:normal;font-variant:normal;font-weight:normal;font-stretch:normal;font-size:6.35px;font-family:sans-serif;-inkscape-font-specification:sans-serif;stroke-width:0.043847"
             id="path1160" />
          <path
             d="m 72.019402,89.736211 -0.136426,-0.716236 q -0.139526,-0.734839 -0.69143,-0.734839 -0.415479,0 -0.604615,0.341065 -0.238745,0.427881 -0.238745,0.992187 0,0.682129 0.232544,1.007691 0.235645,0.331762 0.610816,0.331762 0.415478,0 0.63872,-0.660424 z m 0.319361,-0.94878 0.306958,-0.908471 h 0.508496 l -0.63562,1.882055 0.124023,0.679029 q 0.02791,0.151928 0.136426,0.279052 0.127124,0.148829 0.226342,0.148829 h 0.272852 v 0.483691 h -0.341064 q -0.291455,0 -0.551905,-0.260449 -0.127124,-0.130225 -0.179834,-0.403076 -0.142627,0.344165 -0.434082,0.613916 -0.136425,0.127124 -0.579809,0.127124 -0.728638,0 -1.082105,-0.47129 -0.362768,-0.486791 -0.362768,-1.339453 0,-0.911572 0.393774,-1.339453 0.437183,-0.47749 1.051099,-0.47749 0.964282,0 1.147217,0.985986 z"
             style="font-style:normal;font-variant:normal;font-weight:normal;font-stretch:normal;font-size:6.35px;font-family:sans-serif;-inkscape-font-specification:sans-serif;stroke-width:0.043847"
             id="path1162" />
        </g>
        <g
           aria-label="α"
           transform="translate(-27.587115,-6.0035707)"
           id="g1308"
           style="font-style:normal;font-variant:normal;font-weight:normal;font-stretch:normal;font-size:6.62881px;line-height:1.25;font-family:sans-serif;-inkscape-font-specification:sans-serif;stroke-width:0.165721">
          <path
             d="M 66.336409,100.37453 66.193993,99.626844 Q 66.04834,98.85974 65.472204,98.85974 q -0.433721,0 -0.631161,0.35604 -0.249228,0.446667 -0.249228,1.03575 0,0.71208 0.242754,1.05194 0.245991,0.34633 0.637635,0.34633 0.433721,0 0.666765,-0.68943 z m 0.333382,-0.990441 0.320436,-0.94836 h 0.530823 l -0.663529,1.964691 0.129469,0.70884 q 0.02913,0.1586 0.142416,0.29131 0.132706,0.15536 0.236281,0.15536 h 0.284832 v 0.50493 h -0.35604 q -0.304252,0 -0.576137,-0.27189 -0.132705,-0.13594 -0.18773,-0.42077 -0.148889,0.35928 -0.453141,0.64087 -0.142416,0.13271 -0.605267,0.13271 -0.76063,0 -1.129617,-0.49198 -0.378697,-0.50817 -0.378697,-1.39827 0,-0.951596 0.411064,-1.398263 0.456378,-0.498456 1.09725,-0.498456 1.006621,0 1.197587,1.029278 z"
             style="font-style:normal;font-variant:normal;font-weight:normal;font-stretch:normal;font-family:sans-serif;-inkscape-font-specification:sans-serif;stroke-width:0.165721"
             id="path1306" />
        </g>
        <g
           aria-label="Hypotenuse"
           id="text1312"
           style="font-style:normal;font-variant:normal;font-weight:normal;font-stretch:normal;font-size:6.62881px;line-height:1.25;font-family:sans-serif;-inkscape-font-specification:sans-serif;stroke-width:0.165721">
          <path
             d="m 76.954125,100.98208 h 0.653818 v 1.98087 h 2.375755 v -1.98087 h 0.653818 v 4.83243 h -0.653818 v -2.30131 h -2.375755 v 2.30131 h -0.653818 z"
             style="font-style:normal;font-variant:normal;font-weight:normal;font-stretch:normal;font-family:sans-serif;-inkscape-font-specification:sans-serif;stroke-width:0.165721"
             id="path1165" />
          <path
             d="m 83.421098,106.15113 q -0.252464,0.64734 -0.491982,0.84478 -0.239517,0.19744 -0.640871,0.19744 h -0.475798 v -0.49845 h 0.349566 q 0.245991,0 0.381933,-0.11653 0.135943,-0.11652 0.301015,-0.55024 l 0.106812,-0.27188 -1.466235,-3.56687 h 0.631161 l 1.132853,2.83537 1.132853,-2.83537 h 0.631161 z"
             style="font-style:normal;font-variant:normal;font-weight:normal;font-stretch:normal;font-family:sans-serif;-inkscape-font-specification:sans-serif;stroke-width:0.165721"
             id="path1167" />
          <path
             d="m 86.411831,105.27074 v 1.92261 h -0.598794 v -5.00397 h 0.598794 v 0.55024 q 0.18773,-0.32367 0.472561,-0.47904 0.288069,-0.1586 0.686186,-0.1586 0.660291,0 1.071355,0.52435 0.414301,0.52435 0.414301,1.37885 0,0.85449 -0.414301,1.37884 -0.411064,0.52435 -1.071355,0.52435 -0.398117,0 -0.686186,-0.15536 -0.284831,-0.1586 -0.472561,-0.48227 z m 2.026189,-1.26556 q 0,-0.65706 -0.271885,-1.02928 -0.268648,-0.37546 -0.74121,-0.37546 -0.472562,0 -0.744446,0.37546 -0.268648,0.37222 -0.268648,1.02928 0,0.65705 0.268648,1.03251 0.271884,0.37223 0.744446,0.37223 0.472562,0 0.74121,-0.37223 0.271885,-0.37546 0.271885,-1.03251 z"
             style="font-style:normal;font-variant:normal;font-weight:normal;font-stretch:normal;font-family:sans-serif;-inkscape-font-specification:sans-serif;stroke-width:0.165721"
             id="path1169" />
          <path
             d="m 91.448173,102.60691 q -0.479035,0 -0.757394,0.37546 -0.278358,0.37223 -0.278358,1.02281 0,0.65058 0.275122,1.02604 0.278358,0.37222 0.76063,0.37222 0.475798,0 0.754156,-0.37546 0.278358,-0.37546 0.278358,-1.0228 0,-0.64411 -0.278358,-1.01957 -0.278358,-0.3787 -0.754156,-0.3787 z m 0,-0.50493 q 0.776813,0 1.220244,0.50493 0.443432,0.50493 0.443432,1.39827 0,0.8901 -0.443432,1.39826 -0.443431,0.50493 -1.220244,0.50493 -0.780051,0 -1.223482,-0.50493 -0.440194,-0.50816 -0.440194,-1.39826 0,-0.89334 0.440194,-1.39827 0.443431,-0.50493 1.223482,-0.50493 z"
             style="font-style:normal;font-variant:normal;font-weight:normal;font-stretch:normal;font-family:sans-serif;-inkscape-font-specification:sans-serif;stroke-width:0.165721"
             id="path1171" />
          <path
             d="m 94.688133,101.1601 v 1.02928 h 1.226718 v 0.46285 h -1.226718 v 1.96793 q 0,0.44343 0.119759,0.56966 0.122995,0.12623 0.495218,0.12623 h 0.611741 v 0.49846 H 95.30311 q -0.689422,0 -0.951596,-0.2557 -0.262175,-0.25894 -0.262175,-0.93865 v -1.96793 h -0.436958 v -0.46285 h 0.436958 v -1.02928 z"
             style="font-style:normal;font-variant:normal;font-weight:normal;font-stretch:normal;font-family:sans-serif;-inkscape-font-specification:sans-serif;stroke-width:0.165721"
             id="path1173" />
          <path
             d="m 99.798919,103.85305 v 0.29131 h -2.738268 q 0.03884,0.61497 0.368986,0.93865 0.333383,0.32043 0.925703,0.32043 0.343093,0 0.663529,-0.0842 0.323672,-0.0842 0.640871,-0.25247 v 0.56319 q -0.320436,0.13595 -0.657055,0.20715 -0.336619,0.0712 -0.682949,0.0712 -0.867442,0 -1.375607,-0.50493 -0.504929,-0.50493 -0.504929,-1.36589 0,-0.8901 0.479035,-1.41122 0.482272,-0.52435 1.297926,-0.52435 0.7315,0 1.15551,0.47257 0.427248,0.46932 0.427248,1.2785 z m -0.595557,-0.17478 q -0.0065,-0.48875 -0.275122,-0.78005 -0.265411,-0.29131 -0.705605,-0.29131 -0.498456,0 -0.799471,0.2816 -0.297779,0.28159 -0.343093,0.793 z"
             style="font-style:normal;font-variant:normal;font-weight:normal;font-stretch:normal;font-family:sans-serif;-inkscape-font-specification:sans-serif;stroke-width:0.165721"
             id="path1175" />
          <path
             d="m 103.7898,103.62648 v 2.18803 h -0.59556 v -2.16861 q 0,-0.51464 -0.20067,-0.77034 -0.20068,-0.2557 -0.60204,-0.2557 -0.48227,0 -0.76063,0.30749 -0.27835,0.30749 -0.27835,0.83831 v 2.04885 h -0.5988 v -3.62513 h 0.5988 v 0.56319 q 0.21362,-0.32691 0.50169,-0.48875 0.2913,-0.16184 0.67,-0.16184 0.62469,0 0.94512,0.38841 0.32044,0.38517 0.32044,1.13609 z"
             style="font-style:normal;font-variant:normal;font-weight:normal;font-stretch:normal;font-family:sans-serif;-inkscape-font-specification:sans-serif;stroke-width:0.165721"
             id="path1177" />
          <path
             d="m 104.91618,104.38387 v -2.19449 h 0.59556 v 2.17184 q 0,0.51464 0.20067,0.77357 0.20068,0.25571 0.60203,0.25571 0.48228,0 0.76063,-0.30749 0.2816,-0.30749 0.2816,-0.83831 v -2.05532 h 0.59556 v 3.62513 h -0.59556 v -0.55672 q -0.21686,0.33015 -0.50493,0.49198 -0.28483,0.1586 -0.66353,0.1586 -0.62469,0 -0.94836,-0.38841 -0.32367,-0.3884 -0.32367,-1.13609 z m 1.4986,-2.28189 z"
             style="font-style:normal;font-variant:normal;font-weight:normal;font-stretch:normal;font-family:sans-serif;-inkscape-font-specification:sans-serif;stroke-width:0.165721"
             id="path1179" />
          <path
             d="m 111.48996,102.29619 v 0.56319 q -0.25246,-0.12947 -0.52434,-0.19421 -0.27189,-0.0647 -0.56319,-0.0647 -0.44344,0 -0.66677,0.13594 -0.2201,0.13594 -0.2201,0.40783 0,0.20715 0.1586,0.32691 0.1586,0.11652 0.63764,0.22333 l 0.20391,0.0453 q 0.6344,0.13594 0.89981,0.38517 0.26865,0.24599 0.26865,0.68942 0,0.50493 -0.40136,0.79947 -0.39811,0.29454 -1.09724,0.29454 -0.29131,0 -0.60851,-0.0583 -0.31396,-0.055 -0.66353,-0.16831 v -0.61498 q 0.33015,0.17155 0.65058,0.25894 0.32044,0.0842 0.6344,0.0842 0.42078,0 0.64735,-0.14242 0.22657,-0.14565 0.22657,-0.40783 0,-0.24275 -0.16508,-0.37222 -0.16183,-0.12947 -0.71531,-0.24923 l -0.20715,-0.0485 q -0.55348,-0.11652 -0.79947,-0.35604 -0.24599,-0.24275 -0.24599,-0.66353 0,-0.5114 0.36251,-0.78976 0.36251,-0.27836 1.02928,-0.27836 0.33014,0 0.62145,0.0486 0.2913,0.0485 0.53729,0.14565 z"
             style="font-style:normal;font-variant:normal;font-weight:normal;font-stretch:normal;font-family:sans-serif;-inkscape-font-specification:sans-serif;stroke-width:0.165721"
             id="path1181" />
          <path
             d="m 115.73331,103.85305 v 0.29131 h -2.73827 q 0.0388,0.61497 0.36899,0.93865 0.33338,0.32043 0.9257,0.32043 0.3431,0 0.66353,-0.0842 0.32367,-0.0842 0.64087,-0.25247 v 0.56319 q -0.32043,0.13595 -0.65705,0.20715 -0.33662,0.0712 -0.68295,0.0712 -0.86744,0 -1.37561,-0.50493 -0.50493,-0.50493 -0.50493,-1.36589 0,-0.8901 0.47904,-1.41122 0.48227,-0.52435 1.29792,-0.52435 0.7315,0 1.15551,0.47257 0.42725,0.46932 0.42725,1.2785 z m -0.59556,-0.17478 q -0.006,-0.48875 -0.27512,-0.78005 -0.26541,-0.29131 -0.7056,-0.29131 -0.49846,0 -0.79947,0.2816 -0.29778,0.28159 -0.3431,0.793 z"
             style="font-style:normal;font-variant:normal;font-weight:normal;font-stretch:normal;font-family:sans-serif;-inkscape-font-specification:sans-serif;stroke-width:0.165721"
             id="path1183" />
        </g>
        <g
           aria-label="."
           id="text863"
           style="font-size:10.5833px;line-height:1.25;font-family:Ubuntu;-inkscape-font-specification:Ubuntu;stroke-width:0.264583">
          <path
             d="m 130.0646,43.335892 q 0,0.28575 -0.1905,0.497415 -0.1905,0.211666 -0.51858,0.211666 -0.32808,0 -0.51858,-0.211666 -0.1905,-0.211665 -0.1905,-0.497415 0,-0.285749 0.1905,-0.497415 0.1905,-0.211666 0.51858,-0.211666 0.32808,0 0.51858,0.211666 0.1905,0.211666 0.1905,0.497415 z"
             style="stroke-width:0.264583"
             id="path1186" />
        </g>
        <path
           style="fill:none;stroke:#ff0000;stroke-width:1.465;stroke-linecap:round;stroke-linejoin:round;stroke-miterlimit:4;stroke-dasharray:none;stroke-opacity:1"
           d="M 19.626724,99.093978 H 170.63043"
           id="path865" />
        <path
           style="fill:none;stroke:#ff0000;stroke-width:1.465;stroke-linecap:round;stroke-linejoin:round;stroke-miterlimit:4;stroke-dasharray:none;stroke-opacity:1"
           d="M 19.626724,99.093978 132.87949,33.707452"
           id="path869" />
      </g>
    </g>
    <path
       style="fill:none;stroke:#00ff00;stroke-width:0.7;stroke-linecap:butt;stroke-linejoin:miter;stroke-miterlimit:4;stroke-dasharray:none;stroke-opacity:1"
       d="M 8.9296898,78.382809 H 61.548697"
       id="path1159" />
    <path
       style="fill:none;stroke:#0000ff;stroke-width:0.7;stroke-linecap:butt;stroke-linejoin:miter;stroke-miterlimit:4;stroke-dasharray:none;stroke-opacity:1"
       d="M 61.548496,78.382809 V 25.764"
       id="path1161" />
  </g>
</svg>
