<?xml version="1.0" encoding="UTF-8" standalone="no"?>
<svg
   xmlns:dc="http://purl.org/dc/elements/1.1/"
   xmlns:cc="http://creativecommons.org/ns#"
   xmlns:rdf="http://www.w3.org/1999/02/22-rdf-syntax-ns#"
   xmlns:svg="http://www.w3.org/2000/svg"
   xmlns="http://www.w3.org/2000/svg"
   xmlns:sodipodi="http://sodipodi.sourceforge.net/DTD/sodipodi-0.dtd"
   xmlns:inkscape="http://www.inkscape.org/namespaces/inkscape"
   width="200"
   height="200"
   viewBox="0 0 52.916665 52.916668"
   version="1.1"
   id="svg8"
   inkscape:version="1.0.1 (3bc2e813f5, 2020-09-07)"
   sodipodi:docname="einheitskreis_dreieck_pythagoras.svg">
  <defs
     id="defs2" />
  <sodipodi:namedview
     id="base"
     pagecolor="#ffffff"
     bordercolor="#666666"
     borderopacity="1.0"
     inkscape:pageopacity="0.0"
     inkscape:pageshadow="2"
     inkscape:zoom="1.4"
     inkscape:cx="39.265089"
     inkscape:cy="30.978507"
     inkscape:document-units="mm"
     inkscape:current-layer="g963"
     inkscape:document-rotation="0"
     showgrid="false"
     units="px"
     inkscape:window-width="1920"
     inkscape:window-height="1016"
     inkscape:window-x="0"
     inkscape:window-y="27"
     inkscape:window-maximized="1"
     inkscape:snap-page="true"
     inkscape:snap-bbox="true"
     inkscape:bbox-nodes="true"
     inkscape:bbox-paths="true" />
  <metadata
     id="metadata5">
    <rdf:RDF>
      <cc:Work
         rdf:about="">
        <dc:format>image/svg+xml</dc:format>
        <dc:type
           rdf:resource="http://purl.org/dc/dcmitype/StillImage" />
        <dc:title />
      </cc:Work>
    </rdf:RDF>
  </metadata>
  <g
     inkscape:label="Ebene 1"
     inkscape:groupmode="layer"
     id="layer1">
    <g
       inkscape:label="Ebene 1"
       id="layer1-3"
       transform="matrix(0.39198807,0,0,0.39198807,7.0935072,-0.89433495)">
      <g
         id="g1077"
         transform="translate(14.641736,24.195965)">
        <text
           xml:space="preserve"
           style="font-size:10.5833px;line-height:1.25;font-family:Ubuntu;-inkscape-font-specification:Ubuntu;stroke-width:0.043847"
           x="136.04904"
           y="268.59763"
           id="text1028"><tspan
             sodipodi:role="line"
             id="tspan1026"
             x="136.04904"
             y="268.59763"
             style="stroke-width:0.043847" /></text>
        <text
           xml:space="preserve"
           style="font-size:10.5833px;line-height:1.25;font-family:Ubuntu;-inkscape-font-specification:Ubuntu;stroke-width:0.264583"
           x="169.57494"
           y="275.71509"
           id="text1046"><tspan
             sodipodi:role="line"
             id="tspan1044"
             x="169.57494"
             y="275.71509"
             style="stroke-width:0.264583" /></text>
        <text
           xml:space="preserve"
           style="font-style:normal;font-variant:normal;font-weight:normal;font-stretch:normal;font-size:6.35px;line-height:1.25;font-family:sans-serif;-inkscape-font-specification:sans-serif;stroke-width:0.043847"
           x="39.275169"
           y="297.49222"
           id="text1140"><tspan
             sodipodi:role="line"
             id="tspan1138"
             x="39.275169"
             y="297.49222"
             style="font-style:normal;font-variant:normal;font-weight:normal;font-stretch:normal;font-size:6.35px;font-family:sans-serif;-inkscape-font-specification:sans-serif;stroke-width:0.043847" /></text>
      </g>
      <g
         id="g963"
         transform="matrix(1.078932,0,0,1.078932,11.456285,13.670972)">
        <rect
           style="fill:none;fill-opacity:0.497999;stroke:none;stroke-width:0.403341;stroke-linecap:round;stroke-linejoin:round"
           id="rect865"
           width="68.849899"
           height="68.849899"
           x="7.436698"
           y="10.996386" />
        <rect
           style="fill:none;fill-opacity:0.497999;stroke:none;stroke-width:0.366674;stroke-linecap:round;stroke-linejoin:round"
           id="rect835"
           width="62.59082"
           height="62.59082"
           x="10.566239"
           y="14.125926" />
        <path
           style="fill:none;stroke:#000000;stroke-width:0.473127;stroke-linecap:round;stroke-linejoin:round;stroke-miterlimit:4;stroke-dasharray:none;stroke-opacity:1"
           d="M 14.478165,76.716744 V 10.996385"
           id="path843" />
        <path
           style="fill:none;stroke:#000000;stroke-width:0.473127;stroke-linecap:round;stroke-linejoin:round;stroke-miterlimit:4;stroke-dasharray:none;stroke-opacity:1"
           d="M 10.566239,72.804817 H 76.286604"
           id="path845" />
        <rect
           style="fill:#000000;fill-opacity:1;stroke:none;stroke-width:0.473127;stroke-linecap:round;stroke-linejoin:round;stroke-miterlimit:4;stroke-dasharray:none"
           id="rect873"
           width="0.20863605"
           height="2.0081222"
           x="17.982674"
           y="-2.4314361"
           transform="rotate(45)" />
        <rect
           style="fill:#000000;fill-opacity:1;stroke:none;stroke-width:0.473127;stroke-linecap:round;stroke-linejoin:round;stroke-miterlimit:4;stroke-dasharray:none"
           id="rect875"
           width="0.20863605"
           height="2.0081222"
           x="2.2839084"
           y="18.043781"
           transform="rotate(-45)" />
        <rect
           style="fill:#000000;fill-opacity:1;stroke:none;stroke-width:0.473127;stroke-linecap:round;stroke-linejoin:round;stroke-miterlimit:4;stroke-dasharray:none"
           id="rect877"
           width="0.20863605"
           height="2.0081222"
           x="-2.4925473"
           y="-105.39299"
           transform="rotate(135)" />
        <rect
           style="fill:#000000;fill-opacity:1;stroke:none;stroke-width:0.473127;stroke-linecap:round;stroke-linejoin:round;stroke-miterlimit:4;stroke-dasharray:none"
           id="rect879"
           width="0.20863605"
           height="2.0081222"
           x="105.24548"
           y="-2.4314413"
           transform="rotate(45)" />
        <path
           id="rect911"
           style="fill:#cccccc;fill-opacity:0.497999;stroke:none;stroke-width:0.473128;stroke-linecap:round;stroke-linejoin:round;stroke-miterlimit:4;stroke-dasharray:none"
           d="m 73.157057,72.804818 a 58.678892,58.678892 0 0 1 -8.35e-4,0.291356 58.678892,58.678892 0 0 1 -0.0021,0.29421 58.678892,58.678892 0 0 1 -0.0037,0.29421 58.678892,58.678892 0 0 1 -0.0053,0.294208 58.678892,58.678892 0 0 1 -0.0065,0.294211 58.678892,58.678892 0 0 1 -0.0082,0.293801 58.678892,58.678892 0 0 1 -0.0094,0.29421 58.678892,58.678892 0 0 1 -0.01099,0.294208 58.678892,58.678892 0 0 1 -0.01264,0.293804 58.678892,58.678892 0 0 1 -0.01385,0.293801 58.678892,58.678892 0 0 1 -0.01548,0.293801 58.678892,58.678892 0 0 1 -0.01711,0.293804 58.678892,58.678892 0 0 1 -0.01834,0.293801 58.678892,58.678892 0 0 1 -0.0061,0.0925 h 0.130398 z" />
        <path
           id="path923"
           style="fill:none;fill-opacity:0.497999;stroke:#000000;stroke-width:0.473128;stroke-linecap:round;stroke-linejoin:round;stroke-miterlimit:4;stroke-dasharray:none"
           d="m 73.034694,76.594504 a 58.678892,58.678892 0 0 0 0.01642,-0.264062 58.678892,58.678892 0 0 0 0.01711,-0.293804 58.678892,58.678892 0 0 0 0.01548,-0.293801 58.678892,58.678892 0 0 0 0.01385,-0.293801 58.678892,58.678892 0 0 0 0.01264,-0.293804 58.678892,58.678892 0 0 0 0.011,-0.294208 58.678892,58.678892 0 0 0 0.0094,-0.29421 58.678892,58.678892 0 0 0 0.0082,-0.293801 58.678892,58.678892 0 0 0 0.0065,-0.294211 58.678892,58.678892 0 0 0 0.0053,-0.294208 58.678892,58.678892 0 0 0 0.0037,-0.29421 58.678892,58.678892 0 0 0 0.0021,-0.29421 58.678892,58.678892 0 0 0 8.35e-4,-0.291356 58.678892,58.678892 0 0 0 -8.35e-4,-0.29421 58.678892,58.678892 0 0 0 -0.0021,-0.294209 58.678892,58.678892 0 0 0 -0.0037,-0.29421 58.678892,58.678892 0 0 0 -0.0053,-0.294208 58.678892,58.678892 0 0 0 -0.0065,-0.29421 58.678892,58.678892 0 0 0 -0.0082,-0.29421 58.678892,58.678892 0 0 0 -0.0098,-0.293802 58.678892,58.678892 0 0 0 -0.011,-0.29421 58.678892,58.678892 0 0 0 -0.01262,-0.293801 58.678892,58.678892 0 0 0 -0.01385,-0.293802 58.678892,58.678892 0 0 0 -0.01548,-0.293803 58.678892,58.678892 0 0 0 -0.01711,-0.293801 58.678892,58.678892 0 0 0 -0.01834,-0.293802 58.678892,58.678892 0 0 0 -0.01997,-0.293394 58.678892,58.678892 0 0 0 -0.02119,-0.293394 58.678892,58.678892 0 0 0 -0.02282,-0.293395 58.678892,58.678892 0 0 0 -0.02445,-0.293394 58.678892,58.678892 0 0 0 -0.02567,-0.292988 58.678892,58.678892 0 0 0 -0.0273,-0.292988 58.678892,58.678892 0 0 0 -0.02853,-0.292985 58.678892,58.678892 0 0 0 -0.03056,-0.292581 58.678892,58.678892 0 0 0 -0.03138,-0.292579 58.678892,58.678892 0 0 0 -0.03342,-0.292171 58.678892,58.678892 0 0 0 -0.03423,-0.292172 58.678892,58.678892 0 0 0 -0.03627,-0.292172 58.678892,58.678892 0 0 0 -0.03749,-0.291765 58.678892,58.678892 0 0 0 -0.03912,-0.291356 58.678892,58.678892 0 0 0 -0.04034,-0.291765 58.678892,58.678892 0 0 0 -0.04197,-0.29095 58.678892,58.678892 0 0 0 -0.04319,-0.290949 58.678892,58.678892 0 0 0 -0.04482,-0.290951 58.678892,58.678892 0 0 0 -0.04645,-0.29054 58.678892,58.678892 0 0 0 -0.04768,-0.290543 58.678892,58.678892 0 0 0 -0.0493,-0.289726 58.678892,58.678892 0 0 0 -0.05053,-0.290136 58.678892,58.678892 0 0 0 -0.05216,-0.28932 58.678892,58.678892 0 0 0 -0.05338,-0.28932 58.678892,58.678892 0 0 0 -0.05501,-0.289317 58.678892,58.678892 0 0 0 -0.05664,-0.288506 58.678892,58.678892 0 0 0 -0.05786,-0.288504 58.678892,58.678892 0 0 0 -0.05909,-0.288098 58.678892,58.678892 0 0 0 -0.06072,-0.288097 58.678892,58.678892 0 0 0 -0.06235,-0.28769 58.678892,58.678892 0 0 0 -0.06357,-0.286875 58.678892,58.678892 0 0 0 -0.0652,-0.287281 58.678892,58.678892 0 0 0 -0.06642,-0.286468 58.678892,58.678892 0 0 0 -0.06805,-0.286059 58.678892,58.678892 0 0 0 -0.06968,-0.286059 58.678892,58.678892 0 0 0 -0.0705,-0.285652 58.678892,58.678892 0 0 0 -0.07253,-0.285245 58.678892,58.678892 0 0 0 -0.07376,-0.284836 58.678892,58.678892 0 0 0 -0.07498,-0.284431 58.678892,58.678892 0 0 0 -0.07661,-0.284021 58.678892,58.678892 0 0 0 -0.07783,-0.283615 58.678892,58.678892 0 0 0 -0.07946,-0.283614 58.678892,58.678892 0 0 0 -0.08109,-0.2828 58.678892,58.678892 0 0 0 -0.08191,-0.282393 58.678892,58.678892 0 0 0 -0.08394,-0.281984 58.678892,58.678892 0 0 0 -0.08476,-0.281578 58.678892,58.678892 0 0 0 -0.08679,-0.281577 58.678892,58.678892 0 0 0 -0.08761,-0.280761 58.678892,58.678892 0 0 0 -0.08965,-0.280355 58.678892,58.678892 0 0 0 -0.09047,-0.279541 58.678892,58.678892 0 0 0 -0.09209,-0.279539 58.678892,58.678892 0 0 0 -0.09372,-0.279132 58.678892,58.678892 0 0 0 -0.09495,-0.278319 58.678892,58.678892 0 0 0 -0.09617,-0.278316 58.678892,58.678892 0 0 0 -0.0978,-0.277503 58.678892,58.678892 0 0 0 -0.09902,-0.276686 58.678892,58.678892 0 0 0 -0.100242,-0.276687 58.678892,58.678892 0 0 0 -0.101874,-0.27628 58.678892,58.678892 0 0 0 -0.103503,-0.275465 58.678892,58.678892 0 0 0 -0.104318,-0.27465 A 58.678892,58.678892 0 0 0 69.16406,51.528421 58.678892,58.678892 0 0 0 69.056481,51.254586 58.678892,58.678892 0 0 0 68.947681,50.98116 58.678892,58.678892 0 0 0 68.837654,50.708139 58.678892,58.678892 0 0 0 68.726,50.435936 58.678892,58.678892 0 0 0 68.613533,50.164137 58.678892,58.678892 0 0 0 68.499027,49.893155 58.678892,58.678892 0 0 0 68.383706,49.622581 58.678892,58.678892 0 0 0 68.266757,49.352414 58.678892,58.678892 0 0 0 68.148583,49.083061 58.678892,58.678892 0 0 0 68.02878,48.814116 58.678892,58.678892 0 0 0 67.907755,48.545985 58.678892,58.678892 0 0 0 67.785509,48.27867 a 58.678892,58.678892 0 0 0 -0.123471,-0.267315 58.678892,58.678892 0 0 0 -0.1251,-0.266092 58.678892,58.678892 0 0 0 -0.126323,-0.265685 58.678892,58.678892 0 0 0 -0.127546,-0.265277 58.678892,58.678892 0 0 0 -0.129175,-0.264463 58.678892,58.678892 0 0 0 -0.130397,-0.263647 58.678892,58.678892 0 0 0 -0.13162,-0.26324 58.678892,58.678892 0 0 0 -0.132843,-0.262425 58.678892,58.678892 0 0 0 -0.134063,-0.262017 58.678892,58.678892 0 0 0 -0.135695,-0.260796 58.678892,58.678892 0 0 0 -0.136918,-0.260795 58.678892,58.678892 0 0 0 -0.13814,-0.259572 58.678892,58.678892 0 0 0 -0.139362,-0.259166 58.678892,58.678892 0 0 0 -0.140992,-0.25835 58.678892,58.678892 0 0 0 -0.141808,-0.257536 58.678892,58.678892 0 0 0 -0.143437,-0.257127 58.678892,58.678892 0 0 0 -0.14466,-0.255905 58.678892,58.678892 0 0 0 -0.145883,-0.255497 58.678892,58.678892 0 0 0 -0.147512,-0.255089 58.678892,58.678892 0 0 0 -0.148328,-0.253869 58.678892,58.678892 0 0 0 -0.149957,-0.253052 58.678892,58.678892 0 0 0 -0.150771,-0.252646 58.678892,58.678892 0 0 0 -0.152402,-0.25183 58.678892,58.678892 0 0 0 -0.153625,-0.251016 58.678892,58.678892 0 0 0 -0.154847,-0.250199 58.678892,58.678892 0 0 0 -0.156071,-0.249387 58.678892,58.678892 0 0 0 -0.15729,-0.248569 58.678892,58.678892 0 0 0 -0.158516,-0.247755 58.678892,58.678892 0 0 0 -0.159736,-0.247348 58.678892,58.678892 0 0 0 -0.16096,-0.246126 58.678892,58.678892 0 0 0 -0.162182,-0.24531 A 58.678892,58.678892 0 0 0 63.182476,40.077074 58.678892,58.678892 0 0 0 63.01744,39.832985 58.678892,58.678892 0 0 0 62.851591,39.59012 58.678892,58.678892 0 0 0 62.68452,39.348069 58.678892,58.678892 0 0 0 62.516226,39.106835 58.678892,58.678892 0 0 0 62.346709,38.866413 58.678892,58.678892 0 0 0 62.175969,38.626807 58.678892,58.678892 0 0 0 62.004007,38.388017 58.678892,58.678892 0 0 0 61.830823,38.150043 58.678892,58.678892 0 0 0 61.656416,37.912882 58.678892,58.678892 0 0 0 61.480788,37.676944 58.678892,58.678892 0 0 0 61.303935,37.441821 58.678892,58.678892 0 0 0 61.126269,37.207513 58.678892,58.678892 0 0 0 60.946972,36.97402 58.678892,58.678892 0 0 0 60.76686,36.74134 58.678892,58.678892 0 0 0 60.585526,36.509886 58.678892,58.678892 0 0 0 60.40297,36.278838 58.678892,58.678892 0 0 0 60.219191,36.049011 58.678892,58.678892 0 0 0 60.034189,35.820408 58.678892,58.678892 0 0 0 59.848373,35.592213 58.678892,58.678892 0 0 0 59.660926,35.36524 58.678892,58.678892 0 0 0 59.472666,35.139082 58.678892,58.678892 0 0 0 59.28318,34.914145 58.678892,58.678892 0 0 0 59.092881,34.690024 58.678892,58.678892 0 0 0 58.900953,34.466719 58.678892,58.678892 0 0 0 58.708209,34.244228 58.678892,58.678892 0 0 0 58.514244,34.022961 58.678892,58.678892 0 0 0 58.319461,33.802914 58.678892,58.678892 0 0 0 58.123458,33.583277 58.678892,58.678892 0 0 0 57.926232,33.365267 58.678892,58.678892 0 0 0 57.727784,33.147668 58.678892,58.678892 0 0 0 57.52852,32.931289 58.678892,58.678892 0 0 0 57.328033,32.716133 58.678892,58.678892 0 0 0 57.126324,32.501791 58.678892,58.678892 0 0 0 56.923801,32.288265 58.678892,58.678892 0 0 0 56.720055,32.075963 58.678892,58.678892 0 0 0 56.515494,31.864881 58.678892,58.678892 0 0 0 56.30971,31.654615 58.678892,58.678892 0 0 0 56.102703,31.445164 58.678892,58.678892 0 0 0 55.894883,31.236935 58.678892,58.678892 0 0 0 55.68584,31.029929 58.678892,58.678892 0 0 0 55.475981,30.823738 58.678892,58.678892 0 0 0 55.2649,30.618769 58.678892,58.678892 0 0 0 55.052596,30.414616 58.678892,58.678892 0 0 0 54.839885,30.212092 58.678892,58.678892 0 0 0 54.625543,30.009976 58.678892,58.678892 0 0 0 54.410387,29.80949 58.678892,58.678892 0 0 0 54.194418,29.609411 58.678892,58.678892 0 0 0 53.977223,29.410962 58.678892,58.678892 0 0 0 53.759215,29.213328 58.678892,58.678892 0 0 0 53.540391,29.016917 58.678892,58.678892 0 0 0 53.320347,28.821728 58.678892,58.678892 0 0 0 53.099078,28.627762 58.678892,58.678892 0 0 0 52.877402,28.43461 a 58.678892,58.678892 0 0 0 -0.223305,-0.191928 58.678892,58.678892 0 0 0 -0.223714,-0.191114 58.678892,58.678892 0 0 0 -0.224937,-0.189484 58.678892,58.678892 0 0 0 -0.22575,-0.188669 58.678892,58.678892 0 0 0 -0.226973,-0.187447 58.678892,58.678892 0 0 0 -0.22738,-0.186631 58.678892,58.678892 0 0 0 -0.229012,-0.185002 58.678892,58.678892 0 0 0 -0.229418,-0.184186 58.678892,58.678892 0 0 0 -0.230641,-0.182557 58.678892,58.678892 0 0 0 -0.231048,-0.181741 58.678892,58.678892 0 0 0 -0.23227,-0.180927 58.678892,58.678892 0 0 0 -0.233493,-0.179296 58.678892,58.678892 0 0 0 -0.2339,-0.178074 58.678892,58.678892 0 0 0 -0.235124,-0.17726 58.678892,58.678892 0 0 0 -0.235936,-0.175629 58.678892,58.678892 0 0 0 -0.236754,-0.174814 58.678892,58.678892 0 0 0 -0.237568,-0.173592 58.678892,58.678892 0 0 0 -0.238383,-0.172369 58.678892,58.678892 0 0 0 -0.239606,-0.170739 58.678892,58.678892 0 0 0 -0.240013,-0.169925 58.678892,58.678892 0 0 0 -0.241236,-0.168701 58.678892,58.678892 0 0 0 -0.241642,-0.16748 58.678892,58.678892 0 0 0 -0.242865,-0.166257 58.678892,58.678892 0 0 0 -0.24368,-0.165034 58.678892,58.678892 0 0 0 -0.24409,-0.163812 58.678892,58.678892 0 0 0 -0.24531,-0.162589 58.678892,58.678892 0 0 0 -0.246124,-0.161367 58.678892,58.678892 0 0 0 -0.246942,-0.160145 58.678892,58.678892 0 0 0 -0.247346,-0.158922 58.678892,58.678892 0 0 0 -0.248571,-0.157699 58.678892,58.678892 0 0 0 -0.249385,-0.156477 58.678892,58.678892 0 0 0 -0.249794,-0.155255 58.678892,58.678892 0 0 0 -0.250607,-0.153624 58.678892,58.678892 0 0 0 -0.25183,-0.15281 58.678892,58.678892 0 0 0 -0.252239,-0.15118 58.678892,58.678892 0 0 0 -0.253052,-0.150364 58.678892,58.678892 0 0 0 -0.253867,-0.148735 58.678892,58.678892 0 0 0 -0.254275,-0.147512 58.678892,58.678892 0 0 0 -0.255498,-0.14629 58.678892,58.678892 0 0 0 -0.255906,-0.145067 58.678892,58.678892 0 0 0 -0.256719,-0.143845 58.678892,58.678892 0 0 0 -0.257536,-0.142215 58.678892,58.678892 0 0 0 -0.25835,-0.140992 58.678892,58.678892 0 0 0 -0.258756,-0.140178 58.678892,58.678892 0 0 0 -0.259575,-0.138547 58.678892,58.678892 0 0 0 -0.260386,-0.136917 58.678892,58.678892 0 0 0 -0.260795,-0.136103 58.678892,58.678892 0 0 0 -0.261611,-0.134472 58.678892,58.678892 0 0 0 -0.262425,-0.13325 58.678892,58.678892 0 0 0 -0.262833,-0.132028 58.678892,58.678892 0 0 0 -0.263647,-0.130805 58.678892,58.678892 0 0 0 -0.264054,-0.129175 58.678892,58.678892 0 0 0 -0.265279,-0.127952 58.678892,58.678892 0 0 0 -0.265276,-0.12673 58.678892,58.678892 0 0 0 -0.266093,-0.125508 58.678892,58.678892 0 0 0 -0.266908,-0.123878 58.678892,58.678892 0 0 0 -0.267315,-0.122655 58.678892,58.678892 0 0 0 -0.268131,-0.121433 58.678892,58.678892 0 0 0 -0.268944,-0.12021 58.678892,58.678892 0 0 0 -0.268944,-0.11858 58.678892,58.678892 0 0 0 -0.26976,-0.117358 58.678892,58.678892 0 0 0 -0.270574,-0.115728 58.678892,58.678892 0 0 0 -0.270983,-0.114505 58.678892,58.678892 0 0 0 -0.271799,-0.113283 58.678892,58.678892 0 0 0 -0.271796,-0.11206 58.678892,58.678892 0 0 0 -0.273021,-0.110431 58.678892,58.678892 0 0 0 -0.273019,-0.1088 58.678892,58.678892 0 0 0 -0.273835,-0.107985 58.678892,58.678892 0 0 0 -0.274242,-0.106356 58.678892,58.678892 0 0 0 -0.275057,-0.105133 58.678892,58.678892 0 0 0 -0.275058,-0.103503 58.678892,58.678892 0 0 0 -0.275873,-0.102281 58.678892,58.678892 0 0 0 -0.276687,-0.10065 58.678892,58.678892 0 0 0 -0.276687,-0.09943 58.678892,58.678892 0 0 0 -0.277502,-0.09821 58.678892,58.678892 0 0 0 -0.27791,-0.09658 58.678892,58.678892 0 0 0 -0.278316,-0.09535 58.678892,58.678892 0 0 0 -0.278725,-0.09372 58.678892,58.678892 0 0 0 -0.279541,-0.0925 58.678892,58.678892 0 0 0 -0.279539,-0.09128 58.678892,58.678892 0 0 0 -0.280355,-0.08965 58.678892,58.678892 0 0 0 -0.280762,-0.08843 58.678892,58.678892 0 0 0 -0.28117,-0.0868 58.678892,58.678892 0 0 0 -0.281577,-0.08557 58.678892,58.678892 0 0 0 -0.281985,-0.08394 58.678892,58.678892 0 0 0 -0.282393,-0.08272 58.678892,58.678892 0 0 0 -0.2828,-0.08109 58.678892,58.678892 0 0 0 -0.282797,-0.07987 58.678892,58.678892 0 0 0 -0.283616,-0.07824 58.678892,58.678892 0 0 0 -0.284023,-0.07702 58.678892,58.678892 0 0 0 -0.284429,-0.07539 58.678892,58.678892 0 0 0 -0.284836,-0.07416 58.678892,58.678892 0 0 0 -0.285245,-0.07253 58.678892,58.678892 0 0 0 -0.285245,-0.07131 58.678892,58.678892 0 0 0 -0.28606,-0.07009 58.678892,58.678892 0 0 0 -0.286059,-0.06805 58.678892,58.678892 0 0 0 -0.286467,-0.06724 58.678892,58.678892 0 0 0 -0.286875,-0.0652 58.678892,58.678892 0 0 0 -0.287297,-0.06438 58.678892,58.678892 0 0 0 -0.287282,-0.06235 58.678892,58.678892 0 0 0 -0.287689,-0.06112 58.678892,58.678892 0 0 0 -0.288097,-0.0599 58.678892,58.678892 0 0 0 -0.288505,-0.05827 58.678892,58.678892 0 0 0 -0.288504,-0.05664 58.678892,58.678892 0 0 0 -0.28932,-0.05542 58.678892,58.678892 0 0 0 -0.288912,-0.0542 A 58.678892,58.678892 0 0 0 24.80239,15.04114 58.678892,58.678892 0 0 0 24.512663,14.9902 58.678892,58.678892 0 0 0 24.222528,14.94049 58.678892,58.678892 0 0 0 23.932394,14.89241 58.678892,58.678892 0 0 0 23.641852,14.84596 58.678892,58.678892 0 0 0 23.35131,14.80073 58.678892,58.678892 0 0 0 23.06036,14.75672 58.678892,58.678892 0 0 0 22.769003,14.71475 58.678892,58.678892 0 0 0 22.477646,14.67359 58.678892,58.678892 0 0 0 22.186289,14.63447 58.678892,58.678892 0 0 0 21.894525,14.59657 58.678892,58.678892 0 0 0 21.602353,14.5599 58.678892,58.678892 0 0 0 21.310181,14.52486 58.678892,58.678892 0 0 0 21.018009,14.49145 58.678892,58.678892 0 0 0 20.725429,14.45926 58.678892,58.678892 0 0 0 20.43285,14.4287 58.678892,58.678892 0 0 0 20.139863,14.39977 58.678892,58.678892 0 0 0 19.847284,14.37206 58.678892,58.678892 0 0 0 19.553889,14.34598 58.678892,58.678892 0 0 0 19.260902,14.32112 58.678892,58.678892 0 0 0 18.967508,14.29789 58.678892,58.678892 0 0 0 18.674113,14.27629 58.678892,58.678892 0 0 0 18.380719,14.25591 58.678892,58.678892 0 0 0 18.086917,14.23717 58.678892,58.678892 0 0 0 17.793522,14.21965 58.678892,58.678892 0 0 0 17.49972,14.20376 58.678892,58.678892 0 0 0 17.205511,14.1895 a 58.678892,58.678892 0 0 0 -0.293802,-0.01304 58.678892,58.678892 0 0 0 -0.293802,-0.01141 58.678892,58.678892 0 0 0 -0.294209,-0.01019 58.678892,58.678892 0 0 0 -0.29421,-0.0086 58.678892,58.678892 0 0 0 -0.294209,-0.0069 58.678892,58.678892 0 0 0 -0.29421,-0.0057 58.678892,58.678892 0 0 0 -0.293802,-0.0041 58.678892,58.678892 0 0 0 -0.294616,-0.0024 58.678892,58.678892 0 0 0 -0.29421,-0.0012 h -0.160552 a 58.678892,58.678892 0 0 0 -0.294209,0.0012 58.678892,58.678892 0 0 0 -0.29421,0.0024 58.678892,58.678892 0 0 0 -0.294209,0.0041 58.678892,58.678892 0 0 0 -0.29421,0.0057 58.678892,58.678892 0 0 0 -0.294209,0.0069 58.678892,58.678892 0 0 0 -0.293802,0.0086 58.678892,58.678892 0 0 0 -0.294209,0.01019 58.678892,58.678892 0 0 0 -0.29421,0.01141 58.678892,58.678892 0 0 0 -0.293802,0.01304 58.678892,58.678892 0 0 0 -0.293802,0.01426 58.678892,58.678892 0 0 0 -0.293802,0.01589 58.678892,58.678892 0 0 0 -0.293802,0.01752 58.678892,58.678892 0 0 0 -0.180519,0.01141 v 0" />
        <path
           id="path958"
           style="fill:none;fill-opacity:0.623529;stroke:#ff0000;stroke-width:0.473128;stroke-linecap:round;stroke-linejoin:round;stroke-miterlimit:4;stroke-dasharray:none;stroke-opacity:1"
           d="m 21.002524,66.280459 -6.524359,6.524359 h 9.226848 a 9.2268659,9.2268659 0 0 0 -2.702489,-6.524359 z" />
        <path
           style="fill:none;stroke:#000000;stroke-width:0.473127;stroke-linecap:round;stroke-linejoin:round;stroke-miterlimit:4;stroke-dasharray:none;stroke-opacity:1"
           d="M 14.478165,72.804816 55.970503,31.312478 v 41.492338 z"
           id="path950" />
        <path
           id="path952"
           style="fill:none;fill-opacity:0.615686;stroke:#000000;stroke-width:0.473128;stroke-linecap:round;stroke-linejoin:round;stroke-miterlimit:4;stroke-dasharray:none;stroke-opacity:1"
           d="m 55.970661,64.508682 a 8.2959892,8.2959892 0 0 0 -8.296135,8.296136 h 8.296135 z" />
        <circle
           style="fill:#000000;fill-opacity:1;stroke:#000000;stroke-width:0.473127;stroke-linecap:round;stroke-linejoin:round;stroke-miterlimit:4;stroke-dasharray:none"
           id="path966"
           cx="52.821774"
           cy="69.634354"
           r="0.28028786" />
        <text
           xml:space="preserve"
           style="font-style:normal;font-variant:normal;font-weight:normal;font-stretch:normal;font-size:4.09602px;line-height:1.25;font-family:sans-serif;-inkscape-font-specification:sans-serif;fill:#ff0000;stroke-width:0.208636;stroke-linecap:round;stroke-linejoin:round"
           x="18.865595"
           y="71.832657"
           id="text970"><tspan
             sodipodi:role="line"
             id="tspan968"
             x="18.865595"
             y="71.832657"
             style="font-style:normal;font-variant:normal;font-weight:normal;font-stretch:normal;font-family:sans-serif;-inkscape-font-specification:sans-serif;fill:#ff0000;stroke-width:0.208636;stroke-linecap:round;stroke-linejoin:round">α</tspan></text>
        <text
           xml:space="preserve"
           style="font-style:normal;font-variant:normal;font-weight:normal;font-stretch:normal;font-size:4.09602px;line-height:1.25;font-family:sans-serif;-inkscape-font-specification:sans-serif;stroke-width:0.208636;stroke-linecap:round;stroke-linejoin:round"
           x="73.984596"
           y="76.507996"
           id="text974"><tspan
             sodipodi:role="line"
             id="tspan972"
             x="73.984596"
             y="76.507996"
             style="font-style:normal;font-variant:normal;font-weight:normal;font-stretch:normal;font-family:sans-serif;-inkscape-font-specification:sans-serif;stroke-width:0.208636;stroke-linecap:round;stroke-linejoin:round">y</tspan></text>
        <text
           xml:space="preserve"
           style="font-style:normal;font-variant:normal;font-weight:normal;font-stretch:normal;font-size:4.09602px;line-height:1.25;font-family:sans-serif;-inkscape-font-specification:sans-serif;stroke-width:0.208636;stroke-linecap:round;stroke-linejoin:round"
           x="15.823331"
           y="13.683876"
           id="text978"><tspan
             sodipodi:role="line"
             id="tspan976"
             x="15.823331"
             y="13.683876"
             style="font-style:normal;font-variant:normal;font-weight:normal;font-stretch:normal;font-family:sans-serif;-inkscape-font-specification:sans-serif;stroke-width:0.208636;stroke-linecap:round;stroke-linejoin:round">x</tspan></text>
        <text
           xml:space="preserve"
           style="font-style:normal;font-variant:normal;font-weight:normal;font-stretch:normal;font-size:4.09602px;line-height:1.25;font-family:sans-serif;-inkscape-font-specification:sans-serif;fill:#00ff00;fill-opacity:1;stroke-width:0.208636;stroke-linecap:round;stroke-linejoin:round"
           x="30.70793"
           y="71.638138"
           id="text982"><tspan
             sodipodi:role="line"
             id="tspan980"
             x="30.70793"
             y="71.638138"
             style="font-style:normal;font-variant:normal;font-weight:normal;font-stretch:normal;font-family:sans-serif;-inkscape-font-specification:sans-serif;fill:#00ff00;fill-opacity:1;stroke-width:0.208636;stroke-linecap:round;stroke-linejoin:round">cos(α)</tspan></text>
        <text
           xml:space="preserve"
           style="font-style:normal;font-variant:normal;font-weight:normal;font-stretch:normal;font-size:4.09602px;line-height:1.25;font-family:sans-serif;-inkscape-font-specification:sans-serif;fill:#0000ff;fill-opacity:1;stroke:none;stroke-width:0.208636;stroke-linecap:round;stroke-linejoin:round"
           x="56.627445"
           y="55.475483"
           id="text986"><tspan
             sodipodi:role="line"
             id="tspan984"
             x="56.627445"
             y="55.475483"
             style="font-style:normal;font-variant:normal;font-weight:normal;font-stretch:normal;font-family:sans-serif;-inkscape-font-specification:sans-serif;fill:#0000ff;fill-opacity:1;stroke:none;stroke-width:0.208636;stroke-linecap:round;stroke-linejoin:round">sin(α)</tspan></text>
        <path
           style="fill:none;stroke:#00ff00;stroke-width:0.630837;stroke-linecap:round;stroke-linejoin:round;stroke-miterlimit:4;stroke-dasharray:none;stroke-opacity:1"
           d="M 14.478167,72.804816 H 55.970661"
           id="path1159" />
        <path
           style="fill:none;stroke:#0000ff;stroke-width:0.630837;stroke-linecap:round;stroke-linejoin:round;stroke-miterlimit:4;stroke-dasharray:none;stroke-opacity:1"
           d="M 55.970503,72.804816 V 31.312478"
           id="path1161" />
        <path
           style="fill:#000000;stroke:#000000;stroke-width:0.532251px;stroke-linecap:butt;stroke-linejoin:miter;stroke-opacity:1;fill-opacity:0.07704692"
           d="M -27.01417,31.312483 14.478166,-10.179855 55.970503,31.312478 14.478167,72.804818 Z"
           id="path918" />
        <path
           style="fill:#00ff00;fill-opacity:0.083461;stroke:#00ff00;stroke-width:0.532251px;stroke-linecap:butt;stroke-linejoin:miter;stroke-opacity:1"
           d="M 14.478168,72.804818 H 55.970662 V 114.29731 H 14.478168 l -2e-6,-41.492492 z"
           id="path932" />
        <path
           style="fill:#0000ff;stroke:#0000ff;stroke-width:0.532251px;stroke-linecap:butt;stroke-linejoin:miter;stroke-opacity:1;fill-opacity:0.2"
           d="m 55.970503,31.312478 1.59e-4,41.49234 h 41.492341 l -1.58e-4,-41.49234 z"
           id="path924" />
      </g>
    </g>
  </g>
</svg>
