<?xml version="1.0" encoding="UTF-8" standalone="no"?>
<svg
   xmlns:dc="http://purl.org/dc/elements/1.1/"
   xmlns:cc="http://creativecommons.org/ns#"
   xmlns:rdf="http://www.w3.org/1999/02/22-rdf-syntax-ns#"
   xmlns:svg="http://www.w3.org/2000/svg"
   xmlns="http://www.w3.org/2000/svg"
   xmlns:sodipodi="http://sodipodi.sourceforge.net/DTD/sodipodi-0.dtd"
   xmlns:inkscape="http://www.inkscape.org/namespaces/inkscape"
   width="330"
   height="330"
   viewBox="0 0 87.312498 87.312502"
   version="1.1"
   id="svg8"
   inkscape:version="1.0.1 (3bc2e813f5, 2020-09-07)"
   sodipodi:docname="sin_neunzig_cos_neunzig_einheitskreis.svg">
  <defs
     id="defs2">
    <rect
       x="-39.933189"
       y="42.837021"
       width="33.951909"
       height="42.296001"
       id="rect860" />
  </defs>
  <sodipodi:namedview
     id="base"
     pagecolor="#ffffff"
     bordercolor="#666666"
     borderopacity="1.0"
     inkscape:pageopacity="0.0"
     inkscape:pageshadow="2"
     inkscape:zoom="2"
     inkscape:cx="0.49383817"
     inkscape:cy="214.01997"
     inkscape:document-units="mm"
     inkscape:current-layer="layer1"
     inkscape:document-rotation="0"
     showgrid="true"
     units="px"
     showguides="true"
     inkscape:guide-bbox="true"
     inkscape:snap-page="true"
     inkscape:snap-bbox="true"
     inkscape:bbox-nodes="true"
     inkscape:window-width="1920"
     inkscape:window-height="1016"
     inkscape:window-x="0"
     inkscape:window-y="27"
     inkscape:window-maximized="1"
     inkscape:snap-bbox-midpoints="true"
     inkscape:snap-bbox-edge-midpoints="true"
     inkscape:object-paths="true"
     inkscape:bbox-paths="true"
     inkscape:snap-intersection-paths="true"
     inkscape:snap-smooth-nodes="true" />
  <metadata
     id="metadata5">
    <rdf:RDF>
      <cc:Work
         rdf:about="">
        <dc:format>image/svg+xml</dc:format>
        <dc:type
           rdf:resource="http://purl.org/dc/dcmitype/StillImage" />
        <dc:title />
      </cc:Work>
    </rdf:RDF>
  </metadata>
  <g
     inkscape:label="Ebene 1"
     inkscape:groupmode="layer"
     id="layer1">
    <path
       style="fill:none;stroke:#000000;stroke-width:0.6;stroke-linecap:butt;stroke-linejoin:miter;stroke-miterlimit:4;stroke-dasharray:none;stroke-opacity:1"
       d="M 10.738447,2.1064162 8.8441626,0.21213223"
       id="path919" />
    <path
       style="fill:none;stroke:#000000;stroke-width:0.6;stroke-linecap:butt;stroke-linejoin:miter;stroke-miterlimit:4;stroke-dasharray:none;stroke-opacity:1"
       d="M 7.1256146,2.1064162 9.0198989,0.21213223"
       id="path921" />
    <path
       style="fill:none;stroke:#000000;stroke-width:0.6;stroke-linecap:butt;stroke-linejoin:miter;stroke-opacity:1;stroke-miterlimit:4;stroke-dasharray:none"
       d="M 8.9296874,83.343749 V 0"
       id="path843" />
    <path
       style="fill:none;stroke:#000000;stroke-width:0.6;stroke-linecap:butt;stroke-linejoin:miter;stroke-miterlimit:4;stroke-dasharray:none;stroke-opacity:1"
       d="m 85.206091,80.189226 1.894284,-1.894284"
       id="path915" />
    <path
       style="fill:none;stroke:#000000;stroke-width:0.6;stroke-linecap:butt;stroke-linejoin:miter;stroke-miterlimit:4;stroke-dasharray:none;stroke-opacity:1"
       d="m 85.206091,76.576394 1.894284,1.894284"
       id="path917" />
    <path
       style="fill:none;stroke:#000000;stroke-width:0.6;stroke-linecap:butt;stroke-linejoin:miter;stroke-opacity:1;stroke-miterlimit:4;stroke-dasharray:none"
       d="M 3.9687499,78.38281 H 87.312507"
       id="path845" />
    <path
       id="rect911"
       style="fill:#cccccc;fill-opacity:0.497999;stroke:#000000;stroke-width:2.26771657;stroke-linecap:round;stroke-linejoin:round;stroke-miterlimit:4;stroke-dasharray:none"
       d="M 315 296.25 A 281.25 281.25 0 0 1 314.99609 297.64648 A 281.25 281.25 0 0 1 314.98633 299.05664 A 281.25 281.25 0 0 1 314.96875 300.4668 A 281.25 281.25 0 0 1 314.94336 301.87695 A 281.25 281.25 0 0 1 314.91211 303.28711 A 281.25 281.25 0 0 1 314.87305 304.69531 A 281.25 281.25 0 0 1 314.82812 306.10547 A 281.25 281.25 0 0 1 314.77539 307.51562 A 281.25 281.25 0 0 1 314.71484 308.92383 A 281.25 281.25 0 0 1 314.64844 310.33203 A 281.25 281.25 0 0 1 314.57422 311.74023 A 281.25 281.25 0 0 1 314.49219 313.14844 A 281.25 281.25 0 0 1 314.4043 314.55664 A 281.25 281.25 0 0 1 314.375 315 L 315 315 L 315 296.25 z "
       transform="scale(0.26458333)" />
    <text
       xml:space="preserve"
       style="font-size:4.93889px;line-height:1.25;font-family:Ubuntu;-inkscape-font-specification:Ubuntu;fill:#ff0000;stroke-width:0.264583"
       x="10.921158"
       y="76.646385"
       id="text870"><tspan
         sodipodi:role="line"
         id="tspan868"
         x="10.921158"
         y="76.646385"
         style="font-style:normal;font-variant:normal;font-weight:normal;font-stretch:normal;font-size:4.93889px;font-family:sans-serif;-inkscape-font-specification:sans-serif;fill:#ff0000;stroke-width:0.264583">α=90°</tspan></text>
    <path
       id="path923"
       style="fill:none;fill-opacity:0.497999;stroke:#000000;stroke-width:2.26771657;stroke-linecap:round;stroke-linejoin:round;stroke-miterlimit:4;stroke-dasharray:none"
       d="M 314.41351 314.4141 A 281.25 281.25 0 0 0 314.49219 313.14844 A 281.25 281.25 0 0 0 314.57422 311.74023 A 281.25 281.25 0 0 0 314.64844 310.33203 A 281.25 281.25 0 0 0 314.71484 308.92383 A 281.25 281.25 0 0 0 314.77539 307.51562 A 281.25 281.25 0 0 0 314.82812 306.10547 A 281.25 281.25 0 0 0 314.87305 304.69531 A 281.25 281.25 0 0 0 314.91211 303.28711 A 281.25 281.25 0 0 0 314.94336 301.87695 A 281.25 281.25 0 0 0 314.96875 300.4668 A 281.25 281.25 0 0 0 314.98633 299.05664 A 281.25 281.25 0 0 0 314.99609 297.64648 A 281.25 281.25 0 0 0 315 296.25 A 281.25 281.25 0 0 0 314.99609 294.83984 A 281.25 281.25 0 0 0 314.98633 293.42969 A 281.25 281.25 0 0 0 314.96875 292.01953 A 281.25 281.25 0 0 0 314.94336 290.60938 A 281.25 281.25 0 0 0 314.91211 289.19922 A 281.25 281.25 0 0 0 314.87305 287.78906 A 281.25 281.25 0 0 0 314.82617 286.38086 A 281.25 281.25 0 0 0 314.77344 284.9707 A 281.25 281.25 0 0 0 314.71289 283.5625 A 281.25 281.25 0 0 0 314.64648 282.1543 A 281.25 281.25 0 0 0 314.57227 280.74609 A 281.25 281.25 0 0 0 314.49023 279.33789 A 281.25 281.25 0 0 0 314.40234 277.92969 A 281.25 281.25 0 0 0 314.30664 276.52344 A 281.25 281.25 0 0 0 314.20508 275.11719 A 281.25 281.25 0 0 0 314.0957 273.71094 A 281.25 281.25 0 0 0 313.97852 272.30469 A 281.25 281.25 0 0 0 313.85547 270.90039 A 281.25 281.25 0 0 0 313.72461 269.49609 A 281.25 281.25 0 0 0 313.58789 268.0918 A 281.25 281.25 0 0 0 313.44141 266.68945 A 281.25 281.25 0 0 0 313.29102 265.28711 A 281.25 281.25 0 0 0 313.13086 263.88672 A 281.25 281.25 0 0 0 312.9668 262.48633 A 281.25 281.25 0 0 0 312.79297 261.08594 A 281.25 281.25 0 0 0 312.61328 259.6875 A 281.25 281.25 0 0 0 312.42578 258.29102 A 281.25 281.25 0 0 0 312.23242 256.89258 A 281.25 281.25 0 0 0 312.03125 255.49805 A 281.25 281.25 0 0 0 311.82422 254.10352 A 281.25 281.25 0 0 0 311.60938 252.70898 A 281.25 281.25 0 0 0 311.38672 251.31641 A 281.25 281.25 0 0 0 311.1582 249.92383 A 281.25 281.25 0 0 0 310.92188 248.53516 A 281.25 281.25 0 0 0 310.67969 247.14453 A 281.25 281.25 0 0 0 310.42969 245.75781 A 281.25 281.25 0 0 0 310.17383 244.37109 A 281.25 281.25 0 0 0 309.91016 242.98438 A 281.25 281.25 0 0 0 309.63867 241.60156 A 281.25 281.25 0 0 0 309.36133 240.21875 A 281.25 281.25 0 0 0 309.07812 238.83789 A 281.25 281.25 0 0 0 308.78711 237.45703 A 281.25 281.25 0 0 0 308.48828 236.07812 A 281.25 281.25 0 0 0 308.18359 234.70312 A 281.25 281.25 0 0 0 307.87109 233.32617 A 281.25 281.25 0 0 0 307.55273 231.95312 A 281.25 281.25 0 0 0 307.22656 230.58203 A 281.25 281.25 0 0 0 306.89258 229.21094 A 281.25 281.25 0 0 0 306.55469 227.8418 A 281.25 281.25 0 0 0 306.20703 226.47461 A 281.25 281.25 0 0 0 305.85352 225.10938 A 281.25 281.25 0 0 0 305.49414 223.74609 A 281.25 281.25 0 0 0 305.12695 222.38477 A 281.25 281.25 0 0 0 304.75391 221.02539 A 281.25 281.25 0 0 0 304.37305 219.66602 A 281.25 281.25 0 0 0 303.98438 218.31055 A 281.25 281.25 0 0 0 303.5918 216.95703 A 281.25 281.25 0 0 0 303.18945 215.60547 A 281.25 281.25 0 0 0 302.7832 214.25586 A 281.25 281.25 0 0 0 302.36719 212.90625 A 281.25 281.25 0 0 0 301.94727 211.56055 A 281.25 281.25 0 0 0 301.51758 210.2168 A 281.25 281.25 0 0 0 301.08398 208.87695 A 281.25 281.25 0 0 0 300.64258 207.53711 A 281.25 281.25 0 0 0 300.19336 206.19922 A 281.25 281.25 0 0 0 299.73828 204.86523 A 281.25 281.25 0 0 0 299.27734 203.53125 A 281.25 281.25 0 0 0 298.80859 202.20117 A 281.25 281.25 0 0 0 298.33398 200.875 A 281.25 281.25 0 0 0 297.85352 199.54883 A 281.25 281.25 0 0 0 297.36523 198.22461 A 281.25 281.25 0 0 0 296.86914 196.9043 A 281.25 281.25 0 0 0 296.36914 195.58789 A 281.25 281.25 0 0 0 295.86133 194.27148 A 281.25 281.25 0 0 0 295.3457 192.95898 A 281.25 281.25 0 0 0 294.82422 191.64844 A 281.25 281.25 0 0 0 294.29688 190.33984 A 281.25 281.25 0 0 0 293.76172 189.03516 A 281.25 281.25 0 0 0 293.22266 187.73242 A 281.25 281.25 0 0 0 292.67383 186.43359 A 281.25 281.25 0 0 0 292.12109 185.13672 A 281.25 281.25 0 0 0 291.56055 183.8418 A 281.25 281.25 0 0 0 290.99414 182.55078 A 281.25 281.25 0 0 0 290.41992 181.26172 A 281.25 281.25 0 0 0 289.83984 179.97656 A 281.25 281.25 0 0 0 289.25391 178.69531 A 281.25 281.25 0 0 0 288.66211 177.41406 A 281.25 281.25 0 0 0 288.0625 176.13867 A 281.25 281.25 0 0 0 287.45703 174.86523 A 281.25 281.25 0 0 0 286.8457 173.59375 A 281.25 281.25 0 0 0 286.22656 172.32617 A 281.25 281.25 0 0 0 285.60156 171.0625 A 281.25 281.25 0 0 0 284.9707 169.80078 A 281.25 281.25 0 0 0 284.33398 168.54297 A 281.25 281.25 0 0 0 283.69141 167.28711 A 281.25 281.25 0 0 0 283.04102 166.03711 A 281.25 281.25 0 0 0 282.38477 164.78711 A 281.25 281.25 0 0 0 281.72266 163.54297 A 281.25 281.25 0 0 0 281.05469 162.30078 A 281.25 281.25 0 0 0 280.37891 161.0625 A 281.25 281.25 0 0 0 279.69922 159.82812 A 281.25 281.25 0 0 0 279.01172 158.5957 A 281.25 281.25 0 0 0 278.31836 157.36914 A 281.25 281.25 0 0 0 277.61914 156.14453 A 281.25 281.25 0 0 0 276.91211 154.92188 A 281.25 281.25 0 0 0 276.20117 153.70508 A 281.25 281.25 0 0 0 275.48242 152.49219 A 281.25 281.25 0 0 0 274.75977 151.28125 A 281.25 281.25 0 0 0 274.0293 150.07422 A 281.25 281.25 0 0 0 273.29297 148.87109 A 281.25 281.25 0 0 0 272.55078 147.67188 A 281.25 281.25 0 0 0 271.80273 146.47656 A 281.25 281.25 0 0 0 271.04883 145.28516 A 281.25 281.25 0 0 0 270.28906 144.09766 A 281.25 281.25 0 0 0 269.52344 142.91211 A 281.25 281.25 0 0 0 268.75195 141.73242 A 281.25 281.25 0 0 0 267.97461 140.55664 A 281.25 281.25 0 0 0 267.19141 139.38477 A 281.25 281.25 0 0 0 266.40039 138.21484 A 281.25 281.25 0 0 0 265.60547 137.05078 A 281.25 281.25 0 0 0 264.80469 135.89062 A 281.25 281.25 0 0 0 263.99805 134.73438 A 281.25 281.25 0 0 0 263.18555 133.58203 A 281.25 281.25 0 0 0 262.36719 132.43359 A 281.25 281.25 0 0 0 261.54297 131.28906 A 281.25 281.25 0 0 0 260.71289 130.14844 A 281.25 281.25 0 0 0 259.87695 129.01172 A 281.25 281.25 0 0 0 259.03516 127.88086 A 281.25 281.25 0 0 0 258.1875 126.75391 A 281.25 281.25 0 0 0 257.33594 125.63086 A 281.25 281.25 0 0 0 256.47656 124.51172 A 281.25 281.25 0 0 0 255.61328 123.39648 A 281.25 281.25 0 0 0 254.74414 122.28711 A 281.25 281.25 0 0 0 253.86914 121.17969 A 281.25 281.25 0 0 0 252.98828 120.07812 A 281.25 281.25 0 0 0 252.10156 118.98242 A 281.25 281.25 0 0 0 251.21094 117.88867 A 281.25 281.25 0 0 0 250.3125 116.80078 A 281.25 281.25 0 0 0 249.41016 115.7168 A 281.25 281.25 0 0 0 248.50195 114.63867 A 281.25 281.25 0 0 0 247.58984 113.56445 A 281.25 281.25 0 0 0 246.66992 112.49414 A 281.25 281.25 0 0 0 245.74609 111.42773 A 281.25 281.25 0 0 0 244.81641 110.36719 A 281.25 281.25 0 0 0 243.88281 109.3125 A 281.25 281.25 0 0 0 242.94336 108.25977 A 281.25 281.25 0 0 0 241.99805 107.21484 A 281.25 281.25 0 0 0 241.04688 106.17188 A 281.25 281.25 0 0 0 240.0918 105.13477 A 281.25 281.25 0 0 0 239.13086 104.10352 A 281.25 281.25 0 0 0 238.16406 103.07617 A 281.25 281.25 0 0 0 237.19336 102.05273 A 281.25 281.25 0 0 0 236.2168 101.03516 A 281.25 281.25 0 0 0 235.23633 100.02344 A 281.25 281.25 0 0 0 234.25 99.015624 A 281.25 281.25 0 0 0 233.25781 98.011718 A 281.25 281.25 0 0 0 232.26172 97.013671 A 281.25 281.25 0 0 0 231.25977 96.021483 A 281.25 281.25 0 0 0 230.25391 95.033202 A 281.25 281.25 0 0 0 229.24219 94.05078 A 281.25 281.25 0 0 0 228.22461 93.072265 A 281.25 281.25 0 0 0 227.20508 92.101561 A 281.25 281.25 0 0 0 226.17773 91.132811 A 281.25 281.25 0 0 0 225.14648 90.171874 A 281.25 281.25 0 0 0 224.11133 89.21289 A 281.25 281.25 0 0 0 223.07031 88.261718 A 281.25 281.25 0 0 0 222.02539 87.314452 A 281.25 281.25 0 0 0 220.97656 86.373046 A 281.25 281.25 0 0 0 219.92188 85.437499 A 281.25 281.25 0 0 0 218.86133 84.507811 A 281.25 281.25 0 0 0 217.79883 83.58203 A 281.25 281.25 0 0 0 216.72852 82.662108 A 281.25 281.25 0 0 0 215.65625 81.746093 A 281.25 281.25 0 0 0 214.57812 80.83789 A 281.25 281.25 0 0 0 213.49609 79.933593 A 281.25 281.25 0 0 0 212.4082 79.035155 A 281.25 281.25 0 0 0 211.31836 78.140624 A 281.25 281.25 0 0 0 210.2207 77.253905 A 281.25 281.25 0 0 0 209.12109 76.371093 A 281.25 281.25 0 0 0 208.01562 75.496093 A 281.25 281.25 0 0 0 206.9082 74.624999 A 281.25 281.25 0 0 0 205.79492 73.757811 A 281.25 281.25 0 0 0 204.67578 72.898437 A 281.25 281.25 0 0 0 203.55469 72.044921 A 281.25 281.25 0 0 0 202.42773 71.195311 A 281.25 281.25 0 0 0 201.29688 70.353515 A 281.25 281.25 0 0 0 200.16211 69.515624 A 281.25 281.25 0 0 0 199.02344 68.683593 A 281.25 281.25 0 0 0 197.88086 67.857421 A 281.25 281.25 0 0 0 196.73242 67.039061 A 281.25 281.25 0 0 0 195.58203 66.224608 A 281.25 281.25 0 0 0 194.42578 65.416015 A 281.25 281.25 0 0 0 193.26758 64.61328 A 281.25 281.25 0 0 0 192.10352 63.816405 A 281.25 281.25 0 0 0 190.93555 63.02539 A 281.25 281.25 0 0 0 189.76562 62.240233 A 281.25 281.25 0 0 0 188.58984 61.460937 A 281.25 281.25 0 0 0 187.41016 60.687499 A 281.25 281.25 0 0 0 186.22656 59.919921 A 281.25 281.25 0 0 0 185.04102 59.158202 A 281.25 281.25 0 0 0 183.84961 58.402343 A 281.25 281.25 0 0 0 182.6543 57.652343 A 281.25 281.25 0 0 0 181.45703 56.908202 A 281.25 281.25 0 0 0 180.25586 56.171874 A 281.25 281.25 0 0 0 179.04883 55.439452 A 281.25 281.25 0 0 0 177.83984 54.714843 A 281.25 281.25 0 0 0 176.62695 53.99414 A 281.25 281.25 0 0 0 175.41016 53.281249 A 281.25 281.25 0 0 0 174.19141 52.574218 A 281.25 281.25 0 0 0 172.9668 51.873046 A 281.25 281.25 0 0 0 171.74023 51.177733 A 281.25 281.25 0 0 0 170.50977 50.48828 A 281.25 281.25 0 0 0 169.27539 49.80664 A 281.25 281.25 0 0 0 168.03711 49.130858 A 281.25 281.25 0 0 0 166.79688 48.458983 A 281.25 281.25 0 0 0 165.55273 47.794921 A 281.25 281.25 0 0 0 164.30469 47.138671 A 281.25 281.25 0 0 0 163.05469 46.486327 A 281.25 281.25 0 0 0 161.80078 45.841796 A 281.25 281.25 0 0 0 160.54297 45.203124 A 281.25 281.25 0 0 0 159.2832 44.570311 A 281.25 281.25 0 0 0 158.01953 43.943358 A 281.25 281.25 0 0 0 156.75391 43.324218 A 281.25 281.25 0 0 0 155.48242 42.710937 A 281.25 281.25 0 0 0 154.21094 42.103515 A 281.25 281.25 0 0 0 152.93555 41.501952 A 281.25 281.25 0 0 0 151.65625 40.908202 A 281.25 281.25 0 0 0 150.375 40.320311 A 281.25 281.25 0 0 0 149.08984 39.73828 A 281.25 281.25 0 0 0 147.80078 39.162109 A 281.25 281.25 0 0 0 146.51172 38.59375 A 281.25 281.25 0 0 0 145.21875 38.03125 A 281.25 281.25 0 0 0 143.92188 37.476562 A 281.25 281.25 0 0 0 142.62305 36.927734 A 281.25 281.25 0 0 0 141.32031 36.384766 A 281.25 281.25 0 0 0 140.01758 35.847656 A 281.25 281.25 0 0 0 138.70898 35.318359 A 281.25 281.25 0 0 0 137.40039 34.796875 A 281.25 281.25 0 0 0 136.08789 34.279297 A 281.25 281.25 0 0 0 134.77344 33.769531 A 281.25 281.25 0 0 0 133.45508 33.265625 A 281.25 281.25 0 0 0 132.13672 32.769531 A 281.25 281.25 0 0 0 130.81445 32.279297 A 281.25 281.25 0 0 0 129.48828 31.796875 A 281.25 281.25 0 0 0 128.16211 31.320312 A 281.25 281.25 0 0 0 126.83203 30.849609 A 281.25 281.25 0 0 0 125.5 30.386719 A 281.25 281.25 0 0 0 124.16602 29.929688 A 281.25 281.25 0 0 0 122.83008 29.480469 A 281.25 281.25 0 0 0 121.49023 29.037109 A 281.25 281.25 0 0 0 120.15039 28.599609 A 281.25 281.25 0 0 0 118.80664 28.169922 A 281.25 281.25 0 0 0 117.46094 27.746094 A 281.25 281.25 0 0 0 116.11328 27.330078 A 281.25 281.25 0 0 0 114.76367 26.919922 A 281.25 281.25 0 0 0 113.41211 26.517578 A 281.25 281.25 0 0 0 112.05859 26.121094 A 281.25 281.25 0 0 0 110.70312 25.732422 A 281.25 281.25 0 0 0 109.34766 25.349609 A 281.25 281.25 0 0 0 107.98828 24.974609 A 281.25 281.25 0 0 0 106.62695 24.605469 A 281.25 281.25 0 0 0 105.26367 24.244141 A 281.25 281.25 0 0 0 103.89844 23.888672 A 281.25 281.25 0 0 0 102.53125 23.541016 A 281.25 281.25 0 0 0 101.16406 23.199219 A 281.25 281.25 0 0 0 99.792968 22.863281 A 281.25 281.25 0 0 0 98.421874 22.537109 A 281.25 281.25 0 0 0 97.048827 22.214844 A 281.25 281.25 0 0 0 95.673827 21.902344 A 281.25 281.25 0 0 0 94.296874 21.59375 A 281.25 281.25 0 0 0 92.919921 21.294922 A 281.25 281.25 0 0 0 91.541015 21.001953 A 281.25 281.25 0 0 0 90.160155 20.714844 A 281.25 281.25 0 0 0 88.777343 20.435547 A 281.25 281.25 0 0 0 87.39453 20.164062 A 281.25 281.25 0 0 0 86.007811 19.898438 A 281.25 281.25 0 0 0 84.623046 19.638672 A 281.25 281.25 0 0 0 83.234374 19.386719 A 281.25 281.25 0 0 0 81.845702 19.142578 A 281.25 281.25 0 0 0 80.455077 18.904297 A 281.25 281.25 0 0 0 79.064452 18.673828 A 281.25 281.25 0 0 0 77.671874 18.451172 A 281.25 281.25 0 0 0 76.279296 18.234375 A 281.25 281.25 0 0 0 74.884765 18.023438 A 281.25 281.25 0 0 0 73.48828 17.822266 A 281.25 281.25 0 0 0 72.091796 17.625 A 281.25 281.25 0 0 0 70.695311 17.4375 A 281.25 281.25 0 0 0 69.296874 17.255859 A 281.25 281.25 0 0 0 67.896483 17.080078 A 281.25 281.25 0 0 0 66.496093 16.912109 A 281.25 281.25 0 0 0 65.095702 16.751953 A 281.25 281.25 0 0 0 63.693358 16.597656 A 281.25 281.25 0 0 0 62.291015 16.451172 A 281.25 281.25 0 0 0 60.886718 16.3125 A 281.25 281.25 0 0 0 59.484374 16.179688 A 281.25 281.25 0 0 0 58.078124 16.054688 A 281.25 281.25 0 0 0 56.673827 15.935547 A 281.25 281.25 0 0 0 55.267577 15.824219 A 281.25 281.25 0 0 0 53.861327 15.720703 A 281.25 281.25 0 0 0 52.455077 15.623047 A 281.25 281.25 0 0 0 51.046874 15.533203 A 281.25 281.25 0 0 0 49.640624 15.449219 A 281.25 281.25 0 0 0 48.232421 15.373047 A 281.25 281.25 0 0 0 46.822265 15.304688 A 281.25 281.25 0 0 0 45.414061 15.242188 A 281.25 281.25 0 0 0 44.005858 15.1875 A 281.25 281.25 0 0 0 42.595702 15.138672 A 281.25 281.25 0 0 0 41.185546 15.097656 A 281.25 281.25 0 0 0 39.77539 15.064453 A 281.25 281.25 0 0 0 38.365234 15.037109 A 281.25 281.25 0 0 0 36.957031 15.017578 A 281.25 281.25 0 0 0 35.544922 15.005859 A 281.25 281.25 0 0 0 34.134766 15 L 33.365234 15 A 281.25 281.25 0 0 0 31.955078 15.005859 A 281.25 281.25 0 0 0 30.544922 15.017578 A 281.25 281.25 0 0 0 29.134766 15.037109 A 281.25 281.25 0 0 0 27.724609 15.064453 A 281.25 281.25 0 0 0 26.314453 15.097656 A 281.25 281.25 0 0 0 24.90625 15.138672 A 281.25 281.25 0 0 0 23.496094 15.1875 A 281.25 281.25 0 0 0 22.085938 15.242188 A 281.25 281.25 0 0 0 20.677734 15.304688 A 281.25 281.25 0 0 0 19.269531 15.373047 A 281.25 281.25 0 0 0 17.861328 15.449219 A 281.25 281.25 0 0 0 16.453125 15.533203 A 281.25 281.25 0 0 0 15.587891 15.587891 L 15.587891 15.587891 A 281.25 281.25 0 0 0 15.587891 15.587891 "
       transform="scale(0.26458333)" />
    <g
       aria-label="y"
       id="text974"
       style="font-style:normal;font-variant:normal;font-weight:normal;font-stretch:normal;font-size:5.1944px;line-height:1.25;font-family:sans-serif;-inkscape-font-specification:sans-serif;stroke-width:0.264583"
       transform="translate(-82.624066,-80.238335)">
      <path
         d="m 86.064636,83.342803 q -0.197833,0.507266 -0.385522,0.661982 -0.187688,0.154716 -0.502193,0.154716 h -0.37284 v -0.390595 h 0.273924 q 0.192761,0 0.299286,-0.09131 0.106526,-0.09131 0.235879,-0.431176 l 0.0837,-0.213052 -1.148957,-2.795033 h 0.494584 l 0.887715,2.221823 0.887715,-2.221823 h 0.494584 z"
         style="font-style:normal;font-variant:normal;font-weight:normal;font-stretch:normal;font-family:sans-serif;-inkscape-font-specification:sans-serif;stroke-width:0.264583"
         id="path927" />
    </g>
    <g
       aria-label="x"
       id="text978"
       style="font-style:normal;font-variant:normal;font-weight:normal;font-stretch:normal;font-size:5.1944px;line-height:1.25;font-family:sans-serif;-inkscape-font-specification:sans-serif;stroke-width:0.264583"
       transform="translate(73.772835,80.362964)">
      <path
         d="M 13.486402,0.56747352 12.459189,1.9497723 13.539665,3.4081609 H 12.989282 L 12.162439,2.2921766 11.335596,3.4081609 H 10.785213 L 11.888516,1.9218727 10.879057,0.56747352 h 0.550383 l 0.75329,1.01199488 0.753289,-1.01199488 z"
         style="font-style:normal;font-variant:normal;font-weight:normal;font-stretch:normal;font-family:sans-serif;-inkscape-font-specification:sans-serif;stroke-width:0.264583"
         id="path930" />
    </g>
    <text
       xml:space="preserve"
       style="font-style:normal;font-variant:normal;font-weight:normal;font-stretch:normal;font-size:4.93889px;line-height:1.25;font-family:sans-serif;-inkscape-font-specification:sans-serif;fill:#00ff00;fill-opacity:1;stroke-width:0.264583"
       x="10.947911"
       y="70.903961"
       id="text878"><tspan
         sodipodi:role="line"
         id="tspan876"
         x="10.947911"
         y="70.903961"
         style="font-style:normal;font-variant:normal;font-weight:normal;font-stretch:normal;font-size:4.93889px;font-family:sans-serif;-inkscape-font-specification:sans-serif;fill:#00ff00;fill-opacity:1;stroke-width:0.264583">cos(α)=0</tspan></text>
    <text
       xml:space="preserve"
       style="font-style:normal;font-variant:normal;font-weight:normal;font-stretch:normal;font-size:4.93889px;line-height:1.25;font-family:sans-serif;-inkscape-font-specification:sans-serif;fill:#0000ff;fill-opacity:1;stroke-width:0.264583"
       x="10.952734"
       y="42.878922"
       id="text883"><tspan
         sodipodi:role="line"
         id="tspan881"
         x="10.952734"
         y="42.878922"
         style="font-style:normal;font-variant:normal;font-weight:normal;font-stretch:normal;font-size:4.93889px;font-family:sans-serif;-inkscape-font-specification:sans-serif;fill:#0000ff;fill-opacity:1;stroke-width:0.264583">sin(α)=1</tspan></text>
    <path
       style="fill:none;stroke:#000000;stroke-width:0.7;stroke-linecap:butt;stroke-linejoin:miter;stroke-miterlimit:4;stroke-dasharray:none;stroke-opacity:1"
       d="M 8.7239176,3.9687473 V 78.38281"
       id="path866" />
    <path
       style="fill:#0000ff;fill-opacity:0.592157;stroke:#0000ff;stroke-width:0.6;stroke-linecap:butt;stroke-linejoin:miter;stroke-miterlimit:4;stroke-dasharray:none;stroke-opacity:1"
       d="M 9.1239176,3.9687473 V 78.38281"
       id="path864" />
    <text
       xml:space="preserve"
       style="font-size:10.5833px;line-height:1.25;font-family:Ubuntu;-inkscape-font-specification:Ubuntu;stroke-width:0.264583"
       x="44.018318"
       y="56.626453"
       id="text882"><tspan
         sodipodi:role="line"
         id="tspan880"
         x="44.018318"
         y="56.626453"
         style="stroke-width:0.264583" /></text>
    <text
       xml:space="preserve"
       id="text858"
       style="fill:black;fill-opacity:1;line-height:1.25;stroke:none;font-family:sans-serif;font-style:normal;font-weight:normal;font-size:10.58333333px;white-space:pre;shape-inside:url(#rect860);" />
  </g>
</svg>
