<?xml version="1.0" encoding="UTF-8" standalone="no"?>
<svg
   xmlns:dc="http://purl.org/dc/elements/1.1/"
   xmlns:cc="http://creativecommons.org/ns#"
   xmlns:rdf="http://www.w3.org/1999/02/22-rdf-syntax-ns#"
   xmlns:svg="http://www.w3.org/2000/svg"
   xmlns="http://www.w3.org/2000/svg"
   xmlns:sodipodi="http://sodipodi.sourceforge.net/DTD/sodipodi-0.dtd"
   xmlns:inkscape="http://www.inkscape.org/namespaces/inkscape"
   width="335"
   height="335"
   viewBox="0 0 88.635415 88.635419"
   version="1.1"
   id="svg8"
   inkscape:version="1.0.1 (3bc2e813f5, 2020-09-07)"
   sodipodi:docname="sin_cos_einheitskreis.svg">
  <defs
     id="defs2" />
  <sodipodi:namedview
     id="base"
     pagecolor="#ffffff"
     bordercolor="#666666"
     borderopacity="1.0"
     inkscape:pageopacity="0.0"
     inkscape:pageshadow="2"
     inkscape:zoom="2.8284271"
     inkscape:cx="57.427613"
     inkscape:cy="248.42465"
     inkscape:document-units="mm"
     inkscape:current-layer="g907"
     inkscape:document-rotation="0"
     showgrid="true"
     units="px"
     showguides="true"
     inkscape:guide-bbox="true"
     inkscape:snap-page="true"
     inkscape:snap-bbox="true"
     inkscape:bbox-nodes="true"
     inkscape:window-width="1920"
     inkscape:window-height="1043"
     inkscape:window-x="1920"
     inkscape:window-y="0"
     inkscape:window-maximized="1"
     inkscape:snap-bbox-midpoints="true"
     inkscape:snap-bbox-edge-midpoints="true"
     inkscape:object-paths="true"
     inkscape:bbox-paths="true"
     inkscape:snap-intersection-paths="true" />
  <metadata
     id="metadata5">
    <rdf:RDF>
      <cc:Work
         rdf:about="">
        <dc:format>image/svg+xml</dc:format>
        <dc:type
           rdf:resource="http://purl.org/dc/dcmitype/StillImage" />
        <dc:title />
      </cc:Work>
    </rdf:RDF>
  </metadata>
  <g
     inkscape:label="Ebene 1"
     inkscape:groupmode="layer"
     id="layer1">
    <g
       id="g1077"
       transform="translate(14.641736,24.195965)">
      <text
         xml:space="preserve"
         style="font-size:10.5833px;line-height:1.25;font-family:Ubuntu;-inkscape-font-specification:Ubuntu;stroke-width:0.043847"
         x="136.04904"
         y="268.59763"
         id="text1028"><tspan
           sodipodi:role="line"
           id="tspan1026"
           x="136.04904"
           y="268.59763"
           style="stroke-width:0.043847" /></text>
      <text
         xml:space="preserve"
         style="font-size:10.5833px;line-height:1.25;font-family:Ubuntu;-inkscape-font-specification:Ubuntu;stroke-width:0.264583"
         x="169.57494"
         y="275.71509"
         id="text1046"><tspan
           sodipodi:role="line"
           id="tspan1044"
           x="169.57494"
           y="275.71509"
           style="stroke-width:0.264583" /></text>
      <text
         xml:space="preserve"
         style="font-style:normal;font-variant:normal;font-weight:normal;font-stretch:normal;font-size:6.35px;line-height:1.25;font-family:sans-serif;-inkscape-font-specification:sans-serif;stroke-width:0.043847"
         x="39.275169"
         y="297.49222"
         id="text1140"><tspan
           sodipodi:role="line"
           id="tspan1138"
           x="39.275169"
           y="297.49222"
           style="font-style:normal;font-variant:normal;font-weight:normal;font-stretch:normal;font-size:6.35px;font-family:sans-serif;-inkscape-font-specification:sans-serif;stroke-width:0.043847" /></text>
    </g>
    <text
       xml:space="preserve"
       style="font-style:normal;font-weight:normal;font-size:10.5833px;line-height:1.25;font-family:sans-serif;fill:#000000;fill-opacity:1;stroke:none;stroke-width:0.264583"
       x="78.785507"
       y="85.732056"
       id="text869"><tspan
         sodipodi:role="line"
         id="tspan867"
         x="78.785507"
         y="85.732056"
         style="stroke-width:0.264583" /></text>
    <g
       id="g907"
       transform="translate(0,1.2994427)">
      <rect
         style="fill:none;fill-opacity:0.497999;stroke:none;stroke-width:0.5115;stroke-linecap:round;stroke-linejoin:round"
         id="rect865"
         width="87.3125"
         height="87.3125"
         x="0"
         y="0" />
      <rect
         style="fill:none;fill-opacity:0.497999;stroke:none;stroke-width:0.465;stroke-linecap:round;stroke-linejoin:round"
         id="rect835"
         width="79.375"
         height="79.375"
         x="3.96875"
         y="3.96875" />
      <path
         style="fill:none;stroke:#000000;stroke-width:0.6;stroke-linecap:round;stroke-linejoin:round;stroke-miterlimit:4;stroke-dasharray:none;stroke-opacity:1"
         d="M 8.9296877,83.66313 V 0.31938054"
         id="path843" />
      <path
         style="fill:none;stroke:#000000;stroke-width:0.6;stroke-linecap:round;stroke-linejoin:round;stroke-miterlimit:4;stroke-dasharray:none;stroke-opacity:1"
         d="M 3.6493726,78.382817 H 86.99313"
         id="path845" />
      <g
         id="g869"
         style="stroke-width:0.3;stroke-miterlimit:4;stroke-dasharray:none"
         transform="translate(1.0323672e-7,0.16937413)">
        <rect
           style="fill:#000000;fill-opacity:1;stroke:#000000;stroke-width:0.3;stroke-linecap:round;stroke-linejoin:round;stroke-miterlimit:4;stroke-dasharray:none"
           id="rect873"
           width="0.26458332"
           height="2.5466146"
           x="6.2754955"
           y="-6.2754951"
           transform="rotate(45)" />
        <rect
           style="fill:#000000;fill-opacity:1;stroke:#000000;stroke-width:0.3;stroke-linecap:round;stroke-linejoin:round;stroke-miterlimit:4;stroke-dasharray:none"
           id="rect875"
           width="0.26458332"
           height="2.5466146"
           x="6.0884066"
           y="6.3529902"
           transform="rotate(-45)" />
      </g>
      <g
         id="g865"
         style="stroke:#000000;stroke-width:0.3;stroke-miterlimit:4;stroke-dasharray:none"
         transform="translate(-0.16937584)">
        <rect
           style="fill:#000000;fill-opacity:1;stroke:#000000;stroke-width:0.3;stroke-linecap:round;stroke-linejoin:round;stroke-miterlimit:4;stroke-dasharray:none"
           id="rect877"
           width="0.26458332"
           height="2.5466146"
           x="-6.3529935"
           y="-117.12552"
           transform="rotate(135)" />
        <rect
           style="fill:#000000;fill-opacity:1;stroke:#000000;stroke-width:0.3;stroke-linecap:round;stroke-linejoin:round;stroke-miterlimit:4;stroke-dasharray:none"
           id="rect879"
           width="0.26458332"
           height="2.5466146"
           x="116.93845"
           y="-6.2755017"
           transform="rotate(45)" />
      </g>
      <path
         id="rect911"
         style="fill:#cccccc;fill-opacity:0.497999;stroke:none;stroke-width:2.26772;stroke-linecap:round;stroke-linejoin:round;stroke-miterlimit:4;stroke-dasharray:none"
         d="m 315,296.25 a 281.25,281.25 0 0 1 -0.004,1.39648 281.25,281.25 0 0 1 -0.01,1.41016 281.25,281.25 0 0 1 -0.0176,1.41016 281.25,281.25 0 0 1 -0.0254,1.41015 281.25,281.25 0 0 1 -0.0312,1.41016 281.25,281.25 0 0 1 -0.0391,1.4082 281.25,281.25 0 0 1 -0.0449,1.41016 281.25,281.25 0 0 1 -0.0527,1.41015 281.25,281.25 0 0 1 -0.0606,1.40821 281.25,281.25 0 0 1 -0.0664,1.4082 281.25,281.25 0 0 1 -0.0742,1.4082 281.25,281.25 0 0 1 -0.082,1.40821 281.25,281.25 0 0 1 -0.0879,1.4082 A 281.25,281.25 0 0 1 314.375,315 H 315 Z"
         transform="scale(0.26458333)" />
      <path
         id="path923"
         style="fill:none;fill-opacity:0.497999;stroke:#000000;stroke-width:2.26772;stroke-linecap:round;stroke-linejoin:round;stroke-miterlimit:4;stroke-dasharray:none"
         d="m 314.41351,314.4141 a 281.25,281.25 0 0 0 0.0787,-1.26566 281.25,281.25 0 0 0 0.082,-1.40821 281.25,281.25 0 0 0 0.0742,-1.4082 281.25,281.25 0 0 0 0.0664,-1.4082 281.25,281.25 0 0 0 0.0606,-1.40821 281.25,281.25 0 0 0 0.0527,-1.41015 281.25,281.25 0 0 0 0.0449,-1.41016 281.25,281.25 0 0 0 0.0391,-1.4082 281.25,281.25 0 0 0 0.0312,-1.41016 281.25,281.25 0 0 0 0.0254,-1.41015 281.25,281.25 0 0 0 0.0176,-1.41016 281.25,281.25 0 0 0 0.01,-1.41016 281.25,281.25 0 0 0 0.004,-1.39648 281.25,281.25 0 0 0 -0.004,-1.41016 281.25,281.25 0 0 0 -0.01,-1.41015 281.25,281.25 0 0 0 -0.0176,-1.41016 281.25,281.25 0 0 0 -0.0254,-1.41015 281.25,281.25 0 0 0 -0.0312,-1.41016 281.25,281.25 0 0 0 -0.0391,-1.41016 281.25,281.25 0 0 0 -0.0469,-1.4082 281.25,281.25 0 0 0 -0.0527,-1.41016 281.25,281.25 0 0 0 -0.0605,-1.4082 281.25,281.25 0 0 0 -0.0664,-1.4082 281.25,281.25 0 0 0 -0.0742,-1.40821 281.25,281.25 0 0 0 -0.082,-1.4082 281.25,281.25 0 0 0 -0.0879,-1.4082 281.25,281.25 0 0 0 -0.0957,-1.40625 281.25,281.25 0 0 0 -0.10156,-1.40625 281.25,281.25 0 0 0 -0.10938,-1.40625 281.25,281.25 0 0 0 -0.11718,-1.40625 281.25,281.25 0 0 0 -0.12305,-1.4043 281.25,281.25 0 0 0 -0.13086,-1.4043 281.25,281.25 0 0 0 -0.13672,-1.40429 281.25,281.25 0 0 0 -0.14648,-1.40235 281.25,281.25 0 0 0 -0.15039,-1.40234 281.25,281.25 0 0 0 -0.16016,-1.40039 281.25,281.25 0 0 0 -0.16406,-1.40039 281.25,281.25 0 0 0 -0.17383,-1.40039 281.25,281.25 0 0 0 -0.17969,-1.39844 281.25,281.25 0 0 0 -0.1875,-1.39648 281.25,281.25 0 0 0 -0.19336,-1.39844 281.25,281.25 0 0 0 -0.20117,-1.39453 281.25,281.25 0 0 0 -0.20703,-1.39453 281.25,281.25 0 0 0 -0.21484,-1.39454 281.25,281.25 0 0 0 -0.22266,-1.39257 281.25,281.25 0 0 0 -0.22852,-1.39258 281.25,281.25 0 0 0 -0.23632,-1.38867 281.25,281.25 0 0 0 -0.24219,-1.39063 281.25,281.25 0 0 0 -0.25,-1.38672 281.25,281.25 0 0 0 -0.25586,-1.38672 281.25,281.25 0 0 0 -0.26367,-1.38671 281.25,281.25 0 0 0 -0.27149,-1.38282 281.25,281.25 0 0 0 -0.27734,-1.38281 281.25,281.25 0 0 0 -0.28321,-1.38086 281.25,281.25 0 0 0 -0.29101,-1.38086 281.25,281.25 0 0 0 -0.29883,-1.37891 281.25,281.25 0 0 0 -0.30469,-1.375 281.25,281.25 0 0 0 -0.3125,-1.37695 281.25,281.25 0 0 0 -0.31836,-1.37305 281.25,281.25 0 0 0 -0.32617,-1.37109 281.25,281.25 0 0 0 -0.33398,-1.37109 281.25,281.25 0 0 0 -0.33789,-1.36914 281.25,281.25 0 0 0 -0.34766,-1.36719 281.25,281.25 0 0 0 -0.35351,-1.36523 281.25,281.25 0 0 0 -0.35938,-1.36329 281.25,281.25 0 0 0 -0.36719,-1.36132 281.25,281.25 0 0 0 -0.37304,-1.35938 281.25,281.25 0 0 0 -0.38086,-1.35937 281.25,281.25 0 0 0 -0.38867,-1.35547 281.25,281.25 0 0 0 -0.39258,-1.35352 281.25,281.25 0 0 0 -0.40235,-1.35156 281.25,281.25 0 0 0 -0.40625,-1.34961 281.25,281.25 0 0 0 -0.41601,-1.34961 281.25,281.25 0 0 0 -0.41992,-1.3457 281.25,281.25 0 0 0 -0.42969,-1.34375 281.25,281.25 0 0 0 -0.4336,-1.33985 281.25,281.25 0 0 0 -0.4414,-1.33984 281.25,281.25 0 0 0 -0.44922,-1.33789 281.25,281.25 0 0 0 -0.45508,-1.33399 281.25,281.25 0 0 0 -0.46094,-1.33398 281.25,281.25 0 0 0 -0.46875,-1.33008 281.25,281.25 0 0 0 -0.47461,-1.32617 281.25,281.25 0 0 0 -0.48046,-1.32617 281.25,281.25 0 0 0 -0.48829,-1.32422 281.25,281.25 0 0 0 -0.49609,-1.32031 281.25,281.25 0 0 0 -0.5,-1.31641 281.25,281.25 0 0 0 -0.50781,-1.31641 281.25,281.25 0 0 0 -0.51563,-1.3125 281.25,281.25 0 0 0 -0.52148,-1.31054 281.25,281.25 0 0 0 -0.52734,-1.3086 281.25,281.25 0 0 0 -0.53516,-1.30468 281.25,281.25 0 0 0 -0.53906,-1.30274 281.25,281.25 0 0 0 -0.54883,-1.29883 281.25,281.25 0 0 0 -0.55274,-1.29687 281.25,281.25 0 0 0 -0.56054,-1.29492 281.25,281.25 0 0 0 -0.56641,-1.29102 281.25,281.25 0 0 0 -0.57422,-1.28906 281.25,281.25 0 0 0 -0.58008,-1.28516 281.25,281.25 0 0 0 -0.58593,-1.28125 281.25,281.25 0 0 0 -0.5918,-1.28125 281.25,281.25 0 0 0 -0.59961,-1.27539 281.25,281.25 0 0 0 -0.60547,-1.27344 281.25,281.25 0 0 0 -0.61133,-1.27148 281.25,281.25 0 0 0 -0.61914,-1.26758 281.25,281.25 0 0 0 -0.625,-1.26367 281.25,281.25 0 0 0 -0.63086,-1.26172 281.25,281.25 0 0 0 -0.63672,-1.25781 281.25,281.25 0 0 0 -0.64257,-1.25586 281.25,281.25 0 0 0 -0.65039,-1.25 281.25,281.25 0 0 0 -0.65625,-1.25 281.25,281.25 0 0 0 -0.66211,-1.24414 281.25,281.25 0 0 0 -0.66797,-1.24219 281.25,281.25 0 0 0 -0.67578,-1.23828 281.25,281.25 0 0 0 -0.67969,-1.23438 281.25,281.25 0 0 0 -0.6875,-1.23242 281.25,281.25 0 0 0 -0.69336,-1.22656 281.25,281.25 0 0 0 -0.69922,-1.22461 281.25,281.25 0 0 0 -0.70703,-1.22265 281.25,281.25 0 0 0 -0.71094,-1.2168 281.25,281.25 0 0 0 -0.71875,-1.21289 281.25,281.25 0 0 0 -0.72265,-1.21094 281.25,281.25 0 0 0 -0.73047,-1.20703 281.25,281.25 0 0 0 -0.73633,-1.20313 281.25,281.25 0 0 0 -0.74219,-1.19921 281.25,281.25 0 0 0 -0.74805,-1.19532 281.25,281.25 0 0 0 -0.7539,-1.1914 281.25,281.25 0 0 0 -0.75977,-1.1875 281.25,281.25 0 0 0 -0.76562,-1.18555 281.25,281.25 0 0 0 -0.77149,-1.17969 281.25,281.25 0 0 0 -0.77734,-1.17578 281.25,281.25 0 0 0 -0.7832,-1.17187 281.25,281.25 0 0 0 -0.79102,-1.16993 281.25,281.25 0 0 0 -0.79492,-1.16406 281.25,281.25 0 0 0 -0.80078,-1.16016 281.25,281.25 0 0 0 -0.80664,-1.15624 281.25,281.25 0 0 0 -0.8125,-1.15235 281.25,281.25 0 0 0 -0.81836,-1.14844 281.25,281.25 0 0 0 -0.82422,-1.14453 281.25,281.25 0 0 0 -0.83008,-1.14062 281.25,281.25 0 0 0 -0.83594,-1.13672 281.25,281.25 0 0 0 -0.84179,-1.13086 281.25,281.25 0 0 0 -0.84766,-1.12695 281.25,281.25 0 0 0 -0.85156,-1.12305 281.25,281.25 0 0 0 -0.85938,-1.11914 281.25,281.25 0 0 0 -0.86328,-1.11524 281.25,281.25 0 0 0 -0.86914,-1.10937 281.25,281.25 0 0 0 -0.875,-1.10742 281.25,281.25 0 0 0 -0.88086,-1.10157 281.25,281.25 0 0 0 -0.88672,-1.0957 281.25,281.25 0 0 0 -0.89062,-1.09375 281.25,281.25 0 0 0 -0.89844,-1.08789 281.25,281.25 0 0 0 -0.90234,-1.08398 281.25,281.25 0 0 0 -0.90821,-1.07813 281.25,281.25 0 0 0 -0.91211,-1.07422 281.25,281.25 0 0 0 -0.91992,-1.07031 281.25,281.25 0 0 0 -0.92383,-1.06641 281.25,281.25 0 0 0 -0.92968,-1.06054 281.25,281.25 0 0 0 -0.9336,-1.05469 281.25,281.25 0 0 0 -0.93945,-1.05273 281.25,281.25 0 0 0 -0.94531,-1.04493 281.25,281.25 0 0 0 -0.95117,-1.04296 281.25,281.25 0 0 0 -0.95508,-1.03711 281.25,281.25 0 0 0 -0.96094,-1.03125 281.25,281.25 0 0 0 -0.9668,-1.02735 281.25,281.25 0 0 0 -0.9707,-1.02344 281.25,281.25 0 0 0 -0.97656,-1.01757 281.25,281.25 0 0 0 -0.98047,-1.01172 281.25,281.25 0 0 0 -0.98633,-1.007816 281.25,281.25 0 0 0 -0.99219,-1.003906 281.25,281.25 0 0 0 -0.99609,-0.998047 281.25,281.25 0 0 0 -1.00195,-0.992188 281.25,281.25 0 0 0 -1.00586,-0.988281 281.25,281.25 0 0 0 -1.01172,-0.982422 281.25,281.25 0 0 0 -1.01758,-0.978515 281.25,281.25 0 0 0 -1.01953,-0.970704 281.25,281.25 0 0 0 -1.02735,-0.96875 281.25,281.25 0 0 0 -1.03125,-0.960937 281.25,281.25 0 0 0 -1.03515,-0.958984 281.25,281.25 0 0 0 -1.04102,-0.951172 281.25,281.25 0 0 0 -1.04492,-0.947266 281.25,281.25 0 0 0 -1.04883,-0.941406 281.25,281.25 0 0 0 -1.05468,-0.935547 281.25,281.25 0 0 0 -1.06055,-0.929688 281.25,281.25 0 0 0 -1.0625,-0.925781 281.25,281.25 0 0 0 -1.07031,-0.919922 281.25,281.25 0 0 0 -1.07227,-0.916015 281.25,281.25 0 0 0 -1.07813,-0.908203 281.25,281.25 0 0 0 -1.08203,-0.904297 281.25,281.25 0 0 0 -1.08789,-0.898438 281.25,281.25 0 0 0 -1.08984,-0.894531 281.25,281.25 0 0 0 -1.09766,-0.886719 281.25,281.25 0 0 0 -1.09961,-0.882812 281.25,281.25 0 0 0 -1.10547,-0.875 281.25,281.25 0 0 0 -1.10742,-0.871094 281.25,281.25 0 0 0 -1.11328,-0.867188 281.25,281.25 0 0 0 -1.11914,-0.859374 281.25,281.25 0 0 0 -1.12109,-0.853516 281.25,281.25 0 0 0 -1.12696,-0.84961 281.25,281.25 0 0 0 -1.13085,-0.841796 281.25,281.25 0 0 0 -1.13477,-0.837891 281.25,281.25 0 0 0 -1.13867,-0.832031 281.25,281.25 0 0 0 -1.14258,-0.826172 281.25,281.25 0 0 0 -1.14844,-0.81836 281.25,281.25 0 0 0 -1.15039,-0.814453 281.25,281.25 0 0 0 -1.15625,-0.808593 281.25,281.25 0 0 0 -1.1582,-0.802735 281.25,281.25 0 0 0 -1.16406,-0.796875 281.25,281.25 0 0 0 -1.16797,-0.791015 281.25,281.25 0 0 0 -1.16993,-0.785157 281.25,281.25 0 0 0 -1.17578,-0.779296 281.25,281.25 0 0 0 -1.17968,-0.773438 281.25,281.25 0 0 0 -1.1836,-0.767578 281.25,281.25 0 0 0 -1.18554,-0.761719 281.25,281.25 0 0 0 -1.19141,-0.755859 281.25,281.25 0 0 0 -1.19531,-0.75 281.25,281.25 0 0 0 -1.19727,-0.744141 281.25,281.25 0 0 0 -1.20117,-0.736328 281.25,281.25 0 0 0 -1.20703,-0.732422 281.25,281.25 0 0 0 -1.20899,-0.724609 281.25,281.25 0 0 0 -1.21289,-0.720703 281.25,281.25 0 0 0 -1.21679,-0.712891 281.25,281.25 0 0 0 -1.21875,-0.707031 281.25,281.25 0 0 0 -1.22461,-0.701172 281.25,281.25 0 0 0 -1.22657,-0.695313 281.25,281.25 0 0 0 -1.23046,-0.689453 281.25,281.25 0 0 0 -1.23438,-0.68164 281.25,281.25 0 0 0 -1.23828,-0.675782 281.25,281.25 0 0 0 -1.24023,-0.671875 281.25,281.25 0 0 0 -1.24415,-0.664062 281.25,281.25 0 0 0 -1.24804,-0.65625 281.25,281.25 0 0 0 -1.25,-0.652344 281.25,281.25 0 0 0 -1.25391,-0.644531 281.25,281.25 0 0 0 -1.25781,-0.638672 281.25,281.25 0 0 0 -1.25977,-0.632813 281.25,281.25 0 0 0 -1.26367,-0.626953 281.25,281.25 0 0 0 -1.26562,-0.61914 281.25,281.25 0 0 0 -1.27149,-0.613281 281.25,281.25 0 0 0 -1.27148,-0.607422 281.25,281.25 0 0 0 -1.27539,-0.601563 281.25,281.25 0 0 0 -1.2793,-0.59375 281.25,281.25 0 0 0 -1.28125,-0.587891 281.25,281.25 0 0 0 -1.28516,-0.582031 281.25,281.25 0 0 0 -1.28906,-0.576171 281.25,281.25 0 0 0 -1.28906,-0.568359 281.25,281.25 0 0 0 -1.29297,-0.5625 281.25,281.25 0 0 0 -1.29687,-0.554688 281.25,281.25 0 0 0 -1.29883,-0.548828 281.25,281.25 0 0 0 -1.30274,-0.542968 281.25,281.25 0 0 0 -1.30273,-0.53711 281.25,281.25 0 0 0 -1.3086,-0.529297 281.25,281.25 0 0 0 -1.30859,-0.521484 281.25,281.25 0 0 0 -1.3125,-0.517578 281.25,281.25 0 0 0 -1.31445,-0.509766 281.25,281.25 0 0 0 -1.31836,-0.503906 281.25,281.25 0 0 0 -1.31836,-0.496094 281.25,281.25 0 0 0 -1.32227,-0.490234 281.25,281.25 0 0 0 -1.32617,-0.482422 281.25,281.25 0 0 0 -1.32617,-0.476563 281.25,281.25 0 0 0 -1.33008,-0.470703 281.25,281.25 0 0 0 -1.33203,-0.46289 281.25,281.25 0 0 0 -1.33398,-0.457031 281.25,281.25 0 0 0 -1.33594,-0.449219 281.25,281.25 0 0 0 -1.33985,-0.44336 281.25,281.25 0 0 0 -1.33984,-0.4375 281.25,281.25 0 0 0 -1.34375,-0.429687 281.25,281.25 0 0 0 -1.3457,-0.423828 281.25,281.25 0 0 0 -1.34766,-0.416016 281.25,281.25 0 0 0 -1.34961,-0.410156 281.25,281.25 0 0 0 -1.35156,-0.402344 281.25,281.25 0 0 0 -1.35352,-0.396484 281.25,281.25 0 0 0 -1.35547,-0.388672 281.25,281.25 0 0 0 -1.35546,-0.382813 281.25,281.25 0 0 0 -1.35938,-0.375 281.25,281.25 0 0 0 -1.36133,-0.36914 281.25,281.25 0 0 0 -1.36328,-0.361328 281.25,281.25 0 0 0 -1.36523,-0.355469 281.25,281.25 0 0 0 -1.36719,-0.347656 281.25,281.25 0 0 0 -1.36719,-0.341797 281.25,281.25 0 0 0 -1.371092,-0.335938 281.25,281.25 0 0 0 -1.371094,-0.326172 281.25,281.25 0 0 0 -1.373047,-0.322265 281.25,281.25 0 0 0 -1.375,-0.3125 A 281.25,281.25 0 0 0 94.296874,21.59375 281.25,281.25 0 0 0 92.919921,21.294922 281.25,281.25 0 0 0 91.541015,21.001953 281.25,281.25 0 0 0 90.160155,20.714844 281.25,281.25 0 0 0 88.777343,20.435547 281.25,281.25 0 0 0 87.39453,20.164062 281.25,281.25 0 0 0 86.007811,19.898438 281.25,281.25 0 0 0 84.623046,19.638672 281.25,281.25 0 0 0 83.234374,19.386719 281.25,281.25 0 0 0 81.845702,19.142578 281.25,281.25 0 0 0 80.455077,18.904297 281.25,281.25 0 0 0 79.064452,18.673828 281.25,281.25 0 0 0 77.671874,18.451172 281.25,281.25 0 0 0 76.279296,18.234375 281.25,281.25 0 0 0 74.884765,18.023438 281.25,281.25 0 0 0 73.48828,17.822266 281.25,281.25 0 0 0 72.091796,17.625 281.25,281.25 0 0 0 70.695311,17.4375 281.25,281.25 0 0 0 69.296874,17.255859 281.25,281.25 0 0 0 67.896483,17.080078 281.25,281.25 0 0 0 66.496093,16.912109 281.25,281.25 0 0 0 65.095702,16.751953 281.25,281.25 0 0 0 63.693358,16.597656 281.25,281.25 0 0 0 62.291015,16.451172 281.25,281.25 0 0 0 60.886718,16.3125 a 281.25,281.25 0 0 0 -1.402344,-0.132812 281.25,281.25 0 0 0 -1.40625,-0.125 281.25,281.25 0 0 0 -1.404297,-0.119141 281.25,281.25 0 0 0 -1.40625,-0.111328 281.25,281.25 0 0 0 -1.40625,-0.103516 281.25,281.25 0 0 0 -1.40625,-0.09766 281.25,281.25 0 0 0 -1.408203,-0.08984 281.25,281.25 0 0 0 -1.40625,-0.08398 281.25,281.25 0 0 0 -1.408203,-0.07617 281.25,281.25 0 0 0 -1.410156,-0.06836 281.25,281.25 0 0 0 -1.408204,-0.0625 281.25,281.25 0 0 0 -1.408203,-0.05469 281.25,281.25 0 0 0 -1.410156,-0.04883 281.25,281.25 0 0 0 -1.410156,-0.04102 281.25,281.25 0 0 0 -1.410156,-0.0332 281.25,281.25 0 0 0 -1.410156,-0.02734 281.25,281.25 0 0 0 -1.408203,-0.01953 281.25,281.25 0 0 0 -1.412109,-0.01172 A 281.25,281.25 0 0 0 34.134766,15 h -0.769532 a 281.25,281.25 0 0 0 -1.410156,0.0059 281.25,281.25 0 0 0 -1.410156,0.01172 281.25,281.25 0 0 0 -1.410156,0.01953 281.25,281.25 0 0 0 -1.410157,0.02734 281.25,281.25 0 0 0 -1.410156,0.0332 281.25,281.25 0 0 0 -1.408203,0.04102 281.25,281.25 0 0 0 -1.410156,0.04883 281.25,281.25 0 0 0 -1.410156,0.05469 281.25,281.25 0 0 0 -1.408204,0.0625 281.25,281.25 0 0 0 -1.408203,0.06836 281.25,281.25 0 0 0 -1.408203,0.07617 281.25,281.25 0 0 0 -1.408203,0.08398 281.25,281.25 0 0 0 -0.865234,0.05469 v 0"
         transform="scale(0.26458333)" />
      <path
         id="path958"
         style="fill:none;fill-opacity:0.623529;stroke:#ff0000;stroke-width:2.26772;stroke-linecap:round;stroke-linejoin:round;stroke-miterlimit:4;stroke-dasharray:none;stroke-opacity:1"
         d="M 65.021484,264.97852 33.75,296.25 H 77.974609 A 44.224694,44.224694 0 0 0 65.021484,264.97852 Z"
         transform="scale(0.26458333)" />
      <path
         style="fill:none;stroke:#000000;stroke-width:0.6;stroke-linecap:round;stroke-linejoin:round;stroke-miterlimit:4;stroke-dasharray:none;stroke-opacity:1"
         d="M 8.9296874,78.382809 61.548496,25.764 v 52.618809 z"
         id="path950" />
      <path
         id="path952"
         style="fill:none;fill-opacity:0.615686;stroke:#000000;stroke-width:2.26772;stroke-linecap:round;stroke-linejoin:round;stroke-miterlimit:4;stroke-dasharray:none;stroke-opacity:1"
         d="M 232.625,256.48633 A 39.762969,39.762969 0 0 0 192.86133,296.25 H 232.625 Z"
         transform="scale(0.26458333)" />
      <circle
         style="fill:#000000;fill-opacity:1;stroke:#000000;stroke-width:0.6;stroke-linecap:round;stroke-linejoin:round;stroke-miterlimit:4;stroke-dasharray:none"
         id="path966"
         cx="57.555412"
         cy="74.362167"
         r="0.35544908" />
      <text
         xml:space="preserve"
         style="font-style:normal;font-variant:normal;font-weight:normal;font-stretch:normal;font-size:5.1944px;line-height:1.25;font-family:sans-serif;-inkscape-font-specification:sans-serif;fill:#ff0000;stroke-width:0.264583;stroke-linecap:round;stroke-linejoin:round"
         x="14.493639"
         y="77.149956"
         id="text970"><tspan
           sodipodi:role="line"
           id="tspan968"
           x="14.493639"
           y="77.149956"
           style="font-style:normal;font-variant:normal;font-weight:normal;font-stretch:normal;font-family:sans-serif;-inkscape-font-specification:sans-serif;fill:#ff0000;stroke-width:0.264583;stroke-linecap:round;stroke-linejoin:round">α</tspan></text>
      <text
         xml:space="preserve"
         style="font-style:normal;font-variant:normal;font-weight:normal;font-stretch:normal;font-size:5.1944px;line-height:1.25;font-family:sans-serif;-inkscape-font-specification:sans-serif;stroke-width:0.264583;stroke-linecap:round;stroke-linejoin:round"
         x="12.598275"
         y="2.1434574"
         id="text974"><tspan
           sodipodi:role="line"
           id="tspan972"
           x="12.598275"
           y="2.1434574"
           style="font-style:normal;font-variant:normal;font-weight:normal;font-stretch:normal;font-family:sans-serif;-inkscape-font-specification:sans-serif;stroke-width:0.264583;stroke-linecap:round;stroke-linejoin:round">y</tspan></text>
      <text
         xml:space="preserve"
         style="font-style:normal;font-variant:normal;font-weight:normal;font-stretch:normal;font-size:5.1944px;line-height:1.25;font-family:sans-serif;-inkscape-font-specification:sans-serif;stroke-width:0.264583;stroke-linecap:round;stroke-linejoin:round"
         x="84.870735"
         y="83.753525"
         id="text978"><tspan
           sodipodi:role="line"
           id="tspan976"
           x="84.870735"
           y="83.753525"
           style="font-style:normal;font-variant:normal;font-weight:normal;font-stretch:normal;font-family:sans-serif;-inkscape-font-specification:sans-serif;stroke-width:0.264583;stroke-linecap:round;stroke-linejoin:round">x</tspan></text>
      <text
         xml:space="preserve"
         style="font-style:normal;font-variant:normal;font-weight:normal;font-stretch:normal;font-size:5.1944px;line-height:1.25;font-family:sans-serif;-inkscape-font-specification:sans-serif;fill:#00ff00;fill-opacity:1;stroke-width:0.264583;stroke-linecap:round;stroke-linejoin:round"
         x="29.511581"
         y="76.903275"
         id="text982"><tspan
           sodipodi:role="line"
           id="tspan980"
           x="29.511581"
           y="76.903275"
           style="font-style:normal;font-variant:normal;font-weight:normal;font-stretch:normal;font-family:sans-serif;-inkscape-font-specification:sans-serif;fill:#00ff00;fill-opacity:1;stroke-width:0.264583;stroke-linecap:round;stroke-linejoin:round">cos(α)</tspan></text>
      <text
         xml:space="preserve"
         style="font-style:normal;font-variant:normal;font-weight:normal;font-stretch:normal;font-size:5.1944px;line-height:1.25;font-family:sans-serif;-inkscape-font-specification:sans-serif;fill:#0000ff;fill-opacity:1;stroke:none;stroke-width:0.264583;stroke-linecap:round;stroke-linejoin:round"
         x="62.381603"
         y="56.40649"
         id="text986"><tspan
           sodipodi:role="line"
           id="tspan984"
           x="62.381603"
           y="56.40649"
           style="font-style:normal;font-variant:normal;font-weight:normal;font-stretch:normal;font-family:sans-serif;-inkscape-font-specification:sans-serif;fill:#0000ff;fill-opacity:1;stroke:none;stroke-width:0.264583;stroke-linecap:round;stroke-linejoin:round">sin(α)</tspan></text>
      <path
         style="fill:none;stroke:#00ff00;stroke-width:1;stroke-linecap:round;stroke-linejoin:round;stroke-miterlimit:4;stroke-dasharray:none;stroke-opacity:1"
         d="M 8.9296898,78.382809 H 61.548697"
         id="path1159" />
      <path
         style="fill:none;stroke:#0000ff;stroke-width:1;stroke-linecap:round;stroke-linejoin:round;stroke-miterlimit:4;stroke-dasharray:none;stroke-opacity:1"
         d="M 61.548496,78.382809 V 25.764"
         id="path1161" />
      <text
         xml:space="preserve"
         style="font-style:normal;font-variant:normal;font-weight:normal;font-stretch:normal;font-size:5.1944px;line-height:1.25;font-family:sans-serif;-inkscape-font-specification:sans-serif;stroke-width:0.264583;stroke-linecap:round;stroke-linejoin:round"
         x="62.767414"
         y="25.717489"
         id="text867"><tspan
           sodipodi:role="line"
           id="tspan865"
           x="62.767414"
           y="25.717489"
           style="font-style:normal;font-variant:normal;font-weight:normal;font-stretch:normal;font-family:sans-serif;-inkscape-font-specification:sans-serif;stroke-width:0.264583;stroke-linecap:round;stroke-linejoin:round">P</tspan></text>
      <text
         xml:space="preserve"
         style="font-style:normal;font-variant:normal;font-weight:normal;font-stretch:normal;font-size:5.1944px;line-height:1.25;font-family:sans-serif;-inkscape-font-specification:sans-serif;stroke-width:0.264583;stroke-linecap:round;stroke-linejoin:round"
         x="79.360321"
         y="86.308952"
         id="text873"><tspan
           sodipodi:role="line"
           id="tspan871"
           x="79.360321"
           y="86.308952"
           style="font-style:normal;font-variant:normal;font-weight:normal;font-stretch:normal;font-family:sans-serif;-inkscape-font-specification:sans-serif;stroke-width:0.264583;stroke-linecap:round;stroke-linejoin:round">1</tspan></text>
      <text
         xml:space="preserve"
         style="font-style:normal;font-variant:normal;font-weight:normal;font-stretch:normal;font-size:5.1944px;line-height:1.25;font-family:sans-serif;-inkscape-font-specification:sans-serif;stroke-width:0.264583;stroke-linecap:round;stroke-linejoin:round"
         x="0.21127158"
         y="5.8946333"
         id="text877"><tspan
           sodipodi:role="line"
           id="tspan875"
           x="0.21127158"
           y="5.8946333"
           style="font-style:normal;font-variant:normal;font-weight:normal;font-stretch:normal;font-family:sans-serif;-inkscape-font-specification:sans-serif;stroke-width:0.264583;stroke-linecap:round;stroke-linejoin:round">1</tspan></text>
      <text
         xml:space="preserve"
         style="font-style:normal;font-variant:normal;font-weight:normal;font-stretch:normal;font-size:5.1944px;line-height:1.25;font-family:sans-serif;-inkscape-font-specification:sans-serif;stroke-width:0.264583;stroke-linecap:round;stroke-linejoin:round"
         x="4.435401"
         y="83.415176"
         id="text880"><tspan
           sodipodi:role="line"
           id="tspan878"
           x="4.435401"
           y="83.415176"
           style="font-style:normal;font-variant:normal;font-weight:normal;font-stretch:normal;font-family:sans-serif;-inkscape-font-specification:sans-serif;stroke-width:0.264583;stroke-linecap:round;stroke-linejoin:round">0</tspan></text>
    </g>
  </g>
</svg>
